%TF.GenerationSoftware,Flux,Pcbnew,7.0.6-7.0.6~ubuntu20.04.1*%
%TF.CreationDate,2023-09-03T01:02:40+00:00*%
%TF.ProjectId,input,696e7075-742e-46b6-9963-61645f706362,rev?*%
%TF.SameCoordinates,Original*%
%TF.FileFunction,Legend,Top*%
%TF.FilePolarity,Positive*%
%FSLAX46Y46*%
G04 Gerber Fmt 4.6, Leading zero omitted, Abs format (unit mm)*
G04 Filename: preprototiposecadosv3*
G04 Build it with Flux! Visit our site at: https://www.flux.ai (PCBNEW 7.0.6-7.0.6~ubuntu20.04.1) date 2023-09-03 01:02:40*
%MOMM*%
%LPD*%
G01*
G04 APERTURE LIST*
%ADD10C,0.237500*%
%ADD11C,0.047500*%
%ADD12C,0.095000*%
%ADD13C,0.037402*%
%ADD14C,0.093100*%
%ADD15C,0.076038*%
%ADD16C,0.038000*%
%ADD17C,0.100000*%
G04 APERTURE END LIST*
D10*
X24341488Y-9126159D02*
X22341488Y-9126159D01*
X22341488Y-9126159D02*
X22341488Y-8364254D01*
X22341488Y-8364254D02*
X22436726Y-8173778D01*
X22436726Y-8173778D02*
X22531964Y-8078540D01*
X22531964Y-8078540D02*
X22722440Y-7983302D01*
X22722440Y-7983302D02*
X23008154Y-7983302D01*
X23008154Y-7983302D02*
X23198630Y-8078540D01*
X23198630Y-8078540D02*
X23293869Y-8173778D01*
X23293869Y-8173778D02*
X23389107Y-8364254D01*
X23389107Y-8364254D02*
X23389107Y-9126159D01*
X24341488Y-5983302D02*
X23389107Y-6649969D01*
X24341488Y-7126159D02*
X22341488Y-7126159D01*
X22341488Y-7126159D02*
X22341488Y-6364254D01*
X22341488Y-6364254D02*
X22436726Y-6173778D01*
X22436726Y-6173778D02*
X22531964Y-6078540D01*
X22531964Y-6078540D02*
X22722440Y-5983302D01*
X22722440Y-5983302D02*
X23008154Y-5983302D01*
X23008154Y-5983302D02*
X23198630Y-6078540D01*
X23198630Y-6078540D02*
X23293869Y-6173778D01*
X23293869Y-6173778D02*
X23389107Y-6364254D01*
X23389107Y-6364254D02*
X23389107Y-7126159D01*
X23293869Y-5126159D02*
X23293869Y-4459492D01*
X24341488Y-4173778D02*
X24341488Y-5126159D01*
X24341488Y-5126159D02*
X22341488Y-5126159D01*
X22341488Y-5126159D02*
X22341488Y-4173778D01*
X23674821Y-3507111D02*
X23674821Y-2935683D01*
X24246250Y-2269016D02*
X24341488Y-1983302D01*
X24341488Y-1983302D02*
X24341488Y-1507111D01*
X24341488Y-1507111D02*
X24246250Y-1316635D01*
X24246250Y-1316635D02*
X24151011Y-1221397D01*
X24151011Y-1221397D02*
X23960535Y-1126159D01*
X23960535Y-1126159D02*
X23770059Y-1126159D01*
X23770059Y-1126159D02*
X23579583Y-1221397D01*
X23579583Y-1221397D02*
X23484345Y-1316635D01*
X23484345Y-1316635D02*
X23389107Y-1507111D01*
X23389107Y-1507111D02*
X23293869Y-1888064D01*
X23293869Y-1888064D02*
X23198630Y-2078540D01*
X23198630Y-2078540D02*
X23103392Y-2173778D01*
X23103392Y-2173778D02*
X22912916Y-2269016D01*
X22912916Y-2269016D02*
X22722440Y-2269016D01*
X22722440Y-2269016D02*
X22531964Y-2173778D01*
X22531964Y-2173778D02*
X22436726Y-2078540D01*
X22436726Y-2078540D02*
X22341488Y-1888064D01*
X22341488Y-1888064D02*
X22341488Y-1411873D01*
X22341488Y-1411873D02*
X22436726Y-1126159D01*
X24341488Y16697D02*
X24246250Y-173778D01*
X24246250Y-173778D02*
X24151011Y-269016D01*
X24151011Y-269016D02*
X23960535Y-364254D01*
X23960535Y-364254D02*
X23389107Y-364254D01*
X23389107Y-364254D02*
X23198630Y-269016D01*
X23198630Y-269016D02*
X23103392Y-173778D01*
X23103392Y-173778D02*
X23008154Y16697D01*
X23008154Y16697D02*
X23008154Y302412D01*
X23008154Y302412D02*
X23103392Y492888D01*
X23103392Y492888D02*
X23198630Y588126D01*
X23198630Y588126D02*
X23389107Y683364D01*
X23389107Y683364D02*
X23960535Y683364D01*
X23960535Y683364D02*
X24151011Y588126D01*
X24151011Y588126D02*
X24246250Y492888D01*
X24246250Y492888D02*
X24341488Y302412D01*
X24341488Y302412D02*
X24341488Y16697D01*
X24341488Y1826221D02*
X24246250Y1635745D01*
X24246250Y1635745D02*
X24055773Y1540507D01*
X24055773Y1540507D02*
X22341488Y1540507D01*
X24341488Y3445269D02*
X23293869Y3445269D01*
X23293869Y3445269D02*
X23103392Y3350031D01*
X23103392Y3350031D02*
X23008154Y3159555D01*
X23008154Y3159555D02*
X23008154Y2778602D01*
X23008154Y2778602D02*
X23103392Y2588126D01*
X24246250Y3445269D02*
X24341488Y3254793D01*
X24341488Y3254793D02*
X24341488Y2778602D01*
X24341488Y2778602D02*
X24246250Y2588126D01*
X24246250Y2588126D02*
X24055773Y2492888D01*
X24055773Y2492888D02*
X23865297Y2492888D01*
X23865297Y2492888D02*
X23674821Y2588126D01*
X23674821Y2588126D02*
X23579583Y2778602D01*
X23579583Y2778602D02*
X23579583Y3254793D01*
X23579583Y3254793D02*
X23484345Y3445269D01*
X24341488Y4397650D02*
X23008154Y4397650D01*
X23389107Y4397650D02*
X23198630Y4492888D01*
X23198630Y4492888D02*
X23103392Y4588126D01*
X23103392Y4588126D02*
X23008154Y4778602D01*
X23008154Y4778602D02*
X23008154Y4969079D01*
X24341488Y6207174D02*
X22341488Y6207174D01*
X22341488Y6207174D02*
X22341488Y6683364D01*
X22341488Y6683364D02*
X22436726Y6969079D01*
X22436726Y6969079D02*
X22627202Y7159555D01*
X22627202Y7159555D02*
X22817678Y7254793D01*
X22817678Y7254793D02*
X23198630Y7350031D01*
X23198630Y7350031D02*
X23484345Y7350031D01*
X23484345Y7350031D02*
X23865297Y7254793D01*
X23865297Y7254793D02*
X24055773Y7159555D01*
X24055773Y7159555D02*
X24246250Y6969079D01*
X24246250Y6969079D02*
X24341488Y6683364D01*
X24341488Y6683364D02*
X24341488Y6207174D01*
X24341488Y8207174D02*
X23008154Y8207174D01*
X23389107Y8207174D02*
X23198630Y8302412D01*
X23198630Y8302412D02*
X23103392Y8397650D01*
X23103392Y8397650D02*
X23008154Y8588126D01*
X23008154Y8588126D02*
X23008154Y8778603D01*
X23008154Y9254793D02*
X24341488Y9730983D01*
X23008154Y10207174D02*
X24341488Y9730983D01*
X24341488Y9730983D02*
X24817678Y9540507D01*
X24817678Y9540507D02*
X24912916Y9445269D01*
X24912916Y9445269D02*
X25008154Y9254793D01*
X24246250Y11730984D02*
X24341488Y11540508D01*
X24341488Y11540508D02*
X24341488Y11159555D01*
X24341488Y11159555D02*
X24246250Y10969079D01*
X24246250Y10969079D02*
X24055773Y10873841D01*
X24055773Y10873841D02*
X23293869Y10873841D01*
X23293869Y10873841D02*
X23103392Y10969079D01*
X23103392Y10969079D02*
X23008154Y11159555D01*
X23008154Y11159555D02*
X23008154Y11540508D01*
X23008154Y11540508D02*
X23103392Y11730984D01*
X23103392Y11730984D02*
X23293869Y11826222D01*
X23293869Y11826222D02*
X23484345Y11826222D01*
X23484345Y11826222D02*
X23674821Y10873841D01*
X24341488Y12683365D02*
X23008154Y12683365D01*
X23389107Y12683365D02*
X23198630Y12778603D01*
X23198630Y12778603D02*
X23103392Y12873841D01*
X23103392Y12873841D02*
X23008154Y13064317D01*
X23008154Y13064317D02*
X23008154Y13254794D01*
X22341488Y14207175D02*
X24341488Y14873841D01*
X24341488Y14873841D02*
X22341488Y15540508D01*
X24341488Y17254794D02*
X24341488Y16111937D01*
X24341488Y16683365D02*
X22341488Y16683365D01*
X22341488Y16683365D02*
X22627202Y16492889D01*
X22627202Y16492889D02*
X22817678Y16302413D01*
X22817678Y16302413D02*
X22912916Y16111937D01*
D11*
X12089862Y26835522D02*
X11899386Y26835522D01*
X11899386Y26835522D02*
X11880338Y26645046D01*
X11880338Y26645046D02*
X11899386Y26664093D01*
X11899386Y26664093D02*
X11937481Y26683141D01*
X11937481Y26683141D02*
X12032719Y26683141D01*
X12032719Y26683141D02*
X12070814Y26664093D01*
X12070814Y26664093D02*
X12089862Y26645046D01*
X12089862Y26645046D02*
X12108909Y26606950D01*
X12108909Y26606950D02*
X12108909Y26511712D01*
X12108909Y26511712D02*
X12089862Y26473617D01*
X12089862Y26473617D02*
X12070814Y26454570D01*
X12070814Y26454570D02*
X12032719Y26435522D01*
X12032719Y26435522D02*
X11937481Y26435522D01*
X11937481Y26435522D02*
X11899386Y26454570D01*
X11899386Y26454570D02*
X11880338Y26473617D01*
X12394624Y26435522D02*
X12394624Y26702189D01*
X12394624Y26664093D02*
X12413671Y26683141D01*
X12413671Y26683141D02*
X12451766Y26702189D01*
X12451766Y26702189D02*
X12508909Y26702189D01*
X12508909Y26702189D02*
X12547005Y26683141D01*
X12547005Y26683141D02*
X12566052Y26645046D01*
X12566052Y26645046D02*
X12566052Y26435522D01*
X12566052Y26645046D02*
X12585100Y26683141D01*
X12585100Y26683141D02*
X12623195Y26702189D01*
X12623195Y26702189D02*
X12680338Y26702189D01*
X12680338Y26702189D02*
X12718433Y26683141D01*
X12718433Y26683141D02*
X12737481Y26645046D01*
X12737481Y26645046D02*
X12737481Y26435522D01*
X12927957Y26435522D02*
X12927957Y26702189D01*
X12927957Y26664093D02*
X12947004Y26683141D01*
X12947004Y26683141D02*
X12985099Y26702189D01*
X12985099Y26702189D02*
X13042242Y26702189D01*
X13042242Y26702189D02*
X13080338Y26683141D01*
X13080338Y26683141D02*
X13099385Y26645046D01*
X13099385Y26645046D02*
X13099385Y26435522D01*
X13099385Y26645046D02*
X13118433Y26683141D01*
X13118433Y26683141D02*
X13156528Y26702189D01*
X13156528Y26702189D02*
X13213671Y26702189D01*
X13213671Y26702189D02*
X13251766Y26683141D01*
X13251766Y26683141D02*
X13270814Y26645046D01*
X13270814Y26645046D02*
X13270814Y26435522D01*
X-6910137Y22135522D02*
X-7100613Y22135522D01*
X-7100613Y22135522D02*
X-7119661Y21945046D01*
X-7119661Y21945046D02*
X-7100613Y21964093D01*
X-7100613Y21964093D02*
X-7062518Y21983141D01*
X-7062518Y21983141D02*
X-6967280Y21983141D01*
X-6967280Y21983141D02*
X-6929185Y21964093D01*
X-6929185Y21964093D02*
X-6910137Y21945046D01*
X-6910137Y21945046D02*
X-6891090Y21906950D01*
X-6891090Y21906950D02*
X-6891090Y21811712D01*
X-6891090Y21811712D02*
X-6910137Y21773617D01*
X-6910137Y21773617D02*
X-6929185Y21754570D01*
X-6929185Y21754570D02*
X-6967280Y21735522D01*
X-6967280Y21735522D02*
X-7062518Y21735522D01*
X-7062518Y21735522D02*
X-7100613Y21754570D01*
X-7100613Y21754570D02*
X-7119661Y21773617D01*
X-6605375Y21735522D02*
X-6605375Y22002189D01*
X-6605375Y21964093D02*
X-6586328Y21983141D01*
X-6586328Y21983141D02*
X-6548233Y22002189D01*
X-6548233Y22002189D02*
X-6491090Y22002189D01*
X-6491090Y22002189D02*
X-6452994Y21983141D01*
X-6452994Y21983141D02*
X-6433947Y21945046D01*
X-6433947Y21945046D02*
X-6433947Y21735522D01*
X-6433947Y21945046D02*
X-6414899Y21983141D01*
X-6414899Y21983141D02*
X-6376804Y22002189D01*
X-6376804Y22002189D02*
X-6319661Y22002189D01*
X-6319661Y22002189D02*
X-6281566Y21983141D01*
X-6281566Y21983141D02*
X-6262518Y21945046D01*
X-6262518Y21945046D02*
X-6262518Y21735522D01*
X-6072042Y21735522D02*
X-6072042Y22002189D01*
X-6072042Y21964093D02*
X-6052995Y21983141D01*
X-6052995Y21983141D02*
X-6014900Y22002189D01*
X-6014900Y22002189D02*
X-5957757Y22002189D01*
X-5957757Y22002189D02*
X-5919661Y21983141D01*
X-5919661Y21983141D02*
X-5900614Y21945046D01*
X-5900614Y21945046D02*
X-5900614Y21735522D01*
X-5900614Y21945046D02*
X-5881566Y21983141D01*
X-5881566Y21983141D02*
X-5843471Y22002189D01*
X-5843471Y22002189D02*
X-5786328Y22002189D01*
X-5786328Y22002189D02*
X-5748233Y21983141D01*
X-5748233Y21983141D02*
X-5729185Y21945046D01*
X-5729185Y21945046D02*
X-5729185Y21735522D01*
X16089862Y22135522D02*
X15899386Y22135522D01*
X15899386Y22135522D02*
X15880338Y21945046D01*
X15880338Y21945046D02*
X15899386Y21964093D01*
X15899386Y21964093D02*
X15937481Y21983141D01*
X15937481Y21983141D02*
X16032719Y21983141D01*
X16032719Y21983141D02*
X16070814Y21964093D01*
X16070814Y21964093D02*
X16089862Y21945046D01*
X16089862Y21945046D02*
X16108909Y21906950D01*
X16108909Y21906950D02*
X16108909Y21811712D01*
X16108909Y21811712D02*
X16089862Y21773617D01*
X16089862Y21773617D02*
X16070814Y21754570D01*
X16070814Y21754570D02*
X16032719Y21735522D01*
X16032719Y21735522D02*
X15937481Y21735522D01*
X15937481Y21735522D02*
X15899386Y21754570D01*
X15899386Y21754570D02*
X15880338Y21773617D01*
X16394624Y21735522D02*
X16394624Y22002189D01*
X16394624Y21964093D02*
X16413671Y21983141D01*
X16413671Y21983141D02*
X16451766Y22002189D01*
X16451766Y22002189D02*
X16508909Y22002189D01*
X16508909Y22002189D02*
X16547005Y21983141D01*
X16547005Y21983141D02*
X16566052Y21945046D01*
X16566052Y21945046D02*
X16566052Y21735522D01*
X16566052Y21945046D02*
X16585100Y21983141D01*
X16585100Y21983141D02*
X16623195Y22002189D01*
X16623195Y22002189D02*
X16680338Y22002189D01*
X16680338Y22002189D02*
X16718433Y21983141D01*
X16718433Y21983141D02*
X16737481Y21945046D01*
X16737481Y21945046D02*
X16737481Y21735522D01*
X16927957Y21735522D02*
X16927957Y22002189D01*
X16927957Y21964093D02*
X16947004Y21983141D01*
X16947004Y21983141D02*
X16985099Y22002189D01*
X16985099Y22002189D02*
X17042242Y22002189D01*
X17042242Y22002189D02*
X17080338Y21983141D01*
X17080338Y21983141D02*
X17099385Y21945046D01*
X17099385Y21945046D02*
X17099385Y21735522D01*
X17099385Y21945046D02*
X17118433Y21983141D01*
X17118433Y21983141D02*
X17156528Y22002189D01*
X17156528Y22002189D02*
X17213671Y22002189D01*
X17213671Y22002189D02*
X17251766Y21983141D01*
X17251766Y21983141D02*
X17270814Y21945046D01*
X17270814Y21945046D02*
X17270814Y21735522D01*
D12*
X2575575Y20406516D02*
X2956528Y20406516D01*
X2499385Y20177944D02*
X2766052Y20977944D01*
X2766052Y20977944D02*
X3032718Y20177944D01*
X3299385Y20711278D02*
X3299385Y20177944D01*
X3299385Y20635087D02*
X3337480Y20673182D01*
X3337480Y20673182D02*
X3413670Y20711278D01*
X3413670Y20711278D02*
X3527956Y20711278D01*
X3527956Y20711278D02*
X3604147Y20673182D01*
X3604147Y20673182D02*
X3642242Y20596992D01*
X3642242Y20596992D02*
X3642242Y20177944D01*
X3908909Y20711278D02*
X4213671Y20711278D01*
X4023195Y20977944D02*
X4023195Y20292230D01*
X4023195Y20292230D02*
X4061290Y20216040D01*
X4061290Y20216040D02*
X4137480Y20177944D01*
X4137480Y20177944D02*
X4213671Y20177944D01*
X4785100Y20216040D02*
X4708909Y20177944D01*
X4708909Y20177944D02*
X4556528Y20177944D01*
X4556528Y20177944D02*
X4480338Y20216040D01*
X4480338Y20216040D02*
X4442242Y20292230D01*
X4442242Y20292230D02*
X4442242Y20596992D01*
X4442242Y20596992D02*
X4480338Y20673182D01*
X4480338Y20673182D02*
X4556528Y20711278D01*
X4556528Y20711278D02*
X4708909Y20711278D01*
X4708909Y20711278D02*
X4785100Y20673182D01*
X4785100Y20673182D02*
X4823195Y20596992D01*
X4823195Y20596992D02*
X4823195Y20520801D01*
X4823195Y20520801D02*
X4442242Y20444611D01*
X5166052Y20711278D02*
X5166052Y20177944D01*
X5166052Y20635087D02*
X5204147Y20673182D01*
X5204147Y20673182D02*
X5280337Y20711278D01*
X5280337Y20711278D02*
X5394623Y20711278D01*
X5394623Y20711278D02*
X5470814Y20673182D01*
X5470814Y20673182D02*
X5508909Y20596992D01*
X5508909Y20596992D02*
X5508909Y20177944D01*
X5889862Y20711278D02*
X5889862Y20177944D01*
X5889862Y20635087D02*
X5927957Y20673182D01*
X5927957Y20673182D02*
X6004147Y20711278D01*
X6004147Y20711278D02*
X6118433Y20711278D01*
X6118433Y20711278D02*
X6194624Y20673182D01*
X6194624Y20673182D02*
X6232719Y20596992D01*
X6232719Y20596992D02*
X6232719Y20177944D01*
X6956529Y20177944D02*
X6956529Y20596992D01*
X6956529Y20596992D02*
X6918434Y20673182D01*
X6918434Y20673182D02*
X6842243Y20711278D01*
X6842243Y20711278D02*
X6689862Y20711278D01*
X6689862Y20711278D02*
X6613672Y20673182D01*
X6956529Y20216040D02*
X6880338Y20177944D01*
X6880338Y20177944D02*
X6689862Y20177944D01*
X6689862Y20177944D02*
X6613672Y20216040D01*
X6613672Y20216040D02*
X6575576Y20292230D01*
X6575576Y20292230D02*
X6575576Y20368420D01*
X6575576Y20368420D02*
X6613672Y20444611D01*
X6613672Y20444611D02*
X6689862Y20482706D01*
X6689862Y20482706D02*
X6880338Y20482706D01*
X6880338Y20482706D02*
X6956529Y20520801D01*
X385100Y26177944D02*
X385100Y26977944D01*
X842243Y26177944D02*
X499385Y26635087D01*
X842243Y26977944D02*
X385100Y26520801D01*
X1185100Y26596992D02*
X1451766Y26596992D01*
X1566052Y26177944D02*
X1185100Y26177944D01*
X1185100Y26177944D02*
X1185100Y26977944D01*
X1185100Y26977944D02*
X1566052Y26977944D01*
X1908910Y26596992D02*
X2175576Y26596992D01*
X2289862Y26177944D02*
X1908910Y26177944D01*
X1908910Y26177944D02*
X1908910Y26977944D01*
X1908910Y26977944D02*
X2289862Y26977944D01*
X2632720Y26177944D02*
X2632720Y26977944D01*
X2632720Y26977944D02*
X2937482Y26977944D01*
X2937482Y26977944D02*
X3013672Y26939849D01*
X3013672Y26939849D02*
X3051767Y26901754D01*
X3051767Y26901754D02*
X3089863Y26825563D01*
X3089863Y26825563D02*
X3089863Y26711278D01*
X3089863Y26711278D02*
X3051767Y26635087D01*
X3051767Y26635087D02*
X3013672Y26596992D01*
X3013672Y26596992D02*
X2937482Y26558897D01*
X2937482Y26558897D02*
X2632720Y26558897D01*
X3356529Y26444611D02*
X3585101Y26444611D01*
X4042244Y26977944D02*
X4194625Y26977944D01*
X4194625Y26977944D02*
X4270815Y26939849D01*
X4270815Y26939849D02*
X4347006Y26863659D01*
X4347006Y26863659D02*
X4385101Y26711278D01*
X4385101Y26711278D02*
X4385101Y26444611D01*
X4385101Y26444611D02*
X4347006Y26292230D01*
X4347006Y26292230D02*
X4270815Y26216040D01*
X4270815Y26216040D02*
X4194625Y26177944D01*
X4194625Y26177944D02*
X4042244Y26177944D01*
X4042244Y26177944D02*
X3966053Y26216040D01*
X3966053Y26216040D02*
X3889863Y26292230D01*
X3889863Y26292230D02*
X3851767Y26444611D01*
X3851767Y26444611D02*
X3851767Y26711278D01*
X3851767Y26711278D02*
X3889863Y26863659D01*
X3889863Y26863659D02*
X3966053Y26939849D01*
X3966053Y26939849D02*
X4042244Y26977944D01*
X4727958Y26977944D02*
X4727958Y26330325D01*
X4727958Y26330325D02*
X4766053Y26254135D01*
X4766053Y26254135D02*
X4804148Y26216040D01*
X4804148Y26216040D02*
X4880339Y26177944D01*
X4880339Y26177944D02*
X5032720Y26177944D01*
X5032720Y26177944D02*
X5108910Y26216040D01*
X5108910Y26216040D02*
X5147005Y26254135D01*
X5147005Y26254135D02*
X5185101Y26330325D01*
X5185101Y26330325D02*
X5185101Y26977944D01*
X5451767Y26977944D02*
X5908910Y26977944D01*
X5680338Y26177944D02*
X5680338Y26977944D01*
X6327957Y26977944D02*
X6861291Y26977944D01*
X6861291Y26977944D02*
X6327957Y26177944D01*
X6327957Y26177944D02*
X6861291Y26177944D01*
X7318434Y26977944D02*
X7470815Y26977944D01*
X7470815Y26977944D02*
X7547005Y26939849D01*
X7547005Y26939849D02*
X7623196Y26863659D01*
X7623196Y26863659D02*
X7661291Y26711278D01*
X7661291Y26711278D02*
X7661291Y26444611D01*
X7661291Y26444611D02*
X7623196Y26292230D01*
X7623196Y26292230D02*
X7547005Y26216040D01*
X7547005Y26216040D02*
X7470815Y26177944D01*
X7470815Y26177944D02*
X7318434Y26177944D01*
X7318434Y26177944D02*
X7242243Y26216040D01*
X7242243Y26216040D02*
X7166053Y26292230D01*
X7166053Y26292230D02*
X7127957Y26444611D01*
X7127957Y26444611D02*
X7127957Y26711278D01*
X7127957Y26711278D02*
X7166053Y26863659D01*
X7166053Y26863659D02*
X7242243Y26939849D01*
X7242243Y26939849D02*
X7318434Y26977944D01*
X8004148Y26177944D02*
X8004148Y26977944D01*
X8004148Y26977944D02*
X8461291Y26177944D01*
X8461291Y26177944D02*
X8461291Y26977944D01*
X8842243Y26596992D02*
X9108909Y26596992D01*
X9223195Y26177944D02*
X8842243Y26177944D01*
X8842243Y26177944D02*
X8842243Y26977944D01*
X8842243Y26977944D02*
X9223195Y26977944D01*
X4175576Y7977944D02*
X4175576Y7330325D01*
X4175576Y7330325D02*
X4213671Y7254135D01*
X4213671Y7254135D02*
X4251766Y7216040D01*
X4251766Y7216040D02*
X4327957Y7177944D01*
X4327957Y7177944D02*
X4480338Y7177944D01*
X4480338Y7177944D02*
X4556528Y7216040D01*
X4556528Y7216040D02*
X4594623Y7254135D01*
X4594623Y7254135D02*
X4632719Y7330325D01*
X4632719Y7330325D02*
X4632719Y7977944D01*
X5432718Y7177944D02*
X4975575Y7177944D01*
X5204147Y7177944D02*
X5204147Y7977944D01*
X5204147Y7977944D02*
X5127956Y7863659D01*
X5127956Y7863659D02*
X5051766Y7787468D01*
X5051766Y7787468D02*
X4975575Y7749373D01*
X-300614Y-3903007D02*
X-33948Y-3903007D01*
X80337Y-4322055D02*
X-300614Y-4322055D01*
X-300614Y-4322055D02*
X-300614Y-3522055D01*
X-300614Y-3522055D02*
X80337Y-3522055D01*
X385099Y-4283960D02*
X499385Y-4322055D01*
X499385Y-4322055D02*
X689861Y-4322055D01*
X689861Y-4322055D02*
X766052Y-4283960D01*
X766052Y-4283960D02*
X804147Y-4245864D01*
X804147Y-4245864D02*
X842242Y-4169674D01*
X842242Y-4169674D02*
X842242Y-4093483D01*
X842242Y-4093483D02*
X804147Y-4017293D01*
X804147Y-4017293D02*
X766052Y-3979198D01*
X766052Y-3979198D02*
X689861Y-3941102D01*
X689861Y-3941102D02*
X537480Y-3903007D01*
X537480Y-3903007D02*
X461290Y-3864912D01*
X461290Y-3864912D02*
X423195Y-3826817D01*
X423195Y-3826817D02*
X385099Y-3750626D01*
X385099Y-3750626D02*
X385099Y-3674436D01*
X385099Y-3674436D02*
X423195Y-3598245D01*
X423195Y-3598245D02*
X461290Y-3560150D01*
X461290Y-3560150D02*
X537480Y-3522055D01*
X537480Y-3522055D02*
X727957Y-3522055D01*
X727957Y-3522055D02*
X842242Y-3560150D01*
X1185100Y-4322055D02*
X1185100Y-3522055D01*
X1185100Y-3522055D02*
X1489862Y-3522055D01*
X1489862Y-3522055D02*
X1566052Y-3560150D01*
X1566052Y-3560150D02*
X1604147Y-3598245D01*
X1604147Y-3598245D02*
X1642243Y-3674436D01*
X1642243Y-3674436D02*
X1642243Y-3788721D01*
X1642243Y-3788721D02*
X1604147Y-3864912D01*
X1604147Y-3864912D02*
X1566052Y-3903007D01*
X1566052Y-3903007D02*
X1489862Y-3941102D01*
X1489862Y-3941102D02*
X1185100Y-3941102D01*
X1908909Y-3522055D02*
X2404147Y-3522055D01*
X2404147Y-3522055D02*
X2137481Y-3826817D01*
X2137481Y-3826817D02*
X2251766Y-3826817D01*
X2251766Y-3826817D02*
X2327957Y-3864912D01*
X2327957Y-3864912D02*
X2366052Y-3903007D01*
X2366052Y-3903007D02*
X2404147Y-3979198D01*
X2404147Y-3979198D02*
X2404147Y-4169674D01*
X2404147Y-4169674D02*
X2366052Y-4245864D01*
X2366052Y-4245864D02*
X2327957Y-4283960D01*
X2327957Y-4283960D02*
X2251766Y-4322055D01*
X2251766Y-4322055D02*
X2023195Y-4322055D01*
X2023195Y-4322055D02*
X1947004Y-4283960D01*
X1947004Y-4283960D02*
X1908909Y-4245864D01*
X2708909Y-3598245D02*
X2747005Y-3560150D01*
X2747005Y-3560150D02*
X2823195Y-3522055D01*
X2823195Y-3522055D02*
X3013671Y-3522055D01*
X3013671Y-3522055D02*
X3089862Y-3560150D01*
X3089862Y-3560150D02*
X3127957Y-3598245D01*
X3127957Y-3598245D02*
X3166052Y-3674436D01*
X3166052Y-3674436D02*
X3166052Y-3750626D01*
X3166052Y-3750626D02*
X3127957Y-3864912D01*
X3127957Y-3864912D02*
X2670814Y-4322055D01*
X2670814Y-4322055D02*
X3166052Y-4322055D01*
X3432719Y-4055388D02*
X3661291Y-4055388D01*
X3889862Y-3522055D02*
X4080338Y-4322055D01*
X4080338Y-4322055D02*
X4232719Y-3750626D01*
X4232719Y-3750626D02*
X4385100Y-4322055D01*
X4385100Y-4322055D02*
X4575577Y-3522055D01*
X5337482Y-4322055D02*
X5070815Y-3941102D01*
X4880339Y-4322055D02*
X4880339Y-3522055D01*
X4880339Y-3522055D02*
X5185101Y-3522055D01*
X5185101Y-3522055D02*
X5261291Y-3560150D01*
X5261291Y-3560150D02*
X5299386Y-3598245D01*
X5299386Y-3598245D02*
X5337482Y-3674436D01*
X5337482Y-3674436D02*
X5337482Y-3788721D01*
X5337482Y-3788721D02*
X5299386Y-3864912D01*
X5299386Y-3864912D02*
X5261291Y-3903007D01*
X5261291Y-3903007D02*
X5185101Y-3941102D01*
X5185101Y-3941102D02*
X4880339Y-3941102D01*
X5832720Y-3522055D02*
X5985101Y-3522055D01*
X5985101Y-3522055D02*
X6061291Y-3560150D01*
X6061291Y-3560150D02*
X6137482Y-3636340D01*
X6137482Y-3636340D02*
X6175577Y-3788721D01*
X6175577Y-3788721D02*
X6175577Y-4055388D01*
X6175577Y-4055388D02*
X6137482Y-4207769D01*
X6137482Y-4207769D02*
X6061291Y-4283960D01*
X6061291Y-4283960D02*
X5985101Y-4322055D01*
X5985101Y-4322055D02*
X5832720Y-4322055D01*
X5832720Y-4322055D02*
X5756529Y-4283960D01*
X5756529Y-4283960D02*
X5680339Y-4207769D01*
X5680339Y-4207769D02*
X5642243Y-4055388D01*
X5642243Y-4055388D02*
X5642243Y-3788721D01*
X5642243Y-3788721D02*
X5680339Y-3636340D01*
X5680339Y-3636340D02*
X5756529Y-3560150D01*
X5756529Y-3560150D02*
X5832720Y-3522055D01*
X6670815Y-3522055D02*
X6823196Y-3522055D01*
X6823196Y-3522055D02*
X6899386Y-3560150D01*
X6899386Y-3560150D02*
X6975577Y-3636340D01*
X6975577Y-3636340D02*
X7013672Y-3788721D01*
X7013672Y-3788721D02*
X7013672Y-4055388D01*
X7013672Y-4055388D02*
X6975577Y-4207769D01*
X6975577Y-4207769D02*
X6899386Y-4283960D01*
X6899386Y-4283960D02*
X6823196Y-4322055D01*
X6823196Y-4322055D02*
X6670815Y-4322055D01*
X6670815Y-4322055D02*
X6594624Y-4283960D01*
X6594624Y-4283960D02*
X6518434Y-4207769D01*
X6518434Y-4207769D02*
X6480338Y-4055388D01*
X6480338Y-4055388D02*
X6480338Y-3788721D01*
X6480338Y-3788721D02*
X6518434Y-3636340D01*
X6518434Y-3636340D02*
X6594624Y-3560150D01*
X6594624Y-3560150D02*
X6670815Y-3522055D01*
X7356529Y-4322055D02*
X7356529Y-3522055D01*
X7356529Y-3522055D02*
X7623195Y-4093483D01*
X7623195Y-4093483D02*
X7889862Y-3522055D01*
X7889862Y-3522055D02*
X7889862Y-4322055D01*
X8194624Y-4055388D02*
X8423196Y-4055388D01*
X8651767Y-3522055D02*
X9147005Y-3522055D01*
X9147005Y-3522055D02*
X8880339Y-3826817D01*
X8880339Y-3826817D02*
X8994624Y-3826817D01*
X8994624Y-3826817D02*
X9070815Y-3864912D01*
X9070815Y-3864912D02*
X9108910Y-3903007D01*
X9108910Y-3903007D02*
X9147005Y-3979198D01*
X9147005Y-3979198D02*
X9147005Y-4169674D01*
X9147005Y-4169674D02*
X9108910Y-4245864D01*
X9108910Y-4245864D02*
X9070815Y-4283960D01*
X9070815Y-4283960D02*
X8994624Y-4322055D01*
X8994624Y-4322055D02*
X8766053Y-4322055D01*
X8766053Y-4322055D02*
X8689862Y-4283960D01*
X8689862Y-4283960D02*
X8651767Y-4245864D01*
X9451767Y-3598245D02*
X9489863Y-3560150D01*
X9489863Y-3560150D02*
X9566053Y-3522055D01*
X9566053Y-3522055D02*
X9756529Y-3522055D01*
X9756529Y-3522055D02*
X9832720Y-3560150D01*
X9832720Y-3560150D02*
X9870815Y-3598245D01*
X9870815Y-3598245D02*
X9908910Y-3674436D01*
X9908910Y-3674436D02*
X9908910Y-3750626D01*
X9908910Y-3750626D02*
X9870815Y-3864912D01*
X9870815Y-3864912D02*
X9413672Y-4322055D01*
X9413672Y-4322055D02*
X9908910Y-4322055D01*
X-6434423Y-452055D02*
X-6434423Y-1099674D01*
X-6434423Y-1099674D02*
X-6396328Y-1175864D01*
X-6396328Y-1175864D02*
X-6358233Y-1213960D01*
X-6358233Y-1213960D02*
X-6282042Y-1252055D01*
X-6282042Y-1252055D02*
X-6129661Y-1252055D01*
X-6129661Y-1252055D02*
X-6053471Y-1213960D01*
X-6053471Y-1213960D02*
X-6015376Y-1175864D01*
X-6015376Y-1175864D02*
X-5977280Y-1099674D01*
X-5977280Y-1099674D02*
X-5977280Y-452055D01*
X-5177281Y-1252055D02*
X-5634424Y-1252055D01*
X-5405852Y-1252055D02*
X-5405852Y-452055D01*
X-5405852Y-452055D02*
X-5482043Y-566340D01*
X-5482043Y-566340D02*
X-5558233Y-642531D01*
X-5558233Y-642531D02*
X-5634424Y-680626D01*
D13*
X-13614534Y13845183D02*
X-13599536Y13830185D01*
X-13599536Y13830185D02*
X-13584537Y13785191D01*
X-13584537Y13785191D02*
X-13584537Y13755195D01*
X-13584537Y13755195D02*
X-13599536Y13710200D01*
X-13599536Y13710200D02*
X-13629532Y13680204D01*
X-13629532Y13680204D02*
X-13659528Y13665206D01*
X-13659528Y13665206D02*
X-13719520Y13650208D01*
X-13719520Y13650208D02*
X-13764515Y13650208D01*
X-13764515Y13650208D02*
X-13824507Y13665206D01*
X-13824507Y13665206D02*
X-13854503Y13680204D01*
X-13854503Y13680204D02*
X-13884499Y13710200D01*
X-13884499Y13710200D02*
X-13899497Y13755195D01*
X-13899497Y13755195D02*
X-13899497Y13785191D01*
X-13899497Y13785191D02*
X-13884499Y13830185D01*
X-13884499Y13830185D02*
X-13869501Y13845183D01*
X-13899497Y13950170D02*
X-13899497Y14145145D01*
X-13899497Y14145145D02*
X-13779513Y14040158D01*
X-13779513Y14040158D02*
X-13779513Y14085153D01*
X-13779513Y14085153D02*
X-13764515Y14115149D01*
X-13764515Y14115149D02*
X-13749516Y14130147D01*
X-13749516Y14130147D02*
X-13719520Y14145145D01*
X-13719520Y14145145D02*
X-13644530Y14145145D01*
X-13644530Y14145145D02*
X-13614534Y14130147D01*
X-13614534Y14130147D02*
X-13599536Y14115149D01*
X-13599536Y14115149D02*
X-13584537Y14085153D01*
X-13584537Y14085153D02*
X-13584537Y13995164D01*
X-13584537Y13995164D02*
X-13599536Y13965168D01*
X-13599536Y13965168D02*
X-13614534Y13950170D01*
X-13899497Y14430109D02*
X-13899497Y14460106D01*
X-13899497Y14460106D02*
X-13884499Y14490102D01*
X-13884499Y14490102D02*
X-13869501Y14505100D01*
X-13869501Y14505100D02*
X-13839505Y14520098D01*
X-13839505Y14520098D02*
X-13779513Y14535096D01*
X-13779513Y14535096D02*
X-13704522Y14535096D01*
X-13704522Y14535096D02*
X-13644530Y14520098D01*
X-13644530Y14520098D02*
X-13614534Y14505100D01*
X-13614534Y14505100D02*
X-13599536Y14490102D01*
X-13599536Y14490102D02*
X-13584537Y14460106D01*
X-13584537Y14460106D02*
X-13584537Y14430109D01*
X-13584537Y14430109D02*
X-13599536Y14400113D01*
X-13599536Y14400113D02*
X-13614534Y14385115D01*
X-13614534Y14385115D02*
X-13644530Y14370117D01*
X-13644530Y14370117D02*
X-13704522Y14355119D01*
X-13704522Y14355119D02*
X-13779513Y14355119D01*
X-13779513Y14355119D02*
X-13839505Y14370117D01*
X-13839505Y14370117D02*
X-13869501Y14385115D01*
X-13869501Y14385115D02*
X-13884499Y14400113D01*
X-13884499Y14400113D02*
X-13899497Y14430109D01*
X-13764515Y14715073D02*
X-13779513Y14685077D01*
X-13779513Y14685077D02*
X-13794511Y14670079D01*
X-13794511Y14670079D02*
X-13824507Y14655081D01*
X-13824507Y14655081D02*
X-13839505Y14655081D01*
X-13839505Y14655081D02*
X-13869501Y14670079D01*
X-13869501Y14670079D02*
X-13884499Y14685077D01*
X-13884499Y14685077D02*
X-13899497Y14715073D01*
X-13899497Y14715073D02*
X-13899497Y14775066D01*
X-13899497Y14775066D02*
X-13884499Y14805062D01*
X-13884499Y14805062D02*
X-13869501Y14820060D01*
X-13869501Y14820060D02*
X-13839505Y14835058D01*
X-13839505Y14835058D02*
X-13824507Y14835058D01*
X-13824507Y14835058D02*
X-13794511Y14820060D01*
X-13794511Y14820060D02*
X-13779513Y14805062D01*
X-13779513Y14805062D02*
X-13764515Y14775066D01*
X-13764515Y14775066D02*
X-13764515Y14715073D01*
X-13764515Y14715073D02*
X-13749516Y14685077D01*
X-13749516Y14685077D02*
X-13734518Y14670079D01*
X-13734518Y14670079D02*
X-13704522Y14655081D01*
X-13704522Y14655081D02*
X-13644530Y14655081D01*
X-13644530Y14655081D02*
X-13614534Y14670079D01*
X-13614534Y14670079D02*
X-13599536Y14685077D01*
X-13599536Y14685077D02*
X-13584537Y14715073D01*
X-13584537Y14715073D02*
X-13584537Y14775066D01*
X-13584537Y14775066D02*
X-13599536Y14805062D01*
X-13599536Y14805062D02*
X-13614534Y14820060D01*
X-13614534Y14820060D02*
X-13644530Y14835058D01*
X-13644530Y14835058D02*
X-13704522Y14835058D01*
X-13704522Y14835058D02*
X-13734518Y14820060D01*
X-13734518Y14820060D02*
X-13749516Y14805062D01*
X-13749516Y14805062D02*
X-13764515Y14775066D01*
X-13899497Y15030033D02*
X-13899497Y15060030D01*
X-13899497Y15060030D02*
X-13884499Y15090026D01*
X-13884499Y15090026D02*
X-13869501Y15105024D01*
X-13869501Y15105024D02*
X-13839505Y15120022D01*
X-13839505Y15120022D02*
X-13779513Y15135020D01*
X-13779513Y15135020D02*
X-13704522Y15135020D01*
X-13704522Y15135020D02*
X-13644530Y15120022D01*
X-13644530Y15120022D02*
X-13614534Y15105024D01*
X-13614534Y15105024D02*
X-13599536Y15090026D01*
X-13599536Y15090026D02*
X-13584537Y15060030D01*
X-13584537Y15060030D02*
X-13584537Y15030033D01*
X-13584537Y15030033D02*
X-13599536Y15000037D01*
X-13599536Y15000037D02*
X-13614534Y14985039D01*
X-13614534Y14985039D02*
X-13644530Y14970041D01*
X-13644530Y14970041D02*
X-13704522Y14955043D01*
X-13704522Y14955043D02*
X-13779513Y14955043D01*
X-13779513Y14955043D02*
X-13839505Y14970041D01*
X-13839505Y14970041D02*
X-13869501Y14985039D01*
X-13869501Y14985039D02*
X-13884499Y15000037D01*
X-13884499Y15000037D02*
X-13899497Y15030033D01*
X-13899497Y15419984D02*
X-13899497Y15270003D01*
X-13899497Y15270003D02*
X-13749516Y15255005D01*
X-13749516Y15255005D02*
X-13764515Y15270003D01*
X-13764515Y15270003D02*
X-13779513Y15299999D01*
X-13779513Y15299999D02*
X-13779513Y15374990D01*
X-13779513Y15374990D02*
X-13764515Y15404986D01*
X-13764515Y15404986D02*
X-13749516Y15419984D01*
X-13749516Y15419984D02*
X-13719520Y15434982D01*
X-13719520Y15434982D02*
X-13644530Y15434982D01*
X-13644530Y15434982D02*
X-13614534Y15419984D01*
X-13614534Y15419984D02*
X-13599536Y15404986D01*
X-13599536Y15404986D02*
X-13584537Y15374990D01*
X-13584537Y15374990D02*
X-13584537Y15299999D01*
X-13584537Y15299999D02*
X-13599536Y15270003D01*
X-13599536Y15270003D02*
X-13614534Y15255005D01*
D12*
X-19484801Y20896555D02*
X-19027658Y20896555D01*
X-19256230Y20896555D02*
X-19256230Y20096555D01*
X-19256230Y20096555D02*
X-19180039Y20210840D01*
X-19180039Y20210840D02*
X-19103849Y20287031D01*
X-19103849Y20287031D02*
X-19027658Y20325126D01*
X-20246706Y20896555D02*
X-19789563Y20896555D01*
X-20018135Y20896555D02*
X-20018135Y20096555D01*
X-20018135Y20096555D02*
X-19941944Y20210840D01*
X-19941944Y20210840D02*
X-19865754Y20287031D01*
X-19865754Y20287031D02*
X-19789563Y20325126D01*
X-21008611Y20896555D02*
X-20551468Y20896555D01*
X-20780040Y20896555D02*
X-20780040Y20096555D01*
X-20780040Y20096555D02*
X-20703849Y20210840D01*
X-20703849Y20210840D02*
X-20627659Y20287031D01*
X-20627659Y20287031D02*
X-20551468Y20325126D01*
X-21275278Y20096555D02*
X-21808612Y20096555D01*
X-21808612Y20096555D02*
X-21465754Y20896555D01*
D11*
X15412586Y-12987582D02*
X15393538Y-13006630D01*
X15393538Y-13006630D02*
X15336396Y-13025677D01*
X15336396Y-13025677D02*
X15298300Y-13025677D01*
X15298300Y-13025677D02*
X15241157Y-13006630D01*
X15241157Y-13006630D02*
X15203062Y-12968534D01*
X15203062Y-12968534D02*
X15184015Y-12930439D01*
X15184015Y-12930439D02*
X15164967Y-12854249D01*
X15164967Y-12854249D02*
X15164967Y-12797106D01*
X15164967Y-12797106D02*
X15184015Y-12720915D01*
X15184015Y-12720915D02*
X15203062Y-12682820D01*
X15203062Y-12682820D02*
X15241157Y-12644725D01*
X15241157Y-12644725D02*
X15298300Y-12625677D01*
X15298300Y-12625677D02*
X15336396Y-12625677D01*
X15336396Y-12625677D02*
X15393538Y-12644725D01*
X15393538Y-12644725D02*
X15412586Y-12663772D01*
X15774491Y-12625677D02*
X15584015Y-12625677D01*
X15584015Y-12625677D02*
X15564967Y-12816153D01*
X15564967Y-12816153D02*
X15584015Y-12797106D01*
X15584015Y-12797106D02*
X15622110Y-12778058D01*
X15622110Y-12778058D02*
X15717348Y-12778058D01*
X15717348Y-12778058D02*
X15755443Y-12797106D01*
X15755443Y-12797106D02*
X15774491Y-12816153D01*
X15774491Y-12816153D02*
X15793538Y-12854249D01*
X15793538Y-12854249D02*
X15793538Y-12949487D01*
X15793538Y-12949487D02*
X15774491Y-12987582D01*
X15774491Y-12987582D02*
X15755443Y-13006630D01*
X15755443Y-13006630D02*
X15717348Y-13025677D01*
X15717348Y-13025677D02*
X15622110Y-13025677D01*
X15622110Y-13025677D02*
X15584015Y-13006630D01*
X15584015Y-13006630D02*
X15564967Y-12987582D01*
X16155443Y-12625677D02*
X16193538Y-12625677D01*
X16193538Y-12625677D02*
X16231634Y-12644725D01*
X16231634Y-12644725D02*
X16250681Y-12663772D01*
X16250681Y-12663772D02*
X16269729Y-12701868D01*
X16269729Y-12701868D02*
X16288776Y-12778058D01*
X16288776Y-12778058D02*
X16288776Y-12873296D01*
X16288776Y-12873296D02*
X16269729Y-12949487D01*
X16269729Y-12949487D02*
X16250681Y-12987582D01*
X16250681Y-12987582D02*
X16231634Y-13006630D01*
X16231634Y-13006630D02*
X16193538Y-13025677D01*
X16193538Y-13025677D02*
X16155443Y-13025677D01*
X16155443Y-13025677D02*
X16117348Y-13006630D01*
X16117348Y-13006630D02*
X16098300Y-12987582D01*
X16098300Y-12987582D02*
X16079253Y-12949487D01*
X16079253Y-12949487D02*
X16060205Y-12873296D01*
X16060205Y-12873296D02*
X16060205Y-12778058D01*
X16060205Y-12778058D02*
X16079253Y-12701868D01*
X16079253Y-12701868D02*
X16098300Y-12663772D01*
X16098300Y-12663772D02*
X16117348Y-12644725D01*
X16117348Y-12644725D02*
X16155443Y-12625677D01*
X16517347Y-12797106D02*
X16479252Y-12778058D01*
X16479252Y-12778058D02*
X16460205Y-12759010D01*
X16460205Y-12759010D02*
X16441157Y-12720915D01*
X16441157Y-12720915D02*
X16441157Y-12701868D01*
X16441157Y-12701868D02*
X16460205Y-12663772D01*
X16460205Y-12663772D02*
X16479252Y-12644725D01*
X16479252Y-12644725D02*
X16517347Y-12625677D01*
X16517347Y-12625677D02*
X16593538Y-12625677D01*
X16593538Y-12625677D02*
X16631633Y-12644725D01*
X16631633Y-12644725D02*
X16650681Y-12663772D01*
X16650681Y-12663772D02*
X16669728Y-12701868D01*
X16669728Y-12701868D02*
X16669728Y-12720915D01*
X16669728Y-12720915D02*
X16650681Y-12759010D01*
X16650681Y-12759010D02*
X16631633Y-12778058D01*
X16631633Y-12778058D02*
X16593538Y-12797106D01*
X16593538Y-12797106D02*
X16517347Y-12797106D01*
X16517347Y-12797106D02*
X16479252Y-12816153D01*
X16479252Y-12816153D02*
X16460205Y-12835201D01*
X16460205Y-12835201D02*
X16441157Y-12873296D01*
X16441157Y-12873296D02*
X16441157Y-12949487D01*
X16441157Y-12949487D02*
X16460205Y-12987582D01*
X16460205Y-12987582D02*
X16479252Y-13006630D01*
X16479252Y-13006630D02*
X16517347Y-13025677D01*
X16517347Y-13025677D02*
X16593538Y-13025677D01*
X16593538Y-13025677D02*
X16631633Y-13006630D01*
X16631633Y-13006630D02*
X16650681Y-12987582D01*
X16650681Y-12987582D02*
X16669728Y-12949487D01*
X16669728Y-12949487D02*
X16669728Y-12873296D01*
X16669728Y-12873296D02*
X16650681Y-12835201D01*
X16650681Y-12835201D02*
X16631633Y-12816153D01*
X16631633Y-12816153D02*
X16593538Y-12797106D01*
X16917347Y-12625677D02*
X16955442Y-12625677D01*
X16955442Y-12625677D02*
X16993538Y-12644725D01*
X16993538Y-12644725D02*
X17012585Y-12663772D01*
X17012585Y-12663772D02*
X17031633Y-12701868D01*
X17031633Y-12701868D02*
X17050680Y-12778058D01*
X17050680Y-12778058D02*
X17050680Y-12873296D01*
X17050680Y-12873296D02*
X17031633Y-12949487D01*
X17031633Y-12949487D02*
X17012585Y-12987582D01*
X17012585Y-12987582D02*
X16993538Y-13006630D01*
X16993538Y-13006630D02*
X16955442Y-13025677D01*
X16955442Y-13025677D02*
X16917347Y-13025677D01*
X16917347Y-13025677D02*
X16879252Y-13006630D01*
X16879252Y-13006630D02*
X16860204Y-12987582D01*
X16860204Y-12987582D02*
X16841157Y-12949487D01*
X16841157Y-12949487D02*
X16822109Y-12873296D01*
X16822109Y-12873296D02*
X16822109Y-12778058D01*
X16822109Y-12778058D02*
X16841157Y-12701868D01*
X16841157Y-12701868D02*
X16860204Y-12663772D01*
X16860204Y-12663772D02*
X16879252Y-12644725D01*
X16879252Y-12644725D02*
X16917347Y-12625677D01*
X17412585Y-12625677D02*
X17222109Y-12625677D01*
X17222109Y-12625677D02*
X17203061Y-12816153D01*
X17203061Y-12816153D02*
X17222109Y-12797106D01*
X17222109Y-12797106D02*
X17260204Y-12778058D01*
X17260204Y-12778058D02*
X17355442Y-12778058D01*
X17355442Y-12778058D02*
X17393537Y-12797106D01*
X17393537Y-12797106D02*
X17412585Y-12816153D01*
X17412585Y-12816153D02*
X17431632Y-12854249D01*
X17431632Y-12854249D02*
X17431632Y-12949487D01*
X17431632Y-12949487D02*
X17412585Y-12987582D01*
X17412585Y-12987582D02*
X17393537Y-13006630D01*
X17393537Y-13006630D02*
X17355442Y-13025677D01*
X17355442Y-13025677D02*
X17260204Y-13025677D01*
X17260204Y-13025677D02*
X17222109Y-13006630D01*
X17222109Y-13006630D02*
X17203061Y-12987582D01*
D12*
X14526871Y-11452064D02*
X14488775Y-11490160D01*
X14488775Y-11490160D02*
X14374490Y-11528255D01*
X14374490Y-11528255D02*
X14298299Y-11528255D01*
X14298299Y-11528255D02*
X14184013Y-11490160D01*
X14184013Y-11490160D02*
X14107823Y-11413969D01*
X14107823Y-11413969D02*
X14069728Y-11337779D01*
X14069728Y-11337779D02*
X14031632Y-11185398D01*
X14031632Y-11185398D02*
X14031632Y-11071112D01*
X14031632Y-11071112D02*
X14069728Y-10918731D01*
X14069728Y-10918731D02*
X14107823Y-10842540D01*
X14107823Y-10842540D02*
X14184013Y-10766350D01*
X14184013Y-10766350D02*
X14298299Y-10728255D01*
X14298299Y-10728255D02*
X14374490Y-10728255D01*
X14374490Y-10728255D02*
X14488775Y-10766350D01*
X14488775Y-10766350D02*
X14526871Y-10804445D01*
X15250680Y-10728255D02*
X14869728Y-10728255D01*
X14869728Y-10728255D02*
X14831632Y-11109207D01*
X14831632Y-11109207D02*
X14869728Y-11071112D01*
X14869728Y-11071112D02*
X14945918Y-11033017D01*
X14945918Y-11033017D02*
X15136394Y-11033017D01*
X15136394Y-11033017D02*
X15212585Y-11071112D01*
X15212585Y-11071112D02*
X15250680Y-11109207D01*
X15250680Y-11109207D02*
X15288775Y-11185398D01*
X15288775Y-11185398D02*
X15288775Y-11375874D01*
X15288775Y-11375874D02*
X15250680Y-11452064D01*
X15250680Y-11452064D02*
X15212585Y-11490160D01*
X15212585Y-11490160D02*
X15136394Y-11528255D01*
X15136394Y-11528255D02*
X14945918Y-11528255D01*
X14945918Y-11528255D02*
X14869728Y-11490160D01*
X14869728Y-11490160D02*
X14831632Y-11452064D01*
X16012585Y-10728255D02*
X16088775Y-10728255D01*
X16088775Y-10728255D02*
X16164966Y-10766350D01*
X16164966Y-10766350D02*
X16203061Y-10804445D01*
X16203061Y-10804445D02*
X16241156Y-10880636D01*
X16241156Y-10880636D02*
X16279251Y-11033017D01*
X16279251Y-11033017D02*
X16279251Y-11223493D01*
X16279251Y-11223493D02*
X16241156Y-11375874D01*
X16241156Y-11375874D02*
X16203061Y-11452064D01*
X16203061Y-11452064D02*
X16164966Y-11490160D01*
X16164966Y-11490160D02*
X16088775Y-11528255D01*
X16088775Y-11528255D02*
X16012585Y-11528255D01*
X16012585Y-11528255D02*
X15936394Y-11490160D01*
X15936394Y-11490160D02*
X15898299Y-11452064D01*
X15898299Y-11452064D02*
X15860204Y-11375874D01*
X15860204Y-11375874D02*
X15822108Y-11223493D01*
X15822108Y-11223493D02*
X15822108Y-11033017D01*
X15822108Y-11033017D02*
X15860204Y-10880636D01*
X15860204Y-10880636D02*
X15898299Y-10804445D01*
X15898299Y-10804445D02*
X15936394Y-10766350D01*
X15936394Y-10766350D02*
X16012585Y-10728255D01*
X16736394Y-11071112D02*
X16660204Y-11033017D01*
X16660204Y-11033017D02*
X16622109Y-10994921D01*
X16622109Y-10994921D02*
X16584013Y-10918731D01*
X16584013Y-10918731D02*
X16584013Y-10880636D01*
X16584013Y-10880636D02*
X16622109Y-10804445D01*
X16622109Y-10804445D02*
X16660204Y-10766350D01*
X16660204Y-10766350D02*
X16736394Y-10728255D01*
X16736394Y-10728255D02*
X16888775Y-10728255D01*
X16888775Y-10728255D02*
X16964966Y-10766350D01*
X16964966Y-10766350D02*
X17003061Y-10804445D01*
X17003061Y-10804445D02*
X17041156Y-10880636D01*
X17041156Y-10880636D02*
X17041156Y-10918731D01*
X17041156Y-10918731D02*
X17003061Y-10994921D01*
X17003061Y-10994921D02*
X16964966Y-11033017D01*
X16964966Y-11033017D02*
X16888775Y-11071112D01*
X16888775Y-11071112D02*
X16736394Y-11071112D01*
X16736394Y-11071112D02*
X16660204Y-11109207D01*
X16660204Y-11109207D02*
X16622109Y-11147302D01*
X16622109Y-11147302D02*
X16584013Y-11223493D01*
X16584013Y-11223493D02*
X16584013Y-11375874D01*
X16584013Y-11375874D02*
X16622109Y-11452064D01*
X16622109Y-11452064D02*
X16660204Y-11490160D01*
X16660204Y-11490160D02*
X16736394Y-11528255D01*
X16736394Y-11528255D02*
X16888775Y-11528255D01*
X16888775Y-11528255D02*
X16964966Y-11490160D01*
X16964966Y-11490160D02*
X17003061Y-11452064D01*
X17003061Y-11452064D02*
X17041156Y-11375874D01*
X17041156Y-11375874D02*
X17041156Y-11223493D01*
X17041156Y-11223493D02*
X17003061Y-11147302D01*
X17003061Y-11147302D02*
X16964966Y-11109207D01*
X16964966Y-11109207D02*
X16888775Y-11071112D01*
X17536395Y-10728255D02*
X17612585Y-10728255D01*
X17612585Y-10728255D02*
X17688776Y-10766350D01*
X17688776Y-10766350D02*
X17726871Y-10804445D01*
X17726871Y-10804445D02*
X17764966Y-10880636D01*
X17764966Y-10880636D02*
X17803061Y-11033017D01*
X17803061Y-11033017D02*
X17803061Y-11223493D01*
X17803061Y-11223493D02*
X17764966Y-11375874D01*
X17764966Y-11375874D02*
X17726871Y-11452064D01*
X17726871Y-11452064D02*
X17688776Y-11490160D01*
X17688776Y-11490160D02*
X17612585Y-11528255D01*
X17612585Y-11528255D02*
X17536395Y-11528255D01*
X17536395Y-11528255D02*
X17460204Y-11490160D01*
X17460204Y-11490160D02*
X17422109Y-11452064D01*
X17422109Y-11452064D02*
X17384014Y-11375874D01*
X17384014Y-11375874D02*
X17345918Y-11223493D01*
X17345918Y-11223493D02*
X17345918Y-11033017D01*
X17345918Y-11033017D02*
X17384014Y-10880636D01*
X17384014Y-10880636D02*
X17422109Y-10804445D01*
X17422109Y-10804445D02*
X17460204Y-10766350D01*
X17460204Y-10766350D02*
X17536395Y-10728255D01*
X18526871Y-10728255D02*
X18145919Y-10728255D01*
X18145919Y-10728255D02*
X18107823Y-11109207D01*
X18107823Y-11109207D02*
X18145919Y-11071112D01*
X18145919Y-11071112D02*
X18222109Y-11033017D01*
X18222109Y-11033017D02*
X18412585Y-11033017D01*
X18412585Y-11033017D02*
X18488776Y-11071112D01*
X18488776Y-11071112D02*
X18526871Y-11109207D01*
X18526871Y-11109207D02*
X18564966Y-11185398D01*
X18564966Y-11185398D02*
X18564966Y-11375874D01*
X18564966Y-11375874D02*
X18526871Y-11452064D01*
X18526871Y-11452064D02*
X18488776Y-11490160D01*
X18488776Y-11490160D02*
X18412585Y-11528255D01*
X18412585Y-11528255D02*
X18222109Y-11528255D01*
X18222109Y-11528255D02*
X18145919Y-11490160D01*
X18145919Y-11490160D02*
X18107823Y-11452064D01*
D13*
X-14391053Y8894365D02*
X-14376055Y8909364D01*
X-14376055Y8909364D02*
X-14331061Y8924362D01*
X-14331061Y8924362D02*
X-14301065Y8924362D01*
X-14301065Y8924362D02*
X-14256070Y8909364D01*
X-14256070Y8909364D02*
X-14226074Y8879367D01*
X-14226074Y8879367D02*
X-14211076Y8849371D01*
X-14211076Y8849371D02*
X-14196078Y8789379D01*
X-14196078Y8789379D02*
X-14196078Y8744384D01*
X-14196078Y8744384D02*
X-14211076Y8684392D01*
X-14211076Y8684392D02*
X-14226074Y8654396D01*
X-14226074Y8654396D02*
X-14256070Y8624400D01*
X-14256070Y8624400D02*
X-14301065Y8609402D01*
X-14301065Y8609402D02*
X-14331061Y8609402D01*
X-14331061Y8609402D02*
X-14376055Y8624400D01*
X-14376055Y8624400D02*
X-14391053Y8639398D01*
X-14541034Y8924362D02*
X-14601026Y8924362D01*
X-14601026Y8924362D02*
X-14631023Y8909364D01*
X-14631023Y8909364D02*
X-14646021Y8894365D01*
X-14646021Y8894365D02*
X-14676017Y8849371D01*
X-14676017Y8849371D02*
X-14691015Y8789379D01*
X-14691015Y8789379D02*
X-14691015Y8669394D01*
X-14691015Y8669394D02*
X-14676017Y8639398D01*
X-14676017Y8639398D02*
X-14661019Y8624400D01*
X-14661019Y8624400D02*
X-14631023Y8609402D01*
X-14631023Y8609402D02*
X-14571030Y8609402D01*
X-14571030Y8609402D02*
X-14541034Y8624400D01*
X-14541034Y8624400D02*
X-14526036Y8639398D01*
X-14526036Y8639398D02*
X-14511038Y8669394D01*
X-14511038Y8669394D02*
X-14511038Y8744384D01*
X-14511038Y8744384D02*
X-14526036Y8774381D01*
X-14526036Y8774381D02*
X-14541034Y8789379D01*
X-14541034Y8789379D02*
X-14571030Y8804377D01*
X-14571030Y8804377D02*
X-14631023Y8804377D01*
X-14631023Y8804377D02*
X-14661019Y8789379D01*
X-14661019Y8789379D02*
X-14676017Y8774381D01*
X-14676017Y8774381D02*
X-14691015Y8744384D01*
X-14975979Y8609402D02*
X-15005976Y8609402D01*
X-15005976Y8609402D02*
X-15035972Y8624400D01*
X-15035972Y8624400D02*
X-15050970Y8639398D01*
X-15050970Y8639398D02*
X-15065968Y8669394D01*
X-15065968Y8669394D02*
X-15080966Y8729386D01*
X-15080966Y8729386D02*
X-15080966Y8804377D01*
X-15080966Y8804377D02*
X-15065968Y8864369D01*
X-15065968Y8864369D02*
X-15050970Y8894365D01*
X-15050970Y8894365D02*
X-15035972Y8909364D01*
X-15035972Y8909364D02*
X-15005976Y8924362D01*
X-15005976Y8924362D02*
X-14975979Y8924362D01*
X-14975979Y8924362D02*
X-14945983Y8909364D01*
X-14945983Y8909364D02*
X-14930985Y8894365D01*
X-14930985Y8894365D02*
X-14915987Y8864369D01*
X-14915987Y8864369D02*
X-14900989Y8804377D01*
X-14900989Y8804377D02*
X-14900989Y8729386D01*
X-14900989Y8729386D02*
X-14915987Y8669394D01*
X-14915987Y8669394D02*
X-14930985Y8639398D01*
X-14930985Y8639398D02*
X-14945983Y8624400D01*
X-14945983Y8624400D02*
X-14975979Y8609402D01*
X-15260943Y8744384D02*
X-15230947Y8729386D01*
X-15230947Y8729386D02*
X-15215949Y8714388D01*
X-15215949Y8714388D02*
X-15200951Y8684392D01*
X-15200951Y8684392D02*
X-15200951Y8669394D01*
X-15200951Y8669394D02*
X-15215949Y8639398D01*
X-15215949Y8639398D02*
X-15230947Y8624400D01*
X-15230947Y8624400D02*
X-15260943Y8609402D01*
X-15260943Y8609402D02*
X-15320936Y8609402D01*
X-15320936Y8609402D02*
X-15350932Y8624400D01*
X-15350932Y8624400D02*
X-15365930Y8639398D01*
X-15365930Y8639398D02*
X-15380928Y8669394D01*
X-15380928Y8669394D02*
X-15380928Y8684392D01*
X-15380928Y8684392D02*
X-15365930Y8714388D01*
X-15365930Y8714388D02*
X-15350932Y8729386D01*
X-15350932Y8729386D02*
X-15320936Y8744384D01*
X-15320936Y8744384D02*
X-15260943Y8744384D01*
X-15260943Y8744384D02*
X-15230947Y8759383D01*
X-15230947Y8759383D02*
X-15215949Y8774381D01*
X-15215949Y8774381D02*
X-15200951Y8804377D01*
X-15200951Y8804377D02*
X-15200951Y8864369D01*
X-15200951Y8864369D02*
X-15215949Y8894365D01*
X-15215949Y8894365D02*
X-15230947Y8909364D01*
X-15230947Y8909364D02*
X-15260943Y8924362D01*
X-15260943Y8924362D02*
X-15320936Y8924362D01*
X-15320936Y8924362D02*
X-15350932Y8909364D01*
X-15350932Y8909364D02*
X-15365930Y8894365D01*
X-15365930Y8894365D02*
X-15380928Y8864369D01*
X-15380928Y8864369D02*
X-15380928Y8804377D01*
X-15380928Y8804377D02*
X-15365930Y8774381D01*
X-15365930Y8774381D02*
X-15350932Y8759383D01*
X-15350932Y8759383D02*
X-15320936Y8744384D01*
X-15575903Y8609402D02*
X-15605900Y8609402D01*
X-15605900Y8609402D02*
X-15635896Y8624400D01*
X-15635896Y8624400D02*
X-15650894Y8639398D01*
X-15650894Y8639398D02*
X-15665892Y8669394D01*
X-15665892Y8669394D02*
X-15680890Y8729386D01*
X-15680890Y8729386D02*
X-15680890Y8804377D01*
X-15680890Y8804377D02*
X-15665892Y8864369D01*
X-15665892Y8864369D02*
X-15650894Y8894365D01*
X-15650894Y8894365D02*
X-15635896Y8909364D01*
X-15635896Y8909364D02*
X-15605900Y8924362D01*
X-15605900Y8924362D02*
X-15575903Y8924362D01*
X-15575903Y8924362D02*
X-15545907Y8909364D01*
X-15545907Y8909364D02*
X-15530909Y8894365D01*
X-15530909Y8894365D02*
X-15515911Y8864369D01*
X-15515911Y8864369D02*
X-15500913Y8804377D01*
X-15500913Y8804377D02*
X-15500913Y8729386D01*
X-15500913Y8729386D02*
X-15515911Y8669394D01*
X-15515911Y8669394D02*
X-15530909Y8639398D01*
X-15530909Y8639398D02*
X-15545907Y8624400D01*
X-15545907Y8624400D02*
X-15575903Y8609402D01*
X-15965854Y8609402D02*
X-15815873Y8609402D01*
X-15815873Y8609402D02*
X-15800875Y8759383D01*
X-15800875Y8759383D02*
X-15815873Y8744384D01*
X-15815873Y8744384D02*
X-15845869Y8729386D01*
X-15845869Y8729386D02*
X-15920860Y8729386D01*
X-15920860Y8729386D02*
X-15950856Y8744384D01*
X-15950856Y8744384D02*
X-15965854Y8759383D01*
X-15965854Y8759383D02*
X-15980852Y8789379D01*
X-15980852Y8789379D02*
X-15980852Y8864369D01*
X-15980852Y8864369D02*
X-15965854Y8894365D01*
X-15965854Y8894365D02*
X-15950856Y8909364D01*
X-15950856Y8909364D02*
X-15920860Y8924362D01*
X-15920860Y8924362D02*
X-15845869Y8924362D01*
X-15845869Y8924362D02*
X-15815873Y8909364D01*
X-15815873Y8909364D02*
X-15800875Y8894365D01*
X-16265816Y8609402D02*
X-16325809Y8609402D01*
X-16325809Y8609402D02*
X-16355805Y8624400D01*
X-16355805Y8624400D02*
X-16385801Y8654396D01*
X-16385801Y8654396D02*
X-16400799Y8714388D01*
X-16400799Y8714388D02*
X-16400799Y8819375D01*
X-16400799Y8819375D02*
X-16385801Y8879367D01*
X-16385801Y8879367D02*
X-16355805Y8909364D01*
X-16355805Y8909364D02*
X-16325809Y8924362D01*
X-16325809Y8924362D02*
X-16265816Y8924362D01*
X-16265816Y8924362D02*
X-16235820Y8909364D01*
X-16235820Y8909364D02*
X-16205824Y8879367D01*
X-16205824Y8879367D02*
X-16190826Y8819375D01*
X-16190826Y8819375D02*
X-16190826Y8714388D01*
X-16190826Y8714388D02*
X-16205824Y8654396D01*
X-16205824Y8654396D02*
X-16235820Y8624400D01*
X-16235820Y8624400D02*
X-16265816Y8609402D01*
X-16535782Y8609402D02*
X-16535782Y8864369D01*
X-16535782Y8864369D02*
X-16550780Y8894365D01*
X-16550780Y8894365D02*
X-16565778Y8909364D01*
X-16565778Y8909364D02*
X-16595774Y8924362D01*
X-16595774Y8924362D02*
X-16655767Y8924362D01*
X-16655767Y8924362D02*
X-16685763Y8909364D01*
X-16685763Y8909364D02*
X-16700761Y8894365D01*
X-16700761Y8894365D02*
X-16715759Y8864369D01*
X-16715759Y8864369D02*
X-16715759Y8609402D01*
X-16820746Y8609402D02*
X-17000723Y8609402D01*
X-16910734Y8924362D02*
X-16910734Y8609402D01*
D11*
X-490913Y-8353382D02*
X-509961Y-8372430D01*
X-509961Y-8372430D02*
X-567103Y-8391477D01*
X-567103Y-8391477D02*
X-605199Y-8391477D01*
X-605199Y-8391477D02*
X-662342Y-8372430D01*
X-662342Y-8372430D02*
X-700437Y-8334334D01*
X-700437Y-8334334D02*
X-719484Y-8296239D01*
X-719484Y-8296239D02*
X-738532Y-8220049D01*
X-738532Y-8220049D02*
X-738532Y-8162906D01*
X-738532Y-8162906D02*
X-719484Y-8086715D01*
X-719484Y-8086715D02*
X-700437Y-8048620D01*
X-700437Y-8048620D02*
X-662342Y-8010525D01*
X-662342Y-8010525D02*
X-605199Y-7991477D01*
X-605199Y-7991477D02*
X-567103Y-7991477D01*
X-567103Y-7991477D02*
X-509961Y-8010525D01*
X-509961Y-8010525D02*
X-490913Y-8029572D01*
X-357580Y-7991477D02*
X-109961Y-7991477D01*
X-109961Y-7991477D02*
X-243294Y-8143858D01*
X-243294Y-8143858D02*
X-186151Y-8143858D01*
X-186151Y-8143858D02*
X-148056Y-8162906D01*
X-148056Y-8162906D02*
X-129008Y-8181953D01*
X-129008Y-8181953D02*
X-109961Y-8220049D01*
X-109961Y-8220049D02*
X-109961Y-8315287D01*
X-109961Y-8315287D02*
X-129008Y-8353382D01*
X-129008Y-8353382D02*
X-148056Y-8372430D01*
X-148056Y-8372430D02*
X-186151Y-8391477D01*
X-186151Y-8391477D02*
X-300437Y-8391477D01*
X-300437Y-8391477D02*
X-338532Y-8372430D01*
X-338532Y-8372430D02*
X-357580Y-8353382D01*
X251943Y-7991477D02*
X290038Y-7991477D01*
X290038Y-7991477D02*
X328134Y-8010525D01*
X328134Y-8010525D02*
X347181Y-8029572D01*
X347181Y-8029572D02*
X366229Y-8067668D01*
X366229Y-8067668D02*
X385276Y-8143858D01*
X385276Y-8143858D02*
X385276Y-8239096D01*
X385276Y-8239096D02*
X366229Y-8315287D01*
X366229Y-8315287D02*
X347181Y-8353382D01*
X347181Y-8353382D02*
X328134Y-8372430D01*
X328134Y-8372430D02*
X290038Y-8391477D01*
X290038Y-8391477D02*
X251943Y-8391477D01*
X251943Y-8391477D02*
X213848Y-8372430D01*
X213848Y-8372430D02*
X194800Y-8353382D01*
X194800Y-8353382D02*
X175753Y-8315287D01*
X175753Y-8315287D02*
X156705Y-8239096D01*
X156705Y-8239096D02*
X156705Y-8143858D01*
X156705Y-8143858D02*
X175753Y-8067668D01*
X175753Y-8067668D02*
X194800Y-8029572D01*
X194800Y-8029572D02*
X213848Y-8010525D01*
X213848Y-8010525D02*
X251943Y-7991477D01*
X613847Y-8162906D02*
X575752Y-8143858D01*
X575752Y-8143858D02*
X556705Y-8124810D01*
X556705Y-8124810D02*
X537657Y-8086715D01*
X537657Y-8086715D02*
X537657Y-8067668D01*
X537657Y-8067668D02*
X556705Y-8029572D01*
X556705Y-8029572D02*
X575752Y-8010525D01*
X575752Y-8010525D02*
X613847Y-7991477D01*
X613847Y-7991477D02*
X690038Y-7991477D01*
X690038Y-7991477D02*
X728133Y-8010525D01*
X728133Y-8010525D02*
X747181Y-8029572D01*
X747181Y-8029572D02*
X766228Y-8067668D01*
X766228Y-8067668D02*
X766228Y-8086715D01*
X766228Y-8086715D02*
X747181Y-8124810D01*
X747181Y-8124810D02*
X728133Y-8143858D01*
X728133Y-8143858D02*
X690038Y-8162906D01*
X690038Y-8162906D02*
X613847Y-8162906D01*
X613847Y-8162906D02*
X575752Y-8181953D01*
X575752Y-8181953D02*
X556705Y-8201001D01*
X556705Y-8201001D02*
X537657Y-8239096D01*
X537657Y-8239096D02*
X537657Y-8315287D01*
X537657Y-8315287D02*
X556705Y-8353382D01*
X556705Y-8353382D02*
X575752Y-8372430D01*
X575752Y-8372430D02*
X613847Y-8391477D01*
X613847Y-8391477D02*
X690038Y-8391477D01*
X690038Y-8391477D02*
X728133Y-8372430D01*
X728133Y-8372430D02*
X747181Y-8353382D01*
X747181Y-8353382D02*
X766228Y-8315287D01*
X766228Y-8315287D02*
X766228Y-8239096D01*
X766228Y-8239096D02*
X747181Y-8201001D01*
X747181Y-8201001D02*
X728133Y-8181953D01*
X728133Y-8181953D02*
X690038Y-8162906D01*
X1013847Y-7991477D02*
X1051942Y-7991477D01*
X1051942Y-7991477D02*
X1090038Y-8010525D01*
X1090038Y-8010525D02*
X1109085Y-8029572D01*
X1109085Y-8029572D02*
X1128133Y-8067668D01*
X1128133Y-8067668D02*
X1147180Y-8143858D01*
X1147180Y-8143858D02*
X1147180Y-8239096D01*
X1147180Y-8239096D02*
X1128133Y-8315287D01*
X1128133Y-8315287D02*
X1109085Y-8353382D01*
X1109085Y-8353382D02*
X1090038Y-8372430D01*
X1090038Y-8372430D02*
X1051942Y-8391477D01*
X1051942Y-8391477D02*
X1013847Y-8391477D01*
X1013847Y-8391477D02*
X975752Y-8372430D01*
X975752Y-8372430D02*
X956704Y-8353382D01*
X956704Y-8353382D02*
X937657Y-8315287D01*
X937657Y-8315287D02*
X918609Y-8239096D01*
X918609Y-8239096D02*
X918609Y-8143858D01*
X918609Y-8143858D02*
X937657Y-8067668D01*
X937657Y-8067668D02*
X956704Y-8029572D01*
X956704Y-8029572D02*
X975752Y-8010525D01*
X975752Y-8010525D02*
X1013847Y-7991477D01*
X1509085Y-7991477D02*
X1318609Y-7991477D01*
X1318609Y-7991477D02*
X1299561Y-8181953D01*
X1299561Y-8181953D02*
X1318609Y-8162906D01*
X1318609Y-8162906D02*
X1356704Y-8143858D01*
X1356704Y-8143858D02*
X1451942Y-8143858D01*
X1451942Y-8143858D02*
X1490037Y-8162906D01*
X1490037Y-8162906D02*
X1509085Y-8181953D01*
X1509085Y-8181953D02*
X1528132Y-8220049D01*
X1528132Y-8220049D02*
X1528132Y-8315287D01*
X1528132Y-8315287D02*
X1509085Y-8353382D01*
X1509085Y-8353382D02*
X1490037Y-8372430D01*
X1490037Y-8372430D02*
X1451942Y-8391477D01*
X1451942Y-8391477D02*
X1356704Y-8391477D01*
X1356704Y-8391477D02*
X1318609Y-8372430D01*
X1318609Y-8372430D02*
X1299561Y-8353382D01*
D12*
X-1376628Y-6817864D02*
X-1414724Y-6855960D01*
X-1414724Y-6855960D02*
X-1529009Y-6894055D01*
X-1529009Y-6894055D02*
X-1605200Y-6894055D01*
X-1605200Y-6894055D02*
X-1719486Y-6855960D01*
X-1719486Y-6855960D02*
X-1795676Y-6779769D01*
X-1795676Y-6779769D02*
X-1833771Y-6703579D01*
X-1833771Y-6703579D02*
X-1871867Y-6551198D01*
X-1871867Y-6551198D02*
X-1871867Y-6436912D01*
X-1871867Y-6436912D02*
X-1833771Y-6284531D01*
X-1833771Y-6284531D02*
X-1795676Y-6208340D01*
X-1795676Y-6208340D02*
X-1719486Y-6132150D01*
X-1719486Y-6132150D02*
X-1605200Y-6094055D01*
X-1605200Y-6094055D02*
X-1529009Y-6094055D01*
X-1529009Y-6094055D02*
X-1414724Y-6132150D01*
X-1414724Y-6132150D02*
X-1376628Y-6170245D01*
X-1109962Y-6094055D02*
X-614724Y-6094055D01*
X-614724Y-6094055D02*
X-881390Y-6398817D01*
X-881390Y-6398817D02*
X-767105Y-6398817D01*
X-767105Y-6398817D02*
X-690914Y-6436912D01*
X-690914Y-6436912D02*
X-652819Y-6475007D01*
X-652819Y-6475007D02*
X-614724Y-6551198D01*
X-614724Y-6551198D02*
X-614724Y-6741674D01*
X-614724Y-6741674D02*
X-652819Y-6817864D01*
X-652819Y-6817864D02*
X-690914Y-6855960D01*
X-690914Y-6855960D02*
X-767105Y-6894055D01*
X-767105Y-6894055D02*
X-995676Y-6894055D01*
X-995676Y-6894055D02*
X-1071867Y-6855960D01*
X-1071867Y-6855960D02*
X-1109962Y-6817864D01*
X109085Y-6094055D02*
X185275Y-6094055D01*
X185275Y-6094055D02*
X261466Y-6132150D01*
X261466Y-6132150D02*
X299561Y-6170245D01*
X299561Y-6170245D02*
X337656Y-6246436D01*
X337656Y-6246436D02*
X375751Y-6398817D01*
X375751Y-6398817D02*
X375751Y-6589293D01*
X375751Y-6589293D02*
X337656Y-6741674D01*
X337656Y-6741674D02*
X299561Y-6817864D01*
X299561Y-6817864D02*
X261466Y-6855960D01*
X261466Y-6855960D02*
X185275Y-6894055D01*
X185275Y-6894055D02*
X109085Y-6894055D01*
X109085Y-6894055D02*
X32894Y-6855960D01*
X32894Y-6855960D02*
X-5200Y-6817864D01*
X-5200Y-6817864D02*
X-43295Y-6741674D01*
X-43295Y-6741674D02*
X-81391Y-6589293D01*
X-81391Y-6589293D02*
X-81391Y-6398817D01*
X-81391Y-6398817D02*
X-43295Y-6246436D01*
X-43295Y-6246436D02*
X-5200Y-6170245D01*
X-5200Y-6170245D02*
X32894Y-6132150D01*
X32894Y-6132150D02*
X109085Y-6094055D01*
X832894Y-6436912D02*
X756704Y-6398817D01*
X756704Y-6398817D02*
X718609Y-6360721D01*
X718609Y-6360721D02*
X680513Y-6284531D01*
X680513Y-6284531D02*
X680513Y-6246436D01*
X680513Y-6246436D02*
X718609Y-6170245D01*
X718609Y-6170245D02*
X756704Y-6132150D01*
X756704Y-6132150D02*
X832894Y-6094055D01*
X832894Y-6094055D02*
X985275Y-6094055D01*
X985275Y-6094055D02*
X1061466Y-6132150D01*
X1061466Y-6132150D02*
X1099561Y-6170245D01*
X1099561Y-6170245D02*
X1137656Y-6246436D01*
X1137656Y-6246436D02*
X1137656Y-6284531D01*
X1137656Y-6284531D02*
X1099561Y-6360721D01*
X1099561Y-6360721D02*
X1061466Y-6398817D01*
X1061466Y-6398817D02*
X985275Y-6436912D01*
X985275Y-6436912D02*
X832894Y-6436912D01*
X832894Y-6436912D02*
X756704Y-6475007D01*
X756704Y-6475007D02*
X718609Y-6513102D01*
X718609Y-6513102D02*
X680513Y-6589293D01*
X680513Y-6589293D02*
X680513Y-6741674D01*
X680513Y-6741674D02*
X718609Y-6817864D01*
X718609Y-6817864D02*
X756704Y-6855960D01*
X756704Y-6855960D02*
X832894Y-6894055D01*
X832894Y-6894055D02*
X985275Y-6894055D01*
X985275Y-6894055D02*
X1061466Y-6855960D01*
X1061466Y-6855960D02*
X1099561Y-6817864D01*
X1099561Y-6817864D02*
X1137656Y-6741674D01*
X1137656Y-6741674D02*
X1137656Y-6589293D01*
X1137656Y-6589293D02*
X1099561Y-6513102D01*
X1099561Y-6513102D02*
X1061466Y-6475007D01*
X1061466Y-6475007D02*
X985275Y-6436912D01*
X1632895Y-6094055D02*
X1709085Y-6094055D01*
X1709085Y-6094055D02*
X1785276Y-6132150D01*
X1785276Y-6132150D02*
X1823371Y-6170245D01*
X1823371Y-6170245D02*
X1861466Y-6246436D01*
X1861466Y-6246436D02*
X1899561Y-6398817D01*
X1899561Y-6398817D02*
X1899561Y-6589293D01*
X1899561Y-6589293D02*
X1861466Y-6741674D01*
X1861466Y-6741674D02*
X1823371Y-6817864D01*
X1823371Y-6817864D02*
X1785276Y-6855960D01*
X1785276Y-6855960D02*
X1709085Y-6894055D01*
X1709085Y-6894055D02*
X1632895Y-6894055D01*
X1632895Y-6894055D02*
X1556704Y-6855960D01*
X1556704Y-6855960D02*
X1518609Y-6817864D01*
X1518609Y-6817864D02*
X1480514Y-6741674D01*
X1480514Y-6741674D02*
X1442418Y-6589293D01*
X1442418Y-6589293D02*
X1442418Y-6398817D01*
X1442418Y-6398817D02*
X1480514Y-6246436D01*
X1480514Y-6246436D02*
X1518609Y-6170245D01*
X1518609Y-6170245D02*
X1556704Y-6132150D01*
X1556704Y-6132150D02*
X1632895Y-6094055D01*
X2623371Y-6094055D02*
X2242419Y-6094055D01*
X2242419Y-6094055D02*
X2204323Y-6475007D01*
X2204323Y-6475007D02*
X2242419Y-6436912D01*
X2242419Y-6436912D02*
X2318609Y-6398817D01*
X2318609Y-6398817D02*
X2509085Y-6398817D01*
X2509085Y-6398817D02*
X2585276Y-6436912D01*
X2585276Y-6436912D02*
X2623371Y-6475007D01*
X2623371Y-6475007D02*
X2661466Y-6551198D01*
X2661466Y-6551198D02*
X2661466Y-6741674D01*
X2661466Y-6741674D02*
X2623371Y-6817864D01*
X2623371Y-6817864D02*
X2585276Y-6855960D01*
X2585276Y-6855960D02*
X2509085Y-6894055D01*
X2509085Y-6894055D02*
X2318609Y-6894055D01*
X2318609Y-6894055D02*
X2242419Y-6855960D01*
X2242419Y-6855960D02*
X2204323Y-6817864D01*
X-1711535Y-15687134D02*
X-1673440Y-15725230D01*
X-1673440Y-15725230D02*
X-1635344Y-15839515D01*
X-1635344Y-15839515D02*
X-1635344Y-15915706D01*
X-1635344Y-15915706D02*
X-1673440Y-16029992D01*
X-1673440Y-16029992D02*
X-1749630Y-16106182D01*
X-1749630Y-16106182D02*
X-1825820Y-16144277D01*
X-1825820Y-16144277D02*
X-1978201Y-16182373D01*
X-1978201Y-16182373D02*
X-2092487Y-16182373D01*
X-2092487Y-16182373D02*
X-2244868Y-16144277D01*
X-2244868Y-16144277D02*
X-2321059Y-16106182D01*
X-2321059Y-16106182D02*
X-2397249Y-16029992D01*
X-2397249Y-16029992D02*
X-2435344Y-15915706D01*
X-2435344Y-15915706D02*
X-2435344Y-15839515D01*
X-2435344Y-15839515D02*
X-2397249Y-15725230D01*
X-2397249Y-15725230D02*
X-2359154Y-15687134D01*
X-2435344Y-15001420D02*
X-2435344Y-15153801D01*
X-2435344Y-15153801D02*
X-2397249Y-15229992D01*
X-2397249Y-15229992D02*
X-2359154Y-15268087D01*
X-2359154Y-15268087D02*
X-2244868Y-15344277D01*
X-2244868Y-15344277D02*
X-2092487Y-15382373D01*
X-2092487Y-15382373D02*
X-1787725Y-15382373D01*
X-1787725Y-15382373D02*
X-1711535Y-15344277D01*
X-1711535Y-15344277D02*
X-1673440Y-15306182D01*
X-1673440Y-15306182D02*
X-1635344Y-15229992D01*
X-1635344Y-15229992D02*
X-1635344Y-15077611D01*
X-1635344Y-15077611D02*
X-1673440Y-15001420D01*
X-1673440Y-15001420D02*
X-1711535Y-14963325D01*
X-1711535Y-14963325D02*
X-1787725Y-14925230D01*
X-1787725Y-14925230D02*
X-1978201Y-14925230D01*
X-1978201Y-14925230D02*
X-2054392Y-14963325D01*
X-2054392Y-14963325D02*
X-2092487Y-15001420D01*
X-2092487Y-15001420D02*
X-2130582Y-15077611D01*
X-2130582Y-15077611D02*
X-2130582Y-15229992D01*
X-2130582Y-15229992D02*
X-2092487Y-15306182D01*
X-2092487Y-15306182D02*
X-2054392Y-15344277D01*
X-2054392Y-15344277D02*
X-1978201Y-15382373D01*
X-2435344Y-14201420D02*
X-2435344Y-14125230D01*
X-2435344Y-14125230D02*
X-2397249Y-14049039D01*
X-2397249Y-14049039D02*
X-2359154Y-14010944D01*
X-2359154Y-14010944D02*
X-2282963Y-13972849D01*
X-2282963Y-13972849D02*
X-2130582Y-13934754D01*
X-2130582Y-13934754D02*
X-1940106Y-13934754D01*
X-1940106Y-13934754D02*
X-1787725Y-13972849D01*
X-1787725Y-13972849D02*
X-1711535Y-14010944D01*
X-1711535Y-14010944D02*
X-1673440Y-14049039D01*
X-1673440Y-14049039D02*
X-1635344Y-14125230D01*
X-1635344Y-14125230D02*
X-1635344Y-14201420D01*
X-1635344Y-14201420D02*
X-1673440Y-14277611D01*
X-1673440Y-14277611D02*
X-1711535Y-14315706D01*
X-1711535Y-14315706D02*
X-1787725Y-14353801D01*
X-1787725Y-14353801D02*
X-1940106Y-14391897D01*
X-1940106Y-14391897D02*
X-2130582Y-14391897D01*
X-2130582Y-14391897D02*
X-2282963Y-14353801D01*
X-2282963Y-14353801D02*
X-2359154Y-14315706D01*
X-2359154Y-14315706D02*
X-2397249Y-14277611D01*
X-2397249Y-14277611D02*
X-2435344Y-14201420D01*
X-2092487Y-13477611D02*
X-2130582Y-13553801D01*
X-2130582Y-13553801D02*
X-2168678Y-13591896D01*
X-2168678Y-13591896D02*
X-2244868Y-13629992D01*
X-2244868Y-13629992D02*
X-2282963Y-13629992D01*
X-2282963Y-13629992D02*
X-2359154Y-13591896D01*
X-2359154Y-13591896D02*
X-2397249Y-13553801D01*
X-2397249Y-13553801D02*
X-2435344Y-13477611D01*
X-2435344Y-13477611D02*
X-2435344Y-13325230D01*
X-2435344Y-13325230D02*
X-2397249Y-13249039D01*
X-2397249Y-13249039D02*
X-2359154Y-13210944D01*
X-2359154Y-13210944D02*
X-2282963Y-13172849D01*
X-2282963Y-13172849D02*
X-2244868Y-13172849D01*
X-2244868Y-13172849D02*
X-2168678Y-13210944D01*
X-2168678Y-13210944D02*
X-2130582Y-13249039D01*
X-2130582Y-13249039D02*
X-2092487Y-13325230D01*
X-2092487Y-13325230D02*
X-2092487Y-13477611D01*
X-2092487Y-13477611D02*
X-2054392Y-13553801D01*
X-2054392Y-13553801D02*
X-2016297Y-13591896D01*
X-2016297Y-13591896D02*
X-1940106Y-13629992D01*
X-1940106Y-13629992D02*
X-1787725Y-13629992D01*
X-1787725Y-13629992D02*
X-1711535Y-13591896D01*
X-1711535Y-13591896D02*
X-1673440Y-13553801D01*
X-1673440Y-13553801D02*
X-1635344Y-13477611D01*
X-1635344Y-13477611D02*
X-1635344Y-13325230D01*
X-1635344Y-13325230D02*
X-1673440Y-13249039D01*
X-1673440Y-13249039D02*
X-1711535Y-13210944D01*
X-1711535Y-13210944D02*
X-1787725Y-13172849D01*
X-1787725Y-13172849D02*
X-1940106Y-13172849D01*
X-1940106Y-13172849D02*
X-2016297Y-13210944D01*
X-2016297Y-13210944D02*
X-2054392Y-13249039D01*
X-2054392Y-13249039D02*
X-2092487Y-13325230D01*
X-2435344Y-12677610D02*
X-2435344Y-12601420D01*
X-2435344Y-12601420D02*
X-2397249Y-12525229D01*
X-2397249Y-12525229D02*
X-2359154Y-12487134D01*
X-2359154Y-12487134D02*
X-2282963Y-12449039D01*
X-2282963Y-12449039D02*
X-2130582Y-12410944D01*
X-2130582Y-12410944D02*
X-1940106Y-12410944D01*
X-1940106Y-12410944D02*
X-1787725Y-12449039D01*
X-1787725Y-12449039D02*
X-1711535Y-12487134D01*
X-1711535Y-12487134D02*
X-1673440Y-12525229D01*
X-1673440Y-12525229D02*
X-1635344Y-12601420D01*
X-1635344Y-12601420D02*
X-1635344Y-12677610D01*
X-1635344Y-12677610D02*
X-1673440Y-12753801D01*
X-1673440Y-12753801D02*
X-1711535Y-12791896D01*
X-1711535Y-12791896D02*
X-1787725Y-12829991D01*
X-1787725Y-12829991D02*
X-1940106Y-12868087D01*
X-1940106Y-12868087D02*
X-2130582Y-12868087D01*
X-2130582Y-12868087D02*
X-2282963Y-12829991D01*
X-2282963Y-12829991D02*
X-2359154Y-12791896D01*
X-2359154Y-12791896D02*
X-2397249Y-12753801D01*
X-2397249Y-12753801D02*
X-2435344Y-12677610D01*
X-2435344Y-11687134D02*
X-2435344Y-12068086D01*
X-2435344Y-12068086D02*
X-2054392Y-12106182D01*
X-2054392Y-12106182D02*
X-2092487Y-12068086D01*
X-2092487Y-12068086D02*
X-2130582Y-11991896D01*
X-2130582Y-11991896D02*
X-2130582Y-11801420D01*
X-2130582Y-11801420D02*
X-2092487Y-11725229D01*
X-2092487Y-11725229D02*
X-2054392Y-11687134D01*
X-2054392Y-11687134D02*
X-1978201Y-11649039D01*
X-1978201Y-11649039D02*
X-1787725Y-11649039D01*
X-1787725Y-11649039D02*
X-1711535Y-11687134D01*
X-1711535Y-11687134D02*
X-1673440Y-11725229D01*
X-1673440Y-11725229D02*
X-1635344Y-11801420D01*
X-1635344Y-11801420D02*
X-1635344Y-11991896D01*
X-1635344Y-11991896D02*
X-1673440Y-12068086D01*
X-1673440Y-12068086D02*
X-1711535Y-12106182D01*
X-5601080Y-28121455D02*
X-5867747Y-27740502D01*
X-6058223Y-28121455D02*
X-6058223Y-27321455D01*
X-6058223Y-27321455D02*
X-5753461Y-27321455D01*
X-5753461Y-27321455D02*
X-5677271Y-27359550D01*
X-5677271Y-27359550D02*
X-5639176Y-27397645D01*
X-5639176Y-27397645D02*
X-5601080Y-27473836D01*
X-5601080Y-27473836D02*
X-5601080Y-27588121D01*
X-5601080Y-27588121D02*
X-5639176Y-27664312D01*
X-5639176Y-27664312D02*
X-5677271Y-27702407D01*
X-5677271Y-27702407D02*
X-5753461Y-27740502D01*
X-5753461Y-27740502D02*
X-6058223Y-27740502D01*
X-5296319Y-28083360D02*
X-5182033Y-28121455D01*
X-5182033Y-28121455D02*
X-4991557Y-28121455D01*
X-4991557Y-28121455D02*
X-4915366Y-28083360D01*
X-4915366Y-28083360D02*
X-4877271Y-28045264D01*
X-4877271Y-28045264D02*
X-4839176Y-27969074D01*
X-4839176Y-27969074D02*
X-4839176Y-27892883D01*
X-4839176Y-27892883D02*
X-4877271Y-27816693D01*
X-4877271Y-27816693D02*
X-4915366Y-27778598D01*
X-4915366Y-27778598D02*
X-4991557Y-27740502D01*
X-4991557Y-27740502D02*
X-5143938Y-27702407D01*
X-5143938Y-27702407D02*
X-5220128Y-27664312D01*
X-5220128Y-27664312D02*
X-5258223Y-27626217D01*
X-5258223Y-27626217D02*
X-5296319Y-27550026D01*
X-5296319Y-27550026D02*
X-5296319Y-27473836D01*
X-5296319Y-27473836D02*
X-5258223Y-27397645D01*
X-5258223Y-27397645D02*
X-5220128Y-27359550D01*
X-5220128Y-27359550D02*
X-5143938Y-27321455D01*
X-5143938Y-27321455D02*
X-4953461Y-27321455D01*
X-4953461Y-27321455D02*
X-4839176Y-27359550D01*
X-4610604Y-27321455D02*
X-4153461Y-27321455D01*
X-4382033Y-28121455D02*
X-4382033Y-27321455D01*
D11*
X-21608013Y9953817D02*
X-21627061Y9934770D01*
X-21627061Y9934770D02*
X-21684203Y9915722D01*
X-21684203Y9915722D02*
X-21722299Y9915722D01*
X-21722299Y9915722D02*
X-21779442Y9934770D01*
X-21779442Y9934770D02*
X-21817537Y9972865D01*
X-21817537Y9972865D02*
X-21836584Y10010960D01*
X-21836584Y10010960D02*
X-21855632Y10087150D01*
X-21855632Y10087150D02*
X-21855632Y10144293D01*
X-21855632Y10144293D02*
X-21836584Y10220484D01*
X-21836584Y10220484D02*
X-21817537Y10258579D01*
X-21817537Y10258579D02*
X-21779442Y10296674D01*
X-21779442Y10296674D02*
X-21722299Y10315722D01*
X-21722299Y10315722D02*
X-21684203Y10315722D01*
X-21684203Y10315722D02*
X-21627061Y10296674D01*
X-21627061Y10296674D02*
X-21608013Y10277627D01*
X-21227061Y9915722D02*
X-21455632Y9915722D01*
X-21341346Y9915722D02*
X-21341346Y10315722D01*
X-21341346Y10315722D02*
X-21379442Y10258579D01*
X-21379442Y10258579D02*
X-21417537Y10220484D01*
X-21417537Y10220484D02*
X-21455632Y10201436D01*
X-20865156Y10315722D02*
X-20827061Y10315722D01*
X-20827061Y10315722D02*
X-20788965Y10296674D01*
X-20788965Y10296674D02*
X-20769918Y10277627D01*
X-20769918Y10277627D02*
X-20750870Y10239531D01*
X-20750870Y10239531D02*
X-20731823Y10163341D01*
X-20731823Y10163341D02*
X-20731823Y10068103D01*
X-20731823Y10068103D02*
X-20750870Y9991912D01*
X-20750870Y9991912D02*
X-20769918Y9953817D01*
X-20769918Y9953817D02*
X-20788965Y9934770D01*
X-20788965Y9934770D02*
X-20827061Y9915722D01*
X-20827061Y9915722D02*
X-20865156Y9915722D01*
X-20865156Y9915722D02*
X-20903251Y9934770D01*
X-20903251Y9934770D02*
X-20922299Y9953817D01*
X-20922299Y9953817D02*
X-20941346Y9991912D01*
X-20941346Y9991912D02*
X-20960394Y10068103D01*
X-20960394Y10068103D02*
X-20960394Y10163341D01*
X-20960394Y10163341D02*
X-20941346Y10239531D01*
X-20941346Y10239531D02*
X-20922299Y10277627D01*
X-20922299Y10277627D02*
X-20903251Y10296674D01*
X-20903251Y10296674D02*
X-20865156Y10315722D01*
X-20503252Y10144293D02*
X-20541347Y10163341D01*
X-20541347Y10163341D02*
X-20560394Y10182389D01*
X-20560394Y10182389D02*
X-20579442Y10220484D01*
X-20579442Y10220484D02*
X-20579442Y10239531D01*
X-20579442Y10239531D02*
X-20560394Y10277627D01*
X-20560394Y10277627D02*
X-20541347Y10296674D01*
X-20541347Y10296674D02*
X-20503252Y10315722D01*
X-20503252Y10315722D02*
X-20427061Y10315722D01*
X-20427061Y10315722D02*
X-20388966Y10296674D01*
X-20388966Y10296674D02*
X-20369918Y10277627D01*
X-20369918Y10277627D02*
X-20350871Y10239531D01*
X-20350871Y10239531D02*
X-20350871Y10220484D01*
X-20350871Y10220484D02*
X-20369918Y10182389D01*
X-20369918Y10182389D02*
X-20388966Y10163341D01*
X-20388966Y10163341D02*
X-20427061Y10144293D01*
X-20427061Y10144293D02*
X-20503252Y10144293D01*
X-20503252Y10144293D02*
X-20541347Y10125246D01*
X-20541347Y10125246D02*
X-20560394Y10106198D01*
X-20560394Y10106198D02*
X-20579442Y10068103D01*
X-20579442Y10068103D02*
X-20579442Y9991912D01*
X-20579442Y9991912D02*
X-20560394Y9953817D01*
X-20560394Y9953817D02*
X-20541347Y9934770D01*
X-20541347Y9934770D02*
X-20503252Y9915722D01*
X-20503252Y9915722D02*
X-20427061Y9915722D01*
X-20427061Y9915722D02*
X-20388966Y9934770D01*
X-20388966Y9934770D02*
X-20369918Y9953817D01*
X-20369918Y9953817D02*
X-20350871Y9991912D01*
X-20350871Y9991912D02*
X-20350871Y10068103D01*
X-20350871Y10068103D02*
X-20369918Y10106198D01*
X-20369918Y10106198D02*
X-20388966Y10125246D01*
X-20388966Y10125246D02*
X-20427061Y10144293D01*
X-20103252Y10315722D02*
X-20065157Y10315722D01*
X-20065157Y10315722D02*
X-20027061Y10296674D01*
X-20027061Y10296674D02*
X-20008014Y10277627D01*
X-20008014Y10277627D02*
X-19988966Y10239531D01*
X-19988966Y10239531D02*
X-19969919Y10163341D01*
X-19969919Y10163341D02*
X-19969919Y10068103D01*
X-19969919Y10068103D02*
X-19988966Y9991912D01*
X-19988966Y9991912D02*
X-20008014Y9953817D01*
X-20008014Y9953817D02*
X-20027061Y9934770D01*
X-20027061Y9934770D02*
X-20065157Y9915722D01*
X-20065157Y9915722D02*
X-20103252Y9915722D01*
X-20103252Y9915722D02*
X-20141347Y9934770D01*
X-20141347Y9934770D02*
X-20160395Y9953817D01*
X-20160395Y9953817D02*
X-20179442Y9991912D01*
X-20179442Y9991912D02*
X-20198490Y10068103D01*
X-20198490Y10068103D02*
X-20198490Y10163341D01*
X-20198490Y10163341D02*
X-20179442Y10239531D01*
X-20179442Y10239531D02*
X-20160395Y10277627D01*
X-20160395Y10277627D02*
X-20141347Y10296674D01*
X-20141347Y10296674D02*
X-20103252Y10315722D01*
X-19608014Y10315722D02*
X-19798490Y10315722D01*
X-19798490Y10315722D02*
X-19817538Y10125246D01*
X-19817538Y10125246D02*
X-19798490Y10144293D01*
X-19798490Y10144293D02*
X-19760395Y10163341D01*
X-19760395Y10163341D02*
X-19665157Y10163341D01*
X-19665157Y10163341D02*
X-19627062Y10144293D01*
X-19627062Y10144293D02*
X-19608014Y10125246D01*
X-19608014Y10125246D02*
X-19588967Y10087150D01*
X-19588967Y10087150D02*
X-19588967Y9991912D01*
X-19588967Y9991912D02*
X-19608014Y9953817D01*
X-19608014Y9953817D02*
X-19627062Y9934770D01*
X-19627062Y9934770D02*
X-19665157Y9915722D01*
X-19665157Y9915722D02*
X-19760395Y9915722D01*
X-19760395Y9915722D02*
X-19798490Y9934770D01*
X-19798490Y9934770D02*
X-19817538Y9953817D01*
D12*
X-22493728Y11489335D02*
X-22531824Y11451240D01*
X-22531824Y11451240D02*
X-22646109Y11413144D01*
X-22646109Y11413144D02*
X-22722300Y11413144D01*
X-22722300Y11413144D02*
X-22836586Y11451240D01*
X-22836586Y11451240D02*
X-22912776Y11527430D01*
X-22912776Y11527430D02*
X-22950871Y11603620D01*
X-22950871Y11603620D02*
X-22988967Y11756001D01*
X-22988967Y11756001D02*
X-22988967Y11870287D01*
X-22988967Y11870287D02*
X-22950871Y12022668D01*
X-22950871Y12022668D02*
X-22912776Y12098859D01*
X-22912776Y12098859D02*
X-22836586Y12175049D01*
X-22836586Y12175049D02*
X-22722300Y12213144D01*
X-22722300Y12213144D02*
X-22646109Y12213144D01*
X-22646109Y12213144D02*
X-22531824Y12175049D01*
X-22531824Y12175049D02*
X-22493728Y12136954D01*
X-21731824Y11413144D02*
X-22188967Y11413144D01*
X-21960395Y11413144D02*
X-21960395Y12213144D01*
X-21960395Y12213144D02*
X-22036586Y12098859D01*
X-22036586Y12098859D02*
X-22112776Y12022668D01*
X-22112776Y12022668D02*
X-22188967Y11984573D01*
X-21008014Y12213144D02*
X-20931824Y12213144D01*
X-20931824Y12213144D02*
X-20855633Y12175049D01*
X-20855633Y12175049D02*
X-20817538Y12136954D01*
X-20817538Y12136954D02*
X-20779443Y12060763D01*
X-20779443Y12060763D02*
X-20741348Y11908382D01*
X-20741348Y11908382D02*
X-20741348Y11717906D01*
X-20741348Y11717906D02*
X-20779443Y11565525D01*
X-20779443Y11565525D02*
X-20817538Y11489335D01*
X-20817538Y11489335D02*
X-20855633Y11451240D01*
X-20855633Y11451240D02*
X-20931824Y11413144D01*
X-20931824Y11413144D02*
X-21008014Y11413144D01*
X-21008014Y11413144D02*
X-21084205Y11451240D01*
X-21084205Y11451240D02*
X-21122300Y11489335D01*
X-21122300Y11489335D02*
X-21160395Y11565525D01*
X-21160395Y11565525D02*
X-21198491Y11717906D01*
X-21198491Y11717906D02*
X-21198491Y11908382D01*
X-21198491Y11908382D02*
X-21160395Y12060763D01*
X-21160395Y12060763D02*
X-21122300Y12136954D01*
X-21122300Y12136954D02*
X-21084205Y12175049D01*
X-21084205Y12175049D02*
X-21008014Y12213144D01*
X-20284205Y11870287D02*
X-20360395Y11908382D01*
X-20360395Y11908382D02*
X-20398490Y11946478D01*
X-20398490Y11946478D02*
X-20436586Y12022668D01*
X-20436586Y12022668D02*
X-20436586Y12060763D01*
X-20436586Y12060763D02*
X-20398490Y12136954D01*
X-20398490Y12136954D02*
X-20360395Y12175049D01*
X-20360395Y12175049D02*
X-20284205Y12213144D01*
X-20284205Y12213144D02*
X-20131824Y12213144D01*
X-20131824Y12213144D02*
X-20055633Y12175049D01*
X-20055633Y12175049D02*
X-20017538Y12136954D01*
X-20017538Y12136954D02*
X-19979443Y12060763D01*
X-19979443Y12060763D02*
X-19979443Y12022668D01*
X-19979443Y12022668D02*
X-20017538Y11946478D01*
X-20017538Y11946478D02*
X-20055633Y11908382D01*
X-20055633Y11908382D02*
X-20131824Y11870287D01*
X-20131824Y11870287D02*
X-20284205Y11870287D01*
X-20284205Y11870287D02*
X-20360395Y11832192D01*
X-20360395Y11832192D02*
X-20398490Y11794097D01*
X-20398490Y11794097D02*
X-20436586Y11717906D01*
X-20436586Y11717906D02*
X-20436586Y11565525D01*
X-20436586Y11565525D02*
X-20398490Y11489335D01*
X-20398490Y11489335D02*
X-20360395Y11451240D01*
X-20360395Y11451240D02*
X-20284205Y11413144D01*
X-20284205Y11413144D02*
X-20131824Y11413144D01*
X-20131824Y11413144D02*
X-20055633Y11451240D01*
X-20055633Y11451240D02*
X-20017538Y11489335D01*
X-20017538Y11489335D02*
X-19979443Y11565525D01*
X-19979443Y11565525D02*
X-19979443Y11717906D01*
X-19979443Y11717906D02*
X-20017538Y11794097D01*
X-20017538Y11794097D02*
X-20055633Y11832192D01*
X-20055633Y11832192D02*
X-20131824Y11870287D01*
X-19484204Y12213144D02*
X-19408014Y12213144D01*
X-19408014Y12213144D02*
X-19331823Y12175049D01*
X-19331823Y12175049D02*
X-19293728Y12136954D01*
X-19293728Y12136954D02*
X-19255633Y12060763D01*
X-19255633Y12060763D02*
X-19217538Y11908382D01*
X-19217538Y11908382D02*
X-19217538Y11717906D01*
X-19217538Y11717906D02*
X-19255633Y11565525D01*
X-19255633Y11565525D02*
X-19293728Y11489335D01*
X-19293728Y11489335D02*
X-19331823Y11451240D01*
X-19331823Y11451240D02*
X-19408014Y11413144D01*
X-19408014Y11413144D02*
X-19484204Y11413144D01*
X-19484204Y11413144D02*
X-19560395Y11451240D01*
X-19560395Y11451240D02*
X-19598490Y11489335D01*
X-19598490Y11489335D02*
X-19636585Y11565525D01*
X-19636585Y11565525D02*
X-19674681Y11717906D01*
X-19674681Y11717906D02*
X-19674681Y11908382D01*
X-19674681Y11908382D02*
X-19636585Y12060763D01*
X-19636585Y12060763D02*
X-19598490Y12136954D01*
X-19598490Y12136954D02*
X-19560395Y12175049D01*
X-19560395Y12175049D02*
X-19484204Y12213144D01*
X-18493728Y12213144D02*
X-18874680Y12213144D01*
X-18874680Y12213144D02*
X-18912776Y11832192D01*
X-18912776Y11832192D02*
X-18874680Y11870287D01*
X-18874680Y11870287D02*
X-18798490Y11908382D01*
X-18798490Y11908382D02*
X-18608014Y11908382D01*
X-18608014Y11908382D02*
X-18531823Y11870287D01*
X-18531823Y11870287D02*
X-18493728Y11832192D01*
X-18493728Y11832192D02*
X-18455633Y11756001D01*
X-18455633Y11756001D02*
X-18455633Y11565525D01*
X-18455633Y11565525D02*
X-18493728Y11489335D01*
X-18493728Y11489335D02*
X-18531823Y11451240D01*
X-18531823Y11451240D02*
X-18608014Y11413144D01*
X-18608014Y11413144D02*
X-18798490Y11413144D01*
X-18798490Y11413144D02*
X-18874680Y11451240D01*
X-18874680Y11451240D02*
X-18912776Y11489335D01*
X16144936Y-27565902D02*
X16259222Y-27603997D01*
X16259222Y-27603997D02*
X16297317Y-27642093D01*
X16297317Y-27642093D02*
X16335413Y-27718283D01*
X16335413Y-27718283D02*
X16335413Y-27832569D01*
X16335413Y-27832569D02*
X16297317Y-27908759D01*
X16297317Y-27908759D02*
X16259222Y-27946855D01*
X16259222Y-27946855D02*
X16183032Y-27984950D01*
X16183032Y-27984950D02*
X15878270Y-27984950D01*
X15878270Y-27984950D02*
X15878270Y-27184950D01*
X15878270Y-27184950D02*
X16144936Y-27184950D01*
X16144936Y-27184950D02*
X16221127Y-27223045D01*
X16221127Y-27223045D02*
X16259222Y-27261140D01*
X16259222Y-27261140D02*
X16297317Y-27337331D01*
X16297317Y-27337331D02*
X16297317Y-27413521D01*
X16297317Y-27413521D02*
X16259222Y-27489712D01*
X16259222Y-27489712D02*
X16221127Y-27527807D01*
X16221127Y-27527807D02*
X16144936Y-27565902D01*
X16144936Y-27565902D02*
X15878270Y-27565902D01*
X16830651Y-27184950D02*
X16983032Y-27184950D01*
X16983032Y-27184950D02*
X17059222Y-27223045D01*
X17059222Y-27223045D02*
X17135413Y-27299235D01*
X17135413Y-27299235D02*
X17173508Y-27451616D01*
X17173508Y-27451616D02*
X17173508Y-27718283D01*
X17173508Y-27718283D02*
X17135413Y-27870664D01*
X17135413Y-27870664D02*
X17059222Y-27946855D01*
X17059222Y-27946855D02*
X16983032Y-27984950D01*
X16983032Y-27984950D02*
X16830651Y-27984950D01*
X16830651Y-27984950D02*
X16754460Y-27946855D01*
X16754460Y-27946855D02*
X16678270Y-27870664D01*
X16678270Y-27870664D02*
X16640174Y-27718283D01*
X16640174Y-27718283D02*
X16640174Y-27451616D01*
X16640174Y-27451616D02*
X16678270Y-27299235D01*
X16678270Y-27299235D02*
X16754460Y-27223045D01*
X16754460Y-27223045D02*
X16830651Y-27184950D01*
X17668746Y-27184950D02*
X17821127Y-27184950D01*
X17821127Y-27184950D02*
X17897317Y-27223045D01*
X17897317Y-27223045D02*
X17973508Y-27299235D01*
X17973508Y-27299235D02*
X18011603Y-27451616D01*
X18011603Y-27451616D02*
X18011603Y-27718283D01*
X18011603Y-27718283D02*
X17973508Y-27870664D01*
X17973508Y-27870664D02*
X17897317Y-27946855D01*
X17897317Y-27946855D02*
X17821127Y-27984950D01*
X17821127Y-27984950D02*
X17668746Y-27984950D01*
X17668746Y-27984950D02*
X17592555Y-27946855D01*
X17592555Y-27946855D02*
X17516365Y-27870664D01*
X17516365Y-27870664D02*
X17478269Y-27718283D01*
X17478269Y-27718283D02*
X17478269Y-27451616D01*
X17478269Y-27451616D02*
X17516365Y-27299235D01*
X17516365Y-27299235D02*
X17592555Y-27223045D01*
X17592555Y-27223045D02*
X17668746Y-27184950D01*
X18240174Y-27184950D02*
X18697317Y-27184950D01*
X18468745Y-27984950D02*
X18468745Y-27184950D01*
D14*
X4362999Y-19920284D02*
X4325666Y-19957618D01*
X4325666Y-19957618D02*
X4213666Y-19994951D01*
X4213666Y-19994951D02*
X4138999Y-19994951D01*
X4138999Y-19994951D02*
X4026999Y-19957618D01*
X4026999Y-19957618D02*
X3952333Y-19882951D01*
X3952333Y-19882951D02*
X3914999Y-19808284D01*
X3914999Y-19808284D02*
X3877666Y-19658951D01*
X3877666Y-19658951D02*
X3877666Y-19546951D01*
X3877666Y-19546951D02*
X3914999Y-19397618D01*
X3914999Y-19397618D02*
X3952333Y-19322951D01*
X3952333Y-19322951D02*
X4026999Y-19248284D01*
X4026999Y-19248284D02*
X4138999Y-19210951D01*
X4138999Y-19210951D02*
X4213666Y-19210951D01*
X4213666Y-19210951D02*
X4325666Y-19248284D01*
X4325666Y-19248284D02*
X4362999Y-19285618D01*
X4698999Y-19994951D02*
X4698999Y-19210951D01*
X4698999Y-19584284D02*
X5146999Y-19584284D01*
X5146999Y-19994951D02*
X5146999Y-19210951D01*
X5445666Y-19210951D02*
X5930999Y-19210951D01*
X5930999Y-19210951D02*
X5669666Y-19509618D01*
X5669666Y-19509618D02*
X5781666Y-19509618D01*
X5781666Y-19509618D02*
X5856332Y-19546951D01*
X5856332Y-19546951D02*
X5893666Y-19584284D01*
X5893666Y-19584284D02*
X5930999Y-19658951D01*
X5930999Y-19658951D02*
X5930999Y-19845618D01*
X5930999Y-19845618D02*
X5893666Y-19920284D01*
X5893666Y-19920284D02*
X5856332Y-19957618D01*
X5856332Y-19957618D02*
X5781666Y-19994951D01*
X5781666Y-19994951D02*
X5557666Y-19994951D01*
X5557666Y-19994951D02*
X5482999Y-19957618D01*
X5482999Y-19957618D02*
X5445666Y-19920284D01*
X6602999Y-19472284D02*
X6602999Y-19994951D01*
X6416333Y-19173618D02*
X6229666Y-19733618D01*
X6229666Y-19733618D02*
X6714999Y-19733618D01*
X7163000Y-19210951D02*
X7237666Y-19210951D01*
X7237666Y-19210951D02*
X7312333Y-19248284D01*
X7312333Y-19248284D02*
X7349666Y-19285618D01*
X7349666Y-19285618D02*
X7387000Y-19360284D01*
X7387000Y-19360284D02*
X7424333Y-19509618D01*
X7424333Y-19509618D02*
X7424333Y-19696284D01*
X7424333Y-19696284D02*
X7387000Y-19845618D01*
X7387000Y-19845618D02*
X7349666Y-19920284D01*
X7349666Y-19920284D02*
X7312333Y-19957618D01*
X7312333Y-19957618D02*
X7237666Y-19994951D01*
X7237666Y-19994951D02*
X7163000Y-19994951D01*
X7163000Y-19994951D02*
X7088333Y-19957618D01*
X7088333Y-19957618D02*
X7051000Y-19920284D01*
X7051000Y-19920284D02*
X7013666Y-19845618D01*
X7013666Y-19845618D02*
X6976333Y-19696284D01*
X6976333Y-19696284D02*
X6976333Y-19509618D01*
X6976333Y-19509618D02*
X7013666Y-19360284D01*
X7013666Y-19360284D02*
X7051000Y-19285618D01*
X7051000Y-19285618D02*
X7088333Y-19248284D01*
X7088333Y-19248284D02*
X7163000Y-19210951D01*
X8171000Y-19248284D02*
X8096333Y-19210951D01*
X8096333Y-19210951D02*
X7984333Y-19210951D01*
X7984333Y-19210951D02*
X7872333Y-19248284D01*
X7872333Y-19248284D02*
X7797667Y-19322951D01*
X7797667Y-19322951D02*
X7760333Y-19397618D01*
X7760333Y-19397618D02*
X7723000Y-19546951D01*
X7723000Y-19546951D02*
X7723000Y-19658951D01*
X7723000Y-19658951D02*
X7760333Y-19808284D01*
X7760333Y-19808284D02*
X7797667Y-19882951D01*
X7797667Y-19882951D02*
X7872333Y-19957618D01*
X7872333Y-19957618D02*
X7984333Y-19994951D01*
X7984333Y-19994951D02*
X8059000Y-19994951D01*
X8059000Y-19994951D02*
X8171000Y-19957618D01*
X8171000Y-19957618D02*
X8208333Y-19920284D01*
X8208333Y-19920284D02*
X8208333Y-19658951D01*
X8208333Y-19658951D02*
X8059000Y-19658951D01*
D12*
X4734714Y-8172364D02*
X4696618Y-8210460D01*
X4696618Y-8210460D02*
X4582333Y-8248555D01*
X4582333Y-8248555D02*
X4506142Y-8248555D01*
X4506142Y-8248555D02*
X4391856Y-8210460D01*
X4391856Y-8210460D02*
X4315666Y-8134269D01*
X4315666Y-8134269D02*
X4277571Y-8058079D01*
X4277571Y-8058079D02*
X4239475Y-7905698D01*
X4239475Y-7905698D02*
X4239475Y-7791412D01*
X4239475Y-7791412D02*
X4277571Y-7639031D01*
X4277571Y-7639031D02*
X4315666Y-7562840D01*
X4315666Y-7562840D02*
X4391856Y-7486650D01*
X4391856Y-7486650D02*
X4506142Y-7448555D01*
X4506142Y-7448555D02*
X4582333Y-7448555D01*
X4582333Y-7448555D02*
X4696618Y-7486650D01*
X4696618Y-7486650D02*
X4734714Y-7524745D01*
X5077571Y-8248555D02*
X5077571Y-7448555D01*
X5077571Y-7829507D02*
X5534714Y-7829507D01*
X5534714Y-8248555D02*
X5534714Y-7448555D01*
X5839475Y-7448555D02*
X6334713Y-7448555D01*
X6334713Y-7448555D02*
X6068047Y-7753317D01*
X6068047Y-7753317D02*
X6182332Y-7753317D01*
X6182332Y-7753317D02*
X6258523Y-7791412D01*
X6258523Y-7791412D02*
X6296618Y-7829507D01*
X6296618Y-7829507D02*
X6334713Y-7905698D01*
X6334713Y-7905698D02*
X6334713Y-8096174D01*
X6334713Y-8096174D02*
X6296618Y-8172364D01*
X6296618Y-8172364D02*
X6258523Y-8210460D01*
X6258523Y-8210460D02*
X6182332Y-8248555D01*
X6182332Y-8248555D02*
X5953761Y-8248555D01*
X5953761Y-8248555D02*
X5877570Y-8210460D01*
X5877570Y-8210460D02*
X5839475Y-8172364D01*
X7020428Y-7715221D02*
X7020428Y-8248555D01*
X6829952Y-7410460D02*
X6639475Y-7981888D01*
X6639475Y-7981888D02*
X7134714Y-7981888D01*
X7591857Y-7448555D02*
X7668047Y-7448555D01*
X7668047Y-7448555D02*
X7744238Y-7486650D01*
X7744238Y-7486650D02*
X7782333Y-7524745D01*
X7782333Y-7524745D02*
X7820428Y-7600936D01*
X7820428Y-7600936D02*
X7858523Y-7753317D01*
X7858523Y-7753317D02*
X7858523Y-7943793D01*
X7858523Y-7943793D02*
X7820428Y-8096174D01*
X7820428Y-8096174D02*
X7782333Y-8172364D01*
X7782333Y-8172364D02*
X7744238Y-8210460D01*
X7744238Y-8210460D02*
X7668047Y-8248555D01*
X7668047Y-8248555D02*
X7591857Y-8248555D01*
X7591857Y-8248555D02*
X7515666Y-8210460D01*
X7515666Y-8210460D02*
X7477571Y-8172364D01*
X7477571Y-8172364D02*
X7439476Y-8096174D01*
X7439476Y-8096174D02*
X7401380Y-7943793D01*
X7401380Y-7943793D02*
X7401380Y-7753317D01*
X7401380Y-7753317D02*
X7439476Y-7600936D01*
X7439476Y-7600936D02*
X7477571Y-7524745D01*
X7477571Y-7524745D02*
X7515666Y-7486650D01*
X7515666Y-7486650D02*
X7591857Y-7448555D01*
X8620428Y-7486650D02*
X8544238Y-7448555D01*
X8544238Y-7448555D02*
X8429952Y-7448555D01*
X8429952Y-7448555D02*
X8315666Y-7486650D01*
X8315666Y-7486650D02*
X8239476Y-7562840D01*
X8239476Y-7562840D02*
X8201381Y-7639031D01*
X8201381Y-7639031D02*
X8163285Y-7791412D01*
X8163285Y-7791412D02*
X8163285Y-7905698D01*
X8163285Y-7905698D02*
X8201381Y-8058079D01*
X8201381Y-8058079D02*
X8239476Y-8134269D01*
X8239476Y-8134269D02*
X8315666Y-8210460D01*
X8315666Y-8210460D02*
X8429952Y-8248555D01*
X8429952Y-8248555D02*
X8506143Y-8248555D01*
X8506143Y-8248555D02*
X8620428Y-8210460D01*
X8620428Y-8210460D02*
X8658524Y-8172364D01*
X8658524Y-8172364D02*
X8658524Y-7905698D01*
X8658524Y-7905698D02*
X8506143Y-7905698D01*
X-21039376Y7998692D02*
X-20925090Y7960597D01*
X-20925090Y7960597D02*
X-20886995Y7922501D01*
X-20886995Y7922501D02*
X-20848899Y7846311D01*
X-20848899Y7846311D02*
X-20848899Y7732025D01*
X-20848899Y7732025D02*
X-20886995Y7655835D01*
X-20886995Y7655835D02*
X-20925090Y7617740D01*
X-20925090Y7617740D02*
X-21001280Y7579644D01*
X-21001280Y7579644D02*
X-21306042Y7579644D01*
X-21306042Y7579644D02*
X-21306042Y8379644D01*
X-21306042Y8379644D02*
X-21039376Y8379644D01*
X-21039376Y8379644D02*
X-20963185Y8341549D01*
X-20963185Y8341549D02*
X-20925090Y8303454D01*
X-20925090Y8303454D02*
X-20886995Y8227263D01*
X-20886995Y8227263D02*
X-20886995Y8151073D01*
X-20886995Y8151073D02*
X-20925090Y8074882D01*
X-20925090Y8074882D02*
X-20963185Y8036787D01*
X-20963185Y8036787D02*
X-21039376Y7998692D01*
X-21039376Y7998692D02*
X-21306042Y7998692D01*
X-20544138Y7808216D02*
X-20163185Y7808216D01*
X-20620328Y7579644D02*
X-20353661Y8379644D01*
X-20353661Y8379644D02*
X-20086995Y7579644D01*
X-19934614Y8379644D02*
X-19477471Y8379644D01*
X-19706043Y7579644D02*
X-19706043Y8379644D01*
X23998876Y24135544D02*
X23998876Y24935544D01*
X23998876Y24554592D02*
X24456019Y24554592D01*
X24456019Y24135544D02*
X24456019Y24935544D01*
X25179828Y24668878D02*
X25179828Y24135544D01*
X24989352Y24973640D02*
X24798875Y24402211D01*
X24798875Y24402211D02*
X25294114Y24402211D01*
X23698876Y27935544D02*
X23698876Y28735544D01*
X23698876Y28354592D02*
X24156019Y28354592D01*
X24156019Y27935544D02*
X24156019Y28735544D01*
X24879828Y28468878D02*
X24879828Y27935544D01*
X24689352Y28773640D02*
X24498875Y28202211D01*
X24498875Y28202211D02*
X24994114Y28202211D01*
D11*
X-11390766Y9896822D02*
X-11524099Y10087298D01*
X-11619337Y9896822D02*
X-11619337Y10296822D01*
X-11619337Y10296822D02*
X-11466956Y10296822D01*
X-11466956Y10296822D02*
X-11428861Y10277774D01*
X-11428861Y10277774D02*
X-11409814Y10258727D01*
X-11409814Y10258727D02*
X-11390766Y10220631D01*
X-11390766Y10220631D02*
X-11390766Y10163489D01*
X-11390766Y10163489D02*
X-11409814Y10125393D01*
X-11409814Y10125393D02*
X-11428861Y10106346D01*
X-11428861Y10106346D02*
X-11466956Y10087298D01*
X-11466956Y10087298D02*
X-11619337Y10087298D01*
X-11238385Y10258727D02*
X-11219337Y10277774D01*
X-11219337Y10277774D02*
X-11181242Y10296822D01*
X-11181242Y10296822D02*
X-11086004Y10296822D01*
X-11086004Y10296822D02*
X-11047909Y10277774D01*
X-11047909Y10277774D02*
X-11028861Y10258727D01*
X-11028861Y10258727D02*
X-11009814Y10220631D01*
X-11009814Y10220631D02*
X-11009814Y10182536D01*
X-11009814Y10182536D02*
X-11028861Y10125393D01*
X-11028861Y10125393D02*
X-11257433Y9896822D01*
X-11257433Y9896822D02*
X-11009814Y9896822D01*
D12*
X-11457432Y7757544D02*
X-11724099Y8138497D01*
X-11914575Y7757544D02*
X-11914575Y8557544D01*
X-11914575Y8557544D02*
X-11609813Y8557544D01*
X-11609813Y8557544D02*
X-11533623Y8519449D01*
X-11533623Y8519449D02*
X-11495528Y8481354D01*
X-11495528Y8481354D02*
X-11457432Y8405163D01*
X-11457432Y8405163D02*
X-11457432Y8290878D01*
X-11457432Y8290878D02*
X-11495528Y8214687D01*
X-11495528Y8214687D02*
X-11533623Y8176592D01*
X-11533623Y8176592D02*
X-11609813Y8138497D01*
X-11609813Y8138497D02*
X-11914575Y8138497D01*
X-11152671Y8481354D02*
X-11114575Y8519449D01*
X-11114575Y8519449D02*
X-11038385Y8557544D01*
X-11038385Y8557544D02*
X-10847909Y8557544D01*
X-10847909Y8557544D02*
X-10771718Y8519449D01*
X-10771718Y8519449D02*
X-10733623Y8481354D01*
X-10733623Y8481354D02*
X-10695528Y8405163D01*
X-10695528Y8405163D02*
X-10695528Y8328973D01*
X-10695528Y8328973D02*
X-10733623Y8214687D01*
X-10733623Y8214687D02*
X-11190766Y7757544D01*
X-11190766Y7757544D02*
X-10695528Y7757544D01*
D11*
X398866Y-22028522D02*
X532199Y-22218998D01*
X627437Y-22028522D02*
X627437Y-22428522D01*
X627437Y-22428522D02*
X475056Y-22428522D01*
X475056Y-22428522D02*
X436961Y-22409474D01*
X436961Y-22409474D02*
X417914Y-22390427D01*
X417914Y-22390427D02*
X398866Y-22352331D01*
X398866Y-22352331D02*
X398866Y-22295189D01*
X398866Y-22295189D02*
X417914Y-22257093D01*
X417914Y-22257093D02*
X436961Y-22238046D01*
X436961Y-22238046D02*
X475056Y-22218998D01*
X475056Y-22218998D02*
X627437Y-22218998D01*
X17914Y-22028522D02*
X246485Y-22028522D01*
X132199Y-22028522D02*
X132199Y-22428522D01*
X132199Y-22428522D02*
X170295Y-22371379D01*
X170295Y-22371379D02*
X208390Y-22333284D01*
X208390Y-22333284D02*
X246485Y-22314236D01*
D12*
X465528Y-23495944D02*
X732195Y-23876897D01*
X922671Y-23495944D02*
X922671Y-24295944D01*
X922671Y-24295944D02*
X617909Y-24295944D01*
X617909Y-24295944D02*
X541719Y-24257849D01*
X541719Y-24257849D02*
X503624Y-24219754D01*
X503624Y-24219754D02*
X465528Y-24143563D01*
X465528Y-24143563D02*
X465528Y-24029278D01*
X465528Y-24029278D02*
X503624Y-23953087D01*
X503624Y-23953087D02*
X541719Y-23914992D01*
X541719Y-23914992D02*
X617909Y-23876897D01*
X617909Y-23876897D02*
X922671Y-23876897D01*
X-296375Y-23495944D02*
X160767Y-23495944D01*
X-67804Y-23495944D02*
X-67804Y-24295944D01*
X-67804Y-24295944D02*
X8386Y-24181659D01*
X8386Y-24181659D02*
X84576Y-24105468D01*
X84576Y-24105468D02*
X160767Y-24067373D01*
D15*
X-6229748Y-4677836D02*
X-6229748Y-5318156D01*
X-6229748Y-5013242D02*
X-6595645Y-5013242D01*
X-6595645Y-4677836D02*
X-6595645Y-5318156D01*
X-7266456Y-4738819D02*
X-7235964Y-4708328D01*
X-7235964Y-4708328D02*
X-7144490Y-4677836D01*
X-7144490Y-4677836D02*
X-7083507Y-4677836D01*
X-7083507Y-4677836D02*
X-6992033Y-4708328D01*
X-6992033Y-4708328D02*
X-6931050Y-4769310D01*
X-6931050Y-4769310D02*
X-6900559Y-4830293D01*
X-6900559Y-4830293D02*
X-6870067Y-4952259D01*
X-6870067Y-4952259D02*
X-6870067Y-5043733D01*
X-6870067Y-5043733D02*
X-6900559Y-5165699D01*
X-6900559Y-5165699D02*
X-6931050Y-5226682D01*
X-6931050Y-5226682D02*
X-6992033Y-5287665D01*
X-6992033Y-5287665D02*
X-7083507Y-5318156D01*
X-7083507Y-5318156D02*
X-7144490Y-5318156D01*
X-7144490Y-5318156D02*
X-7235964Y-5287665D01*
X-7235964Y-5287665D02*
X-7266456Y-5257173D01*
X-7479896Y-4891276D02*
X-7662844Y-4891276D01*
X-7876284Y-4708328D02*
X-7967759Y-4677836D01*
X-7967759Y-4677836D02*
X-8120216Y-4677836D01*
X-8120216Y-4677836D02*
X-8181199Y-4708328D01*
X-8181199Y-4708328D02*
X-8211690Y-4738819D01*
X-8211690Y-4738819D02*
X-8242181Y-4799802D01*
X-8242181Y-4799802D02*
X-8242181Y-4860785D01*
X-8242181Y-4860785D02*
X-8211690Y-4921768D01*
X-8211690Y-4921768D02*
X-8181199Y-4952259D01*
X-8181199Y-4952259D02*
X-8120216Y-4982750D01*
X-8120216Y-4982750D02*
X-7998250Y-5013242D01*
X-7998250Y-5013242D02*
X-7937267Y-5043733D01*
X-7937267Y-5043733D02*
X-7906776Y-5074225D01*
X-7906776Y-5074225D02*
X-7876284Y-5135208D01*
X-7876284Y-5135208D02*
X-7876284Y-5196190D01*
X-7876284Y-5196190D02*
X-7906776Y-5257173D01*
X-7906776Y-5257173D02*
X-7937267Y-5287665D01*
X-7937267Y-5287665D02*
X-7998250Y-5318156D01*
X-7998250Y-5318156D02*
X-8150707Y-5318156D01*
X-8150707Y-5318156D02*
X-8242181Y-5287665D01*
X-8882502Y-4677836D02*
X-8669062Y-4982750D01*
X-8516605Y-4677836D02*
X-8516605Y-5318156D01*
X-8516605Y-5318156D02*
X-8760536Y-5318156D01*
X-8760536Y-5318156D02*
X-8821519Y-5287665D01*
X-8821519Y-5287665D02*
X-8852010Y-5257173D01*
X-8852010Y-5257173D02*
X-8882502Y-5196190D01*
X-8882502Y-5196190D02*
X-8882502Y-5104716D01*
X-8882502Y-5104716D02*
X-8852010Y-5043733D01*
X-8852010Y-5043733D02*
X-8821519Y-5013242D01*
X-8821519Y-5013242D02*
X-8760536Y-4982750D01*
X-8760536Y-4982750D02*
X-8516605Y-4982750D01*
X-9278890Y-5318156D02*
X-9339873Y-5318156D01*
X-9339873Y-5318156D02*
X-9400856Y-5287665D01*
X-9400856Y-5287665D02*
X-9431348Y-5257173D01*
X-9431348Y-5257173D02*
X-9461839Y-5196190D01*
X-9461839Y-5196190D02*
X-9492330Y-5074225D01*
X-9492330Y-5074225D02*
X-9492330Y-4921768D01*
X-9492330Y-4921768D02*
X-9461839Y-4799802D01*
X-9461839Y-4799802D02*
X-9431348Y-4738819D01*
X-9431348Y-4738819D02*
X-9400856Y-4708328D01*
X-9400856Y-4708328D02*
X-9339873Y-4677836D01*
X-9339873Y-4677836D02*
X-9278890Y-4677836D01*
X-9278890Y-4677836D02*
X-9217908Y-4708328D01*
X-9217908Y-4708328D02*
X-9187416Y-4738819D01*
X-9187416Y-4738819D02*
X-9156925Y-4799802D01*
X-9156925Y-4799802D02*
X-9126433Y-4921768D01*
X-9126433Y-4921768D02*
X-9126433Y-5074225D01*
X-9126433Y-5074225D02*
X-9156925Y-5196190D01*
X-9156925Y-5196190D02*
X-9187416Y-5257173D01*
X-9187416Y-5257173D02*
X-9217908Y-5287665D01*
X-9217908Y-5287665D02*
X-9278890Y-5318156D01*
X-10041177Y-5104716D02*
X-10041177Y-4677836D01*
X-9888719Y-5348648D02*
X-9736262Y-4891276D01*
X-9736262Y-4891276D02*
X-10132651Y-4891276D01*
D12*
X23998876Y-16442655D02*
X23998876Y-15642655D01*
X23998876Y-16023607D02*
X24456019Y-16023607D01*
X24456019Y-16442655D02*
X24456019Y-15642655D01*
X24760780Y-15642655D02*
X25256018Y-15642655D01*
X25256018Y-15642655D02*
X24989352Y-15947417D01*
X24989352Y-15947417D02*
X25103637Y-15947417D01*
X25103637Y-15947417D02*
X25179828Y-15985512D01*
X25179828Y-15985512D02*
X25217923Y-16023607D01*
X25217923Y-16023607D02*
X25256018Y-16099798D01*
X25256018Y-16099798D02*
X25256018Y-16290274D01*
X25256018Y-16290274D02*
X25217923Y-16366464D01*
X25217923Y-16366464D02*
X25179828Y-16404560D01*
X25179828Y-16404560D02*
X25103637Y-16442655D01*
X25103637Y-16442655D02*
X24875066Y-16442655D01*
X24875066Y-16442655D02*
X24798875Y-16404560D01*
X24798875Y-16404560D02*
X24760780Y-16366464D01*
X23698876Y-12642655D02*
X23698876Y-11842655D01*
X23698876Y-12223607D02*
X24156019Y-12223607D01*
X24156019Y-12642655D02*
X24156019Y-11842655D01*
X24460780Y-11842655D02*
X24956018Y-11842655D01*
X24956018Y-11842655D02*
X24689352Y-12147417D01*
X24689352Y-12147417D02*
X24803637Y-12147417D01*
X24803637Y-12147417D02*
X24879828Y-12185512D01*
X24879828Y-12185512D02*
X24917923Y-12223607D01*
X24917923Y-12223607D02*
X24956018Y-12299798D01*
X24956018Y-12299798D02*
X24956018Y-12490274D01*
X24956018Y-12490274D02*
X24917923Y-12566464D01*
X24917923Y-12566464D02*
X24879828Y-12604560D01*
X24879828Y-12604560D02*
X24803637Y-12642655D01*
X24803637Y-12642655D02*
X24575066Y-12642655D01*
X24575066Y-12642655D02*
X24498875Y-12604560D01*
X24498875Y-12604560D02*
X24460780Y-12566464D01*
X-14581123Y24135544D02*
X-14581123Y24935544D01*
X-14581123Y24554592D02*
X-14123980Y24554592D01*
X-14123980Y24135544D02*
X-14123980Y24935544D01*
X-13323981Y24135544D02*
X-13781124Y24135544D01*
X-13552552Y24135544D02*
X-13552552Y24935544D01*
X-13552552Y24935544D02*
X-13628743Y24821259D01*
X-13628743Y24821259D02*
X-13704933Y24745068D01*
X-13704933Y24745068D02*
X-13781124Y24706973D01*
X-14881123Y27935544D02*
X-14881123Y28735544D01*
X-14881123Y28354592D02*
X-14423980Y28354592D01*
X-14423980Y27935544D02*
X-14423980Y28735544D01*
X-13623981Y27935544D02*
X-14081124Y27935544D01*
X-13852552Y27935544D02*
X-13852552Y28735544D01*
X-13852552Y28735544D02*
X-13928743Y28621259D01*
X-13928743Y28621259D02*
X-14004933Y28545068D01*
X-14004933Y28545068D02*
X-14081124Y28506973D01*
X-11488883Y-7313655D02*
X-11488883Y-7694608D01*
X-11717455Y-7237465D02*
X-10917455Y-7504132D01*
X-10917455Y-7504132D02*
X-11717455Y-7770798D01*
X-11298407Y-8304131D02*
X-11336502Y-8418417D01*
X-11336502Y-8418417D02*
X-11374598Y-8456512D01*
X-11374598Y-8456512D02*
X-11450788Y-8494608D01*
X-11450788Y-8494608D02*
X-11565074Y-8494608D01*
X-11565074Y-8494608D02*
X-11641264Y-8456512D01*
X-11641264Y-8456512D02*
X-11679360Y-8418417D01*
X-11679360Y-8418417D02*
X-11717455Y-8342227D01*
X-11717455Y-8342227D02*
X-11717455Y-8037465D01*
X-11717455Y-8037465D02*
X-10917455Y-8037465D01*
X-10917455Y-8037465D02*
X-10917455Y-8304131D01*
X-10917455Y-8304131D02*
X-10955550Y-8380322D01*
X-10955550Y-8380322D02*
X-10993645Y-8418417D01*
X-10993645Y-8418417D02*
X-11069836Y-8456512D01*
X-11069836Y-8456512D02*
X-11146026Y-8456512D01*
X-11146026Y-8456512D02*
X-11222217Y-8418417D01*
X-11222217Y-8418417D02*
X-11260312Y-8380322D01*
X-11260312Y-8380322D02*
X-11298407Y-8304131D01*
X-11298407Y-8304131D02*
X-11298407Y-8037465D01*
X-11717455Y-9218417D02*
X-11717455Y-8837465D01*
X-11717455Y-8837465D02*
X-10917455Y-8837465D01*
X-11679360Y-9446988D02*
X-11717455Y-9561274D01*
X-11717455Y-9561274D02*
X-11717455Y-9751750D01*
X-11717455Y-9751750D02*
X-11679360Y-9827941D01*
X-11679360Y-9827941D02*
X-11641264Y-9866036D01*
X-11641264Y-9866036D02*
X-11565074Y-9904131D01*
X-11565074Y-9904131D02*
X-11488883Y-9904131D01*
X-11488883Y-9904131D02*
X-11412693Y-9866036D01*
X-11412693Y-9866036D02*
X-11374598Y-9827941D01*
X-11374598Y-9827941D02*
X-11336502Y-9751750D01*
X-11336502Y-9751750D02*
X-11298407Y-9599369D01*
X-11298407Y-9599369D02*
X-11260312Y-9523179D01*
X-11260312Y-9523179D02*
X-11222217Y-9485084D01*
X-11222217Y-9485084D02*
X-11146026Y-9446988D01*
X-11146026Y-9446988D02*
X-11069836Y-9446988D01*
X-11069836Y-9446988D02*
X-10993645Y-9485084D01*
X-10993645Y-9485084D02*
X-10955550Y-9523179D01*
X-10955550Y-9523179D02*
X-10917455Y-9599369D01*
X-10917455Y-9599369D02*
X-10917455Y-9789846D01*
X-10917455Y-9789846D02*
X-10955550Y-9904131D01*
X-11450788Y-10170798D02*
X-11450788Y-10399370D01*
X-11717455Y-11123179D02*
X-11717455Y-10666036D01*
X-11717455Y-10894608D02*
X-10917455Y-10894608D01*
X-10917455Y-10894608D02*
X-11031740Y-10818417D01*
X-11031740Y-10818417D02*
X-11107931Y-10742227D01*
X-11107931Y-10742227D02*
X-11146026Y-10666036D01*
X-10993645Y-11427941D02*
X-10955550Y-11466037D01*
X-10955550Y-11466037D02*
X-10917455Y-11542227D01*
X-10917455Y-11542227D02*
X-10917455Y-11732703D01*
X-10917455Y-11732703D02*
X-10955550Y-11808894D01*
X-10955550Y-11808894D02*
X-10993645Y-11846989D01*
X-10993645Y-11846989D02*
X-11069836Y-11885084D01*
X-11069836Y-11885084D02*
X-11146026Y-11885084D01*
X-11146026Y-11885084D02*
X-11260312Y-11846989D01*
X-11260312Y-11846989D02*
X-11717455Y-11389846D01*
X-11717455Y-11389846D02*
X-11717455Y-11885084D01*
X-11641264Y-12227942D02*
X-11679360Y-12266037D01*
X-11679360Y-12266037D02*
X-11717455Y-12227942D01*
X-11717455Y-12227942D02*
X-11679360Y-12189846D01*
X-11679360Y-12189846D02*
X-11641264Y-12227942D01*
X-11641264Y-12227942D02*
X-11717455Y-12227942D01*
X-10917455Y-12761275D02*
X-10917455Y-12837465D01*
X-10917455Y-12837465D02*
X-10955550Y-12913656D01*
X-10955550Y-12913656D02*
X-10993645Y-12951751D01*
X-10993645Y-12951751D02*
X-11069836Y-12989846D01*
X-11069836Y-12989846D02*
X-11222217Y-13027941D01*
X-11222217Y-13027941D02*
X-11412693Y-13027941D01*
X-11412693Y-13027941D02*
X-11565074Y-12989846D01*
X-11565074Y-12989846D02*
X-11641264Y-12951751D01*
X-11641264Y-12951751D02*
X-11679360Y-12913656D01*
X-11679360Y-12913656D02*
X-11717455Y-12837465D01*
X-11717455Y-12837465D02*
X-11717455Y-12761275D01*
X-11717455Y-12761275D02*
X-11679360Y-12685084D01*
X-11679360Y-12685084D02*
X-11641264Y-12646989D01*
X-11641264Y-12646989D02*
X-11565074Y-12608894D01*
X-11565074Y-12608894D02*
X-11412693Y-12570798D01*
X-11412693Y-12570798D02*
X-11222217Y-12570798D01*
X-11222217Y-12570798D02*
X-11069836Y-12608894D01*
X-11069836Y-12608894D02*
X-10993645Y-12646989D01*
X-10993645Y-12646989D02*
X-10955550Y-12685084D01*
X-10955550Y-12685084D02*
X-10917455Y-12761275D01*
X-10917455Y-13523180D02*
X-10917455Y-13599370D01*
X-10917455Y-13599370D02*
X-10955550Y-13675561D01*
X-10955550Y-13675561D02*
X-10993645Y-13713656D01*
X-10993645Y-13713656D02*
X-11069836Y-13751751D01*
X-11069836Y-13751751D02*
X-11222217Y-13789846D01*
X-11222217Y-13789846D02*
X-11412693Y-13789846D01*
X-11412693Y-13789846D02*
X-11565074Y-13751751D01*
X-11565074Y-13751751D02*
X-11641264Y-13713656D01*
X-11641264Y-13713656D02*
X-11679360Y-13675561D01*
X-11679360Y-13675561D02*
X-11717455Y-13599370D01*
X-11717455Y-13599370D02*
X-11717455Y-13523180D01*
X-11717455Y-13523180D02*
X-11679360Y-13446989D01*
X-11679360Y-13446989D02*
X-11641264Y-13408894D01*
X-11641264Y-13408894D02*
X-11565074Y-13370799D01*
X-11565074Y-13370799D02*
X-11412693Y-13332703D01*
X-11412693Y-13332703D02*
X-11222217Y-13332703D01*
X-11222217Y-13332703D02*
X-11069836Y-13370799D01*
X-11069836Y-13370799D02*
X-10993645Y-13408894D01*
X-10993645Y-13408894D02*
X-10955550Y-13446989D01*
X-10955550Y-13446989D02*
X-10917455Y-13523180D01*
X-10917455Y-14285085D02*
X-10917455Y-14361275D01*
X-10917455Y-14361275D02*
X-10955550Y-14437466D01*
X-10955550Y-14437466D02*
X-10993645Y-14475561D01*
X-10993645Y-14475561D02*
X-11069836Y-14513656D01*
X-11069836Y-14513656D02*
X-11222217Y-14551751D01*
X-11222217Y-14551751D02*
X-11412693Y-14551751D01*
X-11412693Y-14551751D02*
X-11565074Y-14513656D01*
X-11565074Y-14513656D02*
X-11641264Y-14475561D01*
X-11641264Y-14475561D02*
X-11679360Y-14437466D01*
X-11679360Y-14437466D02*
X-11717455Y-14361275D01*
X-11717455Y-14361275D02*
X-11717455Y-14285085D01*
X-11717455Y-14285085D02*
X-11679360Y-14208894D01*
X-11679360Y-14208894D02*
X-11641264Y-14170799D01*
X-11641264Y-14170799D02*
X-11565074Y-14132704D01*
X-11565074Y-14132704D02*
X-11412693Y-14094608D01*
X-11412693Y-14094608D02*
X-11222217Y-14094608D01*
X-11222217Y-14094608D02*
X-11069836Y-14132704D01*
X-11069836Y-14132704D02*
X-10993645Y-14170799D01*
X-10993645Y-14170799D02*
X-10955550Y-14208894D01*
X-10955550Y-14208894D02*
X-10917455Y-14285085D01*
X-11717455Y-14894609D02*
X-10917455Y-14894609D01*
X-10917455Y-14894609D02*
X-11488883Y-15161275D01*
X-11488883Y-15161275D02*
X-10917455Y-15427942D01*
X-10917455Y-15427942D02*
X-11717455Y-15427942D01*
X-11717455Y-15808895D02*
X-10917455Y-15808895D01*
X-11298407Y-15808895D02*
X-11298407Y-16266038D01*
X-11717455Y-16266038D02*
X-10917455Y-16266038D01*
X-10917455Y-16570799D02*
X-10917455Y-17104133D01*
X-10917455Y-17104133D02*
X-11717455Y-16570799D01*
X-11717455Y-16570799D02*
X-11717455Y-17104133D01*
X-11450788Y-17332704D02*
X-11450788Y-17561276D01*
X-11298407Y-18132704D02*
X-11336502Y-18246990D01*
X-11336502Y-18246990D02*
X-11374598Y-18285085D01*
X-11374598Y-18285085D02*
X-11450788Y-18323181D01*
X-11450788Y-18323181D02*
X-11565074Y-18323181D01*
X-11565074Y-18323181D02*
X-11641264Y-18285085D01*
X-11641264Y-18285085D02*
X-11679360Y-18246990D01*
X-11679360Y-18246990D02*
X-11717455Y-18170800D01*
X-11717455Y-18170800D02*
X-11717455Y-17866038D01*
X-11717455Y-17866038D02*
X-10917455Y-17866038D01*
X-10917455Y-17866038D02*
X-10917455Y-18132704D01*
X-10917455Y-18132704D02*
X-10955550Y-18208895D01*
X-10955550Y-18208895D02*
X-10993645Y-18246990D01*
X-10993645Y-18246990D02*
X-11069836Y-18285085D01*
X-11069836Y-18285085D02*
X-11146026Y-18285085D01*
X-11146026Y-18285085D02*
X-11222217Y-18246990D01*
X-11222217Y-18246990D02*
X-11260312Y-18208895D01*
X-11260312Y-18208895D02*
X-11298407Y-18132704D01*
X-11298407Y-18132704D02*
X-11298407Y-17866038D01*
X-11184121Y-19008895D02*
X-11717455Y-19008895D01*
X-10879360Y-18818419D02*
X-11450788Y-18627942D01*
X-11450788Y-18627942D02*
X-11450788Y-19123181D01*
X-11450788Y-19351752D02*
X-11450788Y-19580324D01*
X-10917455Y-19770800D02*
X-10917455Y-20227943D01*
X-11717455Y-19999371D02*
X-10917455Y-19999371D01*
X-13222302Y-12895954D02*
X-13603255Y-12895954D01*
X-12803255Y-12629287D02*
X-13222302Y-12895954D01*
X-13222302Y-12895954D02*
X-12803255Y-13162620D01*
X-13603255Y-13848334D02*
X-13603255Y-13391191D01*
X-13603255Y-13619763D02*
X-12803255Y-13619763D01*
X-12803255Y-13619763D02*
X-12917540Y-13543572D01*
X-12917540Y-13543572D02*
X-12993731Y-13467382D01*
X-12993731Y-13467382D02*
X-13031826Y-13391191D01*
X-3352775Y-23626435D02*
X-3314679Y-23588340D01*
X-3314679Y-23588340D02*
X-3200394Y-23550244D01*
X-3200394Y-23550244D02*
X-3124203Y-23550244D01*
X-3124203Y-23550244D02*
X-3009917Y-23588340D01*
X-3009917Y-23588340D02*
X-2933727Y-23664530D01*
X-2933727Y-23664530D02*
X-2895632Y-23740720D01*
X-2895632Y-23740720D02*
X-2857536Y-23893101D01*
X-2857536Y-23893101D02*
X-2857536Y-24007387D01*
X-2857536Y-24007387D02*
X-2895632Y-24159768D01*
X-2895632Y-24159768D02*
X-2933727Y-24235959D01*
X-2933727Y-24235959D02*
X-3009917Y-24312149D01*
X-3009917Y-24312149D02*
X-3124203Y-24350244D01*
X-3124203Y-24350244D02*
X-3200394Y-24350244D01*
X-3200394Y-24350244D02*
X-3314679Y-24312149D01*
X-3314679Y-24312149D02*
X-3352775Y-24274054D01*
X-3619441Y-24350244D02*
X-4152775Y-24350244D01*
X-4152775Y-24350244D02*
X-3809917Y-23550244D01*
X-4838489Y-24350244D02*
X-4914679Y-24350244D01*
X-4914679Y-24350244D02*
X-4990870Y-24312149D01*
X-4990870Y-24312149D02*
X-5028965Y-24274054D01*
X-5028965Y-24274054D02*
X-5067060Y-24197863D01*
X-5067060Y-24197863D02*
X-5105155Y-24045482D01*
X-5105155Y-24045482D02*
X-5105155Y-23855006D01*
X-5105155Y-23855006D02*
X-5067060Y-23702625D01*
X-5067060Y-23702625D02*
X-5028965Y-23626435D01*
X-5028965Y-23626435D02*
X-4990870Y-23588340D01*
X-4990870Y-23588340D02*
X-4914679Y-23550244D01*
X-4914679Y-23550244D02*
X-4838489Y-23550244D01*
X-4838489Y-23550244D02*
X-4762298Y-23588340D01*
X-4762298Y-23588340D02*
X-4724203Y-23626435D01*
X-4724203Y-23626435D02*
X-4686108Y-23702625D01*
X-4686108Y-23702625D02*
X-4648012Y-23855006D01*
X-4648012Y-23855006D02*
X-4648012Y-24045482D01*
X-4648012Y-24045482D02*
X-4686108Y-24197863D01*
X-4686108Y-24197863D02*
X-4724203Y-24274054D01*
X-4724203Y-24274054D02*
X-4762298Y-24312149D01*
X-4762298Y-24312149D02*
X-4838489Y-24350244D01*
X-5562298Y-24007387D02*
X-5486108Y-24045482D01*
X-5486108Y-24045482D02*
X-5448013Y-24083578D01*
X-5448013Y-24083578D02*
X-5409917Y-24159768D01*
X-5409917Y-24159768D02*
X-5409917Y-24197863D01*
X-5409917Y-24197863D02*
X-5448013Y-24274054D01*
X-5448013Y-24274054D02*
X-5486108Y-24312149D01*
X-5486108Y-24312149D02*
X-5562298Y-24350244D01*
X-5562298Y-24350244D02*
X-5714679Y-24350244D01*
X-5714679Y-24350244D02*
X-5790870Y-24312149D01*
X-5790870Y-24312149D02*
X-5828965Y-24274054D01*
X-5828965Y-24274054D02*
X-5867060Y-24197863D01*
X-5867060Y-24197863D02*
X-5867060Y-24159768D01*
X-5867060Y-24159768D02*
X-5828965Y-24083578D01*
X-5828965Y-24083578D02*
X-5790870Y-24045482D01*
X-5790870Y-24045482D02*
X-5714679Y-24007387D01*
X-5714679Y-24007387D02*
X-5562298Y-24007387D01*
X-5562298Y-24007387D02*
X-5486108Y-23969292D01*
X-5486108Y-23969292D02*
X-5448013Y-23931197D01*
X-5448013Y-23931197D02*
X-5409917Y-23855006D01*
X-5409917Y-23855006D02*
X-5409917Y-23702625D01*
X-5409917Y-23702625D02*
X-5448013Y-23626435D01*
X-5448013Y-23626435D02*
X-5486108Y-23588340D01*
X-5486108Y-23588340D02*
X-5562298Y-23550244D01*
X-5562298Y-23550244D02*
X-5714679Y-23550244D01*
X-5714679Y-23550244D02*
X-5790870Y-23588340D01*
X-5790870Y-23588340D02*
X-5828965Y-23626435D01*
X-5828965Y-23626435D02*
X-5867060Y-23702625D01*
X-5867060Y-23702625D02*
X-5867060Y-23855006D01*
X-5867060Y-23855006D02*
X-5828965Y-23931197D01*
X-5828965Y-23931197D02*
X-5790870Y-23969292D01*
X-5790870Y-23969292D02*
X-5714679Y-24007387D01*
X-6362299Y-24350244D02*
X-6438489Y-24350244D01*
X-6438489Y-24350244D02*
X-6514680Y-24312149D01*
X-6514680Y-24312149D02*
X-6552775Y-24274054D01*
X-6552775Y-24274054D02*
X-6590870Y-24197863D01*
X-6590870Y-24197863D02*
X-6628965Y-24045482D01*
X-6628965Y-24045482D02*
X-6628965Y-23855006D01*
X-6628965Y-23855006D02*
X-6590870Y-23702625D01*
X-6590870Y-23702625D02*
X-6552775Y-23626435D01*
X-6552775Y-23626435D02*
X-6514680Y-23588340D01*
X-6514680Y-23588340D02*
X-6438489Y-23550244D01*
X-6438489Y-23550244D02*
X-6362299Y-23550244D01*
X-6362299Y-23550244D02*
X-6286108Y-23588340D01*
X-6286108Y-23588340D02*
X-6248013Y-23626435D01*
X-6248013Y-23626435D02*
X-6209918Y-23702625D01*
X-6209918Y-23702625D02*
X-6171822Y-23855006D01*
X-6171822Y-23855006D02*
X-6171822Y-24045482D01*
X-6171822Y-24045482D02*
X-6209918Y-24197863D01*
X-6209918Y-24197863D02*
X-6248013Y-24274054D01*
X-6248013Y-24274054D02*
X-6286108Y-24312149D01*
X-6286108Y-24312149D02*
X-6362299Y-24350244D01*
X-7352775Y-24350244D02*
X-6971823Y-24350244D01*
X-6971823Y-24350244D02*
X-6933727Y-23969292D01*
X-6933727Y-23969292D02*
X-6971823Y-24007387D01*
X-6971823Y-24007387D02*
X-7048013Y-24045482D01*
X-7048013Y-24045482D02*
X-7238489Y-24045482D01*
X-7238489Y-24045482D02*
X-7314680Y-24007387D01*
X-7314680Y-24007387D02*
X-7352775Y-23969292D01*
X-7352775Y-23969292D02*
X-7390870Y-23893101D01*
X-7390870Y-23893101D02*
X-7390870Y-23702625D01*
X-7390870Y-23702625D02*
X-7352775Y-23626435D01*
X-7352775Y-23626435D02*
X-7314680Y-23588340D01*
X-7314680Y-23588340D02*
X-7238489Y-23550244D01*
X-7238489Y-23550244D02*
X-7048013Y-23550244D01*
X-7048013Y-23550244D02*
X-6971823Y-23588340D01*
X-6971823Y-23588340D02*
X-6933727Y-23626435D01*
X-14581123Y-25909855D02*
X-14581123Y-25109855D01*
X-14581123Y-25490807D02*
X-14123980Y-25490807D01*
X-14123980Y-25909855D02*
X-14123980Y-25109855D01*
X-13781124Y-25186045D02*
X-13743028Y-25147950D01*
X-13743028Y-25147950D02*
X-13666838Y-25109855D01*
X-13666838Y-25109855D02*
X-13476362Y-25109855D01*
X-13476362Y-25109855D02*
X-13400171Y-25147950D01*
X-13400171Y-25147950D02*
X-13362076Y-25186045D01*
X-13362076Y-25186045D02*
X-13323981Y-25262236D01*
X-13323981Y-25262236D02*
X-13323981Y-25338426D01*
X-13323981Y-25338426D02*
X-13362076Y-25452712D01*
X-13362076Y-25452712D02*
X-13819219Y-25909855D01*
X-13819219Y-25909855D02*
X-13323981Y-25909855D01*
X-14881123Y-22109855D02*
X-14881123Y-21309855D01*
X-14881123Y-21690807D02*
X-14423980Y-21690807D01*
X-14423980Y-22109855D02*
X-14423980Y-21309855D01*
X-14081124Y-21386045D02*
X-14043028Y-21347950D01*
X-14043028Y-21347950D02*
X-13966838Y-21309855D01*
X-13966838Y-21309855D02*
X-13776362Y-21309855D01*
X-13776362Y-21309855D02*
X-13700171Y-21347950D01*
X-13700171Y-21347950D02*
X-13662076Y-21386045D01*
X-13662076Y-21386045D02*
X-13623981Y-21462236D01*
X-13623981Y-21462236D02*
X-13623981Y-21538426D01*
X-13623981Y-21538426D02*
X-13662076Y-21652712D01*
X-13662076Y-21652712D02*
X-14119219Y-22109855D01*
X-14119219Y-22109855D02*
X-13623981Y-22109855D01*
D11*
X-8936017Y13649686D02*
X-8916970Y13630638D01*
X-8916970Y13630638D02*
X-8897922Y13573496D01*
X-8897922Y13573496D02*
X-8897922Y13535400D01*
X-8897922Y13535400D02*
X-8916970Y13478257D01*
X-8916970Y13478257D02*
X-8955065Y13440162D01*
X-8955065Y13440162D02*
X-8993160Y13421115D01*
X-8993160Y13421115D02*
X-9069350Y13402067D01*
X-9069350Y13402067D02*
X-9126493Y13402067D01*
X-9126493Y13402067D02*
X-9202684Y13421115D01*
X-9202684Y13421115D02*
X-9240779Y13440162D01*
X-9240779Y13440162D02*
X-9278874Y13478257D01*
X-9278874Y13478257D02*
X-9297922Y13535400D01*
X-9297922Y13535400D02*
X-9297922Y13573496D01*
X-9297922Y13573496D02*
X-9278874Y13630638D01*
X-9278874Y13630638D02*
X-9259827Y13649686D01*
X-9164589Y13992543D02*
X-8897922Y13992543D01*
X-9316970Y13897305D02*
X-9031255Y13802067D01*
X-9031255Y13802067D02*
X-9031255Y14049686D01*
X-9297922Y14392543D02*
X-9297922Y14430638D01*
X-9297922Y14430638D02*
X-9278874Y14468734D01*
X-9278874Y14468734D02*
X-9259827Y14487781D01*
X-9259827Y14487781D02*
X-9221731Y14506829D01*
X-9221731Y14506829D02*
X-9145541Y14525876D01*
X-9145541Y14525876D02*
X-9050303Y14525876D01*
X-9050303Y14525876D02*
X-8974112Y14506829D01*
X-8974112Y14506829D02*
X-8936017Y14487781D01*
X-8936017Y14487781D02*
X-8916970Y14468734D01*
X-8916970Y14468734D02*
X-8897922Y14430638D01*
X-8897922Y14430638D02*
X-8897922Y14392543D01*
X-8897922Y14392543D02*
X-8916970Y14354448D01*
X-8916970Y14354448D02*
X-8936017Y14335400D01*
X-8936017Y14335400D02*
X-8974112Y14316353D01*
X-8974112Y14316353D02*
X-9050303Y14297305D01*
X-9050303Y14297305D02*
X-9145541Y14297305D01*
X-9145541Y14297305D02*
X-9221731Y14316353D01*
X-9221731Y14316353D02*
X-9259827Y14335400D01*
X-9259827Y14335400D02*
X-9278874Y14354448D01*
X-9278874Y14354448D02*
X-9297922Y14392543D01*
X-9126493Y14754447D02*
X-9145541Y14716352D01*
X-9145541Y14716352D02*
X-9164589Y14697305D01*
X-9164589Y14697305D02*
X-9202684Y14678257D01*
X-9202684Y14678257D02*
X-9221731Y14678257D01*
X-9221731Y14678257D02*
X-9259827Y14697305D01*
X-9259827Y14697305D02*
X-9278874Y14716352D01*
X-9278874Y14716352D02*
X-9297922Y14754447D01*
X-9297922Y14754447D02*
X-9297922Y14830638D01*
X-9297922Y14830638D02*
X-9278874Y14868733D01*
X-9278874Y14868733D02*
X-9259827Y14887781D01*
X-9259827Y14887781D02*
X-9221731Y14906828D01*
X-9221731Y14906828D02*
X-9202684Y14906828D01*
X-9202684Y14906828D02*
X-9164589Y14887781D01*
X-9164589Y14887781D02*
X-9145541Y14868733D01*
X-9145541Y14868733D02*
X-9126493Y14830638D01*
X-9126493Y14830638D02*
X-9126493Y14754447D01*
X-9126493Y14754447D02*
X-9107446Y14716352D01*
X-9107446Y14716352D02*
X-9088398Y14697305D01*
X-9088398Y14697305D02*
X-9050303Y14678257D01*
X-9050303Y14678257D02*
X-8974112Y14678257D01*
X-8974112Y14678257D02*
X-8936017Y14697305D01*
X-8936017Y14697305D02*
X-8916970Y14716352D01*
X-8916970Y14716352D02*
X-8897922Y14754447D01*
X-8897922Y14754447D02*
X-8897922Y14830638D01*
X-8897922Y14830638D02*
X-8916970Y14868733D01*
X-8916970Y14868733D02*
X-8936017Y14887781D01*
X-8936017Y14887781D02*
X-8974112Y14906828D01*
X-8974112Y14906828D02*
X-9050303Y14906828D01*
X-9050303Y14906828D02*
X-9088398Y14887781D01*
X-9088398Y14887781D02*
X-9107446Y14868733D01*
X-9107446Y14868733D02*
X-9126493Y14830638D01*
X-9297922Y15154447D02*
X-9297922Y15192542D01*
X-9297922Y15192542D02*
X-9278874Y15230638D01*
X-9278874Y15230638D02*
X-9259827Y15249685D01*
X-9259827Y15249685D02*
X-9221731Y15268733D01*
X-9221731Y15268733D02*
X-9145541Y15287780D01*
X-9145541Y15287780D02*
X-9050303Y15287780D01*
X-9050303Y15287780D02*
X-8974112Y15268733D01*
X-8974112Y15268733D02*
X-8936017Y15249685D01*
X-8936017Y15249685D02*
X-8916970Y15230638D01*
X-8916970Y15230638D02*
X-8897922Y15192542D01*
X-8897922Y15192542D02*
X-8897922Y15154447D01*
X-8897922Y15154447D02*
X-8916970Y15116352D01*
X-8916970Y15116352D02*
X-8936017Y15097304D01*
X-8936017Y15097304D02*
X-8974112Y15078257D01*
X-8974112Y15078257D02*
X-9050303Y15059209D01*
X-9050303Y15059209D02*
X-9145541Y15059209D01*
X-9145541Y15059209D02*
X-9221731Y15078257D01*
X-9221731Y15078257D02*
X-9259827Y15097304D01*
X-9259827Y15097304D02*
X-9278874Y15116352D01*
X-9278874Y15116352D02*
X-9297922Y15154447D01*
X-9297922Y15649685D02*
X-9297922Y15459209D01*
X-9297922Y15459209D02*
X-9107446Y15440161D01*
X-9107446Y15440161D02*
X-9126493Y15459209D01*
X-9126493Y15459209D02*
X-9145541Y15497304D01*
X-9145541Y15497304D02*
X-9145541Y15592542D01*
X-9145541Y15592542D02*
X-9126493Y15630637D01*
X-9126493Y15630637D02*
X-9107446Y15649685D01*
X-9107446Y15649685D02*
X-9069350Y15668732D01*
X-9069350Y15668732D02*
X-8974112Y15668732D01*
X-8974112Y15668732D02*
X-8936017Y15649685D01*
X-8936017Y15649685D02*
X-8916970Y15630637D01*
X-8916970Y15630637D02*
X-8897922Y15592542D01*
X-8897922Y15592542D02*
X-8897922Y15497304D01*
X-8897922Y15497304D02*
X-8916970Y15459209D01*
X-8916970Y15459209D02*
X-8936017Y15440161D01*
D12*
X-10471535Y12763965D02*
X-10433440Y12725869D01*
X-10433440Y12725869D02*
X-10395344Y12611584D01*
X-10395344Y12611584D02*
X-10395344Y12535393D01*
X-10395344Y12535393D02*
X-10433440Y12421107D01*
X-10433440Y12421107D02*
X-10509630Y12344917D01*
X-10509630Y12344917D02*
X-10585820Y12306822D01*
X-10585820Y12306822D02*
X-10738201Y12268726D01*
X-10738201Y12268726D02*
X-10852487Y12268726D01*
X-10852487Y12268726D02*
X-11004868Y12306822D01*
X-11004868Y12306822D02*
X-11081059Y12344917D01*
X-11081059Y12344917D02*
X-11157249Y12421107D01*
X-11157249Y12421107D02*
X-11195344Y12535393D01*
X-11195344Y12535393D02*
X-11195344Y12611584D01*
X-11195344Y12611584D02*
X-11157249Y12725869D01*
X-11157249Y12725869D02*
X-11119154Y12763965D01*
X-10928678Y13449679D02*
X-10395344Y13449679D01*
X-11233440Y13259203D02*
X-10662011Y13068726D01*
X-10662011Y13068726D02*
X-10662011Y13563965D01*
X-11195344Y14249679D02*
X-11195344Y14325869D01*
X-11195344Y14325869D02*
X-11157249Y14402060D01*
X-11157249Y14402060D02*
X-11119154Y14440155D01*
X-11119154Y14440155D02*
X-11042963Y14478250D01*
X-11042963Y14478250D02*
X-10890582Y14516345D01*
X-10890582Y14516345D02*
X-10700106Y14516345D01*
X-10700106Y14516345D02*
X-10547725Y14478250D01*
X-10547725Y14478250D02*
X-10471535Y14440155D01*
X-10471535Y14440155D02*
X-10433440Y14402060D01*
X-10433440Y14402060D02*
X-10395344Y14325869D01*
X-10395344Y14325869D02*
X-10395344Y14249679D01*
X-10395344Y14249679D02*
X-10433440Y14173488D01*
X-10433440Y14173488D02*
X-10471535Y14135393D01*
X-10471535Y14135393D02*
X-10547725Y14097298D01*
X-10547725Y14097298D02*
X-10700106Y14059202D01*
X-10700106Y14059202D02*
X-10890582Y14059202D01*
X-10890582Y14059202D02*
X-11042963Y14097298D01*
X-11042963Y14097298D02*
X-11119154Y14135393D01*
X-11119154Y14135393D02*
X-11157249Y14173488D01*
X-11157249Y14173488D02*
X-11195344Y14249679D01*
X-10852487Y14973488D02*
X-10890582Y14897298D01*
X-10890582Y14897298D02*
X-10928678Y14859203D01*
X-10928678Y14859203D02*
X-11004868Y14821107D01*
X-11004868Y14821107D02*
X-11042963Y14821107D01*
X-11042963Y14821107D02*
X-11119154Y14859203D01*
X-11119154Y14859203D02*
X-11157249Y14897298D01*
X-11157249Y14897298D02*
X-11195344Y14973488D01*
X-11195344Y14973488D02*
X-11195344Y15125869D01*
X-11195344Y15125869D02*
X-11157249Y15202060D01*
X-11157249Y15202060D02*
X-11119154Y15240155D01*
X-11119154Y15240155D02*
X-11042963Y15278250D01*
X-11042963Y15278250D02*
X-11004868Y15278250D01*
X-11004868Y15278250D02*
X-10928678Y15240155D01*
X-10928678Y15240155D02*
X-10890582Y15202060D01*
X-10890582Y15202060D02*
X-10852487Y15125869D01*
X-10852487Y15125869D02*
X-10852487Y14973488D01*
X-10852487Y14973488D02*
X-10814392Y14897298D01*
X-10814392Y14897298D02*
X-10776297Y14859203D01*
X-10776297Y14859203D02*
X-10700106Y14821107D01*
X-10700106Y14821107D02*
X-10547725Y14821107D01*
X-10547725Y14821107D02*
X-10471535Y14859203D01*
X-10471535Y14859203D02*
X-10433440Y14897298D01*
X-10433440Y14897298D02*
X-10395344Y14973488D01*
X-10395344Y14973488D02*
X-10395344Y15125869D01*
X-10395344Y15125869D02*
X-10433440Y15202060D01*
X-10433440Y15202060D02*
X-10471535Y15240155D01*
X-10471535Y15240155D02*
X-10547725Y15278250D01*
X-10547725Y15278250D02*
X-10700106Y15278250D01*
X-10700106Y15278250D02*
X-10776297Y15240155D01*
X-10776297Y15240155D02*
X-10814392Y15202060D01*
X-10814392Y15202060D02*
X-10852487Y15125869D01*
X-11195344Y15773489D02*
X-11195344Y15849679D01*
X-11195344Y15849679D02*
X-11157249Y15925870D01*
X-11157249Y15925870D02*
X-11119154Y15963965D01*
X-11119154Y15963965D02*
X-11042963Y16002060D01*
X-11042963Y16002060D02*
X-10890582Y16040155D01*
X-10890582Y16040155D02*
X-10700106Y16040155D01*
X-10700106Y16040155D02*
X-10547725Y16002060D01*
X-10547725Y16002060D02*
X-10471535Y15963965D01*
X-10471535Y15963965D02*
X-10433440Y15925870D01*
X-10433440Y15925870D02*
X-10395344Y15849679D01*
X-10395344Y15849679D02*
X-10395344Y15773489D01*
X-10395344Y15773489D02*
X-10433440Y15697298D01*
X-10433440Y15697298D02*
X-10471535Y15659203D01*
X-10471535Y15659203D02*
X-10547725Y15621108D01*
X-10547725Y15621108D02*
X-10700106Y15583012D01*
X-10700106Y15583012D02*
X-10890582Y15583012D01*
X-10890582Y15583012D02*
X-11042963Y15621108D01*
X-11042963Y15621108D02*
X-11119154Y15659203D01*
X-11119154Y15659203D02*
X-11157249Y15697298D01*
X-11157249Y15697298D02*
X-11195344Y15773489D01*
X-11195344Y16763965D02*
X-11195344Y16383013D01*
X-11195344Y16383013D02*
X-10814392Y16344917D01*
X-10814392Y16344917D02*
X-10852487Y16383013D01*
X-10852487Y16383013D02*
X-10890582Y16459203D01*
X-10890582Y16459203D02*
X-10890582Y16649679D01*
X-10890582Y16649679D02*
X-10852487Y16725870D01*
X-10852487Y16725870D02*
X-10814392Y16763965D01*
X-10814392Y16763965D02*
X-10738201Y16802060D01*
X-10738201Y16802060D02*
X-10547725Y16802060D01*
X-10547725Y16802060D02*
X-10471535Y16763965D01*
X-10471535Y16763965D02*
X-10433440Y16725870D01*
X-10433440Y16725870D02*
X-10395344Y16649679D01*
X-10395344Y16649679D02*
X-10395344Y16459203D01*
X-10395344Y16459203D02*
X-10433440Y16383013D01*
X-10433440Y16383013D02*
X-10471535Y16344917D01*
D16*
X6000647Y-29545262D02*
X6000647Y-29225262D01*
X6000647Y-29225262D02*
X6122552Y-29225262D01*
X6122552Y-29225262D02*
X6153028Y-29240500D01*
X6153028Y-29240500D02*
X6168266Y-29255738D01*
X6168266Y-29255738D02*
X6183504Y-29286214D01*
X6183504Y-29286214D02*
X6183504Y-29331928D01*
X6183504Y-29331928D02*
X6168266Y-29362404D01*
X6168266Y-29362404D02*
X6153028Y-29377643D01*
X6153028Y-29377643D02*
X6122552Y-29392881D01*
X6122552Y-29392881D02*
X6000647Y-29392881D01*
X6503504Y-29514785D02*
X6488266Y-29530024D01*
X6488266Y-29530024D02*
X6442552Y-29545262D01*
X6442552Y-29545262D02*
X6412076Y-29545262D01*
X6412076Y-29545262D02*
X6366361Y-29530024D01*
X6366361Y-29530024D02*
X6335885Y-29499547D01*
X6335885Y-29499547D02*
X6320647Y-29469071D01*
X6320647Y-29469071D02*
X6305409Y-29408119D01*
X6305409Y-29408119D02*
X6305409Y-29362404D01*
X6305409Y-29362404D02*
X6320647Y-29301452D01*
X6320647Y-29301452D02*
X6335885Y-29270976D01*
X6335885Y-29270976D02*
X6366361Y-29240500D01*
X6366361Y-29240500D02*
X6412076Y-29225262D01*
X6412076Y-29225262D02*
X6442552Y-29225262D01*
X6442552Y-29225262D02*
X6488266Y-29240500D01*
X6488266Y-29240500D02*
X6503504Y-29255738D01*
X6747314Y-29377643D02*
X6793028Y-29392881D01*
X6793028Y-29392881D02*
X6808266Y-29408119D01*
X6808266Y-29408119D02*
X6823504Y-29438595D01*
X6823504Y-29438595D02*
X6823504Y-29484309D01*
X6823504Y-29484309D02*
X6808266Y-29514785D01*
X6808266Y-29514785D02*
X6793028Y-29530024D01*
X6793028Y-29530024D02*
X6762552Y-29545262D01*
X6762552Y-29545262D02*
X6640647Y-29545262D01*
X6640647Y-29545262D02*
X6640647Y-29225262D01*
X6640647Y-29225262D02*
X6747314Y-29225262D01*
X6747314Y-29225262D02*
X6777790Y-29240500D01*
X6777790Y-29240500D02*
X6793028Y-29255738D01*
X6793028Y-29255738D02*
X6808266Y-29286214D01*
X6808266Y-29286214D02*
X6808266Y-29316690D01*
X6808266Y-29316690D02*
X6793028Y-29347166D01*
X6793028Y-29347166D02*
X6777790Y-29362404D01*
X6777790Y-29362404D02*
X6747314Y-29377643D01*
X6747314Y-29377643D02*
X6640647Y-29377643D01*
X7052076Y-29377643D02*
X7158743Y-29377643D01*
X7204457Y-29545262D02*
X7052076Y-29545262D01*
X7052076Y-29545262D02*
X7052076Y-29225262D01*
X7052076Y-29225262D02*
X7204457Y-29225262D01*
X7478743Y-29545262D02*
X7478743Y-29225262D01*
X7478743Y-29530024D02*
X7448267Y-29545262D01*
X7448267Y-29545262D02*
X7387314Y-29545262D01*
X7387314Y-29545262D02*
X7356838Y-29530024D01*
X7356838Y-29530024D02*
X7341600Y-29514785D01*
X7341600Y-29514785D02*
X7326362Y-29484309D01*
X7326362Y-29484309D02*
X7326362Y-29392881D01*
X7326362Y-29392881D02*
X7341600Y-29362404D01*
X7341600Y-29362404D02*
X7356838Y-29347166D01*
X7356838Y-29347166D02*
X7387314Y-29331928D01*
X7387314Y-29331928D02*
X7448267Y-29331928D01*
X7448267Y-29331928D02*
X7478743Y-29347166D01*
X7768267Y-29331928D02*
X7768267Y-29590976D01*
X7768267Y-29590976D02*
X7753029Y-29621452D01*
X7753029Y-29621452D02*
X7737791Y-29636690D01*
X7737791Y-29636690D02*
X7707314Y-29651928D01*
X7707314Y-29651928D02*
X7661600Y-29651928D01*
X7661600Y-29651928D02*
X7631124Y-29636690D01*
X7768267Y-29530024D02*
X7737791Y-29545262D01*
X7737791Y-29545262D02*
X7676838Y-29545262D01*
X7676838Y-29545262D02*
X7646362Y-29530024D01*
X7646362Y-29530024D02*
X7631124Y-29514785D01*
X7631124Y-29514785D02*
X7615886Y-29484309D01*
X7615886Y-29484309D02*
X7615886Y-29392881D01*
X7615886Y-29392881D02*
X7631124Y-29362404D01*
X7631124Y-29362404D02*
X7646362Y-29347166D01*
X7646362Y-29347166D02*
X7676838Y-29331928D01*
X7676838Y-29331928D02*
X7737791Y-29331928D01*
X7737791Y-29331928D02*
X7768267Y-29347166D01*
X8042553Y-29530024D02*
X8012077Y-29545262D01*
X8012077Y-29545262D02*
X7951124Y-29545262D01*
X7951124Y-29545262D02*
X7920648Y-29530024D01*
X7920648Y-29530024D02*
X7905410Y-29499547D01*
X7905410Y-29499547D02*
X7905410Y-29377643D01*
X7905410Y-29377643D02*
X7920648Y-29347166D01*
X7920648Y-29347166D02*
X7951124Y-29331928D01*
X7951124Y-29331928D02*
X8012077Y-29331928D01*
X8012077Y-29331928D02*
X8042553Y-29347166D01*
X8042553Y-29347166D02*
X8057791Y-29377643D01*
X8057791Y-29377643D02*
X8057791Y-29408119D01*
X8057791Y-29408119D02*
X7905410Y-29438595D01*
D12*
X1444976Y-23564455D02*
X1444976Y-24212074D01*
X1444976Y-24212074D02*
X1483071Y-24288264D01*
X1483071Y-24288264D02*
X1521166Y-24326360D01*
X1521166Y-24326360D02*
X1597357Y-24364455D01*
X1597357Y-24364455D02*
X1749738Y-24364455D01*
X1749738Y-24364455D02*
X1825928Y-24326360D01*
X1825928Y-24326360D02*
X1864023Y-24288264D01*
X1864023Y-24288264D02*
X1902119Y-24212074D01*
X1902119Y-24212074D02*
X1902119Y-23564455D01*
X2244975Y-24326360D02*
X2359261Y-24364455D01*
X2359261Y-24364455D02*
X2549737Y-24364455D01*
X2549737Y-24364455D02*
X2625928Y-24326360D01*
X2625928Y-24326360D02*
X2664023Y-24288264D01*
X2664023Y-24288264D02*
X2702118Y-24212074D01*
X2702118Y-24212074D02*
X2702118Y-24135883D01*
X2702118Y-24135883D02*
X2664023Y-24059693D01*
X2664023Y-24059693D02*
X2625928Y-24021598D01*
X2625928Y-24021598D02*
X2549737Y-23983502D01*
X2549737Y-23983502D02*
X2397356Y-23945407D01*
X2397356Y-23945407D02*
X2321166Y-23907312D01*
X2321166Y-23907312D02*
X2283071Y-23869217D01*
X2283071Y-23869217D02*
X2244975Y-23793026D01*
X2244975Y-23793026D02*
X2244975Y-23716836D01*
X2244975Y-23716836D02*
X2283071Y-23640645D01*
X2283071Y-23640645D02*
X2321166Y-23602550D01*
X2321166Y-23602550D02*
X2397356Y-23564455D01*
X2397356Y-23564455D02*
X2587833Y-23564455D01*
X2587833Y-23564455D02*
X2702118Y-23602550D01*
X3311642Y-23945407D02*
X3425928Y-23983502D01*
X3425928Y-23983502D02*
X3464023Y-24021598D01*
X3464023Y-24021598D02*
X3502119Y-24097788D01*
X3502119Y-24097788D02*
X3502119Y-24212074D01*
X3502119Y-24212074D02*
X3464023Y-24288264D01*
X3464023Y-24288264D02*
X3425928Y-24326360D01*
X3425928Y-24326360D02*
X3349738Y-24364455D01*
X3349738Y-24364455D02*
X3044976Y-24364455D01*
X3044976Y-24364455D02*
X3044976Y-23564455D01*
X3044976Y-23564455D02*
X3311642Y-23564455D01*
X3311642Y-23564455D02*
X3387833Y-23602550D01*
X3387833Y-23602550D02*
X3425928Y-23640645D01*
X3425928Y-23640645D02*
X3464023Y-23716836D01*
X3464023Y-23716836D02*
X3464023Y-23793026D01*
X3464023Y-23793026D02*
X3425928Y-23869217D01*
X3425928Y-23869217D02*
X3387833Y-23907312D01*
X3387833Y-23907312D02*
X3311642Y-23945407D01*
X3311642Y-23945407D02*
X3044976Y-23945407D01*
D11*
X15412586Y-16821382D02*
X15393538Y-16840430D01*
X15393538Y-16840430D02*
X15336396Y-16859477D01*
X15336396Y-16859477D02*
X15298300Y-16859477D01*
X15298300Y-16859477D02*
X15241157Y-16840430D01*
X15241157Y-16840430D02*
X15203062Y-16802334D01*
X15203062Y-16802334D02*
X15184015Y-16764239D01*
X15184015Y-16764239D02*
X15164967Y-16688049D01*
X15164967Y-16688049D02*
X15164967Y-16630906D01*
X15164967Y-16630906D02*
X15184015Y-16554715D01*
X15184015Y-16554715D02*
X15203062Y-16516620D01*
X15203062Y-16516620D02*
X15241157Y-16478525D01*
X15241157Y-16478525D02*
X15298300Y-16459477D01*
X15298300Y-16459477D02*
X15336396Y-16459477D01*
X15336396Y-16459477D02*
X15393538Y-16478525D01*
X15393538Y-16478525D02*
X15412586Y-16497572D01*
X15564967Y-16497572D02*
X15584015Y-16478525D01*
X15584015Y-16478525D02*
X15622110Y-16459477D01*
X15622110Y-16459477D02*
X15717348Y-16459477D01*
X15717348Y-16459477D02*
X15755443Y-16478525D01*
X15755443Y-16478525D02*
X15774491Y-16497572D01*
X15774491Y-16497572D02*
X15793538Y-16535668D01*
X15793538Y-16535668D02*
X15793538Y-16573763D01*
X15793538Y-16573763D02*
X15774491Y-16630906D01*
X15774491Y-16630906D02*
X15545919Y-16859477D01*
X15545919Y-16859477D02*
X15793538Y-16859477D01*
X16155443Y-16459477D02*
X16193538Y-16459477D01*
X16193538Y-16459477D02*
X16231634Y-16478525D01*
X16231634Y-16478525D02*
X16250681Y-16497572D01*
X16250681Y-16497572D02*
X16269729Y-16535668D01*
X16269729Y-16535668D02*
X16288776Y-16611858D01*
X16288776Y-16611858D02*
X16288776Y-16707096D01*
X16288776Y-16707096D02*
X16269729Y-16783287D01*
X16269729Y-16783287D02*
X16250681Y-16821382D01*
X16250681Y-16821382D02*
X16231634Y-16840430D01*
X16231634Y-16840430D02*
X16193538Y-16859477D01*
X16193538Y-16859477D02*
X16155443Y-16859477D01*
X16155443Y-16859477D02*
X16117348Y-16840430D01*
X16117348Y-16840430D02*
X16098300Y-16821382D01*
X16098300Y-16821382D02*
X16079253Y-16783287D01*
X16079253Y-16783287D02*
X16060205Y-16707096D01*
X16060205Y-16707096D02*
X16060205Y-16611858D01*
X16060205Y-16611858D02*
X16079253Y-16535668D01*
X16079253Y-16535668D02*
X16098300Y-16497572D01*
X16098300Y-16497572D02*
X16117348Y-16478525D01*
X16117348Y-16478525D02*
X16155443Y-16459477D01*
X16517347Y-16630906D02*
X16479252Y-16611858D01*
X16479252Y-16611858D02*
X16460205Y-16592810D01*
X16460205Y-16592810D02*
X16441157Y-16554715D01*
X16441157Y-16554715D02*
X16441157Y-16535668D01*
X16441157Y-16535668D02*
X16460205Y-16497572D01*
X16460205Y-16497572D02*
X16479252Y-16478525D01*
X16479252Y-16478525D02*
X16517347Y-16459477D01*
X16517347Y-16459477D02*
X16593538Y-16459477D01*
X16593538Y-16459477D02*
X16631633Y-16478525D01*
X16631633Y-16478525D02*
X16650681Y-16497572D01*
X16650681Y-16497572D02*
X16669728Y-16535668D01*
X16669728Y-16535668D02*
X16669728Y-16554715D01*
X16669728Y-16554715D02*
X16650681Y-16592810D01*
X16650681Y-16592810D02*
X16631633Y-16611858D01*
X16631633Y-16611858D02*
X16593538Y-16630906D01*
X16593538Y-16630906D02*
X16517347Y-16630906D01*
X16517347Y-16630906D02*
X16479252Y-16649953D01*
X16479252Y-16649953D02*
X16460205Y-16669001D01*
X16460205Y-16669001D02*
X16441157Y-16707096D01*
X16441157Y-16707096D02*
X16441157Y-16783287D01*
X16441157Y-16783287D02*
X16460205Y-16821382D01*
X16460205Y-16821382D02*
X16479252Y-16840430D01*
X16479252Y-16840430D02*
X16517347Y-16859477D01*
X16517347Y-16859477D02*
X16593538Y-16859477D01*
X16593538Y-16859477D02*
X16631633Y-16840430D01*
X16631633Y-16840430D02*
X16650681Y-16821382D01*
X16650681Y-16821382D02*
X16669728Y-16783287D01*
X16669728Y-16783287D02*
X16669728Y-16707096D01*
X16669728Y-16707096D02*
X16650681Y-16669001D01*
X16650681Y-16669001D02*
X16631633Y-16649953D01*
X16631633Y-16649953D02*
X16593538Y-16630906D01*
X16917347Y-16459477D02*
X16955442Y-16459477D01*
X16955442Y-16459477D02*
X16993538Y-16478525D01*
X16993538Y-16478525D02*
X17012585Y-16497572D01*
X17012585Y-16497572D02*
X17031633Y-16535668D01*
X17031633Y-16535668D02*
X17050680Y-16611858D01*
X17050680Y-16611858D02*
X17050680Y-16707096D01*
X17050680Y-16707096D02*
X17031633Y-16783287D01*
X17031633Y-16783287D02*
X17012585Y-16821382D01*
X17012585Y-16821382D02*
X16993538Y-16840430D01*
X16993538Y-16840430D02*
X16955442Y-16859477D01*
X16955442Y-16859477D02*
X16917347Y-16859477D01*
X16917347Y-16859477D02*
X16879252Y-16840430D01*
X16879252Y-16840430D02*
X16860204Y-16821382D01*
X16860204Y-16821382D02*
X16841157Y-16783287D01*
X16841157Y-16783287D02*
X16822109Y-16707096D01*
X16822109Y-16707096D02*
X16822109Y-16611858D01*
X16822109Y-16611858D02*
X16841157Y-16535668D01*
X16841157Y-16535668D02*
X16860204Y-16497572D01*
X16860204Y-16497572D02*
X16879252Y-16478525D01*
X16879252Y-16478525D02*
X16917347Y-16459477D01*
X17412585Y-16459477D02*
X17222109Y-16459477D01*
X17222109Y-16459477D02*
X17203061Y-16649953D01*
X17203061Y-16649953D02*
X17222109Y-16630906D01*
X17222109Y-16630906D02*
X17260204Y-16611858D01*
X17260204Y-16611858D02*
X17355442Y-16611858D01*
X17355442Y-16611858D02*
X17393537Y-16630906D01*
X17393537Y-16630906D02*
X17412585Y-16649953D01*
X17412585Y-16649953D02*
X17431632Y-16688049D01*
X17431632Y-16688049D02*
X17431632Y-16783287D01*
X17431632Y-16783287D02*
X17412585Y-16821382D01*
X17412585Y-16821382D02*
X17393537Y-16840430D01*
X17393537Y-16840430D02*
X17355442Y-16859477D01*
X17355442Y-16859477D02*
X17260204Y-16859477D01*
X17260204Y-16859477D02*
X17222109Y-16840430D01*
X17222109Y-16840430D02*
X17203061Y-16821382D01*
D12*
X14526871Y-15285864D02*
X14488775Y-15323960D01*
X14488775Y-15323960D02*
X14374490Y-15362055D01*
X14374490Y-15362055D02*
X14298299Y-15362055D01*
X14298299Y-15362055D02*
X14184013Y-15323960D01*
X14184013Y-15323960D02*
X14107823Y-15247769D01*
X14107823Y-15247769D02*
X14069728Y-15171579D01*
X14069728Y-15171579D02*
X14031632Y-15019198D01*
X14031632Y-15019198D02*
X14031632Y-14904912D01*
X14031632Y-14904912D02*
X14069728Y-14752531D01*
X14069728Y-14752531D02*
X14107823Y-14676340D01*
X14107823Y-14676340D02*
X14184013Y-14600150D01*
X14184013Y-14600150D02*
X14298299Y-14562055D01*
X14298299Y-14562055D02*
X14374490Y-14562055D01*
X14374490Y-14562055D02*
X14488775Y-14600150D01*
X14488775Y-14600150D02*
X14526871Y-14638245D01*
X14831632Y-14638245D02*
X14869728Y-14600150D01*
X14869728Y-14600150D02*
X14945918Y-14562055D01*
X14945918Y-14562055D02*
X15136394Y-14562055D01*
X15136394Y-14562055D02*
X15212585Y-14600150D01*
X15212585Y-14600150D02*
X15250680Y-14638245D01*
X15250680Y-14638245D02*
X15288775Y-14714436D01*
X15288775Y-14714436D02*
X15288775Y-14790626D01*
X15288775Y-14790626D02*
X15250680Y-14904912D01*
X15250680Y-14904912D02*
X14793537Y-15362055D01*
X14793537Y-15362055D02*
X15288775Y-15362055D01*
X16012585Y-14562055D02*
X16088775Y-14562055D01*
X16088775Y-14562055D02*
X16164966Y-14600150D01*
X16164966Y-14600150D02*
X16203061Y-14638245D01*
X16203061Y-14638245D02*
X16241156Y-14714436D01*
X16241156Y-14714436D02*
X16279251Y-14866817D01*
X16279251Y-14866817D02*
X16279251Y-15057293D01*
X16279251Y-15057293D02*
X16241156Y-15209674D01*
X16241156Y-15209674D02*
X16203061Y-15285864D01*
X16203061Y-15285864D02*
X16164966Y-15323960D01*
X16164966Y-15323960D02*
X16088775Y-15362055D01*
X16088775Y-15362055D02*
X16012585Y-15362055D01*
X16012585Y-15362055D02*
X15936394Y-15323960D01*
X15936394Y-15323960D02*
X15898299Y-15285864D01*
X15898299Y-15285864D02*
X15860204Y-15209674D01*
X15860204Y-15209674D02*
X15822108Y-15057293D01*
X15822108Y-15057293D02*
X15822108Y-14866817D01*
X15822108Y-14866817D02*
X15860204Y-14714436D01*
X15860204Y-14714436D02*
X15898299Y-14638245D01*
X15898299Y-14638245D02*
X15936394Y-14600150D01*
X15936394Y-14600150D02*
X16012585Y-14562055D01*
X16736394Y-14904912D02*
X16660204Y-14866817D01*
X16660204Y-14866817D02*
X16622109Y-14828721D01*
X16622109Y-14828721D02*
X16584013Y-14752531D01*
X16584013Y-14752531D02*
X16584013Y-14714436D01*
X16584013Y-14714436D02*
X16622109Y-14638245D01*
X16622109Y-14638245D02*
X16660204Y-14600150D01*
X16660204Y-14600150D02*
X16736394Y-14562055D01*
X16736394Y-14562055D02*
X16888775Y-14562055D01*
X16888775Y-14562055D02*
X16964966Y-14600150D01*
X16964966Y-14600150D02*
X17003061Y-14638245D01*
X17003061Y-14638245D02*
X17041156Y-14714436D01*
X17041156Y-14714436D02*
X17041156Y-14752531D01*
X17041156Y-14752531D02*
X17003061Y-14828721D01*
X17003061Y-14828721D02*
X16964966Y-14866817D01*
X16964966Y-14866817D02*
X16888775Y-14904912D01*
X16888775Y-14904912D02*
X16736394Y-14904912D01*
X16736394Y-14904912D02*
X16660204Y-14943007D01*
X16660204Y-14943007D02*
X16622109Y-14981102D01*
X16622109Y-14981102D02*
X16584013Y-15057293D01*
X16584013Y-15057293D02*
X16584013Y-15209674D01*
X16584013Y-15209674D02*
X16622109Y-15285864D01*
X16622109Y-15285864D02*
X16660204Y-15323960D01*
X16660204Y-15323960D02*
X16736394Y-15362055D01*
X16736394Y-15362055D02*
X16888775Y-15362055D01*
X16888775Y-15362055D02*
X16964966Y-15323960D01*
X16964966Y-15323960D02*
X17003061Y-15285864D01*
X17003061Y-15285864D02*
X17041156Y-15209674D01*
X17041156Y-15209674D02*
X17041156Y-15057293D01*
X17041156Y-15057293D02*
X17003061Y-14981102D01*
X17003061Y-14981102D02*
X16964966Y-14943007D01*
X16964966Y-14943007D02*
X16888775Y-14904912D01*
X17536395Y-14562055D02*
X17612585Y-14562055D01*
X17612585Y-14562055D02*
X17688776Y-14600150D01*
X17688776Y-14600150D02*
X17726871Y-14638245D01*
X17726871Y-14638245D02*
X17764966Y-14714436D01*
X17764966Y-14714436D02*
X17803061Y-14866817D01*
X17803061Y-14866817D02*
X17803061Y-15057293D01*
X17803061Y-15057293D02*
X17764966Y-15209674D01*
X17764966Y-15209674D02*
X17726871Y-15285864D01*
X17726871Y-15285864D02*
X17688776Y-15323960D01*
X17688776Y-15323960D02*
X17612585Y-15362055D01*
X17612585Y-15362055D02*
X17536395Y-15362055D01*
X17536395Y-15362055D02*
X17460204Y-15323960D01*
X17460204Y-15323960D02*
X17422109Y-15285864D01*
X17422109Y-15285864D02*
X17384014Y-15209674D01*
X17384014Y-15209674D02*
X17345918Y-15057293D01*
X17345918Y-15057293D02*
X17345918Y-14866817D01*
X17345918Y-14866817D02*
X17384014Y-14714436D01*
X17384014Y-14714436D02*
X17422109Y-14638245D01*
X17422109Y-14638245D02*
X17460204Y-14600150D01*
X17460204Y-14600150D02*
X17536395Y-14562055D01*
X18526871Y-14562055D02*
X18145919Y-14562055D01*
X18145919Y-14562055D02*
X18107823Y-14943007D01*
X18107823Y-14943007D02*
X18145919Y-14904912D01*
X18145919Y-14904912D02*
X18222109Y-14866817D01*
X18222109Y-14866817D02*
X18412585Y-14866817D01*
X18412585Y-14866817D02*
X18488776Y-14904912D01*
X18488776Y-14904912D02*
X18526871Y-14943007D01*
X18526871Y-14943007D02*
X18564966Y-15019198D01*
X18564966Y-15019198D02*
X18564966Y-15209674D01*
X18564966Y-15209674D02*
X18526871Y-15285864D01*
X18526871Y-15285864D02*
X18488776Y-15323960D01*
X18488776Y-15323960D02*
X18412585Y-15362055D01*
X18412585Y-15362055D02*
X18222109Y-15362055D01*
X18222109Y-15362055D02*
X18145919Y-15323960D01*
X18145919Y-15323960D02*
X18107823Y-15285864D01*
%TO.C,*%
G36*
X-18987388Y-12454362D02*
G01*
X-18348500Y-12718999D01*
X-17799874Y-13139974D01*
X-17378899Y-13688600D01*
X-17114262Y-14327488D01*
X-17024000Y-15013100D01*
X-17114262Y-15698712D01*
X-17378899Y-16337600D01*
X-17799874Y-16886226D01*
X-18348500Y-17307201D01*
X-18987388Y-17571838D01*
X-19673000Y-17662100D01*
X-20358612Y-17571838D01*
X-20997500Y-17307201D01*
X-21546126Y-16886226D01*
X-21967101Y-16337600D01*
X-22231738Y-15698712D01*
X-22322000Y-15013100D01*
X-22231738Y-14327488D01*
X-21967101Y-13688600D01*
X-21546126Y-13139974D01*
X-20997500Y-12718999D01*
X-20358612Y-12454362D01*
X-19673000Y-12364100D01*
X-18987388Y-12454362D01*
G37*
G36*
X-19583177Y-13747738D02*
G01*
X-19507412Y-13771619D01*
X-19444516Y-13807694D01*
X-19393296Y-13852915D01*
X-19352563Y-13904233D01*
X-19321125Y-13958600D01*
X-19297791Y-14012967D01*
X-19281370Y-14064285D01*
X-19270672Y-14109506D01*
X-19264505Y-14145581D01*
X-19261678Y-14169462D01*
X-19261000Y-14178100D01*
X-19261000Y-15056100D01*
X-20085000Y-15056100D01*
X-20085000Y-14157100D01*
X-20083558Y-14148875D01*
X-20078718Y-14126137D01*
X-20069703Y-14091788D01*
X-20055741Y-14048730D01*
X-20036056Y-13999866D01*
X-20009875Y-13948100D01*
X-19976423Y-13896334D01*
X-19934926Y-13847470D01*
X-19884609Y-13804413D01*
X-19824699Y-13770063D01*
X-19754421Y-13747325D01*
X-19673000Y-13739100D01*
X-19583177Y-13747738D01*
G37*
G36*
X-19596685Y-13837021D02*
G01*
X-19540000Y-13860491D01*
X-19490815Y-13895804D01*
X-19448769Y-13939589D01*
X-19413500Y-13988475D01*
X-19384648Y-14039090D01*
X-19361852Y-14088063D01*
X-19344750Y-14132022D01*
X-19332981Y-14167595D01*
X-19326185Y-14191412D01*
X-19324000Y-14200100D01*
X-19734000Y-13839100D01*
X-19661231Y-13828767D01*
X-19596685Y-13837021D01*
G37*
G36*
X-19222134Y-15053568D02*
G01*
X-19215574Y-15054929D01*
X-19209375Y-15057116D01*
X-19203593Y-15060063D01*
X-19198282Y-15063705D01*
X-19193500Y-15067975D01*
X-19189301Y-15072808D01*
X-19185741Y-15078137D01*
X-19182875Y-15083897D01*
X-19180759Y-15090021D01*
X-19179449Y-15096444D01*
X-19179000Y-15103100D01*
X-19179000Y-15189100D01*
X-19179468Y-15195966D01*
X-19180829Y-15202526D01*
X-19183016Y-15208725D01*
X-19185963Y-15214507D01*
X-19189605Y-15219818D01*
X-19193875Y-15224600D01*
X-19198708Y-15228799D01*
X-19204037Y-15232359D01*
X-19209797Y-15235225D01*
X-19215921Y-15237341D01*
X-19222344Y-15238651D01*
X-19229000Y-15239100D01*
X-19856000Y-15239100D01*
X-19863334Y-15239100D01*
X-19871255Y-15239100D01*
X-19879641Y-15239100D01*
X-19888370Y-15239100D01*
X-19897322Y-15239100D01*
X-19906375Y-15239100D01*
X-19915407Y-15239100D01*
X-19924296Y-15239100D01*
X-19932922Y-15239100D01*
X-19941162Y-15239100D01*
X-19948895Y-15239100D01*
X-19956000Y-15239100D01*
X-20139000Y-15239100D01*
X-20145866Y-15238632D01*
X-20152426Y-15237271D01*
X-20158625Y-15235084D01*
X-20164407Y-15232137D01*
X-20169718Y-15228495D01*
X-20174500Y-15224225D01*
X-20178699Y-15219392D01*
X-20182259Y-15214063D01*
X-20185125Y-15208303D01*
X-20187241Y-15202179D01*
X-20188551Y-15195756D01*
X-20189000Y-15189100D01*
X-20189000Y-15103100D01*
X-20188532Y-15096234D01*
X-20187171Y-15089674D01*
X-20184984Y-15083475D01*
X-20182037Y-15077693D01*
X-20178395Y-15072382D01*
X-20174125Y-15067600D01*
X-20169292Y-15063401D01*
X-20163963Y-15059841D01*
X-20158203Y-15056975D01*
X-20152079Y-15054859D01*
X-20145656Y-15053549D01*
X-20139000Y-15053100D01*
X-19229000Y-15053100D01*
X-19222134Y-15053568D01*
G37*
G36*
X-19222134Y-15053568D02*
G01*
X-19215574Y-15054929D01*
X-19209375Y-15057116D01*
X-19203593Y-15060063D01*
X-19198282Y-15063705D01*
X-19193500Y-15067975D01*
X-19189301Y-15072808D01*
X-19185741Y-15078137D01*
X-19182875Y-15083897D01*
X-19180759Y-15090021D01*
X-19179449Y-15096444D01*
X-19179000Y-15103100D01*
X-19179000Y-15189100D01*
X-19179468Y-15195966D01*
X-19180829Y-15202526D01*
X-19183016Y-15208725D01*
X-19185963Y-15214507D01*
X-19189605Y-15219818D01*
X-19193875Y-15224600D01*
X-19198708Y-15228799D01*
X-19204037Y-15232359D01*
X-19209797Y-15235225D01*
X-19215921Y-15237341D01*
X-19222344Y-15238651D01*
X-19229000Y-15239100D01*
X-19856000Y-15239100D01*
X-19863334Y-15239100D01*
X-19871255Y-15239100D01*
X-19879641Y-15239100D01*
X-19888370Y-15239100D01*
X-19897322Y-15239100D01*
X-19906375Y-15239100D01*
X-19915407Y-15239100D01*
X-19924296Y-15239100D01*
X-19932922Y-15239100D01*
X-19941162Y-15239100D01*
X-19948895Y-15239100D01*
X-19956000Y-15239100D01*
X-20139000Y-15239100D01*
X-20145866Y-15238632D01*
X-20152426Y-15237271D01*
X-20158625Y-15235084D01*
X-20164407Y-15232137D01*
X-20169718Y-15228495D01*
X-20174500Y-15224225D01*
X-20178699Y-15219392D01*
X-20182259Y-15214063D01*
X-20185125Y-15208303D01*
X-20187241Y-15202179D01*
X-20188551Y-15195756D01*
X-20189000Y-15189100D01*
X-20189000Y-15103100D01*
X-20188532Y-15096234D01*
X-20187171Y-15089674D01*
X-20184984Y-15083475D01*
X-20182037Y-15077693D01*
X-20178395Y-15072382D01*
X-20174125Y-15067600D01*
X-20169292Y-15063401D01*
X-20163963Y-15059841D01*
X-20158203Y-15056975D01*
X-20152079Y-15054859D01*
X-20145656Y-15053549D01*
X-20139000Y-15053100D01*
X-19229000Y-15053100D01*
X-19222134Y-15053568D01*
G37*
G36*
X-19810000Y-16556100D02*
G01*
X-19890000Y-16556100D01*
X-19893000Y-15243100D01*
X-19810000Y-15243100D01*
X-19810000Y-16556100D01*
G37*
G36*
X-19423000Y-17266100D02*
G01*
X-19516000Y-17266100D01*
X-19516000Y-15243100D01*
X-19423000Y-15243100D01*
X-19423000Y-17266100D01*
G37*
G36*
X-19527764Y-14400435D02*
G01*
X-19518861Y-14407281D01*
X-19505500Y-14418397D01*
X-19488889Y-14433544D01*
X-19470236Y-14452484D01*
X-19450750Y-14474975D01*
X-19431639Y-14500779D01*
X-19414111Y-14529656D01*
X-19399375Y-14561366D01*
X-19388639Y-14595669D01*
X-19383111Y-14632327D01*
X-19384000Y-14671100D01*
X-19390654Y-14709066D01*
X-19401065Y-14743494D01*
X-19414406Y-14774428D01*
X-19429852Y-14801915D01*
X-19446575Y-14825999D01*
X-19463750Y-14846725D01*
X-19480550Y-14864139D01*
X-19496148Y-14878285D01*
X-19509719Y-14889209D01*
X-19520435Y-14896956D01*
X-19527471Y-14901572D01*
X-19530000Y-14903100D01*
X-19530000Y-15056100D01*
X-19804000Y-15058100D01*
X-19805000Y-14909100D01*
X-19808129Y-14907772D01*
X-19816782Y-14903642D01*
X-19829859Y-14896491D01*
X-19846259Y-14886100D01*
X-19864881Y-14872251D01*
X-19884625Y-14854725D01*
X-19904389Y-14833303D01*
X-19923074Y-14807767D01*
X-19939578Y-14777897D01*
X-19952801Y-14743475D01*
X-19961642Y-14704282D01*
X-19965000Y-14660100D01*
X-19962147Y-14615970D01*
X-19954259Y-14576480D01*
X-19942344Y-14541475D01*
X-19927407Y-14510804D01*
X-19910457Y-14484313D01*
X-19892500Y-14461850D01*
X-19874543Y-14443262D01*
X-19857593Y-14428396D01*
X-19842656Y-14417100D01*
X-19830741Y-14409220D01*
X-19822853Y-14404605D01*
X-19820000Y-14403100D01*
X-19819000Y-14633100D01*
X-19671000Y-14715100D01*
X-19529000Y-14626100D01*
X-19531000Y-14398100D01*
X-19527764Y-14400435D01*
G37*
G36*
X-20441000Y-13355100D02*
G01*
X-20692000Y-13355100D01*
X-20692000Y-15724100D01*
X-20441000Y-15724100D01*
X-20441000Y-15986100D01*
X-20964000Y-15986100D01*
X-20964000Y-13104100D01*
X-20441000Y-13104100D01*
X-20441000Y-13355100D01*
G37*
G36*
X-18422000Y-15986100D02*
G01*
X-18946000Y-15986100D01*
X-18946000Y-15724100D01*
X-18673000Y-15724100D01*
X-18673000Y-13345100D01*
X-18946000Y-13345100D01*
X-18946000Y-13104100D01*
X-18422000Y-13104100D01*
X-18422000Y-15986100D01*
G37*
D17*
X-4214900Y16563100D02*
X-3714900Y17063100D01*
X-3714900Y17063100D02*
X-4214900Y17563100D01*
X-4214900Y16563100D02*
X-4214900Y-2216900D01*
X-4214900Y23288100D02*
X13785100Y23288100D01*
X-4214900Y23288100D02*
X-4214900Y17563100D01*
X-4214900Y-2216900D02*
X13785100Y-2216900D01*
X13785100Y-2216900D02*
X13785100Y23288100D01*
X-4334900Y16988100D02*
X-4714900Y16988100D01*
X-4334900Y23408100D02*
X-4334900Y16988100D01*
X13905100Y23408100D02*
X13905100Y16988100D01*
X-4334900Y23408100D02*
X13905100Y23408100D01*
X13905100Y-2336900D02*
X12905100Y-2336900D01*
X13905100Y-1556900D02*
X13905100Y-2336900D01*
X-4334900Y-2336900D02*
X-3334900Y-2336900D01*
X-4334900Y-1556900D02*
X-4334900Y-2336900D01*
X13185100Y28143100D02*
X12985100Y27943100D01*
X13185100Y23543100D02*
X13185100Y28143100D01*
X13185100Y28143100D02*
X13385100Y27943100D01*
X13185100Y23543100D02*
X13385100Y23743100D01*
X13185100Y23543100D02*
X12985100Y23743100D01*
X-4414900Y21418100D02*
X-4614900Y21618100D01*
X-9014900Y21418100D02*
X-4414900Y21418100D01*
X-4414900Y21418100D02*
X-4614900Y21218100D01*
X-9014900Y21418100D02*
X-8814900Y21218100D01*
X-9014900Y21418100D02*
X-8814900Y21618100D01*
X13985100Y21418100D02*
X14185100Y21218100D01*
X13985100Y21418100D02*
X14185100Y21618100D01*
X18585100Y21418100D02*
X18385100Y21218100D01*
X18585100Y21418100D02*
X18385100Y21618100D01*
X13985100Y21418100D02*
X18585100Y21418100D01*
X18785100Y19128100D02*
X16785100Y17513100D01*
X18785100Y20743100D02*
X14785100Y17513100D01*
X18785100Y22358100D02*
X12785100Y17513100D01*
X18785100Y23973100D02*
X10785100Y17513100D01*
X18785100Y25588100D02*
X8785100Y17513100D01*
X18785100Y27203100D02*
X6785100Y17513100D01*
X18260100Y28293100D02*
X4785100Y17513100D01*
X16260100Y28293100D02*
X2785100Y17513100D01*
X14260100Y28293100D02*
X785100Y17513100D01*
X12260100Y28293100D02*
X-1214900Y17513100D01*
X-3214900Y17513100D02*
X10260100Y28293100D01*
X8260100Y28293100D02*
X-5214900Y17513100D01*
X6260100Y28293100D02*
X-7214900Y17513100D01*
X4260100Y28293100D02*
X-9214900Y17513100D01*
X2260100Y28293100D02*
X-9214900Y19128100D01*
X260100Y28293100D02*
X-9214900Y20743100D01*
X-1739900Y28293100D02*
X-9214900Y22358100D01*
X-3739900Y28293100D02*
X-9214900Y23973100D01*
X-5739900Y28293100D02*
X-9214900Y25588100D01*
X-7739900Y28293100D02*
X-9214900Y27203100D01*
X14535100Y17263100D02*
X19035100Y17263100D01*
X-9464900Y17263100D02*
X-4964900Y17263100D01*
X19035100Y28543100D02*
X19035100Y17263100D01*
X-9464900Y28543100D02*
X-9464900Y17263100D01*
X18785100Y28293100D02*
X-9214900Y28293100D01*
X18785100Y17513100D02*
X18785100Y28293100D01*
X18785100Y17513100D02*
X-9214900Y17513100D01*
X-9464900Y28543100D02*
X19035100Y28543100D01*
X14535100Y17263100D02*
X14535100Y-2956900D01*
X-4964900Y-2956900D02*
X14535100Y-2956900D01*
X-4964900Y-2956900D02*
X-4964900Y17263100D01*
X-9214900Y17513100D02*
X-9214900Y28293100D01*
X-13138301Y14742598D02*
X-13138299Y14342598D01*
X-11778301Y14742602D02*
X-11778299Y14342602D01*
X-22154709Y12477205D02*
X-22154691Y19177205D01*
X-18454691Y19177195D02*
X-22154691Y19177205D01*
X-19504709Y12477198D02*
X-22154709Y12477205D01*
X-18454706Y13527195D02*
X-18454691Y19177195D01*
X-18454706Y13527195D02*
X-19504709Y12477198D01*
X15298300Y-13468100D02*
X15298300Y-12218100D01*
X15298300Y-12218100D02*
X17298300Y-12218100D01*
X17298300Y-12218100D02*
X17298300Y-13468100D01*
X17298300Y-13468100D02*
X15298300Y-13468100D01*
X16037000Y-12108100D02*
X16559600Y-12108100D01*
X16037000Y-13578100D02*
X16559600Y-13578100D01*
X14598300Y-13823100D02*
X14598300Y-11863100D01*
X14598300Y-11863100D02*
X17998300Y-11863100D01*
X17998300Y-11863100D02*
X17998300Y-13823100D01*
X17998300Y-13823100D02*
X14598300Y-13823100D01*
X-15783402Y9370601D02*
X-15383402Y9370599D01*
X-15783398Y10730601D02*
X-15383398Y10730599D01*
X-605200Y-8833900D02*
X-605200Y-7583900D01*
X-605200Y-7583900D02*
X1394800Y-7583900D01*
X1394800Y-7583900D02*
X1394800Y-8833900D01*
X1394800Y-8833900D02*
X-605200Y-8833900D01*
X133500Y-7473900D02*
X656100Y-7473900D01*
X133500Y-8943900D02*
X656100Y-8943900D01*
X-1305200Y-9188900D02*
X-1305200Y-7228900D01*
X-1305200Y-7228900D02*
X2094800Y-7228900D01*
X2094800Y-7228900D02*
X2094800Y-9188900D01*
X2094800Y-9188900D02*
X-1305200Y-9188900D01*
X-1055499Y-14177003D02*
X-1055501Y-13654403D01*
X414501Y-14176997D02*
X414499Y-13654397D01*
X-7019000Y-26658400D02*
X-3069000Y-26658400D01*
X-7069000Y-23728400D02*
X-3119000Y-23728400D01*
X-21722300Y9473300D02*
X-21722300Y10723300D01*
X-21722300Y10723300D02*
X-19722300Y10723300D01*
X-19722300Y10723300D02*
X-19722300Y9473300D01*
X-19722300Y9473300D02*
X-21722300Y9473300D01*
X-20983600Y10833300D02*
X-20461000Y10833300D01*
X-20983600Y9363300D02*
X-20461000Y9363300D01*
X-22422300Y9118300D02*
X-22422300Y11078300D01*
X-22422300Y11078300D02*
X-19022300Y11078300D01*
X-19022300Y11078300D02*
X-19022300Y9118300D01*
X-19022300Y9118300D02*
X-22422300Y9118300D01*
X19394704Y-23728405D02*
X15444704Y-23728395D01*
X19444696Y-26658405D02*
X15494696Y-26658395D01*
X5474000Y-8833400D02*
X8399000Y-8833400D01*
X8399000Y-8833400D02*
X8399000Y-18733400D01*
X8399000Y-18733400D02*
X4499000Y-18733400D01*
X4499000Y-18733400D02*
X4499000Y-9808400D01*
X4499000Y-9808400D02*
X5474000Y-8833400D01*
X6449000Y-18843400D02*
X8399000Y-18843400D01*
X6449000Y-18843400D02*
X4499000Y-18843400D01*
X6449000Y-8723400D02*
X8399000Y-8723400D01*
X6449000Y-8723400D02*
X2999000Y-8723400D01*
X2749000Y-8583400D02*
X2749000Y-18983400D01*
X2749000Y-18983400D02*
X10149000Y-18983400D01*
X10149000Y-18983400D02*
X10149000Y-8583400D01*
X10149000Y-8583400D02*
X2749000Y-8583400D01*
X-22308900Y5254800D02*
X-22308900Y6469800D01*
X-22248900Y1294800D02*
X-22248900Y-965200D01*
X-21748900Y1294800D02*
X-21748900Y-965200D01*
X-19148900Y2894800D02*
X-18148900Y2894800D01*
X-19148900Y1294800D02*
X-19148900Y2894800D01*
X-18148900Y1294800D02*
X-19148900Y1294800D01*
X-18148900Y2894800D02*
X-18148900Y1294800D01*
X-21748900Y2894800D02*
X-22748900Y2894800D01*
X-21748900Y1294800D02*
X-21748900Y2894800D01*
X-22748900Y1294800D02*
X-21748900Y1294800D01*
X-22748900Y2894800D02*
X-22748900Y1294800D01*
X-17388900Y5254800D02*
X-18308900Y5254800D01*
X-23508900Y5254800D02*
X-22588900Y5254800D01*
X-19948900Y3394800D02*
X-19948900Y-965200D01*
X-20948900Y3394800D02*
X-19948900Y3394800D01*
X-20948900Y-965200D02*
X-20948900Y3394800D01*
X-18308900Y5254800D02*
X-18588900Y5254800D01*
X-18308900Y6854800D02*
X-18308900Y5254800D01*
X-17388900Y6854800D02*
X-18308900Y6854800D01*
X-17388900Y-965200D02*
X-17388900Y6854800D01*
X-23508900Y-965200D02*
X-17388900Y-965200D01*
X-23508900Y6854800D02*
X-23508900Y-965200D01*
X-22588900Y6854800D02*
X-23508900Y6854800D01*
X-22588900Y5254800D02*
X-22588900Y6854800D01*
X-22308900Y5254800D02*
X-22588900Y5254800D01*
X27108400Y24500700D02*
X27012992Y23776007D01*
X27012992Y23776007D02*
X26733271Y23100700D01*
X26733271Y23100700D02*
X26288299Y22520801D01*
X26288299Y22520801D02*
X25708400Y22075829D01*
X25708400Y22075829D02*
X25033093Y21796108D01*
X25033093Y21796108D02*
X24308400Y21700700D01*
X24308400Y21700700D02*
X23583707Y21796108D01*
X23583707Y21796108D02*
X22908400Y22075829D01*
X22908400Y22075829D02*
X22328501Y22520801D01*
X22328501Y22520801D02*
X21883529Y23100700D01*
X21883529Y23100700D02*
X21603808Y23776007D01*
X21603808Y23776007D02*
X21508400Y24500700D01*
X21508400Y24500700D02*
X21603808Y25225393D01*
X21603808Y25225393D02*
X21883529Y25900700D01*
X21883529Y25900700D02*
X22328501Y26480599D01*
X22328501Y26480599D02*
X22908400Y26925571D01*
X22908400Y26925571D02*
X23583707Y27205292D01*
X23583707Y27205292D02*
X24308400Y27300700D01*
X24308400Y27300700D02*
X25033093Y27205292D01*
X25033093Y27205292D02*
X25708400Y26925571D01*
X25708400Y26925571D02*
X26288299Y26480599D01*
X26288299Y26480599D02*
X26733271Y25900700D01*
X26733271Y25900700D02*
X27012992Y25225393D01*
X27012992Y25225393D02*
X27108400Y24500700D01*
X-12324100Y9454400D02*
X-12324100Y10704400D01*
X-12324100Y10704400D02*
X-10324100Y10704400D01*
X-10324100Y10704400D02*
X-10324100Y9454400D01*
X-10324100Y9454400D02*
X-12324100Y9454400D01*
X-11551200Y10814400D02*
X-11097000Y10814400D01*
X-11551200Y9344400D02*
X-11097000Y9344400D01*
X-13004100Y9129400D02*
X-13004100Y11029400D01*
X-13004100Y11029400D02*
X-9644100Y11029400D01*
X-9644100Y11029400D02*
X-9644100Y9129400D01*
X-9644100Y9129400D02*
X-13004100Y9129400D01*
X1332202Y-21586103D02*
X1332198Y-22836103D01*
X1332198Y-22836103D02*
X-667802Y-22836097D01*
X-667802Y-22836097D02*
X-667798Y-21586097D01*
X-667798Y-21586097D02*
X1332202Y-21586103D01*
X559298Y-22946101D02*
X105098Y-22946099D01*
X559302Y-21476101D02*
X105102Y-21476099D01*
X2012203Y-21261104D02*
X2012197Y-23161104D01*
X2012197Y-23161104D02*
X-1347803Y-23161096D01*
X-1347803Y-23161096D02*
X-1347797Y-21261096D01*
X-1347797Y-21261096D02*
X2012203Y-21261104D01*
X-13911893Y939308D02*
X-13908485Y965190D01*
X-13908485Y965190D02*
X-13898495Y989308D01*
X-13898495Y989308D02*
X-13882603Y1010019D01*
X-13882603Y1010019D02*
X-13861892Y1025911D01*
X-13861892Y1025911D02*
X-13837774Y1035901D01*
X-13837774Y1035901D02*
X-13811892Y1039308D01*
X-13811892Y1039308D02*
X-13786010Y1035900D01*
X-13786010Y1035900D02*
X-13761892Y1025910D01*
X-13761892Y1025910D02*
X-13741182Y1010018D01*
X-13741182Y1010018D02*
X-13725290Y989308D01*
X-13725290Y989308D02*
X-13715300Y965190D01*
X-13715300Y965190D02*
X-13711893Y939308D01*
X-13711893Y939308D02*
X-13715300Y913426D01*
X-13715300Y913426D02*
X-13725290Y889308D01*
X-13725290Y889308D02*
X-13741182Y868597D01*
X-13741182Y868597D02*
X-13761893Y852705D01*
X-13761893Y852705D02*
X-13786011Y842715D01*
X-13786011Y842715D02*
X-13811893Y839308D01*
X-13811893Y839308D02*
X-13837775Y842715D01*
X-13837775Y842715D02*
X-13861893Y852706D01*
X-13861893Y852706D02*
X-13882603Y868597D01*
X-13882603Y868597D02*
X-13898495Y889308D01*
X-13898495Y889308D02*
X-13908485Y913426D01*
X-13908485Y913426D02*
X-13911893Y939308D01*
X-5861894Y389287D02*
X-5861906Y-4110713D01*
X-5861906Y-4110713D02*
X-15761906Y-4110687D01*
X-15761906Y-4110687D02*
X-15761894Y389313D01*
X-15761894Y389313D02*
X-5861894Y389287D01*
X-13911893Y939308D02*
X-13908485Y965190D01*
X-13908485Y965190D02*
X-13898495Y989308D01*
X-13898495Y989308D02*
X-13882603Y1010019D01*
X-13882603Y1010019D02*
X-13861892Y1025911D01*
X-13861892Y1025911D02*
X-13837774Y1035901D01*
X-13837774Y1035901D02*
X-13811892Y1039308D01*
X-13811892Y1039308D02*
X-13786010Y1035900D01*
X-13786010Y1035900D02*
X-13761892Y1025910D01*
X-13761892Y1025910D02*
X-13741182Y1010018D01*
X-13741182Y1010018D02*
X-13725290Y989308D01*
X-13725290Y989308D02*
X-13715300Y965190D01*
X-13715300Y965190D02*
X-13711893Y939308D01*
X-13711893Y939308D02*
X-13715300Y913426D01*
X-13715300Y913426D02*
X-13725290Y889308D01*
X-13725290Y889308D02*
X-13741182Y868597D01*
X-13741182Y868597D02*
X-13761893Y852705D01*
X-13761893Y852705D02*
X-13786011Y842715D01*
X-13786011Y842715D02*
X-13811893Y839308D01*
X-13811893Y839308D02*
X-13837775Y842715D01*
X-13837775Y842715D02*
X-13861893Y852706D01*
X-13861893Y852706D02*
X-13882603Y868597D01*
X-13882603Y868597D02*
X-13898495Y889308D01*
X-13898495Y889308D02*
X-13908485Y913426D01*
X-13908485Y913426D02*
X-13911893Y939308D01*
X-5861906Y-4110713D02*
X-15761906Y-4110687D01*
X-15761906Y-4110687D02*
X-15761894Y389313D01*
X-15761894Y389313D02*
X-5861894Y389287D01*
X-5861894Y389287D02*
X-5861906Y-4110713D01*
X-5611893Y639286D02*
X-5611907Y-4360714D01*
X-5611907Y-4360714D02*
X-16011907Y-4360686D01*
X-16011907Y-4360686D02*
X-16011893Y639314D01*
X-16011893Y639314D02*
X-5611893Y639286D01*
X27108400Y-16077500D02*
X27012992Y-16802193D01*
X27012992Y-16802193D02*
X26733271Y-17477500D01*
X26733271Y-17477500D02*
X26288299Y-18057399D01*
X26288299Y-18057399D02*
X25708400Y-18502371D01*
X25708400Y-18502371D02*
X25033093Y-18782092D01*
X25033093Y-18782092D02*
X24308400Y-18877500D01*
X24308400Y-18877500D02*
X23583707Y-18782092D01*
X23583707Y-18782092D02*
X22908400Y-18502371D01*
X22908400Y-18502371D02*
X22328501Y-18057399D01*
X22328501Y-18057399D02*
X21883529Y-17477500D01*
X21883529Y-17477500D02*
X21603808Y-16802193D01*
X21603808Y-16802193D02*
X21508400Y-16077500D01*
X21508400Y-16077500D02*
X21603808Y-15352807D01*
X21603808Y-15352807D02*
X21883529Y-14677500D01*
X21883529Y-14677500D02*
X22328501Y-14097601D01*
X22328501Y-14097601D02*
X22908400Y-13652629D01*
X22908400Y-13652629D02*
X23583707Y-13372908D01*
X23583707Y-13372908D02*
X24308400Y-13277500D01*
X24308400Y-13277500D02*
X25033093Y-13372908D01*
X25033093Y-13372908D02*
X25708400Y-13652629D01*
X25708400Y-13652629D02*
X26288299Y-14097601D01*
X26288299Y-14097601D02*
X26733271Y-14677500D01*
X26733271Y-14677500D02*
X27012992Y-15352807D01*
X27012992Y-15352807D02*
X27108400Y-16077500D01*
X-11471600Y24500700D02*
X-11567008Y23776007D01*
X-11567008Y23776007D02*
X-11846729Y23100700D01*
X-11846729Y23100700D02*
X-12291701Y22520801D01*
X-12291701Y22520801D02*
X-12871600Y22075829D01*
X-12871600Y22075829D02*
X-13546907Y21796108D01*
X-13546907Y21796108D02*
X-14271600Y21700700D01*
X-14271600Y21700700D02*
X-14996293Y21796108D01*
X-14996293Y21796108D02*
X-15671600Y22075829D01*
X-15671600Y22075829D02*
X-16251499Y22520801D01*
X-16251499Y22520801D02*
X-16696471Y23100700D01*
X-16696471Y23100700D02*
X-16976192Y23776007D01*
X-16976192Y23776007D02*
X-17071600Y24500700D01*
X-17071600Y24500700D02*
X-16976192Y25225393D01*
X-16976192Y25225393D02*
X-16696471Y25900700D01*
X-16696471Y25900700D02*
X-16251499Y26480599D01*
X-16251499Y26480599D02*
X-15671600Y26925571D01*
X-15671600Y26925571D02*
X-14996293Y27205292D01*
X-14996293Y27205292D02*
X-14271600Y27300700D01*
X-14271600Y27300700D02*
X-13546907Y27205292D01*
X-13546907Y27205292D02*
X-12871600Y26925571D01*
X-12871600Y26925571D02*
X-12291701Y26480599D01*
X-12291701Y26480599D02*
X-11846729Y25900700D01*
X-11846729Y25900700D02*
X-11567008Y25225393D01*
X-11567008Y25225393D02*
X-11471600Y24500700D01*
X-10185807Y-6866203D02*
X-10185794Y-19466203D01*
X-5085807Y-6866197D02*
X-6335807Y-6866199D01*
X-5085794Y-19466197D02*
X-5085807Y-6866197D01*
X-8935807Y-6866201D02*
X-10185807Y-6866203D01*
X-4862902Y-22970401D02*
X-5385502Y-22970399D01*
X-4862898Y-21500401D02*
X-5385498Y-21500399D01*
X-11471600Y-25544700D02*
X-11567008Y-26269393D01*
X-11567008Y-26269393D02*
X-11846729Y-26944700D01*
X-11846729Y-26944700D02*
X-12291701Y-27524599D01*
X-12291701Y-27524599D02*
X-12871600Y-27969571D01*
X-12871600Y-27969571D02*
X-13546907Y-28249292D01*
X-13546907Y-28249292D02*
X-14271600Y-28344700D01*
X-14271600Y-28344700D02*
X-14996293Y-28249292D01*
X-14996293Y-28249292D02*
X-15671600Y-27969571D01*
X-15671600Y-27969571D02*
X-16251499Y-27524599D01*
X-16251499Y-27524599D02*
X-16696471Y-26944700D01*
X-16696471Y-26944700D02*
X-16976192Y-26269393D01*
X-16976192Y-26269393D02*
X-17071600Y-25544700D01*
X-17071600Y-25544700D02*
X-16976192Y-24820007D01*
X-16976192Y-24820007D02*
X-16696471Y-24144700D01*
X-16696471Y-24144700D02*
X-16251499Y-23564801D01*
X-16251499Y-23564801D02*
X-15671600Y-23119829D01*
X-15671600Y-23119829D02*
X-14996293Y-22840108D01*
X-14996293Y-22840108D02*
X-14271600Y-22744700D01*
X-14271600Y-22744700D02*
X-13546907Y-22840108D01*
X-13546907Y-22840108D02*
X-12871600Y-23119829D01*
X-12871600Y-23119829D02*
X-12291701Y-23564801D01*
X-12291701Y-23564801D02*
X-11846729Y-24144700D01*
X-11846729Y-24144700D02*
X-11567008Y-24820007D01*
X-11567008Y-24820007D02*
X-11471600Y-25544700D01*
X-8455496Y13535402D02*
X-9705496Y13535398D01*
X-9705496Y13535398D02*
X-9705504Y15535398D01*
X-9705504Y15535398D02*
X-8455504Y15535402D01*
X-8455504Y15535402D02*
X-8455496Y13535402D01*
X-9815499Y14274097D02*
X-9815501Y14796697D01*
X-8345499Y14274103D02*
X-8345501Y14796703D01*
X-8100494Y12835404D02*
X-10060494Y12835396D01*
X-10060494Y12835396D02*
X-10060506Y16235396D01*
X-10060506Y16235396D02*
X-8100506Y16235404D01*
X-8100506Y16235404D02*
X-8100494Y12835404D01*
X10766100Y-29793700D02*
X3266100Y-29793700D01*
X10766100Y-24793700D02*
X10766100Y-29793700D01*
X3266100Y-24793700D02*
X10766100Y-24793700D01*
X3266100Y-29793700D02*
X3266100Y-24793700D01*
X3766100Y-29093700D02*
X10266100Y-29093700D01*
X15298300Y-17301900D02*
X15298300Y-16051900D01*
X15298300Y-16051900D02*
X17298300Y-16051900D01*
X17298300Y-16051900D02*
X17298300Y-17301900D01*
X17298300Y-17301900D02*
X15298300Y-17301900D01*
X16037000Y-15941900D02*
X16559600Y-15941900D01*
X16037000Y-17411900D02*
X16559600Y-17411900D01*
X14598300Y-17656900D02*
X14598300Y-15696900D01*
X14598300Y-15696900D02*
X17998300Y-15696900D01*
X17998300Y-15696900D02*
X17998300Y-17656900D01*
X17998300Y-17656900D02*
X14598300Y-17656900D01*
%TD*%
M02*
