%TF.GenerationSoftware,Flux,Pcbnew,7.0.6-7.0.6~ubuntu20.04.1*%
%TF.CreationDate,2023-09-03T01:02:40+00:00*%
%TF.ProjectId,input,696e7075-742e-46b6-9963-61645f706362,rev?*%
%TF.SameCoordinates,Original*%
%TF.FileFunction,Soldermask,Top*%
%TF.FilePolarity,Negative*%
%FSLAX46Y46*%
G04 Gerber Fmt 4.6, Leading zero omitted, Abs format (unit mm)*
G04 Filename: preprototiposecadosv3*
G04 Build it with Flux! Visit our site at: https://www.flux.ai (PCBNEW 7.0.6-7.0.6~ubuntu20.04.1) date 2023-09-03 01:02:40*
%MOMM*%
%LPD*%
G01*
G04 APERTURE LIST*
G04 APERTURE END LIST*
%TO.C,*%
G36*
X-2714900Y6458100D02*
G01*
X-4714900Y6458100D01*
X-4714900Y7358100D01*
X-2714900Y7358100D01*
X-2714900Y6458100D01*
G37*
G36*
X14285100Y1378100D02*
G01*
X12285100Y1378100D01*
X12285100Y2278100D01*
X14285100Y2278100D01*
X14285100Y1378100D01*
G37*
G36*
X3330100Y-2711900D02*
G01*
X2430100Y-2711900D01*
X2430100Y-711900D01*
X3330100Y-711900D01*
X3330100Y-2711900D01*
G37*
G36*
X4600100Y-2711900D02*
G01*
X3700100Y-2711900D01*
X3700100Y-711900D01*
X4600100Y-711900D01*
X4600100Y-2711900D01*
G37*
G36*
X-2714900Y8998100D02*
G01*
X-4714900Y8998100D01*
X-4714900Y9898100D01*
X-2714900Y9898100D01*
X-2714900Y8998100D01*
G37*
G36*
X-2714900Y11538100D02*
G01*
X-4714900Y11538100D01*
X-4714900Y12438100D01*
X-2714900Y12438100D01*
X-2714900Y11538100D01*
G37*
G36*
X-2714900Y1378100D02*
G01*
X-4714900Y1378100D01*
X-4714900Y2278100D01*
X-2714900Y2278100D01*
X-2714900Y1378100D01*
G37*
G36*
X14285100Y14078100D02*
G01*
X12285100Y14078100D01*
X12285100Y14978100D01*
X14285100Y14978100D01*
X14285100Y14078100D01*
G37*
G36*
X14285100Y15348100D02*
G01*
X12285100Y15348100D01*
X12285100Y16248100D01*
X14285100Y16248100D01*
X14285100Y15348100D01*
G37*
G36*
X14285100Y6458100D02*
G01*
X12285100Y6458100D01*
X12285100Y7358100D01*
X14285100Y7358100D01*
X14285100Y6458100D01*
G37*
G36*
X6285100Y5798100D02*
G01*
X1285100Y5798100D01*
X1285100Y10798100D01*
X6285100Y10798100D01*
X6285100Y5798100D01*
G37*
G36*
X-479900Y-2711900D02*
G01*
X-1379900Y-2711900D01*
X-1379900Y-711900D01*
X-479900Y-711900D01*
X-479900Y-2711900D01*
G37*
G36*
X-2714900Y108100D02*
G01*
X-4714900Y108100D01*
X-4714900Y1008100D01*
X-2714900Y1008100D01*
X-2714900Y108100D01*
G37*
G36*
X2060100Y-2711900D02*
G01*
X1160100Y-2711900D01*
X1160100Y-711900D01*
X2060100Y-711900D01*
X2060100Y-2711900D01*
G37*
G36*
X-2714900Y-1161900D02*
G01*
X-4714900Y-1161900D01*
X-4714900Y-261900D01*
X-2714900Y-261900D01*
X-2714900Y-1161900D01*
G37*
G36*
X14285100Y2648100D02*
G01*
X12285100Y2648100D01*
X12285100Y3548100D01*
X14285100Y3548100D01*
X14285100Y2648100D01*
G37*
G36*
X7140100Y-2711900D02*
G01*
X6240100Y-2711900D01*
X6240100Y-711900D01*
X7140100Y-711900D01*
X7140100Y-2711900D01*
G37*
G36*
X8410100Y-2711900D02*
G01*
X7510100Y-2711900D01*
X7510100Y-711900D01*
X8410100Y-711900D01*
X8410100Y-2711900D01*
G37*
G36*
X-2714900Y2648100D02*
G01*
X-4714900Y2648100D01*
X-4714900Y3548100D01*
X-2714900Y3548100D01*
X-2714900Y2648100D01*
G37*
G36*
X-2714900Y15348100D02*
G01*
X-4714900Y15348100D01*
X-4714900Y16248100D01*
X-2714900Y16248100D01*
X-2714900Y15348100D01*
G37*
G36*
X10950100Y-2711900D02*
G01*
X10050100Y-2711900D01*
X10050100Y-711900D01*
X10950100Y-711900D01*
X10950100Y-2711900D01*
G37*
G36*
X14285100Y-1161900D02*
G01*
X12285100Y-1161900D01*
X12285100Y-261900D01*
X14285100Y-261900D01*
X14285100Y-1161900D01*
G37*
G36*
X14285100Y3918100D02*
G01*
X12285100Y3918100D01*
X12285100Y4818100D01*
X14285100Y4818100D01*
X14285100Y3918100D01*
G37*
G36*
X14285100Y7728100D02*
G01*
X12285100Y7728100D01*
X12285100Y8628100D01*
X14285100Y8628100D01*
X14285100Y7728100D01*
G37*
G36*
X14285100Y5188100D02*
G01*
X12285100Y5188100D01*
X12285100Y6088100D01*
X14285100Y6088100D01*
X14285100Y5188100D01*
G37*
G36*
X5870100Y-2711900D02*
G01*
X4970100Y-2711900D01*
X4970100Y-711900D01*
X5870100Y-711900D01*
X5870100Y-2711900D01*
G37*
G36*
X-2714900Y5188100D02*
G01*
X-4714900Y5188100D01*
X-4714900Y6088100D01*
X-2714900Y6088100D01*
X-2714900Y5188100D01*
G37*
G36*
X14285100Y11538100D02*
G01*
X12285100Y11538100D01*
X12285100Y12438100D01*
X14285100Y12438100D01*
X14285100Y11538100D01*
G37*
G36*
X-2714900Y10268100D02*
G01*
X-4714900Y10268100D01*
X-4714900Y11168100D01*
X-2714900Y11168100D01*
X-2714900Y10268100D01*
G37*
G36*
X-2714900Y12808100D02*
G01*
X-4714900Y12808100D01*
X-4714900Y13708100D01*
X-2714900Y13708100D01*
X-2714900Y12808100D01*
G37*
G36*
X14285100Y8998100D02*
G01*
X12285100Y8998100D01*
X12285100Y9898100D01*
X14285100Y9898100D01*
X14285100Y8998100D01*
G37*
G36*
X14285100Y12808100D02*
G01*
X12285100Y12808100D01*
X12285100Y13708100D01*
X14285100Y13708100D01*
X14285100Y12808100D01*
G37*
G36*
X-2714900Y7728100D02*
G01*
X-4714900Y7728100D01*
X-4714900Y8628100D01*
X-2714900Y8628100D01*
X-2714900Y7728100D01*
G37*
G36*
X-2714900Y3918100D02*
G01*
X-4714900Y3918100D01*
X-4714900Y4818100D01*
X-2714900Y4818100D01*
X-2714900Y3918100D01*
G37*
G36*
X14285100Y10268100D02*
G01*
X12285100Y10268100D01*
X12285100Y11168100D01*
X14285100Y11168100D01*
X14285100Y10268100D01*
G37*
G36*
X-2714900Y14078100D02*
G01*
X-4714900Y14078100D01*
X-4714900Y14978100D01*
X-2714900Y14978100D01*
X-2714900Y14078100D01*
G37*
G36*
X9680100Y-2711900D02*
G01*
X8780100Y-2711900D01*
X8780100Y-711900D01*
X9680100Y-711900D01*
X9680100Y-2711900D01*
G37*
G36*
X790100Y-2711900D02*
G01*
X-109900Y-2711900D01*
X-109900Y-711900D01*
X790100Y-711900D01*
X790100Y-2711900D01*
G37*
G36*
X14285100Y108100D02*
G01*
X12285100Y108100D01*
X12285100Y1008100D01*
X14285100Y1008100D01*
X14285100Y108100D01*
G37*
G36*
X-11768297Y13129600D02*
G01*
X-13148297Y13129600D01*
X-13148297Y14229600D01*
X-11768297Y14229600D01*
X-11768297Y13129600D01*
G37*
G36*
X-11768303Y14855600D02*
G01*
X-13148303Y14855600D01*
X-13148303Y15955600D01*
X-11768303Y15955600D01*
X-11768303Y14855600D01*
G37*
G36*
X-22454700Y13927208D02*
G01*
X-24454700Y13927208D01*
X-24454700Y17727208D01*
X-22454700Y17727208D01*
X-22454700Y13927208D01*
G37*
G36*
X-16154700Y15077192D02*
G01*
X-18154700Y15077192D01*
X-18154700Y16577192D01*
X-16154700Y16577192D01*
X-16154700Y15077192D01*
G37*
G36*
X-16154694Y17377192D02*
G01*
X-18154694Y17377192D01*
X-18154694Y18877192D01*
X-16154694Y18877192D01*
X-16154694Y17377192D01*
G37*
G36*
X-16154706Y12777192D02*
G01*
X-18154706Y12777192D01*
X-18154706Y14277192D01*
X-16154706Y14277192D01*
X-16154706Y12777192D01*
G37*
G36*
X15746709Y-12118333D02*
G01*
X15753788Y-12119030D01*
X15760806Y-12120189D01*
X15767734Y-12121804D01*
X15774540Y-12123869D01*
X15781198Y-12126374D01*
X15787677Y-12129310D01*
X15793950Y-12132663D01*
X15799990Y-12136419D01*
X15805772Y-12140562D01*
X15811271Y-12145075D01*
X15816463Y-12149937D01*
X15821325Y-12155129D01*
X15825838Y-12160628D01*
X15829981Y-12166410D01*
X15833737Y-12172450D01*
X15837090Y-12178723D01*
X15840026Y-12185202D01*
X15842531Y-12191860D01*
X15844596Y-12198666D01*
X15846211Y-12205594D01*
X15847370Y-12212612D01*
X15848067Y-12219691D01*
X15848300Y-12226800D01*
X15848300Y-13459400D01*
X15848067Y-13466509D01*
X15847370Y-13473588D01*
X15846211Y-13480606D01*
X15844596Y-13487534D01*
X15842531Y-13494340D01*
X15840026Y-13500998D01*
X15837090Y-13507477D01*
X15833737Y-13513750D01*
X15829981Y-13519790D01*
X15825838Y-13525572D01*
X15821325Y-13531071D01*
X15816463Y-13536263D01*
X15811271Y-13541125D01*
X15805772Y-13545638D01*
X15799990Y-13549781D01*
X15793950Y-13553537D01*
X15787677Y-13556890D01*
X15781198Y-13559826D01*
X15774540Y-13562331D01*
X15767734Y-13564396D01*
X15760806Y-13566011D01*
X15753788Y-13567170D01*
X15746709Y-13567867D01*
X15739600Y-13568100D01*
X14957000Y-13568100D01*
X14949891Y-13567867D01*
X14942812Y-13567170D01*
X14935794Y-13566011D01*
X14928866Y-13564396D01*
X14922060Y-13562331D01*
X14915402Y-13559826D01*
X14908923Y-13556890D01*
X14902650Y-13553537D01*
X14896610Y-13549781D01*
X14890828Y-13545638D01*
X14885329Y-13541125D01*
X14880137Y-13536263D01*
X14875275Y-13531071D01*
X14870762Y-13525572D01*
X14866619Y-13519790D01*
X14862863Y-13513750D01*
X14859510Y-13507477D01*
X14856574Y-13500998D01*
X14854069Y-13494340D01*
X14852004Y-13487534D01*
X14850389Y-13480606D01*
X14849230Y-13473588D01*
X14848533Y-13466509D01*
X14848300Y-13459400D01*
X14848300Y-12226800D01*
X14848533Y-12219691D01*
X14849230Y-12212612D01*
X14850389Y-12205594D01*
X14852004Y-12198666D01*
X14854069Y-12191860D01*
X14856574Y-12185202D01*
X14859510Y-12178723D01*
X14862863Y-12172450D01*
X14866619Y-12166410D01*
X14870762Y-12160628D01*
X14875275Y-12155129D01*
X14880137Y-12149937D01*
X14885329Y-12145075D01*
X14890828Y-12140562D01*
X14896610Y-12136419D01*
X14902650Y-12132663D01*
X14908923Y-12129310D01*
X14915402Y-12126374D01*
X14922060Y-12123869D01*
X14928866Y-12121804D01*
X14935794Y-12120189D01*
X14942812Y-12119030D01*
X14949891Y-12118333D01*
X14957000Y-12118100D01*
X15739600Y-12118100D01*
X15746709Y-12118333D01*
G37*
G36*
X17646709Y-12118333D02*
G01*
X17653788Y-12119030D01*
X17660806Y-12120189D01*
X17667734Y-12121804D01*
X17674540Y-12123869D01*
X17681198Y-12126374D01*
X17687677Y-12129310D01*
X17693950Y-12132663D01*
X17699990Y-12136419D01*
X17705772Y-12140562D01*
X17711271Y-12145075D01*
X17716463Y-12149937D01*
X17721325Y-12155129D01*
X17725838Y-12160628D01*
X17729981Y-12166410D01*
X17733737Y-12172450D01*
X17737090Y-12178723D01*
X17740026Y-12185202D01*
X17742531Y-12191860D01*
X17744596Y-12198666D01*
X17746211Y-12205594D01*
X17747370Y-12212612D01*
X17748067Y-12219691D01*
X17748300Y-12226800D01*
X17748300Y-13459400D01*
X17748067Y-13466509D01*
X17747370Y-13473588D01*
X17746211Y-13480606D01*
X17744596Y-13487534D01*
X17742531Y-13494340D01*
X17740026Y-13500998D01*
X17737090Y-13507477D01*
X17733737Y-13513750D01*
X17729981Y-13519790D01*
X17725838Y-13525572D01*
X17721325Y-13531071D01*
X17716463Y-13536263D01*
X17711271Y-13541125D01*
X17705772Y-13545638D01*
X17699990Y-13549781D01*
X17693950Y-13553537D01*
X17687677Y-13556890D01*
X17681198Y-13559826D01*
X17674540Y-13562331D01*
X17667734Y-13564396D01*
X17660806Y-13566011D01*
X17653788Y-13567170D01*
X17646709Y-13567867D01*
X17639600Y-13568100D01*
X16857000Y-13568100D01*
X16849891Y-13567867D01*
X16842812Y-13567170D01*
X16835794Y-13566011D01*
X16828866Y-13564396D01*
X16822060Y-13562331D01*
X16815402Y-13559826D01*
X16808923Y-13556890D01*
X16802650Y-13553537D01*
X16796610Y-13549781D01*
X16790828Y-13545638D01*
X16785329Y-13541125D01*
X16780137Y-13536263D01*
X16775275Y-13531071D01*
X16770762Y-13525572D01*
X16766619Y-13519790D01*
X16762863Y-13513750D01*
X16759510Y-13507477D01*
X16756574Y-13500998D01*
X16754069Y-13494340D01*
X16752004Y-13487534D01*
X16750389Y-13480606D01*
X16749230Y-13473588D01*
X16748533Y-13466509D01*
X16748300Y-13459400D01*
X16748300Y-12226800D01*
X16748533Y-12219691D01*
X16749230Y-12212612D01*
X16750389Y-12205594D01*
X16752004Y-12198666D01*
X16754069Y-12191860D01*
X16756574Y-12185202D01*
X16759510Y-12178723D01*
X16762863Y-12172450D01*
X16766619Y-12166410D01*
X16770762Y-12160628D01*
X16775275Y-12155129D01*
X16780137Y-12149937D01*
X16785329Y-12145075D01*
X16790828Y-12140562D01*
X16796610Y-12136419D01*
X16802650Y-12132663D01*
X16808923Y-12129310D01*
X16815402Y-12126374D01*
X16822060Y-12123869D01*
X16828866Y-12121804D01*
X16835794Y-12120189D01*
X16842812Y-12119030D01*
X16849891Y-12118333D01*
X16857000Y-12118100D01*
X17639600Y-12118100D01*
X17646709Y-12118333D01*
G37*
G36*
X-14170400Y9360598D02*
G01*
X-15270400Y9360598D01*
X-15270400Y10740598D01*
X-14170400Y10740598D01*
X-14170400Y9360598D01*
G37*
G36*
X-15896400Y9360602D02*
G01*
X-16996400Y9360602D01*
X-16996400Y10740602D01*
X-15896400Y10740602D01*
X-15896400Y9360602D01*
G37*
G36*
X-156791Y-7484133D02*
G01*
X-149712Y-7484830D01*
X-142694Y-7485989D01*
X-135766Y-7487604D01*
X-128960Y-7489669D01*
X-122302Y-7492174D01*
X-115823Y-7495110D01*
X-109550Y-7498463D01*
X-103510Y-7502219D01*
X-97728Y-7506362D01*
X-92229Y-7510875D01*
X-87037Y-7515737D01*
X-82175Y-7520929D01*
X-77662Y-7526428D01*
X-73519Y-7532210D01*
X-69763Y-7538250D01*
X-66410Y-7544523D01*
X-63474Y-7551002D01*
X-60969Y-7557660D01*
X-58904Y-7564466D01*
X-57289Y-7571394D01*
X-56130Y-7578412D01*
X-55433Y-7585491D01*
X-55200Y-7592600D01*
X-55200Y-8825200D01*
X-55433Y-8832309D01*
X-56130Y-8839388D01*
X-57289Y-8846406D01*
X-58904Y-8853334D01*
X-60969Y-8860140D01*
X-63474Y-8866798D01*
X-66410Y-8873277D01*
X-69763Y-8879550D01*
X-73519Y-8885590D01*
X-77662Y-8891372D01*
X-82175Y-8896871D01*
X-87037Y-8902063D01*
X-92229Y-8906925D01*
X-97728Y-8911438D01*
X-103510Y-8915581D01*
X-109550Y-8919337D01*
X-115823Y-8922690D01*
X-122302Y-8925626D01*
X-128960Y-8928131D01*
X-135766Y-8930196D01*
X-142694Y-8931811D01*
X-149712Y-8932970D01*
X-156791Y-8933667D01*
X-163900Y-8933900D01*
X-946500Y-8933900D01*
X-953609Y-8933667D01*
X-960688Y-8932970D01*
X-967706Y-8931811D01*
X-974634Y-8930196D01*
X-981440Y-8928131D01*
X-988098Y-8925626D01*
X-994577Y-8922690D01*
X-1000850Y-8919337D01*
X-1006890Y-8915581D01*
X-1012672Y-8911438D01*
X-1018171Y-8906925D01*
X-1023363Y-8902063D01*
X-1028225Y-8896871D01*
X-1032738Y-8891372D01*
X-1036881Y-8885590D01*
X-1040637Y-8879550D01*
X-1043990Y-8873277D01*
X-1046926Y-8866798D01*
X-1049431Y-8860140D01*
X-1051496Y-8853334D01*
X-1053111Y-8846406D01*
X-1054270Y-8839388D01*
X-1054967Y-8832309D01*
X-1055200Y-8825200D01*
X-1055200Y-7592600D01*
X-1054967Y-7585491D01*
X-1054270Y-7578412D01*
X-1053111Y-7571394D01*
X-1051496Y-7564466D01*
X-1049431Y-7557660D01*
X-1046926Y-7551002D01*
X-1043990Y-7544523D01*
X-1040637Y-7538250D01*
X-1036881Y-7532210D01*
X-1032738Y-7526428D01*
X-1028225Y-7520929D01*
X-1023363Y-7515737D01*
X-1018171Y-7510875D01*
X-1012672Y-7506362D01*
X-1006890Y-7502219D01*
X-1000850Y-7498463D01*
X-994577Y-7495110D01*
X-988098Y-7492174D01*
X-981440Y-7489669D01*
X-974634Y-7487604D01*
X-967706Y-7485989D01*
X-960688Y-7484830D01*
X-953609Y-7484133D01*
X-946500Y-7483900D01*
X-163900Y-7483900D01*
X-156791Y-7484133D01*
G37*
G36*
X1743209Y-7484133D02*
G01*
X1750288Y-7484830D01*
X1757306Y-7485989D01*
X1764234Y-7487604D01*
X1771040Y-7489669D01*
X1777698Y-7492174D01*
X1784177Y-7495110D01*
X1790450Y-7498463D01*
X1796490Y-7502219D01*
X1802272Y-7506362D01*
X1807771Y-7510875D01*
X1812963Y-7515737D01*
X1817825Y-7520929D01*
X1822338Y-7526428D01*
X1826481Y-7532210D01*
X1830237Y-7538250D01*
X1833590Y-7544523D01*
X1836526Y-7551002D01*
X1839031Y-7557660D01*
X1841096Y-7564466D01*
X1842711Y-7571394D01*
X1843870Y-7578412D01*
X1844567Y-7585491D01*
X1844800Y-7592600D01*
X1844800Y-8825200D01*
X1844567Y-8832309D01*
X1843870Y-8839388D01*
X1842711Y-8846406D01*
X1841096Y-8853334D01*
X1839031Y-8860140D01*
X1836526Y-8866798D01*
X1833590Y-8873277D01*
X1830237Y-8879550D01*
X1826481Y-8885590D01*
X1822338Y-8891372D01*
X1817825Y-8896871D01*
X1812963Y-8902063D01*
X1807771Y-8906925D01*
X1802272Y-8911438D01*
X1796490Y-8915581D01*
X1790450Y-8919337D01*
X1784177Y-8922690D01*
X1777698Y-8925626D01*
X1771040Y-8928131D01*
X1764234Y-8930196D01*
X1757306Y-8931811D01*
X1750288Y-8932970D01*
X1743209Y-8933667D01*
X1736100Y-8933900D01*
X953500Y-8933900D01*
X946391Y-8933667D01*
X939312Y-8932970D01*
X932294Y-8931811D01*
X925366Y-8930196D01*
X918560Y-8928131D01*
X911902Y-8925626D01*
X905423Y-8922690D01*
X899150Y-8919337D01*
X893110Y-8915581D01*
X887328Y-8911438D01*
X881829Y-8906925D01*
X876637Y-8902063D01*
X871775Y-8896871D01*
X867262Y-8891372D01*
X863119Y-8885590D01*
X859363Y-8879550D01*
X856010Y-8873277D01*
X853074Y-8866798D01*
X850569Y-8860140D01*
X848504Y-8853334D01*
X846889Y-8846406D01*
X845730Y-8839388D01*
X845033Y-8832309D01*
X844800Y-8825200D01*
X844800Y-7592600D01*
X845033Y-7585491D01*
X845730Y-7578412D01*
X846889Y-7571394D01*
X848504Y-7564466D01*
X850569Y-7557660D01*
X853074Y-7551002D01*
X856010Y-7544523D01*
X859363Y-7538250D01*
X863119Y-7532210D01*
X867262Y-7526428D01*
X871775Y-7520929D01*
X876637Y-7515737D01*
X881829Y-7510875D01*
X887328Y-7506362D01*
X893110Y-7502219D01*
X899150Y-7498463D01*
X905423Y-7495110D01*
X911902Y-7492174D01*
X918560Y-7489669D01*
X925366Y-7487604D01*
X932294Y-7485989D01*
X939312Y-7484830D01*
X946391Y-7484133D01*
X953500Y-7483900D01*
X1736100Y-7483900D01*
X1743209Y-7484133D01*
G37*
G36*
X302913Y-14365933D02*
G01*
X309992Y-14366630D01*
X317010Y-14367789D01*
X323937Y-14369404D01*
X330744Y-14371469D01*
X337401Y-14373974D01*
X343880Y-14376910D01*
X350153Y-14380263D01*
X356194Y-14384019D01*
X361976Y-14388162D01*
X367474Y-14392675D01*
X372666Y-14397537D01*
X377528Y-14402729D01*
X382041Y-14408228D01*
X386184Y-14414010D01*
X389940Y-14420050D01*
X393294Y-14426323D01*
X396229Y-14432802D01*
X398735Y-14439460D01*
X400800Y-14446266D01*
X402415Y-14453194D01*
X403574Y-14460212D01*
X404271Y-14467291D01*
X404503Y-14474400D01*
X404503Y-15257000D01*
X404271Y-15264109D01*
X403574Y-15271188D01*
X402415Y-15278206D01*
X400800Y-15285134D01*
X398735Y-15291940D01*
X396229Y-15298598D01*
X393294Y-15305077D01*
X389940Y-15311350D01*
X386184Y-15317390D01*
X382041Y-15323172D01*
X377528Y-15328671D01*
X372666Y-15333863D01*
X367474Y-15338725D01*
X361976Y-15343238D01*
X356194Y-15347381D01*
X350153Y-15351137D01*
X343880Y-15354490D01*
X337401Y-15357426D01*
X330744Y-15359931D01*
X323937Y-15361996D01*
X317010Y-15363611D01*
X309992Y-15364770D01*
X302913Y-15365467D01*
X295803Y-15365700D01*
X-936797Y-15365700D01*
X-943906Y-15365467D01*
X-950985Y-15364770D01*
X-958003Y-15363611D01*
X-964930Y-15361996D01*
X-971737Y-15359931D01*
X-978394Y-15357426D01*
X-984873Y-15354490D01*
X-991147Y-15351137D01*
X-997187Y-15347381D01*
X-1002969Y-15343238D01*
X-1008467Y-15338725D01*
X-1013659Y-15333863D01*
X-1018521Y-15328671D01*
X-1023034Y-15323172D01*
X-1027177Y-15317390D01*
X-1030933Y-15311350D01*
X-1034287Y-15305077D01*
X-1037222Y-15298598D01*
X-1039728Y-15291940D01*
X-1041793Y-15285134D01*
X-1043408Y-15278206D01*
X-1044567Y-15271188D01*
X-1045264Y-15264109D01*
X-1045497Y-15257000D01*
X-1045497Y-14474400D01*
X-1045264Y-14467291D01*
X-1044567Y-14460212D01*
X-1043408Y-14453194D01*
X-1041793Y-14446266D01*
X-1039728Y-14439460D01*
X-1037222Y-14432802D01*
X-1034287Y-14426323D01*
X-1030933Y-14420050D01*
X-1027177Y-14414010D01*
X-1023034Y-14408228D01*
X-1018521Y-14402729D01*
X-1013659Y-14397537D01*
X-1008467Y-14392675D01*
X-1002969Y-14388162D01*
X-997187Y-14384019D01*
X-991147Y-14380263D01*
X-984873Y-14376910D01*
X-978394Y-14373974D01*
X-971737Y-14371469D01*
X-964930Y-14369404D01*
X-958003Y-14367789D01*
X-950985Y-14366630D01*
X-943906Y-14365933D01*
X-936797Y-14365700D01*
X295803Y-14365700D01*
X302913Y-14365933D01*
G37*
G36*
X302906Y-12465933D02*
G01*
X309985Y-12466630D01*
X317003Y-12467789D01*
X323930Y-12469404D01*
X330737Y-12471469D01*
X337394Y-12473974D01*
X343873Y-12476910D01*
X350147Y-12480263D01*
X356187Y-12484019D01*
X361969Y-12488162D01*
X367467Y-12492675D01*
X372659Y-12497537D01*
X377521Y-12502729D01*
X382034Y-12508228D01*
X386177Y-12514010D01*
X389933Y-12520050D01*
X393287Y-12526323D01*
X396222Y-12532802D01*
X398728Y-12539460D01*
X400793Y-12546266D01*
X402408Y-12553194D01*
X403567Y-12560212D01*
X404264Y-12567291D01*
X404497Y-12574400D01*
X404497Y-13357000D01*
X404264Y-13364109D01*
X403567Y-13371188D01*
X402408Y-13378206D01*
X400793Y-13385134D01*
X398728Y-13391940D01*
X396222Y-13398598D01*
X393287Y-13405077D01*
X389933Y-13411350D01*
X386177Y-13417390D01*
X382034Y-13423172D01*
X377521Y-13428671D01*
X372659Y-13433863D01*
X367467Y-13438725D01*
X361969Y-13443238D01*
X356187Y-13447381D01*
X350147Y-13451137D01*
X343873Y-13454490D01*
X337394Y-13457426D01*
X330737Y-13459931D01*
X323930Y-13461996D01*
X317003Y-13463611D01*
X309985Y-13464770D01*
X302906Y-13465467D01*
X295797Y-13465700D01*
X-936803Y-13465700D01*
X-943913Y-13465467D01*
X-950992Y-13464770D01*
X-958010Y-13463611D01*
X-964937Y-13461996D01*
X-971744Y-13459931D01*
X-978401Y-13457426D01*
X-984880Y-13454490D01*
X-991153Y-13451137D01*
X-997194Y-13447381D01*
X-1002976Y-13443238D01*
X-1008474Y-13438725D01*
X-1013666Y-13433863D01*
X-1018528Y-13428671D01*
X-1023041Y-13423172D01*
X-1027184Y-13417390D01*
X-1030940Y-13411350D01*
X-1034294Y-13405077D01*
X-1037229Y-13398598D01*
X-1039735Y-13391940D01*
X-1041800Y-13385134D01*
X-1043415Y-13378206D01*
X-1044574Y-13371188D01*
X-1045271Y-13364109D01*
X-1045503Y-13357000D01*
X-1045503Y-12574400D01*
X-1045271Y-12567291D01*
X-1044574Y-12560212D01*
X-1043415Y-12553194D01*
X-1041800Y-12546266D01*
X-1039735Y-12539460D01*
X-1037229Y-12532802D01*
X-1034294Y-12526323D01*
X-1030940Y-12520050D01*
X-1027184Y-12514010D01*
X-1023041Y-12508228D01*
X-1018528Y-12502729D01*
X-1013666Y-12497537D01*
X-1008474Y-12492675D01*
X-1002976Y-12488162D01*
X-997194Y-12484019D01*
X-991153Y-12480263D01*
X-984880Y-12476910D01*
X-978401Y-12473974D01*
X-971744Y-12471469D01*
X-964937Y-12469404D01*
X-958010Y-12467789D01*
X-950992Y-12466630D01*
X-943913Y-12465933D01*
X-936803Y-12465700D01*
X295797Y-12465700D01*
X302906Y-12465933D01*
G37*
G36*
X-519000Y-25743400D02*
G01*
X-1619000Y-25743400D01*
X-1619000Y-24643400D01*
X-519000Y-24643400D01*
X-519000Y-25743400D01*
G37*
G36*
X-8519000Y-25693400D02*
G01*
X-9619000Y-25693400D01*
X-9619000Y-24693400D01*
X-8519000Y-24693400D01*
X-8519000Y-25693400D01*
G37*
G36*
X-21273891Y10823067D02*
G01*
X-21266812Y10822370D01*
X-21259794Y10821211D01*
X-21252866Y10819596D01*
X-21246060Y10817531D01*
X-21239402Y10815026D01*
X-21232923Y10812090D01*
X-21226650Y10808737D01*
X-21220610Y10804981D01*
X-21214828Y10800838D01*
X-21209329Y10796325D01*
X-21204137Y10791463D01*
X-21199275Y10786271D01*
X-21194762Y10780772D01*
X-21190619Y10774990D01*
X-21186863Y10768950D01*
X-21183510Y10762677D01*
X-21180574Y10756198D01*
X-21178069Y10749540D01*
X-21176004Y10742734D01*
X-21174389Y10735806D01*
X-21173230Y10728788D01*
X-21172533Y10721709D01*
X-21172300Y10714600D01*
X-21172300Y9482000D01*
X-21172533Y9474891D01*
X-21173230Y9467812D01*
X-21174389Y9460794D01*
X-21176004Y9453866D01*
X-21178069Y9447060D01*
X-21180574Y9440402D01*
X-21183510Y9433923D01*
X-21186863Y9427650D01*
X-21190619Y9421610D01*
X-21194762Y9415828D01*
X-21199275Y9410329D01*
X-21204137Y9405137D01*
X-21209329Y9400275D01*
X-21214828Y9395762D01*
X-21220610Y9391619D01*
X-21226650Y9387863D01*
X-21232923Y9384510D01*
X-21239402Y9381574D01*
X-21246060Y9379069D01*
X-21252866Y9377004D01*
X-21259794Y9375389D01*
X-21266812Y9374230D01*
X-21273891Y9373533D01*
X-21281000Y9373300D01*
X-22063600Y9373300D01*
X-22070709Y9373533D01*
X-22077788Y9374230D01*
X-22084806Y9375389D01*
X-22091734Y9377004D01*
X-22098540Y9379069D01*
X-22105198Y9381574D01*
X-22111677Y9384510D01*
X-22117950Y9387863D01*
X-22123990Y9391619D01*
X-22129772Y9395762D01*
X-22135271Y9400275D01*
X-22140463Y9405137D01*
X-22145325Y9410329D01*
X-22149838Y9415828D01*
X-22153981Y9421610D01*
X-22157737Y9427650D01*
X-22161090Y9433923D01*
X-22164026Y9440402D01*
X-22166531Y9447060D01*
X-22168596Y9453866D01*
X-22170211Y9460794D01*
X-22171370Y9467812D01*
X-22172067Y9474891D01*
X-22172300Y9482000D01*
X-22172300Y10714600D01*
X-22172067Y10721709D01*
X-22171370Y10728788D01*
X-22170211Y10735806D01*
X-22168596Y10742734D01*
X-22166531Y10749540D01*
X-22164026Y10756198D01*
X-22161090Y10762677D01*
X-22157737Y10768950D01*
X-22153981Y10774990D01*
X-22149838Y10780772D01*
X-22145325Y10786271D01*
X-22140463Y10791463D01*
X-22135271Y10796325D01*
X-22129772Y10800838D01*
X-22123990Y10804981D01*
X-22117950Y10808737D01*
X-22111677Y10812090D01*
X-22105198Y10815026D01*
X-22098540Y10817531D01*
X-22091734Y10819596D01*
X-22084806Y10821211D01*
X-22077788Y10822370D01*
X-22070709Y10823067D01*
X-22063600Y10823300D01*
X-21281000Y10823300D01*
X-21273891Y10823067D01*
G37*
G36*
X-19373891Y10823067D02*
G01*
X-19366812Y10822370D01*
X-19359794Y10821211D01*
X-19352866Y10819596D01*
X-19346060Y10817531D01*
X-19339402Y10815026D01*
X-19332923Y10812090D01*
X-19326650Y10808737D01*
X-19320610Y10804981D01*
X-19314828Y10800838D01*
X-19309329Y10796325D01*
X-19304137Y10791463D01*
X-19299275Y10786271D01*
X-19294762Y10780772D01*
X-19290619Y10774990D01*
X-19286863Y10768950D01*
X-19283510Y10762677D01*
X-19280574Y10756198D01*
X-19278069Y10749540D01*
X-19276004Y10742734D01*
X-19274389Y10735806D01*
X-19273230Y10728788D01*
X-19272533Y10721709D01*
X-19272300Y10714600D01*
X-19272300Y9482000D01*
X-19272533Y9474891D01*
X-19273230Y9467812D01*
X-19274389Y9460794D01*
X-19276004Y9453866D01*
X-19278069Y9447060D01*
X-19280574Y9440402D01*
X-19283510Y9433923D01*
X-19286863Y9427650D01*
X-19290619Y9421610D01*
X-19294762Y9415828D01*
X-19299275Y9410329D01*
X-19304137Y9405137D01*
X-19309329Y9400275D01*
X-19314828Y9395762D01*
X-19320610Y9391619D01*
X-19326650Y9387863D01*
X-19332923Y9384510D01*
X-19339402Y9381574D01*
X-19346060Y9379069D01*
X-19352866Y9377004D01*
X-19359794Y9375389D01*
X-19366812Y9374230D01*
X-19373891Y9373533D01*
X-19381000Y9373300D01*
X-20163600Y9373300D01*
X-20170709Y9373533D01*
X-20177788Y9374230D01*
X-20184806Y9375389D01*
X-20191734Y9377004D01*
X-20198540Y9379069D01*
X-20205198Y9381574D01*
X-20211677Y9384510D01*
X-20217950Y9387863D01*
X-20223990Y9391619D01*
X-20229772Y9395762D01*
X-20235271Y9400275D01*
X-20240463Y9405137D01*
X-20245325Y9410329D01*
X-20249838Y9415828D01*
X-20253981Y9421610D01*
X-20257737Y9427650D01*
X-20261090Y9433923D01*
X-20264026Y9440402D01*
X-20266531Y9447060D01*
X-20268596Y9453866D01*
X-20270211Y9460794D01*
X-20271370Y9467812D01*
X-20272067Y9474891D01*
X-20272300Y9482000D01*
X-20272300Y10714600D01*
X-20272067Y10721709D01*
X-20271370Y10728788D01*
X-20270211Y10735806D01*
X-20268596Y10742734D01*
X-20266531Y10749540D01*
X-20264026Y10756198D01*
X-20261090Y10762677D01*
X-20257737Y10768950D01*
X-20253981Y10774990D01*
X-20249838Y10780772D01*
X-20245325Y10786271D01*
X-20240463Y10791463D01*
X-20235271Y10796325D01*
X-20229772Y10800838D01*
X-20223990Y10804981D01*
X-20217950Y10808737D01*
X-20211677Y10812090D01*
X-20205198Y10815026D01*
X-20198540Y10817531D01*
X-20191734Y10819596D01*
X-20184806Y10821211D01*
X-20177788Y10822370D01*
X-20170709Y10823067D01*
X-20163600Y10823300D01*
X-19381000Y10823300D01*
X-19373891Y10823067D01*
G37*
G36*
X13994700Y-25743389D02*
G01*
X12894700Y-25743389D01*
X12894700Y-24643389D01*
X13994700Y-24643389D01*
X13994700Y-25743389D01*
G37*
G36*
X21994700Y-25743411D02*
G01*
X20894700Y-25743411D01*
X20894700Y-24643411D01*
X21994700Y-24643411D01*
X21994700Y-25743411D01*
G37*
G36*
X4949000Y-10908400D02*
G01*
X2999000Y-10908400D01*
X2999000Y-10308400D01*
X4949000Y-10308400D01*
X4949000Y-10908400D01*
G37*
G36*
X9899000Y-18528400D02*
G01*
X7949000Y-18528400D01*
X7949000Y-17928400D01*
X9899000Y-17928400D01*
X9899000Y-18528400D01*
G37*
G36*
X4949000Y-12178400D02*
G01*
X2999000Y-12178400D01*
X2999000Y-11578400D01*
X4949000Y-11578400D01*
X4949000Y-12178400D01*
G37*
G36*
X4949000Y-14718400D02*
G01*
X2999000Y-14718400D01*
X2999000Y-14118400D01*
X4949000Y-14118400D01*
X4949000Y-14718400D01*
G37*
G36*
X9899000Y-10908400D02*
G01*
X7949000Y-10908400D01*
X7949000Y-10308400D01*
X9899000Y-10308400D01*
X9899000Y-10908400D01*
G37*
G36*
X9899000Y-9638400D02*
G01*
X7949000Y-9638400D01*
X7949000Y-9038400D01*
X9899000Y-9038400D01*
X9899000Y-9638400D01*
G37*
G36*
X4949000Y-18528400D02*
G01*
X2999000Y-18528400D01*
X2999000Y-17928400D01*
X4949000Y-17928400D01*
X4949000Y-18528400D01*
G37*
G36*
X4949000Y-9638400D02*
G01*
X2999000Y-9638400D01*
X2999000Y-9038400D01*
X4949000Y-9038400D01*
X4949000Y-9638400D01*
G37*
G36*
X9899000Y-13448400D02*
G01*
X7949000Y-13448400D01*
X7949000Y-12848400D01*
X9899000Y-12848400D01*
X9899000Y-13448400D01*
G37*
G36*
X4949000Y-17258400D02*
G01*
X2999000Y-17258400D01*
X2999000Y-16658400D01*
X4949000Y-16658400D01*
X4949000Y-17258400D01*
G37*
G36*
X4949000Y-13448400D02*
G01*
X2999000Y-13448400D01*
X2999000Y-12848400D01*
X4949000Y-12848400D01*
X4949000Y-13448400D01*
G37*
G36*
X9899000Y-12178400D02*
G01*
X7949000Y-12178400D01*
X7949000Y-11578400D01*
X9899000Y-11578400D01*
X9899000Y-12178400D01*
G37*
G36*
X9899000Y-17258400D02*
G01*
X7949000Y-17258400D01*
X7949000Y-16658400D01*
X9899000Y-16658400D01*
X9899000Y-17258400D01*
G37*
G36*
X9899000Y-15988400D02*
G01*
X7949000Y-15988400D01*
X7949000Y-15388400D01*
X9899000Y-15388400D01*
X9899000Y-15988400D01*
G37*
G36*
X4949000Y-15988400D02*
G01*
X2999000Y-15988400D01*
X2999000Y-15388400D01*
X4949000Y-15388400D01*
X4949000Y-15988400D01*
G37*
G36*
X9899000Y-14718400D02*
G01*
X7949000Y-14718400D01*
X7949000Y-14118400D01*
X9899000Y-14118400D01*
X9899000Y-14718400D01*
G37*
G36*
X-19404761Y6268174D02*
G01*
X-19375454Y6265288D01*
X-19346323Y6260967D01*
X-19317439Y6255221D01*
X-19288872Y6248066D01*
X-19260691Y6239517D01*
X-19232963Y6229596D01*
X-19205755Y6218326D01*
X-19179133Y6205735D01*
X-19153161Y6191852D01*
X-19127901Y6176712D01*
X-19103415Y6160351D01*
X-19079761Y6142808D01*
X-19056996Y6124125D01*
X-19035176Y6104348D01*
X-19014352Y6083524D01*
X-18994575Y6061704D01*
X-18975892Y6038939D01*
X-18958349Y6015285D01*
X-18941988Y5990799D01*
X-18926848Y5965539D01*
X-18912965Y5939567D01*
X-18900374Y5912945D01*
X-18889104Y5885737D01*
X-18879183Y5858009D01*
X-18870634Y5829828D01*
X-18863479Y5801261D01*
X-18857733Y5772377D01*
X-18853412Y5743246D01*
X-18850526Y5713939D01*
X-18849081Y5684525D01*
X-18849081Y5105075D01*
X-18850526Y5075661D01*
X-18853412Y5046354D01*
X-18857733Y5017223D01*
X-18863479Y4988339D01*
X-18870634Y4959772D01*
X-18879183Y4931591D01*
X-18889104Y4903863D01*
X-18900374Y4876655D01*
X-18912965Y4850033D01*
X-18926848Y4824061D01*
X-18941988Y4798801D01*
X-18958349Y4774315D01*
X-18975892Y4750661D01*
X-18994575Y4727896D01*
X-19014352Y4706076D01*
X-19035176Y4685252D01*
X-19056996Y4665475D01*
X-19079761Y4646792D01*
X-19103415Y4629249D01*
X-19127901Y4612888D01*
X-19153161Y4597748D01*
X-19179133Y4583865D01*
X-19205755Y4571274D01*
X-19232963Y4560004D01*
X-19260691Y4550083D01*
X-19288872Y4541534D01*
X-19317439Y4534379D01*
X-19346323Y4528633D01*
X-19375454Y4524312D01*
X-19404761Y4521426D01*
X-19434175Y4519981D01*
X-19463625Y4519981D01*
X-19493039Y4521426D01*
X-19522346Y4524312D01*
X-19551477Y4528633D01*
X-19580361Y4534379D01*
X-19608928Y4541534D01*
X-19637109Y4550083D01*
X-19664837Y4560004D01*
X-19692045Y4571274D01*
X-19718667Y4583865D01*
X-19744639Y4597748D01*
X-19769899Y4612888D01*
X-19794385Y4629249D01*
X-19818039Y4646792D01*
X-19840804Y4665475D01*
X-19862624Y4685252D01*
X-19883448Y4706076D01*
X-19903225Y4727896D01*
X-19921908Y4750661D01*
X-19939451Y4774315D01*
X-19955812Y4798801D01*
X-19970952Y4824061D01*
X-19984835Y4850033D01*
X-19997426Y4876655D01*
X-20008696Y4903863D01*
X-20018617Y4931591D01*
X-20027166Y4959772D01*
X-20034321Y4988339D01*
X-20040067Y5017223D01*
X-20044388Y5046354D01*
X-20047274Y5075661D01*
X-20048719Y5105075D01*
X-20048719Y5385597D01*
X-19823787Y5385597D01*
X-19822884Y5367213D01*
X-19821080Y5348896D01*
X-19818379Y5330689D01*
X-19814788Y5312637D01*
X-19810316Y5294783D01*
X-19804973Y5277169D01*
X-19798772Y5259839D01*
X-19791729Y5242835D01*
X-19783859Y5226196D01*
X-19775183Y5209963D01*
X-19765720Y5194176D01*
X-19755494Y5178872D01*
X-19744530Y5164088D01*
X-19732853Y5149860D01*
X-19720493Y5136222D01*
X-19707478Y5123207D01*
X-19693840Y5110847D01*
X-19679612Y5099170D01*
X-19664828Y5088206D01*
X-19649524Y5077980D01*
X-19633737Y5068517D01*
X-19617504Y5059841D01*
X-19600865Y5051971D01*
X-19583861Y5044928D01*
X-19566531Y5038727D01*
X-19548917Y5033384D01*
X-19531063Y5028912D01*
X-19513011Y5025321D01*
X-19494804Y5022620D01*
X-19476487Y5020816D01*
X-19458103Y5019913D01*
X-19439697Y5019913D01*
X-19421313Y5020816D01*
X-19402996Y5022620D01*
X-19384789Y5025321D01*
X-19366737Y5028912D01*
X-19348883Y5033384D01*
X-19331269Y5038727D01*
X-19313939Y5044928D01*
X-19296935Y5051971D01*
X-19280296Y5059841D01*
X-19264063Y5068517D01*
X-19248276Y5077980D01*
X-19232972Y5088206D01*
X-19218188Y5099170D01*
X-19203960Y5110847D01*
X-19190322Y5123207D01*
X-19177307Y5136222D01*
X-19164947Y5149860D01*
X-19153270Y5164088D01*
X-19142306Y5178872D01*
X-19132080Y5194176D01*
X-19122617Y5209963D01*
X-19113941Y5226196D01*
X-19106071Y5242835D01*
X-19099028Y5259839D01*
X-19092827Y5277169D01*
X-19087484Y5294783D01*
X-19083012Y5312637D01*
X-19079421Y5330689D01*
X-19076720Y5348896D01*
X-19074916Y5367213D01*
X-19074013Y5385597D01*
X-19074013Y5404003D01*
X-19074916Y5422387D01*
X-19076720Y5440704D01*
X-19079421Y5458911D01*
X-19083012Y5476963D01*
X-19087484Y5494817D01*
X-19092827Y5512431D01*
X-19099028Y5529761D01*
X-19106071Y5546765D01*
X-19113941Y5563404D01*
X-19122617Y5579637D01*
X-19132080Y5595424D01*
X-19142306Y5610728D01*
X-19153270Y5625512D01*
X-19164947Y5639740D01*
X-19177307Y5653378D01*
X-19190322Y5666393D01*
X-19203960Y5678753D01*
X-19218188Y5690430D01*
X-19232972Y5701394D01*
X-19248276Y5711620D01*
X-19264063Y5721083D01*
X-19280296Y5729759D01*
X-19296935Y5737629D01*
X-19313939Y5744672D01*
X-19331269Y5750873D01*
X-19348883Y5756216D01*
X-19366737Y5760688D01*
X-19384789Y5764279D01*
X-19402996Y5766980D01*
X-19421313Y5768784D01*
X-19439697Y5769687D01*
X-19458103Y5769687D01*
X-19476487Y5768784D01*
X-19494804Y5766980D01*
X-19513011Y5764279D01*
X-19531063Y5760688D01*
X-19548917Y5756216D01*
X-19566531Y5750873D01*
X-19583861Y5744672D01*
X-19600865Y5737629D01*
X-19617504Y5729759D01*
X-19633737Y5721083D01*
X-19649524Y5711620D01*
X-19664828Y5701394D01*
X-19679612Y5690430D01*
X-19693840Y5678753D01*
X-19707478Y5666393D01*
X-19720493Y5653378D01*
X-19732853Y5639740D01*
X-19744530Y5625512D01*
X-19755494Y5610728D01*
X-19765720Y5595424D01*
X-19775183Y5579637D01*
X-19783859Y5563404D01*
X-19791729Y5546765D01*
X-19798772Y5529761D01*
X-19804973Y5512431D01*
X-19810316Y5494817D01*
X-19814788Y5476963D01*
X-19818379Y5458911D01*
X-19821080Y5440704D01*
X-19822884Y5422387D01*
X-19823787Y5404003D01*
X-19823787Y5385597D01*
X-20048719Y5385597D01*
X-20048719Y5655075D01*
X-20048719Y5684525D01*
X-20047274Y5713939D01*
X-20044388Y5743246D01*
X-20040067Y5772377D01*
X-20034321Y5801261D01*
X-20027166Y5829828D01*
X-20018617Y5858009D01*
X-20008696Y5885737D01*
X-19997426Y5912945D01*
X-19984835Y5939567D01*
X-19970952Y5965539D01*
X-19955812Y5990799D01*
X-19939451Y6015285D01*
X-19921908Y6038939D01*
X-19903225Y6061704D01*
X-19883448Y6083524D01*
X-19862624Y6104348D01*
X-19840804Y6124125D01*
X-19818039Y6142808D01*
X-19794385Y6160351D01*
X-19769899Y6176712D01*
X-19744639Y6191852D01*
X-19718667Y6205735D01*
X-19692045Y6218326D01*
X-19664837Y6229596D01*
X-19637109Y6239517D01*
X-19608928Y6248066D01*
X-19580361Y6255221D01*
X-19551477Y6260967D01*
X-19522346Y6265288D01*
X-19493039Y6268174D01*
X-19463625Y6269619D01*
X-19434175Y6269619D01*
X-19404761Y6268174D01*
G37*
G36*
X-20971519Y6269519D02*
G01*
X-20962975Y6268678D01*
X-20954504Y6267279D01*
X-20946143Y6265329D01*
X-20937927Y6262837D01*
X-20929892Y6259813D01*
X-20922072Y6256270D01*
X-20914500Y6252223D01*
X-20907209Y6247689D01*
X-20900231Y6242688D01*
X-20893594Y6237241D01*
X-20887328Y6231372D01*
X-20881459Y6225106D01*
X-20876012Y6218469D01*
X-20871011Y6211491D01*
X-20866477Y6204200D01*
X-20862430Y6196628D01*
X-20858887Y6188808D01*
X-20855863Y6180773D01*
X-20853371Y6172557D01*
X-20851421Y6164196D01*
X-20850022Y6155725D01*
X-20849181Y6147181D01*
X-20848900Y6138600D01*
X-20848900Y4651000D01*
X-20849181Y4642419D01*
X-20850022Y4633875D01*
X-20851421Y4625404D01*
X-20853371Y4617043D01*
X-20855863Y4608827D01*
X-20858887Y4600792D01*
X-20862430Y4592972D01*
X-20866477Y4585400D01*
X-20871011Y4578109D01*
X-20876012Y4571131D01*
X-20881459Y4564494D01*
X-20887328Y4558228D01*
X-20893594Y4552359D01*
X-20900231Y4546912D01*
X-20907209Y4541911D01*
X-20914500Y4537377D01*
X-20922072Y4533330D01*
X-20929892Y4529787D01*
X-20937927Y4526763D01*
X-20946143Y4524271D01*
X-20954504Y4522321D01*
X-20962975Y4520922D01*
X-20971519Y4520081D01*
X-20980100Y4519800D01*
X-21917700Y4519800D01*
X-21926281Y4520081D01*
X-21934825Y4520922D01*
X-21943296Y4522321D01*
X-21951657Y4524271D01*
X-21959873Y4526763D01*
X-21967908Y4529787D01*
X-21975728Y4533330D01*
X-21983300Y4537377D01*
X-21990591Y4541911D01*
X-21997569Y4546912D01*
X-22004206Y4552359D01*
X-22010472Y4558228D01*
X-22016341Y4564494D01*
X-22021788Y4571131D01*
X-22026789Y4578109D01*
X-22031323Y4585400D01*
X-22035370Y4592972D01*
X-22038913Y4600792D01*
X-22041937Y4608827D01*
X-22044429Y4617043D01*
X-22046379Y4625404D01*
X-22047778Y4633875D01*
X-22048619Y4642419D01*
X-22048900Y4651000D01*
X-22048900Y5386211D01*
X-21798795Y5386211D01*
X-21797952Y5369052D01*
X-21796268Y5351956D01*
X-21793747Y5334963D01*
X-21790396Y5318115D01*
X-21786222Y5301451D01*
X-21781235Y5285011D01*
X-21775447Y5268837D01*
X-21768873Y5252966D01*
X-21761529Y5237436D01*
X-21753430Y5222286D01*
X-21744599Y5207551D01*
X-21735055Y5193267D01*
X-21724821Y5179469D01*
X-21713923Y5166190D01*
X-21702386Y5153461D01*
X-21690239Y5141314D01*
X-21677510Y5129777D01*
X-21664231Y5118879D01*
X-21650433Y5108645D01*
X-21636149Y5099101D01*
X-21621414Y5090270D01*
X-21606264Y5082171D01*
X-21590734Y5074827D01*
X-21574863Y5068253D01*
X-21558689Y5062465D01*
X-21542249Y5057478D01*
X-21525585Y5053304D01*
X-21508737Y5049953D01*
X-21491744Y5047432D01*
X-21474648Y5045748D01*
X-21457489Y5044905D01*
X-21440311Y5044905D01*
X-21423152Y5045748D01*
X-21406056Y5047432D01*
X-21389063Y5049953D01*
X-21372215Y5053304D01*
X-21355551Y5057478D01*
X-21339111Y5062465D01*
X-21322937Y5068253D01*
X-21307066Y5074827D01*
X-21291536Y5082171D01*
X-21276386Y5090270D01*
X-21261651Y5099101D01*
X-21247367Y5108645D01*
X-21233569Y5118879D01*
X-21220290Y5129777D01*
X-21215272Y5134324D01*
X-21207561Y5141314D01*
X-21195414Y5153461D01*
X-21183877Y5166190D01*
X-21172979Y5179469D01*
X-21162745Y5193267D01*
X-21153201Y5207551D01*
X-21144370Y5222286D01*
X-21136271Y5237436D01*
X-21128927Y5252966D01*
X-21122353Y5268837D01*
X-21116565Y5285011D01*
X-21111578Y5301451D01*
X-21107404Y5318115D01*
X-21104053Y5334963D01*
X-21101532Y5351956D01*
X-21099848Y5369052D01*
X-21099005Y5386211D01*
X-21099005Y5403389D01*
X-21099848Y5420548D01*
X-21101532Y5437644D01*
X-21104053Y5454637D01*
X-21107404Y5471485D01*
X-21111578Y5488149D01*
X-21116565Y5504589D01*
X-21122353Y5520763D01*
X-21128927Y5536634D01*
X-21136271Y5552164D01*
X-21144370Y5567314D01*
X-21153201Y5582049D01*
X-21162745Y5596333D01*
X-21172979Y5610131D01*
X-21183877Y5623410D01*
X-21195414Y5636139D01*
X-21207561Y5648286D01*
X-21220290Y5659823D01*
X-21233569Y5670721D01*
X-21247367Y5680955D01*
X-21261651Y5690499D01*
X-21276386Y5699330D01*
X-21291536Y5707429D01*
X-21307066Y5714773D01*
X-21322937Y5721347D01*
X-21339111Y5727135D01*
X-21355551Y5732122D01*
X-21372215Y5736296D01*
X-21389063Y5739647D01*
X-21406056Y5742168D01*
X-21423152Y5743852D01*
X-21440311Y5744695D01*
X-21457489Y5744695D01*
X-21474648Y5743852D01*
X-21491744Y5742168D01*
X-21508737Y5739647D01*
X-21525585Y5736296D01*
X-21542249Y5732122D01*
X-21558689Y5727135D01*
X-21574863Y5721347D01*
X-21590734Y5714773D01*
X-21606264Y5707429D01*
X-21621414Y5699330D01*
X-21636149Y5690499D01*
X-21650433Y5680955D01*
X-21664231Y5670721D01*
X-21677510Y5659823D01*
X-21690239Y5648286D01*
X-21702386Y5636139D01*
X-21713923Y5623410D01*
X-21724821Y5610131D01*
X-21735055Y5596333D01*
X-21744599Y5582049D01*
X-21753430Y5567314D01*
X-21761529Y5552164D01*
X-21768873Y5536634D01*
X-21775447Y5520763D01*
X-21781235Y5504589D01*
X-21786222Y5488149D01*
X-21790396Y5471485D01*
X-21793747Y5454637D01*
X-21796268Y5437644D01*
X-21797952Y5420548D01*
X-21798795Y5403389D01*
X-21798795Y5386211D01*
X-22048900Y5386211D01*
X-22048900Y6138600D01*
X-22048619Y6147181D01*
X-22047778Y6155725D01*
X-22046379Y6164196D01*
X-22044429Y6172557D01*
X-22041937Y6180773D01*
X-22038913Y6188808D01*
X-22035370Y6196628D01*
X-22031323Y6204200D01*
X-22026789Y6211491D01*
X-22021788Y6218469D01*
X-22016341Y6225106D01*
X-22010472Y6231372D01*
X-22004206Y6237241D01*
X-21997569Y6242688D01*
X-21990591Y6247689D01*
X-21983300Y6252223D01*
X-21975728Y6256270D01*
X-21967908Y6259813D01*
X-21959873Y6262837D01*
X-21951657Y6265329D01*
X-21943296Y6267279D01*
X-21934825Y6268678D01*
X-21926281Y6269519D01*
X-21917700Y6269800D01*
X-20980100Y6269800D01*
X-20971519Y6269519D01*
G37*
G36*
X24514381Y27293113D02*
G01*
X24651150Y27279643D01*
X24787093Y27259477D01*
X24921883Y27232666D01*
X25055196Y27199273D01*
X25186709Y27159379D01*
X25316106Y27113080D01*
X25443076Y27060487D01*
X25567312Y27001728D01*
X25688515Y26936944D01*
X25806393Y26866290D01*
X25920663Y26789937D01*
X26031048Y26708070D01*
X26137284Y26620885D01*
X26239114Y26528592D01*
X26336292Y26431414D01*
X26428585Y26329584D01*
X26515770Y26223348D01*
X26597637Y26112963D01*
X26673990Y25998693D01*
X26744644Y25880815D01*
X26809428Y25759612D01*
X26868187Y25635376D01*
X26920780Y25508406D01*
X26967079Y25379009D01*
X27006973Y25247496D01*
X27040366Y25114183D01*
X27067177Y24979393D01*
X27087343Y24843450D01*
X27100813Y24706681D01*
X27107557Y24569415D01*
X27107557Y24431985D01*
X27100813Y24294719D01*
X27087343Y24157950D01*
X27067177Y24022007D01*
X27040366Y23887217D01*
X27006973Y23753904D01*
X26967079Y23622391D01*
X26920780Y23492994D01*
X26868187Y23366024D01*
X26809428Y23241788D01*
X26744644Y23120585D01*
X26673990Y23002707D01*
X26597637Y22888437D01*
X26515770Y22778052D01*
X26428585Y22671816D01*
X26336292Y22569986D01*
X26239114Y22472808D01*
X26137284Y22380515D01*
X26031048Y22293330D01*
X25920663Y22211463D01*
X25806393Y22135110D01*
X25688515Y22064456D01*
X25567312Y21999672D01*
X25443076Y21940913D01*
X25316106Y21888320D01*
X25186709Y21842021D01*
X25055196Y21802127D01*
X24921883Y21768734D01*
X24787093Y21741923D01*
X24651150Y21721757D01*
X24514381Y21708287D01*
X24377115Y21701543D01*
X24239685Y21701543D01*
X24102419Y21708287D01*
X23965650Y21721757D01*
X23829707Y21741923D01*
X23694917Y21768734D01*
X23561604Y21802127D01*
X23430091Y21842021D01*
X23300694Y21888320D01*
X23173724Y21940913D01*
X23049488Y21999672D01*
X22928285Y22064456D01*
X22810407Y22135110D01*
X22696137Y22211463D01*
X22585752Y22293330D01*
X22479516Y22380515D01*
X22377686Y22472808D01*
X22280508Y22569986D01*
X22188215Y22671816D01*
X22101030Y22778052D01*
X22019163Y22888437D01*
X21942810Y23002707D01*
X21872156Y23120585D01*
X21807372Y23241788D01*
X21748613Y23366024D01*
X21696020Y23492994D01*
X21649721Y23622391D01*
X21609827Y23753904D01*
X21576434Y23887217D01*
X21549623Y24022007D01*
X21529457Y24157950D01*
X21515987Y24294719D01*
X21509243Y24431985D01*
X21509243Y24461434D01*
X22708882Y24461434D01*
X22712735Y24382997D01*
X22720433Y24304843D01*
X22731956Y24227161D01*
X22747277Y24150138D01*
X22766358Y24073960D01*
X22789155Y23998809D01*
X22815612Y23924868D01*
X22845664Y23852314D01*
X22879241Y23781322D01*
X22916261Y23712063D01*
X22956634Y23644704D01*
X23000264Y23579407D01*
X23047046Y23516329D01*
X23096866Y23455623D01*
X23149605Y23397435D01*
X23205135Y23341905D01*
X23263323Y23289166D01*
X23324029Y23239346D01*
X23387107Y23192564D01*
X23452404Y23148934D01*
X23519763Y23108561D01*
X23589022Y23071541D01*
X23660014Y23037964D01*
X23732568Y23007912D01*
X23806509Y22981455D01*
X23881660Y22958658D01*
X23957838Y22939577D01*
X24034861Y22924256D01*
X24112543Y22912733D01*
X24190697Y22905035D01*
X24269134Y22901182D01*
X24347666Y22901182D01*
X24426103Y22905035D01*
X24504257Y22912733D01*
X24581939Y22924256D01*
X24658962Y22939577D01*
X24735140Y22958658D01*
X24810291Y22981455D01*
X24884232Y23007912D01*
X24956786Y23037964D01*
X25027778Y23071541D01*
X25097037Y23108561D01*
X25164396Y23148934D01*
X25229693Y23192564D01*
X25292771Y23239346D01*
X25353477Y23289166D01*
X25411665Y23341905D01*
X25467195Y23397435D01*
X25519934Y23455623D01*
X25569754Y23516329D01*
X25616536Y23579407D01*
X25660166Y23644704D01*
X25700539Y23712063D01*
X25737559Y23781322D01*
X25771136Y23852314D01*
X25801188Y23924868D01*
X25827645Y23998809D01*
X25850442Y24073960D01*
X25869523Y24150138D01*
X25884844Y24227161D01*
X25896367Y24304843D01*
X25904065Y24382997D01*
X25907918Y24461434D01*
X25907918Y24539966D01*
X25904065Y24618403D01*
X25896367Y24696557D01*
X25884844Y24774239D01*
X25869523Y24851262D01*
X25850442Y24927440D01*
X25827645Y25002591D01*
X25801188Y25076532D01*
X25771136Y25149086D01*
X25737559Y25220078D01*
X25700539Y25289337D01*
X25660166Y25356696D01*
X25616536Y25421993D01*
X25569754Y25485071D01*
X25519934Y25545777D01*
X25467195Y25603965D01*
X25411665Y25659495D01*
X25353477Y25712234D01*
X25292771Y25762054D01*
X25229693Y25808836D01*
X25164396Y25852466D01*
X25097037Y25892839D01*
X25027778Y25929859D01*
X24956786Y25963436D01*
X24884232Y25993488D01*
X24810291Y26019945D01*
X24735140Y26042742D01*
X24658962Y26061823D01*
X24581939Y26077144D01*
X24504257Y26088667D01*
X24426103Y26096365D01*
X24347666Y26100218D01*
X24269134Y26100218D01*
X24190697Y26096365D01*
X24112543Y26088667D01*
X24034861Y26077144D01*
X23957838Y26061823D01*
X23881660Y26042742D01*
X23806509Y26019945D01*
X23732568Y25993488D01*
X23660014Y25963436D01*
X23589022Y25929859D01*
X23519763Y25892839D01*
X23452404Y25852466D01*
X23387107Y25808836D01*
X23324029Y25762054D01*
X23263323Y25712234D01*
X23205135Y25659495D01*
X23149605Y25603965D01*
X23096866Y25545777D01*
X23047046Y25485071D01*
X23000264Y25421993D01*
X22956634Y25356696D01*
X22916261Y25289337D01*
X22879241Y25220078D01*
X22845664Y25149086D01*
X22815612Y25076532D01*
X22789155Y25002591D01*
X22766358Y24927440D01*
X22747277Y24851262D01*
X22731956Y24774239D01*
X22720433Y24696557D01*
X22712735Y24618403D01*
X22708882Y24539966D01*
X22708882Y24461434D01*
X21509243Y24461434D01*
X21509243Y24569415D01*
X21515987Y24706681D01*
X21529457Y24843450D01*
X21549623Y24979393D01*
X21576434Y25114183D01*
X21609827Y25247496D01*
X21649721Y25379009D01*
X21696020Y25508406D01*
X21748613Y25635376D01*
X21807372Y25759612D01*
X21872156Y25880815D01*
X21942810Y25998693D01*
X22019163Y26112963D01*
X22101030Y26223348D01*
X22188215Y26329584D01*
X22280508Y26431414D01*
X22377686Y26528592D01*
X22479516Y26620885D01*
X22585752Y26708070D01*
X22696137Y26789937D01*
X22810407Y26866290D01*
X22928285Y26936944D01*
X23049488Y27001728D01*
X23173724Y27060487D01*
X23300694Y27113080D01*
X23430091Y27159379D01*
X23561604Y27199273D01*
X23694917Y27232666D01*
X23829707Y27259477D01*
X23965650Y27279643D01*
X24102419Y27293113D01*
X24239685Y27299857D01*
X24377115Y27299857D01*
X24514381Y27293113D01*
G37*
G36*
X-11724100Y9379400D02*
G01*
X-12749100Y9379400D01*
X-12749100Y10779400D01*
X-11724100Y10779400D01*
X-11724100Y9379400D01*
G37*
G36*
X-9899100Y9379400D02*
G01*
X-10924100Y9379400D01*
X-10924100Y10779400D01*
X-9899100Y10779400D01*
X-9899100Y9379400D01*
G37*
G36*
X1757200Y-22911102D02*
G01*
X732200Y-22911102D01*
X732200Y-21511102D01*
X1757200Y-21511102D01*
X1757200Y-22911102D01*
G37*
G36*
X-67800Y-22911098D02*
G01*
X-1092800Y-22911098D01*
X-1092800Y-21511098D01*
X-67800Y-21511098D01*
X-67800Y-22911098D01*
G37*
G36*
X-13207899Y-706692D02*
G01*
X-13207899Y-1914692D01*
X-14415899Y-1914692D01*
X-14415899Y-1319281D01*
X-14161793Y-1319281D01*
X-14160950Y-1336440D01*
X-14159266Y-1353536D01*
X-14156746Y-1370529D01*
X-14153394Y-1387377D01*
X-14149220Y-1404042D01*
X-14144233Y-1420481D01*
X-14138446Y-1436655D01*
X-14131872Y-1452526D01*
X-14124527Y-1468056D01*
X-14116429Y-1483206D01*
X-14107597Y-1497941D01*
X-14098053Y-1512225D01*
X-14087820Y-1526023D01*
X-14076922Y-1539303D01*
X-14065385Y-1552031D01*
X-14053238Y-1564179D01*
X-14040509Y-1575715D01*
X-14027230Y-1586613D01*
X-14013431Y-1596847D01*
X-13999148Y-1606391D01*
X-13984413Y-1615222D01*
X-13969263Y-1623321D01*
X-13953733Y-1630665D01*
X-13937862Y-1637240D01*
X-13921687Y-1643027D01*
X-13905248Y-1648014D01*
X-13888584Y-1652188D01*
X-13871735Y-1655539D01*
X-13854742Y-1658060D01*
X-13837646Y-1659744D01*
X-13820488Y-1660587D01*
X-13803309Y-1660587D01*
X-13786151Y-1659744D01*
X-13769055Y-1658060D01*
X-13752062Y-1655539D01*
X-13735213Y-1652188D01*
X-13718549Y-1648014D01*
X-13702110Y-1643027D01*
X-13685935Y-1637240D01*
X-13670064Y-1630665D01*
X-13654535Y-1623321D01*
X-13639384Y-1615222D01*
X-13624649Y-1606391D01*
X-13610366Y-1596847D01*
X-13596567Y-1586613D01*
X-13583288Y-1575715D01*
X-13570559Y-1564179D01*
X-13558412Y-1552031D01*
X-13546875Y-1539303D01*
X-13535977Y-1526023D01*
X-13525744Y-1512225D01*
X-13516200Y-1497941D01*
X-13507368Y-1483206D01*
X-13499270Y-1468056D01*
X-13491925Y-1452526D01*
X-13485351Y-1436655D01*
X-13479564Y-1420481D01*
X-13474577Y-1404042D01*
X-13470403Y-1387377D01*
X-13467051Y-1370529D01*
X-13464531Y-1353536D01*
X-13462847Y-1336440D01*
X-13462004Y-1319281D01*
X-13462004Y-1302103D01*
X-13462847Y-1284944D01*
X-13464531Y-1267848D01*
X-13467051Y-1250855D01*
X-13470403Y-1234007D01*
X-13474577Y-1217343D01*
X-13479564Y-1200903D01*
X-13485351Y-1184729D01*
X-13491925Y-1168858D01*
X-13493844Y-1164799D01*
X-13499270Y-1153328D01*
X-13507368Y-1138178D01*
X-13516200Y-1123443D01*
X-13525744Y-1109159D01*
X-13535977Y-1095361D01*
X-13546875Y-1082082D01*
X-13558412Y-1069353D01*
X-13570559Y-1057206D01*
X-13583288Y-1045669D01*
X-13596567Y-1034771D01*
X-13610366Y-1024537D01*
X-13624649Y-1014993D01*
X-13639384Y-1006162D01*
X-13654535Y-998064D01*
X-13670064Y-990719D01*
X-13685935Y-984145D01*
X-13702110Y-978357D01*
X-13718549Y-973370D01*
X-13735213Y-969196D01*
X-13752062Y-965845D01*
X-13769055Y-963324D01*
X-13786151Y-961640D01*
X-13803309Y-960797D01*
X-13820488Y-960797D01*
X-13837646Y-961640D01*
X-13854742Y-963324D01*
X-13871735Y-965845D01*
X-13888584Y-969196D01*
X-13905248Y-973370D01*
X-13921687Y-978357D01*
X-13937862Y-984145D01*
X-13953733Y-990719D01*
X-13969263Y-998064D01*
X-13984413Y-1006162D01*
X-13999148Y-1014993D01*
X-14013431Y-1024537D01*
X-14027230Y-1034771D01*
X-14040509Y-1045669D01*
X-14053238Y-1057206D01*
X-14065385Y-1069353D01*
X-14076922Y-1082082D01*
X-14087820Y-1095361D01*
X-14098053Y-1109159D01*
X-14107597Y-1123443D01*
X-14116429Y-1138178D01*
X-14124527Y-1153328D01*
X-14131872Y-1168858D01*
X-14138446Y-1184729D01*
X-14144233Y-1200903D01*
X-14149220Y-1217343D01*
X-14153394Y-1234007D01*
X-14156746Y-1250855D01*
X-14159266Y-1267848D01*
X-14160950Y-1284944D01*
X-14161793Y-1302103D01*
X-14161793Y-1319281D01*
X-14415899Y-1319281D01*
X-14415899Y-706692D01*
X-13207899Y-706692D01*
G37*
G36*
X-11797076Y-706879D02*
G01*
X-11767466Y-708334D01*
X-11737962Y-711240D01*
X-11708638Y-715590D01*
X-11679561Y-721373D01*
X-11650804Y-728577D01*
X-11622435Y-737182D01*
X-11594522Y-747170D01*
X-11567133Y-758515D01*
X-11540333Y-771190D01*
X-11514188Y-785165D01*
X-11488760Y-800406D01*
X-11464110Y-816876D01*
X-11440299Y-834536D01*
X-11417382Y-853343D01*
X-11395416Y-873252D01*
X-11374453Y-894215D01*
X-11354544Y-916181D01*
X-11335737Y-939097D01*
X-11318077Y-962909D01*
X-11301607Y-987559D01*
X-11286366Y-1012987D01*
X-11272391Y-1039132D01*
X-11259716Y-1065932D01*
X-11248371Y-1093321D01*
X-11238384Y-1121234D01*
X-11229778Y-1149603D01*
X-11222574Y-1178360D01*
X-11216791Y-1207436D01*
X-11212441Y-1236761D01*
X-11209535Y-1266264D01*
X-11208080Y-1295874D01*
X-11208080Y-1325520D01*
X-11209535Y-1355130D01*
X-11212441Y-1384633D01*
X-11216791Y-1413958D01*
X-11222574Y-1443034D01*
X-11229778Y-1471792D01*
X-11238384Y-1500161D01*
X-11248371Y-1528074D01*
X-11259716Y-1555463D01*
X-11272391Y-1582263D01*
X-11286366Y-1608408D01*
X-11301607Y-1633836D01*
X-11318077Y-1658485D01*
X-11335737Y-1682297D01*
X-11354544Y-1705214D01*
X-11374453Y-1727180D01*
X-11395416Y-1748143D01*
X-11417382Y-1768051D01*
X-11440299Y-1786859D01*
X-11464110Y-1804519D01*
X-11488760Y-1820989D01*
X-11514188Y-1836230D01*
X-11540333Y-1850205D01*
X-11567133Y-1862880D01*
X-11594522Y-1874225D01*
X-11622435Y-1884212D01*
X-11650804Y-1892818D01*
X-11679561Y-1900021D01*
X-11708638Y-1905805D01*
X-11737962Y-1910155D01*
X-11767466Y-1913061D01*
X-11797076Y-1914515D01*
X-11826721Y-1914515D01*
X-11856332Y-1913061D01*
X-11885835Y-1910155D01*
X-11915160Y-1905805D01*
X-11944236Y-1900021D01*
X-11972993Y-1892818D01*
X-12001362Y-1884212D01*
X-12029275Y-1874225D01*
X-12056664Y-1862880D01*
X-12083464Y-1850205D01*
X-12109609Y-1836230D01*
X-12135037Y-1820989D01*
X-12159687Y-1804519D01*
X-12183498Y-1786859D01*
X-12206415Y-1768051D01*
X-12228381Y-1748143D01*
X-12249344Y-1727180D01*
X-12269253Y-1705214D01*
X-12288060Y-1682297D01*
X-12305720Y-1658485D01*
X-12322190Y-1633836D01*
X-12337431Y-1608408D01*
X-12351406Y-1582263D01*
X-12364081Y-1555463D01*
X-12375426Y-1528074D01*
X-12385414Y-1500161D01*
X-12394019Y-1471792D01*
X-12401223Y-1443034D01*
X-12407006Y-1413958D01*
X-12411356Y-1384633D01*
X-12414262Y-1355130D01*
X-12415717Y-1325520D01*
X-12415717Y-1319287D01*
X-12161793Y-1319287D01*
X-12160950Y-1336445D01*
X-12159266Y-1353541D01*
X-12156746Y-1370534D01*
X-12153394Y-1387383D01*
X-12149220Y-1404047D01*
X-12144233Y-1420486D01*
X-12138446Y-1436661D01*
X-12131872Y-1452532D01*
X-12124527Y-1468061D01*
X-12116429Y-1483212D01*
X-12107597Y-1497947D01*
X-12098053Y-1512230D01*
X-12087820Y-1526028D01*
X-12076922Y-1539308D01*
X-12065385Y-1552037D01*
X-12053238Y-1564184D01*
X-12040509Y-1575720D01*
X-12027230Y-1586619D01*
X-12013431Y-1596852D01*
X-11999148Y-1606396D01*
X-11984413Y-1615228D01*
X-11969263Y-1623326D01*
X-11953733Y-1630671D01*
X-11937862Y-1637245D01*
X-11921687Y-1643032D01*
X-11905248Y-1648019D01*
X-11888584Y-1652193D01*
X-11871735Y-1655545D01*
X-11854742Y-1658065D01*
X-11837646Y-1659749D01*
X-11820488Y-1660592D01*
X-11803309Y-1660592D01*
X-11786151Y-1659749D01*
X-11769055Y-1658065D01*
X-11752062Y-1655545D01*
X-11735213Y-1652193D01*
X-11718549Y-1648019D01*
X-11702110Y-1643032D01*
X-11685935Y-1637245D01*
X-11670064Y-1630671D01*
X-11654535Y-1623326D01*
X-11639384Y-1615228D01*
X-11624649Y-1606396D01*
X-11610366Y-1596852D01*
X-11596567Y-1586619D01*
X-11583288Y-1575720D01*
X-11570559Y-1564184D01*
X-11558412Y-1552037D01*
X-11546875Y-1539308D01*
X-11535977Y-1526028D01*
X-11525744Y-1512230D01*
X-11516200Y-1497947D01*
X-11507368Y-1483212D01*
X-11499270Y-1468061D01*
X-11491925Y-1452532D01*
X-11485351Y-1436661D01*
X-11479564Y-1420486D01*
X-11474577Y-1404047D01*
X-11470403Y-1387383D01*
X-11467051Y-1370534D01*
X-11464531Y-1353541D01*
X-11462847Y-1336445D01*
X-11462004Y-1319287D01*
X-11462004Y-1302108D01*
X-11462847Y-1284950D01*
X-11464531Y-1267854D01*
X-11467051Y-1250861D01*
X-11470403Y-1234012D01*
X-11474577Y-1217348D01*
X-11479564Y-1200909D01*
X-11485351Y-1184734D01*
X-11491925Y-1168863D01*
X-11499270Y-1153333D01*
X-11507368Y-1138183D01*
X-11516200Y-1123448D01*
X-11525744Y-1109164D01*
X-11535977Y-1095366D01*
X-11546875Y-1082087D01*
X-11558412Y-1069358D01*
X-11570559Y-1057211D01*
X-11583288Y-1045674D01*
X-11596567Y-1034776D01*
X-11610366Y-1024543D01*
X-11624649Y-1014999D01*
X-11639384Y-1006167D01*
X-11654535Y-998069D01*
X-11670064Y-990724D01*
X-11685935Y-984150D01*
X-11702110Y-978362D01*
X-11718549Y-973376D01*
X-11735213Y-969202D01*
X-11752062Y-965850D01*
X-11769055Y-963330D01*
X-11786151Y-961646D01*
X-11803309Y-960803D01*
X-11820488Y-960803D01*
X-11837646Y-961646D01*
X-11854742Y-963330D01*
X-11871735Y-965850D01*
X-11888584Y-969202D01*
X-11905248Y-973376D01*
X-11921687Y-978362D01*
X-11937862Y-984150D01*
X-11953733Y-990724D01*
X-11969263Y-998069D01*
X-11984413Y-1006167D01*
X-11999148Y-1014999D01*
X-12013431Y-1024543D01*
X-12027230Y-1034776D01*
X-12040509Y-1045674D01*
X-12053238Y-1057211D01*
X-12065385Y-1069358D01*
X-12076922Y-1082087D01*
X-12087820Y-1095366D01*
X-12098053Y-1109164D01*
X-12107597Y-1123448D01*
X-12116429Y-1138183D01*
X-12124527Y-1153333D01*
X-12131872Y-1168863D01*
X-12138446Y-1184734D01*
X-12144233Y-1200909D01*
X-12149220Y-1217348D01*
X-12153394Y-1234012D01*
X-12156746Y-1250861D01*
X-12159266Y-1267854D01*
X-12160950Y-1284950D01*
X-12161793Y-1302108D01*
X-12161793Y-1319287D01*
X-12415717Y-1319287D01*
X-12415717Y-1295874D01*
X-12414262Y-1266264D01*
X-12411356Y-1236761D01*
X-12407006Y-1207436D01*
X-12401223Y-1178360D01*
X-12394019Y-1149603D01*
X-12385414Y-1121234D01*
X-12375426Y-1093321D01*
X-12364081Y-1065932D01*
X-12351406Y-1039132D01*
X-12337431Y-1012987D01*
X-12322190Y-987559D01*
X-12305720Y-962909D01*
X-12288060Y-939097D01*
X-12269253Y-916181D01*
X-12249344Y-894215D01*
X-12228381Y-873252D01*
X-12206415Y-853343D01*
X-12183498Y-834536D01*
X-12159687Y-816876D01*
X-12135037Y-800406D01*
X-12109609Y-785165D01*
X-12083464Y-771190D01*
X-12056664Y-758515D01*
X-12029275Y-747170D01*
X-12001362Y-737182D01*
X-11972993Y-728577D01*
X-11944236Y-721373D01*
X-11915160Y-715590D01*
X-11885835Y-711240D01*
X-11856332Y-708334D01*
X-11826721Y-706879D01*
X-11797076Y-706879D01*
G37*
G36*
X-9797076Y-706885D02*
G01*
X-9767466Y-708339D01*
X-9737962Y-711245D01*
X-9708638Y-715595D01*
X-9679561Y-721379D01*
X-9650804Y-728582D01*
X-9622435Y-737188D01*
X-9594522Y-747175D01*
X-9567133Y-758520D01*
X-9540333Y-771195D01*
X-9514188Y-785170D01*
X-9488760Y-800411D01*
X-9464110Y-816881D01*
X-9440299Y-834541D01*
X-9417382Y-853349D01*
X-9395416Y-873257D01*
X-9374453Y-894220D01*
X-9354544Y-916186D01*
X-9335737Y-939103D01*
X-9318077Y-962915D01*
X-9301607Y-987564D01*
X-9286366Y-1012992D01*
X-9272391Y-1039137D01*
X-9259716Y-1065937D01*
X-9248371Y-1093326D01*
X-9238384Y-1121239D01*
X-9229778Y-1149608D01*
X-9222574Y-1178366D01*
X-9216791Y-1207442D01*
X-9212441Y-1236767D01*
X-9209535Y-1266270D01*
X-9208080Y-1295880D01*
X-9208080Y-1325526D01*
X-9209535Y-1355136D01*
X-9212441Y-1384639D01*
X-9216791Y-1413964D01*
X-9222574Y-1443040D01*
X-9229778Y-1471797D01*
X-9238384Y-1500166D01*
X-9248371Y-1528079D01*
X-9259716Y-1555468D01*
X-9272391Y-1582268D01*
X-9286366Y-1608413D01*
X-9301607Y-1633841D01*
X-9318077Y-1658491D01*
X-9335737Y-1682303D01*
X-9354544Y-1705219D01*
X-9374453Y-1727185D01*
X-9395416Y-1748148D01*
X-9417382Y-1768057D01*
X-9440299Y-1786864D01*
X-9464110Y-1804524D01*
X-9488760Y-1820994D01*
X-9514188Y-1836235D01*
X-9540333Y-1850210D01*
X-9567133Y-1862885D01*
X-9594522Y-1874230D01*
X-9622435Y-1884218D01*
X-9650804Y-1892823D01*
X-9679561Y-1900027D01*
X-9708638Y-1905810D01*
X-9737962Y-1910160D01*
X-9767466Y-1913066D01*
X-9797076Y-1914521D01*
X-9826721Y-1914521D01*
X-9856332Y-1913066D01*
X-9885835Y-1910160D01*
X-9915160Y-1905810D01*
X-9944236Y-1900027D01*
X-9972993Y-1892823D01*
X-10001362Y-1884218D01*
X-10029275Y-1874230D01*
X-10056664Y-1862885D01*
X-10083464Y-1850210D01*
X-10109609Y-1836235D01*
X-10135037Y-1820994D01*
X-10159687Y-1804524D01*
X-10183498Y-1786864D01*
X-10206415Y-1768057D01*
X-10228381Y-1748148D01*
X-10249344Y-1727185D01*
X-10269253Y-1705219D01*
X-10288060Y-1682303D01*
X-10305720Y-1658491D01*
X-10322190Y-1633841D01*
X-10337431Y-1608413D01*
X-10351406Y-1582268D01*
X-10364081Y-1555468D01*
X-10375426Y-1528079D01*
X-10385414Y-1500166D01*
X-10394019Y-1471797D01*
X-10401223Y-1443040D01*
X-10407006Y-1413964D01*
X-10411356Y-1384639D01*
X-10414262Y-1355136D01*
X-10415717Y-1325526D01*
X-10415717Y-1319292D01*
X-10161793Y-1319292D01*
X-10160950Y-1336450D01*
X-10159266Y-1353546D01*
X-10156746Y-1370539D01*
X-10153394Y-1387388D01*
X-10149220Y-1404052D01*
X-10144233Y-1420491D01*
X-10138446Y-1436666D01*
X-10131872Y-1452537D01*
X-10124527Y-1468067D01*
X-10116429Y-1483217D01*
X-10107597Y-1497952D01*
X-10098053Y-1512236D01*
X-10087820Y-1526034D01*
X-10076922Y-1539313D01*
X-10065385Y-1552042D01*
X-10053238Y-1564189D01*
X-10040509Y-1575726D01*
X-10027230Y-1586624D01*
X-10013431Y-1596857D01*
X-9999148Y-1606401D01*
X-9984413Y-1615233D01*
X-9969263Y-1623331D01*
X-9953733Y-1630676D01*
X-9937862Y-1637250D01*
X-9921687Y-1643038D01*
X-9905248Y-1648024D01*
X-9888584Y-1652198D01*
X-9871735Y-1655550D01*
X-9854742Y-1658070D01*
X-9837646Y-1659754D01*
X-9820488Y-1660597D01*
X-9803309Y-1660597D01*
X-9786151Y-1659754D01*
X-9769055Y-1658070D01*
X-9752062Y-1655550D01*
X-9735213Y-1652198D01*
X-9718549Y-1648024D01*
X-9702110Y-1643038D01*
X-9685935Y-1637250D01*
X-9670064Y-1630676D01*
X-9654535Y-1623331D01*
X-9639384Y-1615233D01*
X-9624649Y-1606401D01*
X-9610366Y-1596857D01*
X-9596567Y-1586624D01*
X-9583288Y-1575726D01*
X-9570559Y-1564189D01*
X-9558412Y-1552042D01*
X-9546875Y-1539313D01*
X-9535977Y-1526034D01*
X-9525744Y-1512236D01*
X-9516200Y-1497952D01*
X-9507368Y-1483217D01*
X-9499270Y-1468067D01*
X-9491925Y-1452537D01*
X-9485351Y-1436666D01*
X-9479564Y-1420491D01*
X-9474577Y-1404052D01*
X-9470403Y-1387388D01*
X-9467051Y-1370539D01*
X-9464531Y-1353546D01*
X-9462847Y-1336450D01*
X-9462004Y-1319292D01*
X-9462004Y-1302113D01*
X-9462847Y-1284955D01*
X-9464531Y-1267859D01*
X-9467051Y-1250866D01*
X-9470403Y-1234017D01*
X-9474577Y-1217353D01*
X-9479564Y-1200914D01*
X-9485351Y-1184739D01*
X-9491925Y-1168868D01*
X-9499270Y-1153339D01*
X-9507368Y-1138188D01*
X-9516200Y-1123453D01*
X-9525744Y-1109170D01*
X-9535977Y-1095372D01*
X-9546875Y-1082092D01*
X-9558412Y-1069363D01*
X-9570559Y-1057216D01*
X-9583288Y-1045680D01*
X-9596567Y-1034781D01*
X-9610366Y-1024548D01*
X-9624649Y-1015004D01*
X-9639384Y-1006172D01*
X-9654535Y-998074D01*
X-9670064Y-990729D01*
X-9685935Y-984155D01*
X-9702110Y-978368D01*
X-9718549Y-973381D01*
X-9735213Y-969207D01*
X-9752062Y-965855D01*
X-9769055Y-963335D01*
X-9786151Y-961651D01*
X-9803309Y-960808D01*
X-9820488Y-960808D01*
X-9837646Y-961651D01*
X-9854742Y-963335D01*
X-9871735Y-965855D01*
X-9888584Y-969207D01*
X-9905248Y-973381D01*
X-9921687Y-978368D01*
X-9937862Y-984155D01*
X-9953733Y-990729D01*
X-9969263Y-998074D01*
X-9984413Y-1006172D01*
X-9999148Y-1015004D01*
X-10013431Y-1024548D01*
X-10027230Y-1034781D01*
X-10040509Y-1045680D01*
X-10053238Y-1057216D01*
X-10065385Y-1069363D01*
X-10076922Y-1082092D01*
X-10087820Y-1095372D01*
X-10098053Y-1109170D01*
X-10107597Y-1123453D01*
X-10116429Y-1138188D01*
X-10124527Y-1153339D01*
X-10131872Y-1168868D01*
X-10138446Y-1184739D01*
X-10144233Y-1200914D01*
X-10149220Y-1217353D01*
X-10153394Y-1234017D01*
X-10156746Y-1250866D01*
X-10159266Y-1267859D01*
X-10160950Y-1284955D01*
X-10161793Y-1302113D01*
X-10161793Y-1319292D01*
X-10415717Y-1319292D01*
X-10415717Y-1295880D01*
X-10414262Y-1266270D01*
X-10411356Y-1236767D01*
X-10407006Y-1207442D01*
X-10401223Y-1178366D01*
X-10394019Y-1149608D01*
X-10385414Y-1121239D01*
X-10375426Y-1093326D01*
X-10364081Y-1065937D01*
X-10351406Y-1039137D01*
X-10337431Y-1012992D01*
X-10322190Y-987564D01*
X-10305720Y-962915D01*
X-10288060Y-939103D01*
X-10269253Y-916186D01*
X-10249344Y-894220D01*
X-10228381Y-873257D01*
X-10206415Y-853349D01*
X-10183498Y-834541D01*
X-10159687Y-816881D01*
X-10135037Y-800411D01*
X-10109609Y-785170D01*
X-10083464Y-771195D01*
X-10056664Y-758520D01*
X-10029275Y-747175D01*
X-10001362Y-737188D01*
X-9972993Y-728582D01*
X-9944236Y-721379D01*
X-9915160Y-715595D01*
X-9885835Y-711245D01*
X-9856332Y-708339D01*
X-9826721Y-706885D01*
X-9797076Y-706885D01*
G37*
G36*
X-7797076Y-706890D02*
G01*
X-7767466Y-708345D01*
X-7737962Y-711250D01*
X-7708638Y-715600D01*
X-7679561Y-721384D01*
X-7650804Y-728587D01*
X-7622435Y-737193D01*
X-7594522Y-747180D01*
X-7567133Y-758525D01*
X-7540333Y-771200D01*
X-7514188Y-785175D01*
X-7488760Y-800416D01*
X-7464110Y-816887D01*
X-7440299Y-834547D01*
X-7417382Y-853354D01*
X-7395416Y-873263D01*
X-7374453Y-894225D01*
X-7354544Y-916192D01*
X-7335737Y-939108D01*
X-7318077Y-962920D01*
X-7301607Y-987569D01*
X-7286366Y-1012997D01*
X-7272391Y-1039143D01*
X-7259716Y-1065942D01*
X-7248371Y-1093331D01*
X-7238384Y-1121244D01*
X-7229778Y-1149613D01*
X-7222574Y-1178371D01*
X-7216791Y-1207447D01*
X-7212441Y-1236772D01*
X-7209535Y-1266275D01*
X-7208080Y-1295885D01*
X-7208080Y-1325531D01*
X-7209535Y-1355141D01*
X-7212441Y-1384644D01*
X-7216791Y-1413969D01*
X-7222574Y-1443045D01*
X-7229778Y-1471802D01*
X-7238384Y-1500172D01*
X-7248371Y-1528085D01*
X-7259716Y-1555474D01*
X-7272391Y-1582273D01*
X-7286366Y-1608418D01*
X-7301607Y-1633847D01*
X-7318077Y-1658496D01*
X-7335737Y-1682308D01*
X-7354544Y-1705224D01*
X-7374453Y-1727190D01*
X-7395416Y-1748153D01*
X-7417382Y-1768062D01*
X-7440299Y-1786869D01*
X-7464110Y-1804529D01*
X-7488760Y-1821000D01*
X-7514188Y-1836241D01*
X-7540333Y-1850215D01*
X-7567133Y-1862891D01*
X-7594522Y-1874236D01*
X-7622435Y-1884223D01*
X-7650804Y-1892829D01*
X-7679561Y-1900032D01*
X-7708638Y-1905816D01*
X-7737962Y-1910166D01*
X-7767466Y-1913071D01*
X-7797076Y-1914526D01*
X-7826721Y-1914526D01*
X-7856332Y-1913071D01*
X-7885835Y-1910166D01*
X-7915160Y-1905816D01*
X-7944236Y-1900032D01*
X-7972993Y-1892829D01*
X-8001362Y-1884223D01*
X-8029275Y-1874236D01*
X-8056664Y-1862891D01*
X-8083464Y-1850215D01*
X-8109609Y-1836241D01*
X-8135037Y-1821000D01*
X-8159687Y-1804529D01*
X-8183498Y-1786869D01*
X-8206415Y-1768062D01*
X-8228381Y-1748153D01*
X-8249344Y-1727190D01*
X-8269253Y-1705224D01*
X-8288060Y-1682308D01*
X-8305720Y-1658496D01*
X-8322190Y-1633847D01*
X-8337431Y-1608418D01*
X-8351406Y-1582273D01*
X-8364081Y-1555474D01*
X-8375426Y-1528085D01*
X-8385414Y-1500172D01*
X-8394019Y-1471802D01*
X-8401223Y-1443045D01*
X-8407006Y-1413969D01*
X-8411356Y-1384644D01*
X-8414262Y-1355141D01*
X-8415717Y-1325531D01*
X-8415717Y-1319297D01*
X-8161793Y-1319297D01*
X-8160950Y-1336456D01*
X-8159266Y-1353552D01*
X-8156746Y-1370545D01*
X-8153394Y-1387393D01*
X-8149220Y-1404057D01*
X-8144233Y-1420497D01*
X-8138446Y-1436671D01*
X-8131872Y-1452542D01*
X-8124527Y-1468072D01*
X-8116429Y-1483222D01*
X-8107597Y-1497957D01*
X-8098053Y-1512241D01*
X-8087820Y-1526039D01*
X-8076922Y-1539318D01*
X-8065385Y-1552047D01*
X-8053238Y-1564194D01*
X-8040509Y-1575731D01*
X-8027230Y-1586629D01*
X-8013431Y-1596863D01*
X-7999148Y-1606407D01*
X-7984413Y-1615238D01*
X-7969263Y-1623336D01*
X-7953733Y-1630681D01*
X-7937862Y-1637255D01*
X-7921687Y-1643043D01*
X-7905248Y-1648030D01*
X-7888584Y-1652204D01*
X-7871735Y-1655555D01*
X-7854742Y-1658076D01*
X-7837646Y-1659760D01*
X-7820488Y-1660603D01*
X-7803309Y-1660603D01*
X-7786151Y-1659760D01*
X-7769055Y-1658076D01*
X-7752062Y-1655555D01*
X-7735213Y-1652204D01*
X-7718549Y-1648030D01*
X-7702110Y-1643043D01*
X-7685935Y-1637255D01*
X-7670064Y-1630681D01*
X-7654535Y-1623336D01*
X-7639384Y-1615238D01*
X-7624649Y-1606407D01*
X-7610366Y-1596863D01*
X-7596567Y-1586629D01*
X-7583288Y-1575731D01*
X-7570559Y-1564194D01*
X-7558412Y-1552047D01*
X-7546875Y-1539318D01*
X-7535977Y-1526039D01*
X-7525744Y-1512241D01*
X-7516200Y-1497957D01*
X-7507368Y-1483222D01*
X-7499270Y-1468072D01*
X-7491925Y-1452542D01*
X-7485351Y-1436671D01*
X-7479564Y-1420497D01*
X-7474577Y-1404057D01*
X-7470403Y-1387393D01*
X-7467051Y-1370545D01*
X-7464531Y-1353552D01*
X-7462847Y-1336456D01*
X-7462004Y-1319297D01*
X-7462004Y-1302119D01*
X-7462847Y-1284960D01*
X-7464531Y-1267864D01*
X-7467051Y-1250871D01*
X-7470403Y-1234023D01*
X-7474577Y-1217358D01*
X-7479564Y-1200919D01*
X-7485351Y-1184745D01*
X-7491925Y-1168874D01*
X-7499270Y-1153344D01*
X-7507368Y-1138194D01*
X-7516200Y-1123459D01*
X-7525744Y-1109175D01*
X-7535977Y-1095377D01*
X-7546875Y-1082097D01*
X-7558412Y-1069369D01*
X-7570559Y-1057221D01*
X-7583288Y-1045685D01*
X-7596567Y-1034787D01*
X-7610366Y-1024553D01*
X-7624649Y-1015009D01*
X-7639384Y-1006178D01*
X-7654535Y-998079D01*
X-7670064Y-990735D01*
X-7685935Y-984160D01*
X-7702110Y-978373D01*
X-7718549Y-973386D01*
X-7735213Y-969212D01*
X-7752062Y-965861D01*
X-7769055Y-963340D01*
X-7786151Y-961656D01*
X-7803309Y-960813D01*
X-7820488Y-960813D01*
X-7837646Y-961656D01*
X-7854742Y-963340D01*
X-7871735Y-965861D01*
X-7888584Y-969212D01*
X-7905248Y-973386D01*
X-7921687Y-978373D01*
X-7937862Y-984160D01*
X-7953733Y-990735D01*
X-7969263Y-998079D01*
X-7984413Y-1006178D01*
X-7999148Y-1015009D01*
X-8013431Y-1024553D01*
X-8027230Y-1034787D01*
X-8040509Y-1045685D01*
X-8053238Y-1057221D01*
X-8065385Y-1069369D01*
X-8076922Y-1082097D01*
X-8087820Y-1095377D01*
X-8098053Y-1109175D01*
X-8107597Y-1123459D01*
X-8116429Y-1138194D01*
X-8124527Y-1153344D01*
X-8131872Y-1168874D01*
X-8138446Y-1184745D01*
X-8144233Y-1200919D01*
X-8149220Y-1217358D01*
X-8153394Y-1234023D01*
X-8156746Y-1250871D01*
X-8159266Y-1267864D01*
X-8160950Y-1284960D01*
X-8161793Y-1302119D01*
X-8161793Y-1319297D01*
X-8415717Y-1319297D01*
X-8415717Y-1295885D01*
X-8414262Y-1266275D01*
X-8411356Y-1236772D01*
X-8407006Y-1207447D01*
X-8401223Y-1178371D01*
X-8394019Y-1149613D01*
X-8385414Y-1121244D01*
X-8375426Y-1093331D01*
X-8364081Y-1065942D01*
X-8351406Y-1039143D01*
X-8337431Y-1012997D01*
X-8322190Y-987569D01*
X-8305720Y-962920D01*
X-8288060Y-939108D01*
X-8269253Y-916192D01*
X-8249344Y-894225D01*
X-8228381Y-873263D01*
X-8206415Y-853354D01*
X-8183498Y-834547D01*
X-8159687Y-816887D01*
X-8135037Y-800416D01*
X-8109609Y-785175D01*
X-8083464Y-771200D01*
X-8056664Y-758525D01*
X-8029275Y-747180D01*
X-8001362Y-737193D01*
X-7972993Y-728587D01*
X-7944236Y-721384D01*
X-7915160Y-715600D01*
X-7885835Y-711250D01*
X-7856332Y-708345D01*
X-7826721Y-706890D01*
X-7797076Y-706890D01*
G37*
G36*
X24514381Y-13285087D02*
G01*
X24651150Y-13298557D01*
X24787093Y-13318723D01*
X24921883Y-13345534D01*
X25055196Y-13378927D01*
X25186709Y-13418821D01*
X25316106Y-13465120D01*
X25443076Y-13517713D01*
X25567312Y-13576472D01*
X25688515Y-13641256D01*
X25806393Y-13711910D01*
X25920663Y-13788263D01*
X26031048Y-13870130D01*
X26137284Y-13957315D01*
X26239114Y-14049608D01*
X26336292Y-14146786D01*
X26428585Y-14248616D01*
X26515770Y-14354852D01*
X26597637Y-14465237D01*
X26673990Y-14579507D01*
X26744644Y-14697385D01*
X26809428Y-14818588D01*
X26868187Y-14942824D01*
X26920780Y-15069794D01*
X26967079Y-15199191D01*
X27006973Y-15330704D01*
X27040366Y-15464017D01*
X27067177Y-15598807D01*
X27087343Y-15734750D01*
X27100813Y-15871519D01*
X27107557Y-16008785D01*
X27107557Y-16146215D01*
X27100813Y-16283481D01*
X27087343Y-16420250D01*
X27067177Y-16556193D01*
X27040366Y-16690983D01*
X27006973Y-16824296D01*
X26967079Y-16955809D01*
X26920780Y-17085206D01*
X26868187Y-17212176D01*
X26809428Y-17336412D01*
X26744644Y-17457615D01*
X26673990Y-17575493D01*
X26597637Y-17689763D01*
X26515770Y-17800148D01*
X26428585Y-17906384D01*
X26336292Y-18008214D01*
X26239114Y-18105392D01*
X26137284Y-18197685D01*
X26031048Y-18284870D01*
X25920663Y-18366737D01*
X25806393Y-18443090D01*
X25688515Y-18513744D01*
X25567312Y-18578528D01*
X25443076Y-18637287D01*
X25316106Y-18689880D01*
X25186709Y-18736179D01*
X25055196Y-18776073D01*
X24921883Y-18809466D01*
X24787093Y-18836277D01*
X24651150Y-18856443D01*
X24514381Y-18869913D01*
X24377115Y-18876657D01*
X24239685Y-18876657D01*
X24102419Y-18869913D01*
X23965650Y-18856443D01*
X23829707Y-18836277D01*
X23694917Y-18809466D01*
X23561604Y-18776073D01*
X23430091Y-18736179D01*
X23300694Y-18689880D01*
X23173724Y-18637287D01*
X23049488Y-18578528D01*
X22928285Y-18513744D01*
X22810407Y-18443090D01*
X22696137Y-18366737D01*
X22585752Y-18284870D01*
X22479516Y-18197685D01*
X22377686Y-18105392D01*
X22280508Y-18008214D01*
X22188215Y-17906384D01*
X22101030Y-17800148D01*
X22019163Y-17689763D01*
X21942810Y-17575493D01*
X21872156Y-17457615D01*
X21807372Y-17336412D01*
X21748613Y-17212176D01*
X21696020Y-17085206D01*
X21649721Y-16955809D01*
X21609827Y-16824296D01*
X21576434Y-16690983D01*
X21549623Y-16556193D01*
X21529457Y-16420250D01*
X21515987Y-16283481D01*
X21509243Y-16146215D01*
X21509243Y-16116766D01*
X22708882Y-16116766D01*
X22712735Y-16195203D01*
X22720433Y-16273357D01*
X22731956Y-16351039D01*
X22747277Y-16428062D01*
X22766358Y-16504240D01*
X22789155Y-16579391D01*
X22815612Y-16653332D01*
X22845664Y-16725886D01*
X22879241Y-16796878D01*
X22916261Y-16866137D01*
X22956634Y-16933496D01*
X23000264Y-16998793D01*
X23047046Y-17061871D01*
X23096866Y-17122577D01*
X23149605Y-17180765D01*
X23205135Y-17236295D01*
X23263323Y-17289034D01*
X23324029Y-17338854D01*
X23387107Y-17385636D01*
X23452404Y-17429266D01*
X23519763Y-17469639D01*
X23589022Y-17506659D01*
X23660014Y-17540236D01*
X23732568Y-17570288D01*
X23806509Y-17596745D01*
X23881660Y-17619542D01*
X23957838Y-17638623D01*
X24034861Y-17653944D01*
X24112543Y-17665467D01*
X24190697Y-17673165D01*
X24269134Y-17677018D01*
X24347666Y-17677018D01*
X24426103Y-17673165D01*
X24504257Y-17665467D01*
X24581939Y-17653944D01*
X24658962Y-17638623D01*
X24735140Y-17619542D01*
X24810291Y-17596745D01*
X24884232Y-17570288D01*
X24956786Y-17540236D01*
X25027778Y-17506659D01*
X25097037Y-17469639D01*
X25164396Y-17429266D01*
X25229693Y-17385636D01*
X25292771Y-17338854D01*
X25353477Y-17289034D01*
X25411665Y-17236295D01*
X25467195Y-17180765D01*
X25519934Y-17122577D01*
X25569754Y-17061871D01*
X25616536Y-16998793D01*
X25660166Y-16933496D01*
X25700539Y-16866137D01*
X25737559Y-16796878D01*
X25771136Y-16725886D01*
X25801188Y-16653332D01*
X25827645Y-16579391D01*
X25850442Y-16504240D01*
X25869523Y-16428062D01*
X25884844Y-16351039D01*
X25896367Y-16273357D01*
X25904065Y-16195203D01*
X25907918Y-16116766D01*
X25907918Y-16038234D01*
X25904065Y-15959797D01*
X25896367Y-15881643D01*
X25884844Y-15803961D01*
X25869523Y-15726938D01*
X25850442Y-15650760D01*
X25827645Y-15575609D01*
X25801188Y-15501668D01*
X25771136Y-15429114D01*
X25737559Y-15358122D01*
X25700539Y-15288863D01*
X25660166Y-15221504D01*
X25616536Y-15156207D01*
X25569754Y-15093129D01*
X25519934Y-15032423D01*
X25467195Y-14974235D01*
X25411665Y-14918705D01*
X25353477Y-14865966D01*
X25292771Y-14816146D01*
X25229693Y-14769364D01*
X25164396Y-14725734D01*
X25097037Y-14685361D01*
X25027778Y-14648341D01*
X24956786Y-14614764D01*
X24884232Y-14584712D01*
X24810291Y-14558255D01*
X24735140Y-14535458D01*
X24658962Y-14516377D01*
X24581939Y-14501056D01*
X24504257Y-14489533D01*
X24426103Y-14481835D01*
X24347666Y-14477982D01*
X24269134Y-14477982D01*
X24190697Y-14481835D01*
X24112543Y-14489533D01*
X24034861Y-14501056D01*
X23957838Y-14516377D01*
X23881660Y-14535458D01*
X23806509Y-14558255D01*
X23732568Y-14584712D01*
X23660014Y-14614764D01*
X23589022Y-14648341D01*
X23519763Y-14685361D01*
X23452404Y-14725734D01*
X23387107Y-14769364D01*
X23324029Y-14816146D01*
X23263323Y-14865966D01*
X23205135Y-14918705D01*
X23149605Y-14974235D01*
X23096866Y-15032423D01*
X23047046Y-15093129D01*
X23000264Y-15156207D01*
X22956634Y-15221504D01*
X22916261Y-15288863D01*
X22879241Y-15358122D01*
X22845664Y-15429114D01*
X22815612Y-15501668D01*
X22789155Y-15575609D01*
X22766358Y-15650760D01*
X22747277Y-15726938D01*
X22731956Y-15803961D01*
X22720433Y-15881643D01*
X22712735Y-15959797D01*
X22708882Y-16038234D01*
X22708882Y-16116766D01*
X21509243Y-16116766D01*
X21509243Y-16008785D01*
X21515987Y-15871519D01*
X21529457Y-15734750D01*
X21549623Y-15598807D01*
X21576434Y-15464017D01*
X21609827Y-15330704D01*
X21649721Y-15199191D01*
X21696020Y-15069794D01*
X21748613Y-14942824D01*
X21807372Y-14818588D01*
X21872156Y-14697385D01*
X21942810Y-14579507D01*
X22019163Y-14465237D01*
X22101030Y-14354852D01*
X22188215Y-14248616D01*
X22280508Y-14146786D01*
X22377686Y-14049608D01*
X22479516Y-13957315D01*
X22585752Y-13870130D01*
X22696137Y-13788263D01*
X22810407Y-13711910D01*
X22928285Y-13641256D01*
X23049488Y-13576472D01*
X23173724Y-13517713D01*
X23300694Y-13465120D01*
X23430091Y-13418821D01*
X23561604Y-13378927D01*
X23694917Y-13345534D01*
X23829707Y-13318723D01*
X23965650Y-13298557D01*
X24102419Y-13285087D01*
X24239685Y-13278343D01*
X24377115Y-13278343D01*
X24514381Y-13285087D01*
G37*
G36*
X-14065619Y27293113D02*
G01*
X-13928850Y27279643D01*
X-13792907Y27259477D01*
X-13658117Y27232666D01*
X-13524804Y27199273D01*
X-13393291Y27159379D01*
X-13263894Y27113080D01*
X-13136924Y27060487D01*
X-13012688Y27001728D01*
X-12891485Y26936944D01*
X-12773607Y26866290D01*
X-12659337Y26789937D01*
X-12548952Y26708070D01*
X-12442716Y26620885D01*
X-12340886Y26528592D01*
X-12243708Y26431414D01*
X-12151415Y26329584D01*
X-12064230Y26223348D01*
X-11982363Y26112963D01*
X-11906010Y25998693D01*
X-11835356Y25880815D01*
X-11770572Y25759612D01*
X-11711813Y25635376D01*
X-11659220Y25508406D01*
X-11612921Y25379009D01*
X-11573027Y25247496D01*
X-11539634Y25114183D01*
X-11512823Y24979393D01*
X-11492657Y24843450D01*
X-11479187Y24706681D01*
X-11472443Y24569415D01*
X-11472443Y24431985D01*
X-11479187Y24294719D01*
X-11492657Y24157950D01*
X-11512823Y24022007D01*
X-11539634Y23887217D01*
X-11573027Y23753904D01*
X-11612921Y23622391D01*
X-11659220Y23492994D01*
X-11711813Y23366024D01*
X-11770572Y23241788D01*
X-11835356Y23120585D01*
X-11906010Y23002707D01*
X-11982363Y22888437D01*
X-12064230Y22778052D01*
X-12151415Y22671816D01*
X-12243708Y22569986D01*
X-12340886Y22472808D01*
X-12442716Y22380515D01*
X-12548952Y22293330D01*
X-12659337Y22211463D01*
X-12773607Y22135110D01*
X-12891485Y22064456D01*
X-13012688Y21999672D01*
X-13136924Y21940913D01*
X-13263894Y21888320D01*
X-13393291Y21842021D01*
X-13524804Y21802127D01*
X-13658117Y21768734D01*
X-13792907Y21741923D01*
X-13928850Y21721757D01*
X-14065619Y21708287D01*
X-14202885Y21701543D01*
X-14340315Y21701543D01*
X-14477581Y21708287D01*
X-14614350Y21721757D01*
X-14750293Y21741923D01*
X-14885083Y21768734D01*
X-15018396Y21802127D01*
X-15149909Y21842021D01*
X-15279306Y21888320D01*
X-15406276Y21940913D01*
X-15530512Y21999672D01*
X-15651715Y22064456D01*
X-15769593Y22135110D01*
X-15883863Y22211463D01*
X-15994248Y22293330D01*
X-16100484Y22380515D01*
X-16202314Y22472808D01*
X-16299492Y22569986D01*
X-16391785Y22671816D01*
X-16478970Y22778052D01*
X-16560837Y22888437D01*
X-16637190Y23002707D01*
X-16707844Y23120585D01*
X-16772628Y23241788D01*
X-16831387Y23366024D01*
X-16883980Y23492994D01*
X-16930279Y23622391D01*
X-16970173Y23753904D01*
X-17003566Y23887217D01*
X-17030377Y24022007D01*
X-17050543Y24157950D01*
X-17064013Y24294719D01*
X-17070757Y24431985D01*
X-17070757Y24461434D01*
X-15871118Y24461434D01*
X-15867265Y24382997D01*
X-15859567Y24304843D01*
X-15848044Y24227161D01*
X-15832723Y24150138D01*
X-15813642Y24073960D01*
X-15790845Y23998809D01*
X-15764388Y23924868D01*
X-15734336Y23852314D01*
X-15700759Y23781322D01*
X-15663739Y23712063D01*
X-15623366Y23644704D01*
X-15579736Y23579407D01*
X-15532954Y23516329D01*
X-15483134Y23455623D01*
X-15430395Y23397435D01*
X-15374865Y23341905D01*
X-15316677Y23289166D01*
X-15255971Y23239346D01*
X-15192893Y23192564D01*
X-15127596Y23148934D01*
X-15060237Y23108561D01*
X-14990978Y23071541D01*
X-14919986Y23037964D01*
X-14847432Y23007912D01*
X-14773491Y22981455D01*
X-14698340Y22958658D01*
X-14622162Y22939577D01*
X-14545139Y22924256D01*
X-14467457Y22912733D01*
X-14389303Y22905035D01*
X-14310866Y22901182D01*
X-14232334Y22901182D01*
X-14153897Y22905035D01*
X-14075743Y22912733D01*
X-13998061Y22924256D01*
X-13921038Y22939577D01*
X-13844860Y22958658D01*
X-13769709Y22981455D01*
X-13695768Y23007912D01*
X-13623214Y23037964D01*
X-13552222Y23071541D01*
X-13482963Y23108561D01*
X-13415604Y23148934D01*
X-13350307Y23192564D01*
X-13287229Y23239346D01*
X-13226523Y23289166D01*
X-13168335Y23341905D01*
X-13112805Y23397435D01*
X-13060066Y23455623D01*
X-13010246Y23516329D01*
X-12963464Y23579407D01*
X-12919834Y23644704D01*
X-12879461Y23712063D01*
X-12842441Y23781322D01*
X-12808864Y23852314D01*
X-12778812Y23924868D01*
X-12752355Y23998809D01*
X-12729558Y24073960D01*
X-12710477Y24150138D01*
X-12695156Y24227161D01*
X-12683633Y24304843D01*
X-12675935Y24382997D01*
X-12672082Y24461434D01*
X-12672082Y24539966D01*
X-12675935Y24618403D01*
X-12683633Y24696557D01*
X-12695156Y24774239D01*
X-12710477Y24851262D01*
X-12729558Y24927440D01*
X-12752355Y25002591D01*
X-12778812Y25076532D01*
X-12808864Y25149086D01*
X-12842441Y25220078D01*
X-12879461Y25289337D01*
X-12919834Y25356696D01*
X-12963464Y25421993D01*
X-13010246Y25485071D01*
X-13060066Y25545777D01*
X-13112805Y25603965D01*
X-13168335Y25659495D01*
X-13226523Y25712234D01*
X-13287229Y25762054D01*
X-13350307Y25808836D01*
X-13415604Y25852466D01*
X-13482963Y25892839D01*
X-13552222Y25929859D01*
X-13623214Y25963436D01*
X-13695768Y25993488D01*
X-13769709Y26019945D01*
X-13844860Y26042742D01*
X-13921038Y26061823D01*
X-13998061Y26077144D01*
X-14075743Y26088667D01*
X-14153897Y26096365D01*
X-14232334Y26100218D01*
X-14310866Y26100218D01*
X-14389303Y26096365D01*
X-14467457Y26088667D01*
X-14545139Y26077144D01*
X-14622162Y26061823D01*
X-14698340Y26042742D01*
X-14773491Y26019945D01*
X-14847432Y25993488D01*
X-14919986Y25963436D01*
X-14990978Y25929859D01*
X-15060237Y25892839D01*
X-15127596Y25852466D01*
X-15192893Y25808836D01*
X-15255971Y25762054D01*
X-15316677Y25712234D01*
X-15374865Y25659495D01*
X-15430395Y25603965D01*
X-15483134Y25545777D01*
X-15532954Y25485071D01*
X-15579736Y25421993D01*
X-15623366Y25356696D01*
X-15663739Y25289337D01*
X-15700759Y25220078D01*
X-15734336Y25149086D01*
X-15764388Y25076532D01*
X-15790845Y25002591D01*
X-15813642Y24927440D01*
X-15832723Y24851262D01*
X-15848044Y24774239D01*
X-15859567Y24696557D01*
X-15867265Y24618403D01*
X-15871118Y24539966D01*
X-15871118Y24461434D01*
X-17070757Y24461434D01*
X-17070757Y24569415D01*
X-17064013Y24706681D01*
X-17050543Y24843450D01*
X-17030377Y24979393D01*
X-17003566Y25114183D01*
X-16970173Y25247496D01*
X-16930279Y25379009D01*
X-16883980Y25508406D01*
X-16831387Y25635376D01*
X-16772628Y25759612D01*
X-16707844Y25880815D01*
X-16637190Y25998693D01*
X-16560837Y26112963D01*
X-16478970Y26223348D01*
X-16391785Y26329584D01*
X-16299492Y26431414D01*
X-16202314Y26528592D01*
X-16100484Y26620885D01*
X-15994248Y26708070D01*
X-15883863Y26789937D01*
X-15769593Y26866290D01*
X-15651715Y26936944D01*
X-15530512Y27001728D01*
X-15406276Y27060487D01*
X-15279306Y27113080D01*
X-15149909Y27159379D01*
X-15018396Y27199273D01*
X-14885083Y27232666D01*
X-14750293Y27259477D01*
X-14614350Y27279643D01*
X-14477581Y27293113D01*
X-14340315Y27299857D01*
X-14202885Y27299857D01*
X-14065619Y27293113D01*
G37*
G36*
X-6585805Y-11866200D02*
G01*
X-8685805Y-11866200D01*
X-8685805Y-6266200D01*
X-6585805Y-6266200D01*
X-6585805Y-11866200D01*
G37*
G36*
X-6585795Y-20866200D02*
G01*
X-8685795Y-20866200D01*
X-8685795Y-15266200D01*
X-6585795Y-15266200D01*
X-6585795Y-20866200D01*
G37*
G36*
X-3775791Y-21510635D02*
G01*
X-3768712Y-21511332D01*
X-3761694Y-21512491D01*
X-3754766Y-21514106D01*
X-3747960Y-21516171D01*
X-3741302Y-21518677D01*
X-3734823Y-21521612D01*
X-3728550Y-21524966D01*
X-3722510Y-21528722D01*
X-3716728Y-21532865D01*
X-3711229Y-21537378D01*
X-3706037Y-21542240D01*
X-3701175Y-21547432D01*
X-3696662Y-21552930D01*
X-3692519Y-21558712D01*
X-3688763Y-21564753D01*
X-3685410Y-21571026D01*
X-3682474Y-21577505D01*
X-3679969Y-21584162D01*
X-3677904Y-21590969D01*
X-3676289Y-21597896D01*
X-3675130Y-21604914D01*
X-3674433Y-21611993D01*
X-3674200Y-21619103D01*
X-3674200Y-22851703D01*
X-3674433Y-22858812D01*
X-3675130Y-22865891D01*
X-3676289Y-22872909D01*
X-3677904Y-22879836D01*
X-3679969Y-22886643D01*
X-3682474Y-22893300D01*
X-3685410Y-22899779D01*
X-3688763Y-22906053D01*
X-3692519Y-22912093D01*
X-3696662Y-22917875D01*
X-3701175Y-22923373D01*
X-3706037Y-22928565D01*
X-3711229Y-22933428D01*
X-3716728Y-22937940D01*
X-3722510Y-22942083D01*
X-3728550Y-22945839D01*
X-3734823Y-22949193D01*
X-3741302Y-22952128D01*
X-3747960Y-22954634D01*
X-3754766Y-22956699D01*
X-3761694Y-22958314D01*
X-3768712Y-22959473D01*
X-3775791Y-22960170D01*
X-3782900Y-22960403D01*
X-4565500Y-22960403D01*
X-4572609Y-22960170D01*
X-4579688Y-22959473D01*
X-4586706Y-22958314D01*
X-4593634Y-22956699D01*
X-4600440Y-22954634D01*
X-4607098Y-22952128D01*
X-4613577Y-22949193D01*
X-4619850Y-22945839D01*
X-4625890Y-22942083D01*
X-4631672Y-22937940D01*
X-4637171Y-22933428D01*
X-4642363Y-22928565D01*
X-4647225Y-22923373D01*
X-4651738Y-22917875D01*
X-4655881Y-22912093D01*
X-4659637Y-22906053D01*
X-4662990Y-22899779D01*
X-4665926Y-22893300D01*
X-4668431Y-22886643D01*
X-4670496Y-22879836D01*
X-4672111Y-22872909D01*
X-4673270Y-22865891D01*
X-4673967Y-22858812D01*
X-4674200Y-22851703D01*
X-4674200Y-21619103D01*
X-4673967Y-21611993D01*
X-4673270Y-21604914D01*
X-4672111Y-21597896D01*
X-4670496Y-21590969D01*
X-4668431Y-21584162D01*
X-4665926Y-21577505D01*
X-4662990Y-21571026D01*
X-4659637Y-21564753D01*
X-4655881Y-21558712D01*
X-4651738Y-21552930D01*
X-4647225Y-21547432D01*
X-4642363Y-21542240D01*
X-4637171Y-21537378D01*
X-4631672Y-21532865D01*
X-4625890Y-21528722D01*
X-4619850Y-21524966D01*
X-4613577Y-21521612D01*
X-4607098Y-21518677D01*
X-4600440Y-21516171D01*
X-4593634Y-21514106D01*
X-4586706Y-21512491D01*
X-4579688Y-21511332D01*
X-4572609Y-21510635D01*
X-4565500Y-21510403D01*
X-3782900Y-21510403D01*
X-3775791Y-21510635D01*
G37*
G36*
X-5675791Y-21510630D02*
G01*
X-5668712Y-21511327D01*
X-5661694Y-21512486D01*
X-5654766Y-21514101D01*
X-5647960Y-21516166D01*
X-5641302Y-21518672D01*
X-5634823Y-21521607D01*
X-5628550Y-21524961D01*
X-5622510Y-21528717D01*
X-5616728Y-21532860D01*
X-5611229Y-21537372D01*
X-5606037Y-21542235D01*
X-5601175Y-21547427D01*
X-5596662Y-21552925D01*
X-5592519Y-21558707D01*
X-5588763Y-21564747D01*
X-5585410Y-21571021D01*
X-5582474Y-21577500D01*
X-5579969Y-21584157D01*
X-5577904Y-21590964D01*
X-5576289Y-21597891D01*
X-5575130Y-21604909D01*
X-5574433Y-21611988D01*
X-5574200Y-21619097D01*
X-5574200Y-22851697D01*
X-5574433Y-22858807D01*
X-5575130Y-22865886D01*
X-5576289Y-22872904D01*
X-5577904Y-22879831D01*
X-5579969Y-22886638D01*
X-5582474Y-22893295D01*
X-5585410Y-22899774D01*
X-5588763Y-22906047D01*
X-5592519Y-22912088D01*
X-5596662Y-22917870D01*
X-5601175Y-22923368D01*
X-5606037Y-22928560D01*
X-5611229Y-22933422D01*
X-5616728Y-22937935D01*
X-5622510Y-22942078D01*
X-5628550Y-22945834D01*
X-5634823Y-22949188D01*
X-5641302Y-22952123D01*
X-5647960Y-22954629D01*
X-5654766Y-22956694D01*
X-5661694Y-22958309D01*
X-5668712Y-22959468D01*
X-5675791Y-22960165D01*
X-5682900Y-22960397D01*
X-6465500Y-22960397D01*
X-6472609Y-22960165D01*
X-6479688Y-22959468D01*
X-6486706Y-22958309D01*
X-6493634Y-22956694D01*
X-6500440Y-22954629D01*
X-6507098Y-22952123D01*
X-6513577Y-22949188D01*
X-6519850Y-22945834D01*
X-6525890Y-22942078D01*
X-6531672Y-22937935D01*
X-6537171Y-22933422D01*
X-6542363Y-22928560D01*
X-6547225Y-22923368D01*
X-6551738Y-22917870D01*
X-6555881Y-22912088D01*
X-6559637Y-22906047D01*
X-6562990Y-22899774D01*
X-6565926Y-22893295D01*
X-6568431Y-22886638D01*
X-6570496Y-22879831D01*
X-6572111Y-22872904D01*
X-6573270Y-22865886D01*
X-6573967Y-22858807D01*
X-6574200Y-22851697D01*
X-6574200Y-21619097D01*
X-6573967Y-21611988D01*
X-6573270Y-21604909D01*
X-6572111Y-21597891D01*
X-6570496Y-21590964D01*
X-6568431Y-21584157D01*
X-6565926Y-21577500D01*
X-6562990Y-21571021D01*
X-6559637Y-21564747D01*
X-6555881Y-21558707D01*
X-6551738Y-21552925D01*
X-6547225Y-21547427D01*
X-6542363Y-21542235D01*
X-6537171Y-21537372D01*
X-6531672Y-21532860D01*
X-6525890Y-21528717D01*
X-6519850Y-21524961D01*
X-6513577Y-21521607D01*
X-6507098Y-21518672D01*
X-6500440Y-21516166D01*
X-6493634Y-21514101D01*
X-6486706Y-21512486D01*
X-6479688Y-21511327D01*
X-6472609Y-21510630D01*
X-6465500Y-21510397D01*
X-5682900Y-21510397D01*
X-5675791Y-21510630D01*
G37*
G36*
X-14065619Y-22752287D02*
G01*
X-13928850Y-22765757D01*
X-13792907Y-22785923D01*
X-13658117Y-22812734D01*
X-13524804Y-22846127D01*
X-13393291Y-22886021D01*
X-13263894Y-22932320D01*
X-13136924Y-22984913D01*
X-13012688Y-23043672D01*
X-12891485Y-23108456D01*
X-12773607Y-23179110D01*
X-12659337Y-23255463D01*
X-12548952Y-23337330D01*
X-12442716Y-23424515D01*
X-12340886Y-23516808D01*
X-12243708Y-23613986D01*
X-12151415Y-23715816D01*
X-12064230Y-23822052D01*
X-11982363Y-23932437D01*
X-11906010Y-24046707D01*
X-11835356Y-24164585D01*
X-11770572Y-24285788D01*
X-11711813Y-24410024D01*
X-11659220Y-24536994D01*
X-11612921Y-24666391D01*
X-11573027Y-24797904D01*
X-11539634Y-24931217D01*
X-11512823Y-25066007D01*
X-11492657Y-25201950D01*
X-11479187Y-25338719D01*
X-11472443Y-25475985D01*
X-11472443Y-25613415D01*
X-11479187Y-25750681D01*
X-11492657Y-25887450D01*
X-11512823Y-26023393D01*
X-11539634Y-26158183D01*
X-11573027Y-26291496D01*
X-11612921Y-26423009D01*
X-11659220Y-26552406D01*
X-11711813Y-26679376D01*
X-11770572Y-26803612D01*
X-11835356Y-26924815D01*
X-11906010Y-27042693D01*
X-11982363Y-27156963D01*
X-12064230Y-27267348D01*
X-12151415Y-27373584D01*
X-12243708Y-27475414D01*
X-12340886Y-27572592D01*
X-12442716Y-27664885D01*
X-12548952Y-27752070D01*
X-12659337Y-27833937D01*
X-12773607Y-27910290D01*
X-12891485Y-27980944D01*
X-13012688Y-28045728D01*
X-13136924Y-28104487D01*
X-13263894Y-28157080D01*
X-13393291Y-28203379D01*
X-13524804Y-28243273D01*
X-13658117Y-28276666D01*
X-13792907Y-28303477D01*
X-13928850Y-28323643D01*
X-14065619Y-28337113D01*
X-14202885Y-28343857D01*
X-14340315Y-28343857D01*
X-14477581Y-28337113D01*
X-14614350Y-28323643D01*
X-14750293Y-28303477D01*
X-14885083Y-28276666D01*
X-15018396Y-28243273D01*
X-15149909Y-28203379D01*
X-15279306Y-28157080D01*
X-15406276Y-28104487D01*
X-15530512Y-28045728D01*
X-15651715Y-27980944D01*
X-15769593Y-27910290D01*
X-15883863Y-27833937D01*
X-15994248Y-27752070D01*
X-16100484Y-27664885D01*
X-16202314Y-27572592D01*
X-16299492Y-27475414D01*
X-16391785Y-27373584D01*
X-16478970Y-27267348D01*
X-16560837Y-27156963D01*
X-16637190Y-27042693D01*
X-16707844Y-26924815D01*
X-16772628Y-26803612D01*
X-16831387Y-26679376D01*
X-16883980Y-26552406D01*
X-16930279Y-26423009D01*
X-16970173Y-26291496D01*
X-17003566Y-26158183D01*
X-17030377Y-26023393D01*
X-17050543Y-25887450D01*
X-17064013Y-25750681D01*
X-17070757Y-25613415D01*
X-17070757Y-25583966D01*
X-15871118Y-25583966D01*
X-15867265Y-25662403D01*
X-15859567Y-25740557D01*
X-15848044Y-25818239D01*
X-15832723Y-25895262D01*
X-15813642Y-25971440D01*
X-15790845Y-26046591D01*
X-15764388Y-26120532D01*
X-15734336Y-26193086D01*
X-15700759Y-26264078D01*
X-15663739Y-26333337D01*
X-15623366Y-26400696D01*
X-15579736Y-26465993D01*
X-15532954Y-26529071D01*
X-15483134Y-26589777D01*
X-15430395Y-26647965D01*
X-15374865Y-26703495D01*
X-15316677Y-26756234D01*
X-15255971Y-26806054D01*
X-15192893Y-26852836D01*
X-15127596Y-26896466D01*
X-15060237Y-26936839D01*
X-14990978Y-26973859D01*
X-14919986Y-27007436D01*
X-14847432Y-27037488D01*
X-14773491Y-27063945D01*
X-14698340Y-27086742D01*
X-14622162Y-27105823D01*
X-14545139Y-27121144D01*
X-14467457Y-27132667D01*
X-14389303Y-27140365D01*
X-14310866Y-27144218D01*
X-14232334Y-27144218D01*
X-14153897Y-27140365D01*
X-14075743Y-27132667D01*
X-13998061Y-27121144D01*
X-13921038Y-27105823D01*
X-13844860Y-27086742D01*
X-13769709Y-27063945D01*
X-13695768Y-27037488D01*
X-13623214Y-27007436D01*
X-13552222Y-26973859D01*
X-13482963Y-26936839D01*
X-13415604Y-26896466D01*
X-13350307Y-26852836D01*
X-13287229Y-26806054D01*
X-13226523Y-26756234D01*
X-13168335Y-26703495D01*
X-13112805Y-26647965D01*
X-13060066Y-26589777D01*
X-13010246Y-26529071D01*
X-12963464Y-26465993D01*
X-12919834Y-26400696D01*
X-12879461Y-26333337D01*
X-12842441Y-26264078D01*
X-12808864Y-26193086D01*
X-12778812Y-26120532D01*
X-12752355Y-26046591D01*
X-12729558Y-25971440D01*
X-12710477Y-25895262D01*
X-12695156Y-25818239D01*
X-12683633Y-25740557D01*
X-12675935Y-25662403D01*
X-12672082Y-25583966D01*
X-12672082Y-25505434D01*
X-12675935Y-25426997D01*
X-12683633Y-25348843D01*
X-12695156Y-25271161D01*
X-12710477Y-25194138D01*
X-12729558Y-25117960D01*
X-12752355Y-25042809D01*
X-12778812Y-24968868D01*
X-12808864Y-24896314D01*
X-12842441Y-24825322D01*
X-12879461Y-24756063D01*
X-12919834Y-24688704D01*
X-12963464Y-24623407D01*
X-13010246Y-24560329D01*
X-13060066Y-24499623D01*
X-13112805Y-24441435D01*
X-13168335Y-24385905D01*
X-13226523Y-24333166D01*
X-13287229Y-24283346D01*
X-13350307Y-24236564D01*
X-13415604Y-24192934D01*
X-13482963Y-24152561D01*
X-13552222Y-24115541D01*
X-13623214Y-24081964D01*
X-13695768Y-24051912D01*
X-13769709Y-24025455D01*
X-13844860Y-24002658D01*
X-13921038Y-23983577D01*
X-13998061Y-23968256D01*
X-14075743Y-23956733D01*
X-14153897Y-23949035D01*
X-14232334Y-23945182D01*
X-14310866Y-23945182D01*
X-14389303Y-23949035D01*
X-14467457Y-23956733D01*
X-14545139Y-23968256D01*
X-14622162Y-23983577D01*
X-14698340Y-24002658D01*
X-14773491Y-24025455D01*
X-14847432Y-24051912D01*
X-14919986Y-24081964D01*
X-14990978Y-24115541D01*
X-15060237Y-24152561D01*
X-15127596Y-24192934D01*
X-15192893Y-24236564D01*
X-15255971Y-24283346D01*
X-15316677Y-24333166D01*
X-15374865Y-24385905D01*
X-15430395Y-24441435D01*
X-15483134Y-24499623D01*
X-15532954Y-24560329D01*
X-15579736Y-24623407D01*
X-15623366Y-24688704D01*
X-15663739Y-24756063D01*
X-15700759Y-24825322D01*
X-15734336Y-24896314D01*
X-15764388Y-24968868D01*
X-15790845Y-25042809D01*
X-15813642Y-25117960D01*
X-15832723Y-25194138D01*
X-15848044Y-25271161D01*
X-15859567Y-25348843D01*
X-15867265Y-25426997D01*
X-15871118Y-25505434D01*
X-15871118Y-25583966D01*
X-17070757Y-25583966D01*
X-17070757Y-25475985D01*
X-17064013Y-25338719D01*
X-17050543Y-25201950D01*
X-17030377Y-25066007D01*
X-17003566Y-24931217D01*
X-16970173Y-24797904D01*
X-16930279Y-24666391D01*
X-16883980Y-24536994D01*
X-16831387Y-24410024D01*
X-16772628Y-24285788D01*
X-16707844Y-24164585D01*
X-16637190Y-24046707D01*
X-16560837Y-23932437D01*
X-16478970Y-23822052D01*
X-16391785Y-23715816D01*
X-16299492Y-23613986D01*
X-16202314Y-23516808D01*
X-16100484Y-23424515D01*
X-15994248Y-23337330D01*
X-15883863Y-23255463D01*
X-15769593Y-23179110D01*
X-15651715Y-23108456D01*
X-15530512Y-23043672D01*
X-15406276Y-22984913D01*
X-15279306Y-22932320D01*
X-15149909Y-22886021D01*
X-15018396Y-22846127D01*
X-14885083Y-22812734D01*
X-14750293Y-22785923D01*
X-14614350Y-22765757D01*
X-14477581Y-22752287D01*
X-14340315Y-22745543D01*
X-14202885Y-22745543D01*
X-14065619Y-22752287D01*
G37*
G36*
X-8457087Y14085167D02*
G01*
X-8450008Y14084470D01*
X-8442990Y14083311D01*
X-8436063Y14081696D01*
X-8429256Y14079631D01*
X-8422599Y14077126D01*
X-8416120Y14074190D01*
X-8409847Y14070837D01*
X-8403806Y14067081D01*
X-8398024Y14062938D01*
X-8392526Y14058425D01*
X-8387334Y14053563D01*
X-8382472Y14048371D01*
X-8377959Y14042872D01*
X-8373816Y14037090D01*
X-8370060Y14031050D01*
X-8366706Y14024777D01*
X-8363771Y14018298D01*
X-8361265Y14011640D01*
X-8359200Y14004834D01*
X-8357585Y13997906D01*
X-8356426Y13990888D01*
X-8355729Y13983809D01*
X-8355497Y13976700D01*
X-8355497Y13194100D01*
X-8355729Y13186991D01*
X-8356426Y13179912D01*
X-8357585Y13172894D01*
X-8359200Y13165966D01*
X-8361265Y13159160D01*
X-8363771Y13152502D01*
X-8366706Y13146023D01*
X-8370060Y13139750D01*
X-8373816Y13133710D01*
X-8377959Y13127928D01*
X-8382472Y13122429D01*
X-8387334Y13117237D01*
X-8392526Y13112375D01*
X-8398024Y13107862D01*
X-8403806Y13103719D01*
X-8409847Y13099963D01*
X-8416120Y13096610D01*
X-8422599Y13093674D01*
X-8429256Y13091169D01*
X-8436063Y13089104D01*
X-8442990Y13087489D01*
X-8450008Y13086330D01*
X-8457087Y13085633D01*
X-8464197Y13085400D01*
X-9696797Y13085400D01*
X-9703906Y13085633D01*
X-9710985Y13086330D01*
X-9718003Y13087489D01*
X-9724930Y13089104D01*
X-9731737Y13091169D01*
X-9738394Y13093674D01*
X-9744873Y13096610D01*
X-9751147Y13099963D01*
X-9757187Y13103719D01*
X-9762969Y13107862D01*
X-9768467Y13112375D01*
X-9773659Y13117237D01*
X-9778521Y13122429D01*
X-9783034Y13127928D01*
X-9787177Y13133710D01*
X-9790933Y13139750D01*
X-9794287Y13146023D01*
X-9797222Y13152502D01*
X-9799728Y13159160D01*
X-9801793Y13165966D01*
X-9803408Y13172894D01*
X-9804567Y13179912D01*
X-9805264Y13186991D01*
X-9805497Y13194100D01*
X-9805497Y13976700D01*
X-9805264Y13983809D01*
X-9804567Y13990888D01*
X-9803408Y13997906D01*
X-9801793Y14004834D01*
X-9799728Y14011640D01*
X-9797222Y14018298D01*
X-9794287Y14024777D01*
X-9790933Y14031050D01*
X-9787177Y14037090D01*
X-9783034Y14042872D01*
X-9778521Y14048371D01*
X-9773659Y14053563D01*
X-9768467Y14058425D01*
X-9762969Y14062938D01*
X-9757187Y14067081D01*
X-9751147Y14070837D01*
X-9744873Y14074190D01*
X-9738394Y14077126D01*
X-9731737Y14079631D01*
X-9724930Y14081696D01*
X-9718003Y14083311D01*
X-9710985Y14084470D01*
X-9703906Y14085167D01*
X-9696797Y14085400D01*
X-8464197Y14085400D01*
X-8457087Y14085167D01*
G37*
G36*
X-8457094Y15985167D02*
G01*
X-8450015Y15984470D01*
X-8442997Y15983311D01*
X-8436070Y15981696D01*
X-8429263Y15979631D01*
X-8422606Y15977126D01*
X-8416127Y15974190D01*
X-8409853Y15970837D01*
X-8403813Y15967081D01*
X-8398031Y15962938D01*
X-8392533Y15958425D01*
X-8387341Y15953563D01*
X-8382479Y15948371D01*
X-8377966Y15942872D01*
X-8373823Y15937090D01*
X-8370067Y15931050D01*
X-8366713Y15924777D01*
X-8363778Y15918298D01*
X-8361272Y15911640D01*
X-8359207Y15904834D01*
X-8357592Y15897906D01*
X-8356433Y15890888D01*
X-8355736Y15883809D01*
X-8355503Y15876700D01*
X-8355503Y15094100D01*
X-8355736Y15086991D01*
X-8356433Y15079912D01*
X-8357592Y15072894D01*
X-8359207Y15065966D01*
X-8361272Y15059160D01*
X-8363778Y15052502D01*
X-8366713Y15046023D01*
X-8370067Y15039750D01*
X-8373823Y15033710D01*
X-8377966Y15027928D01*
X-8382479Y15022429D01*
X-8387341Y15017237D01*
X-8392533Y15012375D01*
X-8398031Y15007862D01*
X-8403813Y15003719D01*
X-8409853Y14999963D01*
X-8416127Y14996610D01*
X-8422606Y14993674D01*
X-8429263Y14991169D01*
X-8436070Y14989104D01*
X-8442997Y14987489D01*
X-8450015Y14986330D01*
X-8457094Y14985633D01*
X-8464203Y14985400D01*
X-9696803Y14985400D01*
X-9703913Y14985633D01*
X-9710992Y14986330D01*
X-9718010Y14987489D01*
X-9724937Y14989104D01*
X-9731744Y14991169D01*
X-9738401Y14993674D01*
X-9744880Y14996610D01*
X-9751153Y14999963D01*
X-9757194Y15003719D01*
X-9762976Y15007862D01*
X-9768474Y15012375D01*
X-9773666Y15017237D01*
X-9778528Y15022429D01*
X-9783041Y15027928D01*
X-9787184Y15033710D01*
X-9790940Y15039750D01*
X-9794294Y15046023D01*
X-9797229Y15052502D01*
X-9799735Y15059160D01*
X-9801800Y15065966D01*
X-9803415Y15072894D01*
X-9804574Y15079912D01*
X-9805271Y15086991D01*
X-9805503Y15094100D01*
X-9805503Y15876700D01*
X-9805271Y15883809D01*
X-9804574Y15890888D01*
X-9803415Y15897906D01*
X-9801800Y15904834D01*
X-9799735Y15911640D01*
X-9797229Y15918298D01*
X-9794294Y15924777D01*
X-9790940Y15931050D01*
X-9787184Y15937090D01*
X-9783041Y15942872D01*
X-9778528Y15948371D01*
X-9773666Y15953563D01*
X-9768474Y15958425D01*
X-9762976Y15962938D01*
X-9757194Y15967081D01*
X-9751153Y15970837D01*
X-9744880Y15974190D01*
X-9738401Y15977126D01*
X-9731744Y15979631D01*
X-9724937Y15981696D01*
X-9718010Y15983311D01*
X-9710992Y15984470D01*
X-9703913Y15985167D01*
X-9696803Y15985400D01*
X-8464203Y15985400D01*
X-8457094Y15985167D01*
G37*
G36*
X10216100Y-25843700D02*
G01*
X8791100Y-25843700D01*
X8791100Y-24293700D01*
X10216100Y-24293700D01*
X10216100Y-25843700D01*
G37*
G36*
X11216100Y-28293700D02*
G01*
X9566100Y-28293700D01*
X9566100Y-26993700D01*
X11216100Y-26993700D01*
X11216100Y-28293700D01*
G37*
G36*
X6766100Y-28593700D02*
G01*
X4966100Y-28593700D01*
X4966100Y-26693700D01*
X6766100Y-26693700D01*
X6766100Y-28593700D01*
G37*
G36*
X6591100Y-25673700D02*
G01*
X6141100Y-25673700D01*
X6141100Y-24293700D01*
X6591100Y-24293700D01*
X6591100Y-25673700D01*
G37*
G36*
X8541100Y-25673700D02*
G01*
X8091100Y-25673700D01*
X8091100Y-24293700D01*
X8541100Y-24293700D01*
X8541100Y-25673700D01*
G37*
G36*
X7891100Y-25673700D02*
G01*
X7441100Y-25673700D01*
X7441100Y-24293700D01*
X7891100Y-24293700D01*
X7891100Y-25673700D01*
G37*
G36*
X7241100Y-25673700D02*
G01*
X6791100Y-25673700D01*
X6791100Y-24293700D01*
X7241100Y-24293700D01*
X7241100Y-25673700D01*
G37*
G36*
X5241100Y-25843700D02*
G01*
X3816100Y-25843700D01*
X3816100Y-24293700D01*
X5241100Y-24293700D01*
X5241100Y-25843700D01*
G37*
G36*
X5941100Y-25673700D02*
G01*
X5491100Y-25673700D01*
X5491100Y-24293700D01*
X5941100Y-24293700D01*
X5941100Y-25673700D01*
G37*
G36*
X4466100Y-28293700D02*
G01*
X2816100Y-28293700D01*
X2816100Y-26993700D01*
X4466100Y-26993700D01*
X4466100Y-28293700D01*
G37*
G36*
X9066100Y-28593700D02*
G01*
X8066100Y-28593700D01*
X8066100Y-26693700D01*
X9066100Y-26693700D01*
X9066100Y-28593700D01*
G37*
G36*
X15746709Y-15952133D02*
G01*
X15753788Y-15952830D01*
X15760806Y-15953989D01*
X15767734Y-15955604D01*
X15774540Y-15957669D01*
X15781198Y-15960174D01*
X15787677Y-15963110D01*
X15793950Y-15966463D01*
X15799990Y-15970219D01*
X15805772Y-15974362D01*
X15811271Y-15978875D01*
X15816463Y-15983737D01*
X15821325Y-15988929D01*
X15825838Y-15994428D01*
X15829981Y-16000210D01*
X15833737Y-16006250D01*
X15837090Y-16012523D01*
X15840026Y-16019002D01*
X15842531Y-16025660D01*
X15844596Y-16032466D01*
X15846211Y-16039394D01*
X15847370Y-16046412D01*
X15848067Y-16053491D01*
X15848300Y-16060600D01*
X15848300Y-17293200D01*
X15848067Y-17300309D01*
X15847370Y-17307388D01*
X15846211Y-17314406D01*
X15844596Y-17321334D01*
X15842531Y-17328140D01*
X15840026Y-17334798D01*
X15837090Y-17341277D01*
X15833737Y-17347550D01*
X15829981Y-17353590D01*
X15825838Y-17359372D01*
X15821325Y-17364871D01*
X15816463Y-17370063D01*
X15811271Y-17374925D01*
X15805772Y-17379438D01*
X15799990Y-17383581D01*
X15793950Y-17387337D01*
X15787677Y-17390690D01*
X15781198Y-17393626D01*
X15774540Y-17396131D01*
X15767734Y-17398196D01*
X15760806Y-17399811D01*
X15753788Y-17400970D01*
X15746709Y-17401667D01*
X15739600Y-17401900D01*
X14957000Y-17401900D01*
X14949891Y-17401667D01*
X14942812Y-17400970D01*
X14935794Y-17399811D01*
X14928866Y-17398196D01*
X14922060Y-17396131D01*
X14915402Y-17393626D01*
X14908923Y-17390690D01*
X14902650Y-17387337D01*
X14896610Y-17383581D01*
X14890828Y-17379438D01*
X14885329Y-17374925D01*
X14880137Y-17370063D01*
X14875275Y-17364871D01*
X14870762Y-17359372D01*
X14866619Y-17353590D01*
X14862863Y-17347550D01*
X14859510Y-17341277D01*
X14856574Y-17334798D01*
X14854069Y-17328140D01*
X14852004Y-17321334D01*
X14850389Y-17314406D01*
X14849230Y-17307388D01*
X14848533Y-17300309D01*
X14848300Y-17293200D01*
X14848300Y-16060600D01*
X14848533Y-16053491D01*
X14849230Y-16046412D01*
X14850389Y-16039394D01*
X14852004Y-16032466D01*
X14854069Y-16025660D01*
X14856574Y-16019002D01*
X14859510Y-16012523D01*
X14862863Y-16006250D01*
X14866619Y-16000210D01*
X14870762Y-15994428D01*
X14875275Y-15988929D01*
X14880137Y-15983737D01*
X14885329Y-15978875D01*
X14890828Y-15974362D01*
X14896610Y-15970219D01*
X14902650Y-15966463D01*
X14908923Y-15963110D01*
X14915402Y-15960174D01*
X14922060Y-15957669D01*
X14928866Y-15955604D01*
X14935794Y-15953989D01*
X14942812Y-15952830D01*
X14949891Y-15952133D01*
X14957000Y-15951900D01*
X15739600Y-15951900D01*
X15746709Y-15952133D01*
G37*
G36*
X17646709Y-15952133D02*
G01*
X17653788Y-15952830D01*
X17660806Y-15953989D01*
X17667734Y-15955604D01*
X17674540Y-15957669D01*
X17681198Y-15960174D01*
X17687677Y-15963110D01*
X17693950Y-15966463D01*
X17699990Y-15970219D01*
X17705772Y-15974362D01*
X17711271Y-15978875D01*
X17716463Y-15983737D01*
X17721325Y-15988929D01*
X17725838Y-15994428D01*
X17729981Y-16000210D01*
X17733737Y-16006250D01*
X17737090Y-16012523D01*
X17740026Y-16019002D01*
X17742531Y-16025660D01*
X17744596Y-16032466D01*
X17746211Y-16039394D01*
X17747370Y-16046412D01*
X17748067Y-16053491D01*
X17748300Y-16060600D01*
X17748300Y-17293200D01*
X17748067Y-17300309D01*
X17747370Y-17307388D01*
X17746211Y-17314406D01*
X17744596Y-17321334D01*
X17742531Y-17328140D01*
X17740026Y-17334798D01*
X17737090Y-17341277D01*
X17733737Y-17347550D01*
X17729981Y-17353590D01*
X17725838Y-17359372D01*
X17721325Y-17364871D01*
X17716463Y-17370063D01*
X17711271Y-17374925D01*
X17705772Y-17379438D01*
X17699990Y-17383581D01*
X17693950Y-17387337D01*
X17687677Y-17390690D01*
X17681198Y-17393626D01*
X17674540Y-17396131D01*
X17667734Y-17398196D01*
X17660806Y-17399811D01*
X17653788Y-17400970D01*
X17646709Y-17401667D01*
X17639600Y-17401900D01*
X16857000Y-17401900D01*
X16849891Y-17401667D01*
X16842812Y-17400970D01*
X16835794Y-17399811D01*
X16828866Y-17398196D01*
X16822060Y-17396131D01*
X16815402Y-17393626D01*
X16808923Y-17390690D01*
X16802650Y-17387337D01*
X16796610Y-17383581D01*
X16790828Y-17379438D01*
X16785329Y-17374925D01*
X16780137Y-17370063D01*
X16775275Y-17364871D01*
X16770762Y-17359372D01*
X16766619Y-17353590D01*
X16762863Y-17347550D01*
X16759510Y-17341277D01*
X16756574Y-17334798D01*
X16754069Y-17328140D01*
X16752004Y-17321334D01*
X16750389Y-17314406D01*
X16749230Y-17307388D01*
X16748533Y-17300309D01*
X16748300Y-17293200D01*
X16748300Y-16060600D01*
X16748533Y-16053491D01*
X16749230Y-16046412D01*
X16750389Y-16039394D01*
X16752004Y-16032466D01*
X16754069Y-16025660D01*
X16756574Y-16019002D01*
X16759510Y-16012523D01*
X16762863Y-16006250D01*
X16766619Y-16000210D01*
X16770762Y-15994428D01*
X16775275Y-15988929D01*
X16780137Y-15983737D01*
X16785329Y-15978875D01*
X16790828Y-15974362D01*
X16796610Y-15970219D01*
X16802650Y-15966463D01*
X16808923Y-15963110D01*
X16815402Y-15960174D01*
X16822060Y-15957669D01*
X16828866Y-15955604D01*
X16835794Y-15953989D01*
X16842812Y-15952830D01*
X16849891Y-15952133D01*
X16857000Y-15951900D01*
X17639600Y-15951900D01*
X17646709Y-15952133D01*
G37*
%TD*%
M02*
