%TF.GenerationSoftware,Flux,Pcbnew,7.0.6-7.0.6~ubuntu20.04.1*%
%TF.CreationDate,2023-09-03T01:02:40+00:00*%
%TF.ProjectId,input,696e7075-742e-46b6-9963-61645f706362,rev?*%
%TF.SameCoordinates,Original*%
%TF.FileFunction,Soldermask,Bot*%
%TF.FilePolarity,Negative*%
%FSLAX46Y46*%
G04 Gerber Fmt 4.6, Leading zero omitted, Abs format (unit mm)*
G04 Filename: preprototiposecadosv3*
G04 Build it with Flux! Visit our site at: https://www.flux.ai (PCBNEW 7.0.6-7.0.6~ubuntu20.04.1) date 2023-09-03 01:02:40*
%MOMM*%
%LPD*%
G01*
G04 APERTURE LIST*
G04 APERTURE END LIST*
%TO.C,*%
G36*
X-19404761Y6268174D02*
G01*
X-19375454Y6265288D01*
X-19346323Y6260967D01*
X-19317439Y6255221D01*
X-19288872Y6248066D01*
X-19260691Y6239517D01*
X-19232963Y6229596D01*
X-19205755Y6218326D01*
X-19179133Y6205735D01*
X-19153161Y6191852D01*
X-19127901Y6176712D01*
X-19103415Y6160351D01*
X-19079761Y6142808D01*
X-19056996Y6124125D01*
X-19035176Y6104348D01*
X-19014352Y6083524D01*
X-18994575Y6061704D01*
X-18975892Y6038939D01*
X-18958349Y6015285D01*
X-18941988Y5990799D01*
X-18926848Y5965539D01*
X-18912965Y5939567D01*
X-18900374Y5912945D01*
X-18889104Y5885737D01*
X-18879183Y5858009D01*
X-18870634Y5829828D01*
X-18863479Y5801261D01*
X-18857733Y5772377D01*
X-18853412Y5743246D01*
X-18850526Y5713939D01*
X-18849081Y5684525D01*
X-18849081Y5105075D01*
X-18850526Y5075661D01*
X-18853412Y5046354D01*
X-18857733Y5017223D01*
X-18863479Y4988339D01*
X-18870634Y4959772D01*
X-18879183Y4931591D01*
X-18889104Y4903863D01*
X-18900374Y4876655D01*
X-18912965Y4850033D01*
X-18926848Y4824061D01*
X-18941988Y4798801D01*
X-18958349Y4774315D01*
X-18975892Y4750661D01*
X-18994575Y4727896D01*
X-19014352Y4706076D01*
X-19035176Y4685252D01*
X-19056996Y4665475D01*
X-19079761Y4646792D01*
X-19103415Y4629249D01*
X-19127901Y4612888D01*
X-19153161Y4597748D01*
X-19179133Y4583865D01*
X-19205755Y4571274D01*
X-19232963Y4560004D01*
X-19260691Y4550083D01*
X-19288872Y4541534D01*
X-19317439Y4534379D01*
X-19346323Y4528633D01*
X-19375454Y4524312D01*
X-19404761Y4521426D01*
X-19434175Y4519981D01*
X-19463625Y4519981D01*
X-19493039Y4521426D01*
X-19522346Y4524312D01*
X-19551477Y4528633D01*
X-19580361Y4534379D01*
X-19608928Y4541534D01*
X-19637109Y4550083D01*
X-19664837Y4560004D01*
X-19692045Y4571274D01*
X-19718667Y4583865D01*
X-19744639Y4597748D01*
X-19769899Y4612888D01*
X-19794385Y4629249D01*
X-19818039Y4646792D01*
X-19840804Y4665475D01*
X-19862624Y4685252D01*
X-19883448Y4706076D01*
X-19903225Y4727896D01*
X-19921908Y4750661D01*
X-19939451Y4774315D01*
X-19955812Y4798801D01*
X-19970952Y4824061D01*
X-19984835Y4850033D01*
X-19997426Y4876655D01*
X-20008696Y4903863D01*
X-20018617Y4931591D01*
X-20027166Y4959772D01*
X-20034321Y4988339D01*
X-20040067Y5017223D01*
X-20044388Y5046354D01*
X-20047274Y5075661D01*
X-20048719Y5105075D01*
X-20048719Y5385597D01*
X-19823787Y5385597D01*
X-19822884Y5367213D01*
X-19821080Y5348896D01*
X-19818379Y5330689D01*
X-19814788Y5312637D01*
X-19810316Y5294783D01*
X-19804973Y5277169D01*
X-19798772Y5259839D01*
X-19791729Y5242835D01*
X-19783859Y5226196D01*
X-19775183Y5209963D01*
X-19765720Y5194176D01*
X-19755494Y5178872D01*
X-19744530Y5164088D01*
X-19732853Y5149860D01*
X-19720493Y5136222D01*
X-19707478Y5123207D01*
X-19693840Y5110847D01*
X-19679612Y5099170D01*
X-19664828Y5088206D01*
X-19649524Y5077980D01*
X-19633737Y5068517D01*
X-19617504Y5059841D01*
X-19600865Y5051971D01*
X-19583861Y5044928D01*
X-19566531Y5038727D01*
X-19548917Y5033384D01*
X-19531063Y5028912D01*
X-19513011Y5025321D01*
X-19494804Y5022620D01*
X-19476487Y5020816D01*
X-19458103Y5019913D01*
X-19439697Y5019913D01*
X-19421313Y5020816D01*
X-19402996Y5022620D01*
X-19384789Y5025321D01*
X-19366737Y5028912D01*
X-19348883Y5033384D01*
X-19331269Y5038727D01*
X-19313939Y5044928D01*
X-19296935Y5051971D01*
X-19280296Y5059841D01*
X-19264063Y5068517D01*
X-19248276Y5077980D01*
X-19232972Y5088206D01*
X-19218188Y5099170D01*
X-19203960Y5110847D01*
X-19190322Y5123207D01*
X-19177307Y5136222D01*
X-19164947Y5149860D01*
X-19153270Y5164088D01*
X-19142306Y5178872D01*
X-19132080Y5194176D01*
X-19122617Y5209963D01*
X-19113941Y5226196D01*
X-19106071Y5242835D01*
X-19099028Y5259839D01*
X-19092827Y5277169D01*
X-19087484Y5294783D01*
X-19083012Y5312637D01*
X-19079421Y5330689D01*
X-19076720Y5348896D01*
X-19074916Y5367213D01*
X-19074013Y5385597D01*
X-19074013Y5404003D01*
X-19074916Y5422387D01*
X-19076720Y5440704D01*
X-19079421Y5458911D01*
X-19083012Y5476963D01*
X-19087484Y5494817D01*
X-19092827Y5512431D01*
X-19099028Y5529761D01*
X-19106071Y5546765D01*
X-19113941Y5563404D01*
X-19122617Y5579637D01*
X-19132080Y5595424D01*
X-19142306Y5610728D01*
X-19153270Y5625512D01*
X-19164947Y5639740D01*
X-19177307Y5653378D01*
X-19190322Y5666393D01*
X-19203960Y5678753D01*
X-19218188Y5690430D01*
X-19232972Y5701394D01*
X-19248276Y5711620D01*
X-19264063Y5721083D01*
X-19280296Y5729759D01*
X-19296935Y5737629D01*
X-19313939Y5744672D01*
X-19331269Y5750873D01*
X-19348883Y5756216D01*
X-19366737Y5760688D01*
X-19384789Y5764279D01*
X-19402996Y5766980D01*
X-19421313Y5768784D01*
X-19439697Y5769687D01*
X-19458103Y5769687D01*
X-19476487Y5768784D01*
X-19494804Y5766980D01*
X-19513011Y5764279D01*
X-19531063Y5760688D01*
X-19548917Y5756216D01*
X-19566531Y5750873D01*
X-19583861Y5744672D01*
X-19600865Y5737629D01*
X-19617504Y5729759D01*
X-19633737Y5721083D01*
X-19649524Y5711620D01*
X-19664828Y5701394D01*
X-19679612Y5690430D01*
X-19693840Y5678753D01*
X-19707478Y5666393D01*
X-19720493Y5653378D01*
X-19732853Y5639740D01*
X-19744530Y5625512D01*
X-19755494Y5610728D01*
X-19765720Y5595424D01*
X-19775183Y5579637D01*
X-19783859Y5563404D01*
X-19791729Y5546765D01*
X-19798772Y5529761D01*
X-19804973Y5512431D01*
X-19810316Y5494817D01*
X-19814788Y5476963D01*
X-19818379Y5458911D01*
X-19821080Y5440704D01*
X-19822884Y5422387D01*
X-19823787Y5404003D01*
X-19823787Y5385597D01*
X-20048719Y5385597D01*
X-20048719Y5655075D01*
X-20048719Y5684525D01*
X-20047274Y5713939D01*
X-20044388Y5743246D01*
X-20040067Y5772377D01*
X-20034321Y5801261D01*
X-20027166Y5829828D01*
X-20018617Y5858009D01*
X-20008696Y5885737D01*
X-19997426Y5912945D01*
X-19984835Y5939567D01*
X-19970952Y5965539D01*
X-19955812Y5990799D01*
X-19939451Y6015285D01*
X-19921908Y6038939D01*
X-19903225Y6061704D01*
X-19883448Y6083524D01*
X-19862624Y6104348D01*
X-19840804Y6124125D01*
X-19818039Y6142808D01*
X-19794385Y6160351D01*
X-19769899Y6176712D01*
X-19744639Y6191852D01*
X-19718667Y6205735D01*
X-19692045Y6218326D01*
X-19664837Y6229596D01*
X-19637109Y6239517D01*
X-19608928Y6248066D01*
X-19580361Y6255221D01*
X-19551477Y6260967D01*
X-19522346Y6265288D01*
X-19493039Y6268174D01*
X-19463625Y6269619D01*
X-19434175Y6269619D01*
X-19404761Y6268174D01*
G37*
G36*
X-20971519Y6269519D02*
G01*
X-20962975Y6268678D01*
X-20954504Y6267279D01*
X-20946143Y6265329D01*
X-20937927Y6262837D01*
X-20929892Y6259813D01*
X-20922072Y6256270D01*
X-20914500Y6252223D01*
X-20907209Y6247689D01*
X-20900231Y6242688D01*
X-20893594Y6237241D01*
X-20887328Y6231372D01*
X-20881459Y6225106D01*
X-20876012Y6218469D01*
X-20871011Y6211491D01*
X-20866477Y6204200D01*
X-20862430Y6196628D01*
X-20858887Y6188808D01*
X-20855863Y6180773D01*
X-20853371Y6172557D01*
X-20851421Y6164196D01*
X-20850022Y6155725D01*
X-20849181Y6147181D01*
X-20848900Y6138600D01*
X-20848900Y4651000D01*
X-20849181Y4642419D01*
X-20850022Y4633875D01*
X-20851421Y4625404D01*
X-20853371Y4617043D01*
X-20855863Y4608827D01*
X-20858887Y4600792D01*
X-20862430Y4592972D01*
X-20866477Y4585400D01*
X-20871011Y4578109D01*
X-20876012Y4571131D01*
X-20881459Y4564494D01*
X-20887328Y4558228D01*
X-20893594Y4552359D01*
X-20900231Y4546912D01*
X-20907209Y4541911D01*
X-20914500Y4537377D01*
X-20922072Y4533330D01*
X-20929892Y4529787D01*
X-20937927Y4526763D01*
X-20946143Y4524271D01*
X-20954504Y4522321D01*
X-20962975Y4520922D01*
X-20971519Y4520081D01*
X-20980100Y4519800D01*
X-21917700Y4519800D01*
X-21926281Y4520081D01*
X-21934825Y4520922D01*
X-21943296Y4522321D01*
X-21951657Y4524271D01*
X-21959873Y4526763D01*
X-21967908Y4529787D01*
X-21975728Y4533330D01*
X-21983300Y4537377D01*
X-21990591Y4541911D01*
X-21997569Y4546912D01*
X-22004206Y4552359D01*
X-22010472Y4558228D01*
X-22016341Y4564494D01*
X-22021788Y4571131D01*
X-22026789Y4578109D01*
X-22031323Y4585400D01*
X-22035370Y4592972D01*
X-22038913Y4600792D01*
X-22041937Y4608827D01*
X-22044429Y4617043D01*
X-22046379Y4625404D01*
X-22047778Y4633875D01*
X-22048619Y4642419D01*
X-22048900Y4651000D01*
X-22048900Y5386211D01*
X-21798795Y5386211D01*
X-21797952Y5369052D01*
X-21796268Y5351956D01*
X-21793747Y5334963D01*
X-21790396Y5318115D01*
X-21786222Y5301451D01*
X-21781235Y5285011D01*
X-21775447Y5268837D01*
X-21768873Y5252966D01*
X-21761529Y5237436D01*
X-21753430Y5222286D01*
X-21744599Y5207551D01*
X-21735055Y5193267D01*
X-21724821Y5179469D01*
X-21713923Y5166190D01*
X-21702386Y5153461D01*
X-21690239Y5141314D01*
X-21677510Y5129777D01*
X-21664231Y5118879D01*
X-21650433Y5108645D01*
X-21636149Y5099101D01*
X-21621414Y5090270D01*
X-21606264Y5082171D01*
X-21590734Y5074827D01*
X-21574863Y5068253D01*
X-21558689Y5062465D01*
X-21542249Y5057478D01*
X-21525585Y5053304D01*
X-21508737Y5049953D01*
X-21491744Y5047432D01*
X-21474648Y5045748D01*
X-21457489Y5044905D01*
X-21440311Y5044905D01*
X-21423152Y5045748D01*
X-21406056Y5047432D01*
X-21389063Y5049953D01*
X-21372215Y5053304D01*
X-21355551Y5057478D01*
X-21339111Y5062465D01*
X-21322937Y5068253D01*
X-21307066Y5074827D01*
X-21291536Y5082171D01*
X-21276386Y5090270D01*
X-21261651Y5099101D01*
X-21247367Y5108645D01*
X-21233569Y5118879D01*
X-21220290Y5129777D01*
X-21215272Y5134324D01*
X-21207561Y5141314D01*
X-21195414Y5153461D01*
X-21183877Y5166190D01*
X-21172979Y5179469D01*
X-21162745Y5193267D01*
X-21153201Y5207551D01*
X-21144370Y5222286D01*
X-21136271Y5237436D01*
X-21128927Y5252966D01*
X-21122353Y5268837D01*
X-21116565Y5285011D01*
X-21111578Y5301451D01*
X-21107404Y5318115D01*
X-21104053Y5334963D01*
X-21101532Y5351956D01*
X-21099848Y5369052D01*
X-21099005Y5386211D01*
X-21099005Y5403389D01*
X-21099848Y5420548D01*
X-21101532Y5437644D01*
X-21104053Y5454637D01*
X-21107404Y5471485D01*
X-21111578Y5488149D01*
X-21116565Y5504589D01*
X-21122353Y5520763D01*
X-21128927Y5536634D01*
X-21136271Y5552164D01*
X-21144370Y5567314D01*
X-21153201Y5582049D01*
X-21162745Y5596333D01*
X-21172979Y5610131D01*
X-21183877Y5623410D01*
X-21195414Y5636139D01*
X-21207561Y5648286D01*
X-21220290Y5659823D01*
X-21233569Y5670721D01*
X-21247367Y5680955D01*
X-21261651Y5690499D01*
X-21276386Y5699330D01*
X-21291536Y5707429D01*
X-21307066Y5714773D01*
X-21322937Y5721347D01*
X-21339111Y5727135D01*
X-21355551Y5732122D01*
X-21372215Y5736296D01*
X-21389063Y5739647D01*
X-21406056Y5742168D01*
X-21423152Y5743852D01*
X-21440311Y5744695D01*
X-21457489Y5744695D01*
X-21474648Y5743852D01*
X-21491744Y5742168D01*
X-21508737Y5739647D01*
X-21525585Y5736296D01*
X-21542249Y5732122D01*
X-21558689Y5727135D01*
X-21574863Y5721347D01*
X-21590734Y5714773D01*
X-21606264Y5707429D01*
X-21621414Y5699330D01*
X-21636149Y5690499D01*
X-21650433Y5680955D01*
X-21664231Y5670721D01*
X-21677510Y5659823D01*
X-21690239Y5648286D01*
X-21702386Y5636139D01*
X-21713923Y5623410D01*
X-21724821Y5610131D01*
X-21735055Y5596333D01*
X-21744599Y5582049D01*
X-21753430Y5567314D01*
X-21761529Y5552164D01*
X-21768873Y5536634D01*
X-21775447Y5520763D01*
X-21781235Y5504589D01*
X-21786222Y5488149D01*
X-21790396Y5471485D01*
X-21793747Y5454637D01*
X-21796268Y5437644D01*
X-21797952Y5420548D01*
X-21798795Y5403389D01*
X-21798795Y5386211D01*
X-22048900Y5386211D01*
X-22048900Y6138600D01*
X-22048619Y6147181D01*
X-22047778Y6155725D01*
X-22046379Y6164196D01*
X-22044429Y6172557D01*
X-22041937Y6180773D01*
X-22038913Y6188808D01*
X-22035370Y6196628D01*
X-22031323Y6204200D01*
X-22026789Y6211491D01*
X-22021788Y6218469D01*
X-22016341Y6225106D01*
X-22010472Y6231372D01*
X-22004206Y6237241D01*
X-21997569Y6242688D01*
X-21990591Y6247689D01*
X-21983300Y6252223D01*
X-21975728Y6256270D01*
X-21967908Y6259813D01*
X-21959873Y6262837D01*
X-21951657Y6265329D01*
X-21943296Y6267279D01*
X-21934825Y6268678D01*
X-21926281Y6269519D01*
X-21917700Y6269800D01*
X-20980100Y6269800D01*
X-20971519Y6269519D01*
G37*
G36*
X24514381Y27293113D02*
G01*
X24651150Y27279643D01*
X24787093Y27259477D01*
X24921883Y27232666D01*
X25055196Y27199273D01*
X25186709Y27159379D01*
X25316106Y27113080D01*
X25443076Y27060487D01*
X25567312Y27001728D01*
X25688515Y26936944D01*
X25806393Y26866290D01*
X25920663Y26789937D01*
X26031048Y26708070D01*
X26137284Y26620885D01*
X26239114Y26528592D01*
X26336292Y26431414D01*
X26428585Y26329584D01*
X26515770Y26223348D01*
X26597637Y26112963D01*
X26673990Y25998693D01*
X26744644Y25880815D01*
X26809428Y25759612D01*
X26868187Y25635376D01*
X26920780Y25508406D01*
X26967079Y25379009D01*
X27006973Y25247496D01*
X27040366Y25114183D01*
X27067177Y24979393D01*
X27087343Y24843450D01*
X27100813Y24706681D01*
X27107557Y24569415D01*
X27107557Y24431985D01*
X27100813Y24294719D01*
X27087343Y24157950D01*
X27067177Y24022007D01*
X27040366Y23887217D01*
X27006973Y23753904D01*
X26967079Y23622391D01*
X26920780Y23492994D01*
X26868187Y23366024D01*
X26809428Y23241788D01*
X26744644Y23120585D01*
X26673990Y23002707D01*
X26597637Y22888437D01*
X26515770Y22778052D01*
X26428585Y22671816D01*
X26336292Y22569986D01*
X26239114Y22472808D01*
X26137284Y22380515D01*
X26031048Y22293330D01*
X25920663Y22211463D01*
X25806393Y22135110D01*
X25688515Y22064456D01*
X25567312Y21999672D01*
X25443076Y21940913D01*
X25316106Y21888320D01*
X25186709Y21842021D01*
X25055196Y21802127D01*
X24921883Y21768734D01*
X24787093Y21741923D01*
X24651150Y21721757D01*
X24514381Y21708287D01*
X24377115Y21701543D01*
X24239685Y21701543D01*
X24102419Y21708287D01*
X23965650Y21721757D01*
X23829707Y21741923D01*
X23694917Y21768734D01*
X23561604Y21802127D01*
X23430091Y21842021D01*
X23300694Y21888320D01*
X23173724Y21940913D01*
X23049488Y21999672D01*
X22928285Y22064456D01*
X22810407Y22135110D01*
X22696137Y22211463D01*
X22585752Y22293330D01*
X22479516Y22380515D01*
X22377686Y22472808D01*
X22280508Y22569986D01*
X22188215Y22671816D01*
X22101030Y22778052D01*
X22019163Y22888437D01*
X21942810Y23002707D01*
X21872156Y23120585D01*
X21807372Y23241788D01*
X21748613Y23366024D01*
X21696020Y23492994D01*
X21649721Y23622391D01*
X21609827Y23753904D01*
X21576434Y23887217D01*
X21549623Y24022007D01*
X21529457Y24157950D01*
X21515987Y24294719D01*
X21509243Y24431985D01*
X21509243Y24461434D01*
X22708882Y24461434D01*
X22712735Y24382997D01*
X22720433Y24304843D01*
X22731956Y24227161D01*
X22747277Y24150138D01*
X22766358Y24073960D01*
X22789155Y23998809D01*
X22815612Y23924868D01*
X22845664Y23852314D01*
X22879241Y23781322D01*
X22916261Y23712063D01*
X22956634Y23644704D01*
X23000264Y23579407D01*
X23047046Y23516329D01*
X23096866Y23455623D01*
X23149605Y23397435D01*
X23205135Y23341905D01*
X23263323Y23289166D01*
X23324029Y23239346D01*
X23387107Y23192564D01*
X23452404Y23148934D01*
X23519763Y23108561D01*
X23589022Y23071541D01*
X23660014Y23037964D01*
X23732568Y23007912D01*
X23806509Y22981455D01*
X23881660Y22958658D01*
X23957838Y22939577D01*
X24034861Y22924256D01*
X24112543Y22912733D01*
X24190697Y22905035D01*
X24269134Y22901182D01*
X24347666Y22901182D01*
X24426103Y22905035D01*
X24504257Y22912733D01*
X24581939Y22924256D01*
X24658962Y22939577D01*
X24735140Y22958658D01*
X24810291Y22981455D01*
X24884232Y23007912D01*
X24956786Y23037964D01*
X25027778Y23071541D01*
X25097037Y23108561D01*
X25164396Y23148934D01*
X25229693Y23192564D01*
X25292771Y23239346D01*
X25353477Y23289166D01*
X25411665Y23341905D01*
X25467195Y23397435D01*
X25519934Y23455623D01*
X25569754Y23516329D01*
X25616536Y23579407D01*
X25660166Y23644704D01*
X25700539Y23712063D01*
X25737559Y23781322D01*
X25771136Y23852314D01*
X25801188Y23924868D01*
X25827645Y23998809D01*
X25850442Y24073960D01*
X25869523Y24150138D01*
X25884844Y24227161D01*
X25896367Y24304843D01*
X25904065Y24382997D01*
X25907918Y24461434D01*
X25907918Y24539966D01*
X25904065Y24618403D01*
X25896367Y24696557D01*
X25884844Y24774239D01*
X25869523Y24851262D01*
X25850442Y24927440D01*
X25827645Y25002591D01*
X25801188Y25076532D01*
X25771136Y25149086D01*
X25737559Y25220078D01*
X25700539Y25289337D01*
X25660166Y25356696D01*
X25616536Y25421993D01*
X25569754Y25485071D01*
X25519934Y25545777D01*
X25467195Y25603965D01*
X25411665Y25659495D01*
X25353477Y25712234D01*
X25292771Y25762054D01*
X25229693Y25808836D01*
X25164396Y25852466D01*
X25097037Y25892839D01*
X25027778Y25929859D01*
X24956786Y25963436D01*
X24884232Y25993488D01*
X24810291Y26019945D01*
X24735140Y26042742D01*
X24658962Y26061823D01*
X24581939Y26077144D01*
X24504257Y26088667D01*
X24426103Y26096365D01*
X24347666Y26100218D01*
X24269134Y26100218D01*
X24190697Y26096365D01*
X24112543Y26088667D01*
X24034861Y26077144D01*
X23957838Y26061823D01*
X23881660Y26042742D01*
X23806509Y26019945D01*
X23732568Y25993488D01*
X23660014Y25963436D01*
X23589022Y25929859D01*
X23519763Y25892839D01*
X23452404Y25852466D01*
X23387107Y25808836D01*
X23324029Y25762054D01*
X23263323Y25712234D01*
X23205135Y25659495D01*
X23149605Y25603965D01*
X23096866Y25545777D01*
X23047046Y25485071D01*
X23000264Y25421993D01*
X22956634Y25356696D01*
X22916261Y25289337D01*
X22879241Y25220078D01*
X22845664Y25149086D01*
X22815612Y25076532D01*
X22789155Y25002591D01*
X22766358Y24927440D01*
X22747277Y24851262D01*
X22731956Y24774239D01*
X22720433Y24696557D01*
X22712735Y24618403D01*
X22708882Y24539966D01*
X22708882Y24461434D01*
X21509243Y24461434D01*
X21509243Y24569415D01*
X21515987Y24706681D01*
X21529457Y24843450D01*
X21549623Y24979393D01*
X21576434Y25114183D01*
X21609827Y25247496D01*
X21649721Y25379009D01*
X21696020Y25508406D01*
X21748613Y25635376D01*
X21807372Y25759612D01*
X21872156Y25880815D01*
X21942810Y25998693D01*
X22019163Y26112963D01*
X22101030Y26223348D01*
X22188215Y26329584D01*
X22280508Y26431414D01*
X22377686Y26528592D01*
X22479516Y26620885D01*
X22585752Y26708070D01*
X22696137Y26789937D01*
X22810407Y26866290D01*
X22928285Y26936944D01*
X23049488Y27001728D01*
X23173724Y27060487D01*
X23300694Y27113080D01*
X23430091Y27159379D01*
X23561604Y27199273D01*
X23694917Y27232666D01*
X23829707Y27259477D01*
X23965650Y27279643D01*
X24102419Y27293113D01*
X24239685Y27299857D01*
X24377115Y27299857D01*
X24514381Y27293113D01*
G37*
G36*
X-13207899Y-706692D02*
G01*
X-13207899Y-1914692D01*
X-14415899Y-1914692D01*
X-14415899Y-1319281D01*
X-14161793Y-1319281D01*
X-14160950Y-1336440D01*
X-14159266Y-1353536D01*
X-14156746Y-1370529D01*
X-14153394Y-1387377D01*
X-14149220Y-1404042D01*
X-14144233Y-1420481D01*
X-14138446Y-1436655D01*
X-14131872Y-1452526D01*
X-14124527Y-1468056D01*
X-14116429Y-1483206D01*
X-14107597Y-1497941D01*
X-14098053Y-1512225D01*
X-14087820Y-1526023D01*
X-14076922Y-1539303D01*
X-14065385Y-1552031D01*
X-14053238Y-1564179D01*
X-14040509Y-1575715D01*
X-14027230Y-1586613D01*
X-14013431Y-1596847D01*
X-13999148Y-1606391D01*
X-13984413Y-1615222D01*
X-13969263Y-1623321D01*
X-13953733Y-1630665D01*
X-13937862Y-1637240D01*
X-13921687Y-1643027D01*
X-13905248Y-1648014D01*
X-13888584Y-1652188D01*
X-13871735Y-1655539D01*
X-13854742Y-1658060D01*
X-13837646Y-1659744D01*
X-13820488Y-1660587D01*
X-13803309Y-1660587D01*
X-13786151Y-1659744D01*
X-13769055Y-1658060D01*
X-13752062Y-1655539D01*
X-13735213Y-1652188D01*
X-13718549Y-1648014D01*
X-13702110Y-1643027D01*
X-13685935Y-1637240D01*
X-13670064Y-1630665D01*
X-13654535Y-1623321D01*
X-13639384Y-1615222D01*
X-13624649Y-1606391D01*
X-13610366Y-1596847D01*
X-13596567Y-1586613D01*
X-13583288Y-1575715D01*
X-13570559Y-1564179D01*
X-13558412Y-1552031D01*
X-13546875Y-1539303D01*
X-13535977Y-1526023D01*
X-13525744Y-1512225D01*
X-13516200Y-1497941D01*
X-13507368Y-1483206D01*
X-13499270Y-1468056D01*
X-13491925Y-1452526D01*
X-13485351Y-1436655D01*
X-13479564Y-1420481D01*
X-13474577Y-1404042D01*
X-13470403Y-1387377D01*
X-13467051Y-1370529D01*
X-13464531Y-1353536D01*
X-13462847Y-1336440D01*
X-13462004Y-1319281D01*
X-13462004Y-1302103D01*
X-13462847Y-1284944D01*
X-13464531Y-1267848D01*
X-13467051Y-1250855D01*
X-13470403Y-1234007D01*
X-13474577Y-1217343D01*
X-13479564Y-1200903D01*
X-13485351Y-1184729D01*
X-13491925Y-1168858D01*
X-13493844Y-1164799D01*
X-13499270Y-1153328D01*
X-13507368Y-1138178D01*
X-13516200Y-1123443D01*
X-13525744Y-1109159D01*
X-13535977Y-1095361D01*
X-13546875Y-1082082D01*
X-13558412Y-1069353D01*
X-13570559Y-1057206D01*
X-13583288Y-1045669D01*
X-13596567Y-1034771D01*
X-13610366Y-1024537D01*
X-13624649Y-1014993D01*
X-13639384Y-1006162D01*
X-13654535Y-998064D01*
X-13670064Y-990719D01*
X-13685935Y-984145D01*
X-13702110Y-978357D01*
X-13718549Y-973370D01*
X-13735213Y-969196D01*
X-13752062Y-965845D01*
X-13769055Y-963324D01*
X-13786151Y-961640D01*
X-13803309Y-960797D01*
X-13820488Y-960797D01*
X-13837646Y-961640D01*
X-13854742Y-963324D01*
X-13871735Y-965845D01*
X-13888584Y-969196D01*
X-13905248Y-973370D01*
X-13921687Y-978357D01*
X-13937862Y-984145D01*
X-13953733Y-990719D01*
X-13969263Y-998064D01*
X-13984413Y-1006162D01*
X-13999148Y-1014993D01*
X-14013431Y-1024537D01*
X-14027230Y-1034771D01*
X-14040509Y-1045669D01*
X-14053238Y-1057206D01*
X-14065385Y-1069353D01*
X-14076922Y-1082082D01*
X-14087820Y-1095361D01*
X-14098053Y-1109159D01*
X-14107597Y-1123443D01*
X-14116429Y-1138178D01*
X-14124527Y-1153328D01*
X-14131872Y-1168858D01*
X-14138446Y-1184729D01*
X-14144233Y-1200903D01*
X-14149220Y-1217343D01*
X-14153394Y-1234007D01*
X-14156746Y-1250855D01*
X-14159266Y-1267848D01*
X-14160950Y-1284944D01*
X-14161793Y-1302103D01*
X-14161793Y-1319281D01*
X-14415899Y-1319281D01*
X-14415899Y-706692D01*
X-13207899Y-706692D01*
G37*
G36*
X-11797076Y-706879D02*
G01*
X-11767466Y-708334D01*
X-11737962Y-711240D01*
X-11708638Y-715590D01*
X-11679561Y-721373D01*
X-11650804Y-728577D01*
X-11622435Y-737182D01*
X-11594522Y-747170D01*
X-11567133Y-758515D01*
X-11540333Y-771190D01*
X-11514188Y-785165D01*
X-11488760Y-800406D01*
X-11464110Y-816876D01*
X-11440299Y-834536D01*
X-11417382Y-853343D01*
X-11395416Y-873252D01*
X-11374453Y-894215D01*
X-11354544Y-916181D01*
X-11335737Y-939097D01*
X-11318077Y-962909D01*
X-11301607Y-987559D01*
X-11286366Y-1012987D01*
X-11272391Y-1039132D01*
X-11259716Y-1065932D01*
X-11248371Y-1093321D01*
X-11238384Y-1121234D01*
X-11229778Y-1149603D01*
X-11222574Y-1178360D01*
X-11216791Y-1207436D01*
X-11212441Y-1236761D01*
X-11209535Y-1266264D01*
X-11208080Y-1295874D01*
X-11208080Y-1325520D01*
X-11209535Y-1355130D01*
X-11212441Y-1384633D01*
X-11216791Y-1413958D01*
X-11222574Y-1443034D01*
X-11229778Y-1471792D01*
X-11238384Y-1500161D01*
X-11248371Y-1528074D01*
X-11259716Y-1555463D01*
X-11272391Y-1582263D01*
X-11286366Y-1608408D01*
X-11301607Y-1633836D01*
X-11318077Y-1658485D01*
X-11335737Y-1682297D01*
X-11354544Y-1705214D01*
X-11374453Y-1727180D01*
X-11395416Y-1748143D01*
X-11417382Y-1768051D01*
X-11440299Y-1786859D01*
X-11464110Y-1804519D01*
X-11488760Y-1820989D01*
X-11514188Y-1836230D01*
X-11540333Y-1850205D01*
X-11567133Y-1862880D01*
X-11594522Y-1874225D01*
X-11622435Y-1884212D01*
X-11650804Y-1892818D01*
X-11679561Y-1900021D01*
X-11708638Y-1905805D01*
X-11737962Y-1910155D01*
X-11767466Y-1913061D01*
X-11797076Y-1914515D01*
X-11826721Y-1914515D01*
X-11856332Y-1913061D01*
X-11885835Y-1910155D01*
X-11915160Y-1905805D01*
X-11944236Y-1900021D01*
X-11972993Y-1892818D01*
X-12001362Y-1884212D01*
X-12029275Y-1874225D01*
X-12056664Y-1862880D01*
X-12083464Y-1850205D01*
X-12109609Y-1836230D01*
X-12135037Y-1820989D01*
X-12159687Y-1804519D01*
X-12183498Y-1786859D01*
X-12206415Y-1768051D01*
X-12228381Y-1748143D01*
X-12249344Y-1727180D01*
X-12269253Y-1705214D01*
X-12288060Y-1682297D01*
X-12305720Y-1658485D01*
X-12322190Y-1633836D01*
X-12337431Y-1608408D01*
X-12351406Y-1582263D01*
X-12364081Y-1555463D01*
X-12375426Y-1528074D01*
X-12385414Y-1500161D01*
X-12394019Y-1471792D01*
X-12401223Y-1443034D01*
X-12407006Y-1413958D01*
X-12411356Y-1384633D01*
X-12414262Y-1355130D01*
X-12415717Y-1325520D01*
X-12415717Y-1319287D01*
X-12161793Y-1319287D01*
X-12160950Y-1336445D01*
X-12159266Y-1353541D01*
X-12156746Y-1370534D01*
X-12153394Y-1387383D01*
X-12149220Y-1404047D01*
X-12144233Y-1420486D01*
X-12138446Y-1436661D01*
X-12131872Y-1452532D01*
X-12124527Y-1468061D01*
X-12116429Y-1483212D01*
X-12107597Y-1497947D01*
X-12098053Y-1512230D01*
X-12087820Y-1526028D01*
X-12076922Y-1539308D01*
X-12065385Y-1552037D01*
X-12053238Y-1564184D01*
X-12040509Y-1575720D01*
X-12027230Y-1586619D01*
X-12013431Y-1596852D01*
X-11999148Y-1606396D01*
X-11984413Y-1615228D01*
X-11969263Y-1623326D01*
X-11953733Y-1630671D01*
X-11937862Y-1637245D01*
X-11921687Y-1643032D01*
X-11905248Y-1648019D01*
X-11888584Y-1652193D01*
X-11871735Y-1655545D01*
X-11854742Y-1658065D01*
X-11837646Y-1659749D01*
X-11820488Y-1660592D01*
X-11803309Y-1660592D01*
X-11786151Y-1659749D01*
X-11769055Y-1658065D01*
X-11752062Y-1655545D01*
X-11735213Y-1652193D01*
X-11718549Y-1648019D01*
X-11702110Y-1643032D01*
X-11685935Y-1637245D01*
X-11670064Y-1630671D01*
X-11654535Y-1623326D01*
X-11639384Y-1615228D01*
X-11624649Y-1606396D01*
X-11610366Y-1596852D01*
X-11596567Y-1586619D01*
X-11583288Y-1575720D01*
X-11570559Y-1564184D01*
X-11558412Y-1552037D01*
X-11546875Y-1539308D01*
X-11535977Y-1526028D01*
X-11525744Y-1512230D01*
X-11516200Y-1497947D01*
X-11507368Y-1483212D01*
X-11499270Y-1468061D01*
X-11491925Y-1452532D01*
X-11485351Y-1436661D01*
X-11479564Y-1420486D01*
X-11474577Y-1404047D01*
X-11470403Y-1387383D01*
X-11467051Y-1370534D01*
X-11464531Y-1353541D01*
X-11462847Y-1336445D01*
X-11462004Y-1319287D01*
X-11462004Y-1302108D01*
X-11462847Y-1284950D01*
X-11464531Y-1267854D01*
X-11467051Y-1250861D01*
X-11470403Y-1234012D01*
X-11474577Y-1217348D01*
X-11479564Y-1200909D01*
X-11485351Y-1184734D01*
X-11491925Y-1168863D01*
X-11499270Y-1153333D01*
X-11507368Y-1138183D01*
X-11516200Y-1123448D01*
X-11525744Y-1109164D01*
X-11535977Y-1095366D01*
X-11546875Y-1082087D01*
X-11558412Y-1069358D01*
X-11570559Y-1057211D01*
X-11583288Y-1045674D01*
X-11596567Y-1034776D01*
X-11610366Y-1024543D01*
X-11624649Y-1014999D01*
X-11639384Y-1006167D01*
X-11654535Y-998069D01*
X-11670064Y-990724D01*
X-11685935Y-984150D01*
X-11702110Y-978362D01*
X-11718549Y-973376D01*
X-11735213Y-969202D01*
X-11752062Y-965850D01*
X-11769055Y-963330D01*
X-11786151Y-961646D01*
X-11803309Y-960803D01*
X-11820488Y-960803D01*
X-11837646Y-961646D01*
X-11854742Y-963330D01*
X-11871735Y-965850D01*
X-11888584Y-969202D01*
X-11905248Y-973376D01*
X-11921687Y-978362D01*
X-11937862Y-984150D01*
X-11953733Y-990724D01*
X-11969263Y-998069D01*
X-11984413Y-1006167D01*
X-11999148Y-1014999D01*
X-12013431Y-1024543D01*
X-12027230Y-1034776D01*
X-12040509Y-1045674D01*
X-12053238Y-1057211D01*
X-12065385Y-1069358D01*
X-12076922Y-1082087D01*
X-12087820Y-1095366D01*
X-12098053Y-1109164D01*
X-12107597Y-1123448D01*
X-12116429Y-1138183D01*
X-12124527Y-1153333D01*
X-12131872Y-1168863D01*
X-12138446Y-1184734D01*
X-12144233Y-1200909D01*
X-12149220Y-1217348D01*
X-12153394Y-1234012D01*
X-12156746Y-1250861D01*
X-12159266Y-1267854D01*
X-12160950Y-1284950D01*
X-12161793Y-1302108D01*
X-12161793Y-1319287D01*
X-12415717Y-1319287D01*
X-12415717Y-1295874D01*
X-12414262Y-1266264D01*
X-12411356Y-1236761D01*
X-12407006Y-1207436D01*
X-12401223Y-1178360D01*
X-12394019Y-1149603D01*
X-12385414Y-1121234D01*
X-12375426Y-1093321D01*
X-12364081Y-1065932D01*
X-12351406Y-1039132D01*
X-12337431Y-1012987D01*
X-12322190Y-987559D01*
X-12305720Y-962909D01*
X-12288060Y-939097D01*
X-12269253Y-916181D01*
X-12249344Y-894215D01*
X-12228381Y-873252D01*
X-12206415Y-853343D01*
X-12183498Y-834536D01*
X-12159687Y-816876D01*
X-12135037Y-800406D01*
X-12109609Y-785165D01*
X-12083464Y-771190D01*
X-12056664Y-758515D01*
X-12029275Y-747170D01*
X-12001362Y-737182D01*
X-11972993Y-728577D01*
X-11944236Y-721373D01*
X-11915160Y-715590D01*
X-11885835Y-711240D01*
X-11856332Y-708334D01*
X-11826721Y-706879D01*
X-11797076Y-706879D01*
G37*
G36*
X-9797076Y-706885D02*
G01*
X-9767466Y-708339D01*
X-9737962Y-711245D01*
X-9708638Y-715595D01*
X-9679561Y-721379D01*
X-9650804Y-728582D01*
X-9622435Y-737188D01*
X-9594522Y-747175D01*
X-9567133Y-758520D01*
X-9540333Y-771195D01*
X-9514188Y-785170D01*
X-9488760Y-800411D01*
X-9464110Y-816881D01*
X-9440299Y-834541D01*
X-9417382Y-853349D01*
X-9395416Y-873257D01*
X-9374453Y-894220D01*
X-9354544Y-916186D01*
X-9335737Y-939103D01*
X-9318077Y-962915D01*
X-9301607Y-987564D01*
X-9286366Y-1012992D01*
X-9272391Y-1039137D01*
X-9259716Y-1065937D01*
X-9248371Y-1093326D01*
X-9238384Y-1121239D01*
X-9229778Y-1149608D01*
X-9222574Y-1178366D01*
X-9216791Y-1207442D01*
X-9212441Y-1236767D01*
X-9209535Y-1266270D01*
X-9208080Y-1295880D01*
X-9208080Y-1325526D01*
X-9209535Y-1355136D01*
X-9212441Y-1384639D01*
X-9216791Y-1413964D01*
X-9222574Y-1443040D01*
X-9229778Y-1471797D01*
X-9238384Y-1500166D01*
X-9248371Y-1528079D01*
X-9259716Y-1555468D01*
X-9272391Y-1582268D01*
X-9286366Y-1608413D01*
X-9301607Y-1633841D01*
X-9318077Y-1658491D01*
X-9335737Y-1682303D01*
X-9354544Y-1705219D01*
X-9374453Y-1727185D01*
X-9395416Y-1748148D01*
X-9417382Y-1768057D01*
X-9440299Y-1786864D01*
X-9464110Y-1804524D01*
X-9488760Y-1820994D01*
X-9514188Y-1836235D01*
X-9540333Y-1850210D01*
X-9567133Y-1862885D01*
X-9594522Y-1874230D01*
X-9622435Y-1884218D01*
X-9650804Y-1892823D01*
X-9679561Y-1900027D01*
X-9708638Y-1905810D01*
X-9737962Y-1910160D01*
X-9767466Y-1913066D01*
X-9797076Y-1914521D01*
X-9826721Y-1914521D01*
X-9856332Y-1913066D01*
X-9885835Y-1910160D01*
X-9915160Y-1905810D01*
X-9944236Y-1900027D01*
X-9972993Y-1892823D01*
X-10001362Y-1884218D01*
X-10029275Y-1874230D01*
X-10056664Y-1862885D01*
X-10083464Y-1850210D01*
X-10109609Y-1836235D01*
X-10135037Y-1820994D01*
X-10159687Y-1804524D01*
X-10183498Y-1786864D01*
X-10206415Y-1768057D01*
X-10228381Y-1748148D01*
X-10249344Y-1727185D01*
X-10269253Y-1705219D01*
X-10288060Y-1682303D01*
X-10305720Y-1658491D01*
X-10322190Y-1633841D01*
X-10337431Y-1608413D01*
X-10351406Y-1582268D01*
X-10364081Y-1555468D01*
X-10375426Y-1528079D01*
X-10385414Y-1500166D01*
X-10394019Y-1471797D01*
X-10401223Y-1443040D01*
X-10407006Y-1413964D01*
X-10411356Y-1384639D01*
X-10414262Y-1355136D01*
X-10415717Y-1325526D01*
X-10415717Y-1319292D01*
X-10161793Y-1319292D01*
X-10160950Y-1336450D01*
X-10159266Y-1353546D01*
X-10156746Y-1370539D01*
X-10153394Y-1387388D01*
X-10149220Y-1404052D01*
X-10144233Y-1420491D01*
X-10138446Y-1436666D01*
X-10131872Y-1452537D01*
X-10124527Y-1468067D01*
X-10116429Y-1483217D01*
X-10107597Y-1497952D01*
X-10098053Y-1512236D01*
X-10087820Y-1526034D01*
X-10076922Y-1539313D01*
X-10065385Y-1552042D01*
X-10053238Y-1564189D01*
X-10040509Y-1575726D01*
X-10027230Y-1586624D01*
X-10013431Y-1596857D01*
X-9999148Y-1606401D01*
X-9984413Y-1615233D01*
X-9969263Y-1623331D01*
X-9953733Y-1630676D01*
X-9937862Y-1637250D01*
X-9921687Y-1643038D01*
X-9905248Y-1648024D01*
X-9888584Y-1652198D01*
X-9871735Y-1655550D01*
X-9854742Y-1658070D01*
X-9837646Y-1659754D01*
X-9820488Y-1660597D01*
X-9803309Y-1660597D01*
X-9786151Y-1659754D01*
X-9769055Y-1658070D01*
X-9752062Y-1655550D01*
X-9735213Y-1652198D01*
X-9718549Y-1648024D01*
X-9702110Y-1643038D01*
X-9685935Y-1637250D01*
X-9670064Y-1630676D01*
X-9654535Y-1623331D01*
X-9639384Y-1615233D01*
X-9624649Y-1606401D01*
X-9610366Y-1596857D01*
X-9596567Y-1586624D01*
X-9583288Y-1575726D01*
X-9570559Y-1564189D01*
X-9558412Y-1552042D01*
X-9546875Y-1539313D01*
X-9535977Y-1526034D01*
X-9525744Y-1512236D01*
X-9516200Y-1497952D01*
X-9507368Y-1483217D01*
X-9499270Y-1468067D01*
X-9491925Y-1452537D01*
X-9485351Y-1436666D01*
X-9479564Y-1420491D01*
X-9474577Y-1404052D01*
X-9470403Y-1387388D01*
X-9467051Y-1370539D01*
X-9464531Y-1353546D01*
X-9462847Y-1336450D01*
X-9462004Y-1319292D01*
X-9462004Y-1302113D01*
X-9462847Y-1284955D01*
X-9464531Y-1267859D01*
X-9467051Y-1250866D01*
X-9470403Y-1234017D01*
X-9474577Y-1217353D01*
X-9479564Y-1200914D01*
X-9485351Y-1184739D01*
X-9491925Y-1168868D01*
X-9499270Y-1153339D01*
X-9507368Y-1138188D01*
X-9516200Y-1123453D01*
X-9525744Y-1109170D01*
X-9535977Y-1095372D01*
X-9546875Y-1082092D01*
X-9558412Y-1069363D01*
X-9570559Y-1057216D01*
X-9583288Y-1045680D01*
X-9596567Y-1034781D01*
X-9610366Y-1024548D01*
X-9624649Y-1015004D01*
X-9639384Y-1006172D01*
X-9654535Y-998074D01*
X-9670064Y-990729D01*
X-9685935Y-984155D01*
X-9702110Y-978368D01*
X-9718549Y-973381D01*
X-9735213Y-969207D01*
X-9752062Y-965855D01*
X-9769055Y-963335D01*
X-9786151Y-961651D01*
X-9803309Y-960808D01*
X-9820488Y-960808D01*
X-9837646Y-961651D01*
X-9854742Y-963335D01*
X-9871735Y-965855D01*
X-9888584Y-969207D01*
X-9905248Y-973381D01*
X-9921687Y-978368D01*
X-9937862Y-984155D01*
X-9953733Y-990729D01*
X-9969263Y-998074D01*
X-9984413Y-1006172D01*
X-9999148Y-1015004D01*
X-10013431Y-1024548D01*
X-10027230Y-1034781D01*
X-10040509Y-1045680D01*
X-10053238Y-1057216D01*
X-10065385Y-1069363D01*
X-10076922Y-1082092D01*
X-10087820Y-1095372D01*
X-10098053Y-1109170D01*
X-10107597Y-1123453D01*
X-10116429Y-1138188D01*
X-10124527Y-1153339D01*
X-10131872Y-1168868D01*
X-10138446Y-1184739D01*
X-10144233Y-1200914D01*
X-10149220Y-1217353D01*
X-10153394Y-1234017D01*
X-10156746Y-1250866D01*
X-10159266Y-1267859D01*
X-10160950Y-1284955D01*
X-10161793Y-1302113D01*
X-10161793Y-1319292D01*
X-10415717Y-1319292D01*
X-10415717Y-1295880D01*
X-10414262Y-1266270D01*
X-10411356Y-1236767D01*
X-10407006Y-1207442D01*
X-10401223Y-1178366D01*
X-10394019Y-1149608D01*
X-10385414Y-1121239D01*
X-10375426Y-1093326D01*
X-10364081Y-1065937D01*
X-10351406Y-1039137D01*
X-10337431Y-1012992D01*
X-10322190Y-987564D01*
X-10305720Y-962915D01*
X-10288060Y-939103D01*
X-10269253Y-916186D01*
X-10249344Y-894220D01*
X-10228381Y-873257D01*
X-10206415Y-853349D01*
X-10183498Y-834541D01*
X-10159687Y-816881D01*
X-10135037Y-800411D01*
X-10109609Y-785170D01*
X-10083464Y-771195D01*
X-10056664Y-758520D01*
X-10029275Y-747175D01*
X-10001362Y-737188D01*
X-9972993Y-728582D01*
X-9944236Y-721379D01*
X-9915160Y-715595D01*
X-9885835Y-711245D01*
X-9856332Y-708339D01*
X-9826721Y-706885D01*
X-9797076Y-706885D01*
G37*
G36*
X-7797076Y-706890D02*
G01*
X-7767466Y-708345D01*
X-7737962Y-711250D01*
X-7708638Y-715600D01*
X-7679561Y-721384D01*
X-7650804Y-728587D01*
X-7622435Y-737193D01*
X-7594522Y-747180D01*
X-7567133Y-758525D01*
X-7540333Y-771200D01*
X-7514188Y-785175D01*
X-7488760Y-800416D01*
X-7464110Y-816887D01*
X-7440299Y-834547D01*
X-7417382Y-853354D01*
X-7395416Y-873263D01*
X-7374453Y-894225D01*
X-7354544Y-916192D01*
X-7335737Y-939108D01*
X-7318077Y-962920D01*
X-7301607Y-987569D01*
X-7286366Y-1012997D01*
X-7272391Y-1039143D01*
X-7259716Y-1065942D01*
X-7248371Y-1093331D01*
X-7238384Y-1121244D01*
X-7229778Y-1149613D01*
X-7222574Y-1178371D01*
X-7216791Y-1207447D01*
X-7212441Y-1236772D01*
X-7209535Y-1266275D01*
X-7208080Y-1295885D01*
X-7208080Y-1325531D01*
X-7209535Y-1355141D01*
X-7212441Y-1384644D01*
X-7216791Y-1413969D01*
X-7222574Y-1443045D01*
X-7229778Y-1471802D01*
X-7238384Y-1500172D01*
X-7248371Y-1528085D01*
X-7259716Y-1555474D01*
X-7272391Y-1582273D01*
X-7286366Y-1608418D01*
X-7301607Y-1633847D01*
X-7318077Y-1658496D01*
X-7335737Y-1682308D01*
X-7354544Y-1705224D01*
X-7374453Y-1727190D01*
X-7395416Y-1748153D01*
X-7417382Y-1768062D01*
X-7440299Y-1786869D01*
X-7464110Y-1804529D01*
X-7488760Y-1821000D01*
X-7514188Y-1836241D01*
X-7540333Y-1850215D01*
X-7567133Y-1862891D01*
X-7594522Y-1874236D01*
X-7622435Y-1884223D01*
X-7650804Y-1892829D01*
X-7679561Y-1900032D01*
X-7708638Y-1905816D01*
X-7737962Y-1910166D01*
X-7767466Y-1913071D01*
X-7797076Y-1914526D01*
X-7826721Y-1914526D01*
X-7856332Y-1913071D01*
X-7885835Y-1910166D01*
X-7915160Y-1905816D01*
X-7944236Y-1900032D01*
X-7972993Y-1892829D01*
X-8001362Y-1884223D01*
X-8029275Y-1874236D01*
X-8056664Y-1862891D01*
X-8083464Y-1850215D01*
X-8109609Y-1836241D01*
X-8135037Y-1821000D01*
X-8159687Y-1804529D01*
X-8183498Y-1786869D01*
X-8206415Y-1768062D01*
X-8228381Y-1748153D01*
X-8249344Y-1727190D01*
X-8269253Y-1705224D01*
X-8288060Y-1682308D01*
X-8305720Y-1658496D01*
X-8322190Y-1633847D01*
X-8337431Y-1608418D01*
X-8351406Y-1582273D01*
X-8364081Y-1555474D01*
X-8375426Y-1528085D01*
X-8385414Y-1500172D01*
X-8394019Y-1471802D01*
X-8401223Y-1443045D01*
X-8407006Y-1413969D01*
X-8411356Y-1384644D01*
X-8414262Y-1355141D01*
X-8415717Y-1325531D01*
X-8415717Y-1319297D01*
X-8161793Y-1319297D01*
X-8160950Y-1336456D01*
X-8159266Y-1353552D01*
X-8156746Y-1370545D01*
X-8153394Y-1387393D01*
X-8149220Y-1404057D01*
X-8144233Y-1420497D01*
X-8138446Y-1436671D01*
X-8131872Y-1452542D01*
X-8124527Y-1468072D01*
X-8116429Y-1483222D01*
X-8107597Y-1497957D01*
X-8098053Y-1512241D01*
X-8087820Y-1526039D01*
X-8076922Y-1539318D01*
X-8065385Y-1552047D01*
X-8053238Y-1564194D01*
X-8040509Y-1575731D01*
X-8027230Y-1586629D01*
X-8013431Y-1596863D01*
X-7999148Y-1606407D01*
X-7984413Y-1615238D01*
X-7969263Y-1623336D01*
X-7953733Y-1630681D01*
X-7937862Y-1637255D01*
X-7921687Y-1643043D01*
X-7905248Y-1648030D01*
X-7888584Y-1652204D01*
X-7871735Y-1655555D01*
X-7854742Y-1658076D01*
X-7837646Y-1659760D01*
X-7820488Y-1660603D01*
X-7803309Y-1660603D01*
X-7786151Y-1659760D01*
X-7769055Y-1658076D01*
X-7752062Y-1655555D01*
X-7735213Y-1652204D01*
X-7718549Y-1648030D01*
X-7702110Y-1643043D01*
X-7685935Y-1637255D01*
X-7670064Y-1630681D01*
X-7654535Y-1623336D01*
X-7639384Y-1615238D01*
X-7624649Y-1606407D01*
X-7610366Y-1596863D01*
X-7596567Y-1586629D01*
X-7583288Y-1575731D01*
X-7570559Y-1564194D01*
X-7558412Y-1552047D01*
X-7546875Y-1539318D01*
X-7535977Y-1526039D01*
X-7525744Y-1512241D01*
X-7516200Y-1497957D01*
X-7507368Y-1483222D01*
X-7499270Y-1468072D01*
X-7491925Y-1452542D01*
X-7485351Y-1436671D01*
X-7479564Y-1420497D01*
X-7474577Y-1404057D01*
X-7470403Y-1387393D01*
X-7467051Y-1370545D01*
X-7464531Y-1353552D01*
X-7462847Y-1336456D01*
X-7462004Y-1319297D01*
X-7462004Y-1302119D01*
X-7462847Y-1284960D01*
X-7464531Y-1267864D01*
X-7467051Y-1250871D01*
X-7470403Y-1234023D01*
X-7474577Y-1217358D01*
X-7479564Y-1200919D01*
X-7485351Y-1184745D01*
X-7491925Y-1168874D01*
X-7499270Y-1153344D01*
X-7507368Y-1138194D01*
X-7516200Y-1123459D01*
X-7525744Y-1109175D01*
X-7535977Y-1095377D01*
X-7546875Y-1082097D01*
X-7558412Y-1069369D01*
X-7570559Y-1057221D01*
X-7583288Y-1045685D01*
X-7596567Y-1034787D01*
X-7610366Y-1024553D01*
X-7624649Y-1015009D01*
X-7639384Y-1006178D01*
X-7654535Y-998079D01*
X-7670064Y-990735D01*
X-7685935Y-984160D01*
X-7702110Y-978373D01*
X-7718549Y-973386D01*
X-7735213Y-969212D01*
X-7752062Y-965861D01*
X-7769055Y-963340D01*
X-7786151Y-961656D01*
X-7803309Y-960813D01*
X-7820488Y-960813D01*
X-7837646Y-961656D01*
X-7854742Y-963340D01*
X-7871735Y-965861D01*
X-7888584Y-969212D01*
X-7905248Y-973386D01*
X-7921687Y-978373D01*
X-7937862Y-984160D01*
X-7953733Y-990735D01*
X-7969263Y-998079D01*
X-7984413Y-1006178D01*
X-7999148Y-1015009D01*
X-8013431Y-1024553D01*
X-8027230Y-1034787D01*
X-8040509Y-1045685D01*
X-8053238Y-1057221D01*
X-8065385Y-1069369D01*
X-8076922Y-1082097D01*
X-8087820Y-1095377D01*
X-8098053Y-1109175D01*
X-8107597Y-1123459D01*
X-8116429Y-1138194D01*
X-8124527Y-1153344D01*
X-8131872Y-1168874D01*
X-8138446Y-1184745D01*
X-8144233Y-1200919D01*
X-8149220Y-1217358D01*
X-8153394Y-1234023D01*
X-8156746Y-1250871D01*
X-8159266Y-1267864D01*
X-8160950Y-1284960D01*
X-8161793Y-1302119D01*
X-8161793Y-1319297D01*
X-8415717Y-1319297D01*
X-8415717Y-1295885D01*
X-8414262Y-1266275D01*
X-8411356Y-1236772D01*
X-8407006Y-1207447D01*
X-8401223Y-1178371D01*
X-8394019Y-1149613D01*
X-8385414Y-1121244D01*
X-8375426Y-1093331D01*
X-8364081Y-1065942D01*
X-8351406Y-1039143D01*
X-8337431Y-1012997D01*
X-8322190Y-987569D01*
X-8305720Y-962920D01*
X-8288060Y-939108D01*
X-8269253Y-916192D01*
X-8249344Y-894225D01*
X-8228381Y-873263D01*
X-8206415Y-853354D01*
X-8183498Y-834547D01*
X-8159687Y-816887D01*
X-8135037Y-800416D01*
X-8109609Y-785175D01*
X-8083464Y-771200D01*
X-8056664Y-758525D01*
X-8029275Y-747180D01*
X-8001362Y-737193D01*
X-7972993Y-728587D01*
X-7944236Y-721384D01*
X-7915160Y-715600D01*
X-7885835Y-711250D01*
X-7856332Y-708345D01*
X-7826721Y-706890D01*
X-7797076Y-706890D01*
G37*
G36*
X24514381Y-13285087D02*
G01*
X24651150Y-13298557D01*
X24787093Y-13318723D01*
X24921883Y-13345534D01*
X25055196Y-13378927D01*
X25186709Y-13418821D01*
X25316106Y-13465120D01*
X25443076Y-13517713D01*
X25567312Y-13576472D01*
X25688515Y-13641256D01*
X25806393Y-13711910D01*
X25920663Y-13788263D01*
X26031048Y-13870130D01*
X26137284Y-13957315D01*
X26239114Y-14049608D01*
X26336292Y-14146786D01*
X26428585Y-14248616D01*
X26515770Y-14354852D01*
X26597637Y-14465237D01*
X26673990Y-14579507D01*
X26744644Y-14697385D01*
X26809428Y-14818588D01*
X26868187Y-14942824D01*
X26920780Y-15069794D01*
X26967079Y-15199191D01*
X27006973Y-15330704D01*
X27040366Y-15464017D01*
X27067177Y-15598807D01*
X27087343Y-15734750D01*
X27100813Y-15871519D01*
X27107557Y-16008785D01*
X27107557Y-16146215D01*
X27100813Y-16283481D01*
X27087343Y-16420250D01*
X27067177Y-16556193D01*
X27040366Y-16690983D01*
X27006973Y-16824296D01*
X26967079Y-16955809D01*
X26920780Y-17085206D01*
X26868187Y-17212176D01*
X26809428Y-17336412D01*
X26744644Y-17457615D01*
X26673990Y-17575493D01*
X26597637Y-17689763D01*
X26515770Y-17800148D01*
X26428585Y-17906384D01*
X26336292Y-18008214D01*
X26239114Y-18105392D01*
X26137284Y-18197685D01*
X26031048Y-18284870D01*
X25920663Y-18366737D01*
X25806393Y-18443090D01*
X25688515Y-18513744D01*
X25567312Y-18578528D01*
X25443076Y-18637287D01*
X25316106Y-18689880D01*
X25186709Y-18736179D01*
X25055196Y-18776073D01*
X24921883Y-18809466D01*
X24787093Y-18836277D01*
X24651150Y-18856443D01*
X24514381Y-18869913D01*
X24377115Y-18876657D01*
X24239685Y-18876657D01*
X24102419Y-18869913D01*
X23965650Y-18856443D01*
X23829707Y-18836277D01*
X23694917Y-18809466D01*
X23561604Y-18776073D01*
X23430091Y-18736179D01*
X23300694Y-18689880D01*
X23173724Y-18637287D01*
X23049488Y-18578528D01*
X22928285Y-18513744D01*
X22810407Y-18443090D01*
X22696137Y-18366737D01*
X22585752Y-18284870D01*
X22479516Y-18197685D01*
X22377686Y-18105392D01*
X22280508Y-18008214D01*
X22188215Y-17906384D01*
X22101030Y-17800148D01*
X22019163Y-17689763D01*
X21942810Y-17575493D01*
X21872156Y-17457615D01*
X21807372Y-17336412D01*
X21748613Y-17212176D01*
X21696020Y-17085206D01*
X21649721Y-16955809D01*
X21609827Y-16824296D01*
X21576434Y-16690983D01*
X21549623Y-16556193D01*
X21529457Y-16420250D01*
X21515987Y-16283481D01*
X21509243Y-16146215D01*
X21509243Y-16116766D01*
X22708882Y-16116766D01*
X22712735Y-16195203D01*
X22720433Y-16273357D01*
X22731956Y-16351039D01*
X22747277Y-16428062D01*
X22766358Y-16504240D01*
X22789155Y-16579391D01*
X22815612Y-16653332D01*
X22845664Y-16725886D01*
X22879241Y-16796878D01*
X22916261Y-16866137D01*
X22956634Y-16933496D01*
X23000264Y-16998793D01*
X23047046Y-17061871D01*
X23096866Y-17122577D01*
X23149605Y-17180765D01*
X23205135Y-17236295D01*
X23263323Y-17289034D01*
X23324029Y-17338854D01*
X23387107Y-17385636D01*
X23452404Y-17429266D01*
X23519763Y-17469639D01*
X23589022Y-17506659D01*
X23660014Y-17540236D01*
X23732568Y-17570288D01*
X23806509Y-17596745D01*
X23881660Y-17619542D01*
X23957838Y-17638623D01*
X24034861Y-17653944D01*
X24112543Y-17665467D01*
X24190697Y-17673165D01*
X24269134Y-17677018D01*
X24347666Y-17677018D01*
X24426103Y-17673165D01*
X24504257Y-17665467D01*
X24581939Y-17653944D01*
X24658962Y-17638623D01*
X24735140Y-17619542D01*
X24810291Y-17596745D01*
X24884232Y-17570288D01*
X24956786Y-17540236D01*
X25027778Y-17506659D01*
X25097037Y-17469639D01*
X25164396Y-17429266D01*
X25229693Y-17385636D01*
X25292771Y-17338854D01*
X25353477Y-17289034D01*
X25411665Y-17236295D01*
X25467195Y-17180765D01*
X25519934Y-17122577D01*
X25569754Y-17061871D01*
X25616536Y-16998793D01*
X25660166Y-16933496D01*
X25700539Y-16866137D01*
X25737559Y-16796878D01*
X25771136Y-16725886D01*
X25801188Y-16653332D01*
X25827645Y-16579391D01*
X25850442Y-16504240D01*
X25869523Y-16428062D01*
X25884844Y-16351039D01*
X25896367Y-16273357D01*
X25904065Y-16195203D01*
X25907918Y-16116766D01*
X25907918Y-16038234D01*
X25904065Y-15959797D01*
X25896367Y-15881643D01*
X25884844Y-15803961D01*
X25869523Y-15726938D01*
X25850442Y-15650760D01*
X25827645Y-15575609D01*
X25801188Y-15501668D01*
X25771136Y-15429114D01*
X25737559Y-15358122D01*
X25700539Y-15288863D01*
X25660166Y-15221504D01*
X25616536Y-15156207D01*
X25569754Y-15093129D01*
X25519934Y-15032423D01*
X25467195Y-14974235D01*
X25411665Y-14918705D01*
X25353477Y-14865966D01*
X25292771Y-14816146D01*
X25229693Y-14769364D01*
X25164396Y-14725734D01*
X25097037Y-14685361D01*
X25027778Y-14648341D01*
X24956786Y-14614764D01*
X24884232Y-14584712D01*
X24810291Y-14558255D01*
X24735140Y-14535458D01*
X24658962Y-14516377D01*
X24581939Y-14501056D01*
X24504257Y-14489533D01*
X24426103Y-14481835D01*
X24347666Y-14477982D01*
X24269134Y-14477982D01*
X24190697Y-14481835D01*
X24112543Y-14489533D01*
X24034861Y-14501056D01*
X23957838Y-14516377D01*
X23881660Y-14535458D01*
X23806509Y-14558255D01*
X23732568Y-14584712D01*
X23660014Y-14614764D01*
X23589022Y-14648341D01*
X23519763Y-14685361D01*
X23452404Y-14725734D01*
X23387107Y-14769364D01*
X23324029Y-14816146D01*
X23263323Y-14865966D01*
X23205135Y-14918705D01*
X23149605Y-14974235D01*
X23096866Y-15032423D01*
X23047046Y-15093129D01*
X23000264Y-15156207D01*
X22956634Y-15221504D01*
X22916261Y-15288863D01*
X22879241Y-15358122D01*
X22845664Y-15429114D01*
X22815612Y-15501668D01*
X22789155Y-15575609D01*
X22766358Y-15650760D01*
X22747277Y-15726938D01*
X22731956Y-15803961D01*
X22720433Y-15881643D01*
X22712735Y-15959797D01*
X22708882Y-16038234D01*
X22708882Y-16116766D01*
X21509243Y-16116766D01*
X21509243Y-16008785D01*
X21515987Y-15871519D01*
X21529457Y-15734750D01*
X21549623Y-15598807D01*
X21576434Y-15464017D01*
X21609827Y-15330704D01*
X21649721Y-15199191D01*
X21696020Y-15069794D01*
X21748613Y-14942824D01*
X21807372Y-14818588D01*
X21872156Y-14697385D01*
X21942810Y-14579507D01*
X22019163Y-14465237D01*
X22101030Y-14354852D01*
X22188215Y-14248616D01*
X22280508Y-14146786D01*
X22377686Y-14049608D01*
X22479516Y-13957315D01*
X22585752Y-13870130D01*
X22696137Y-13788263D01*
X22810407Y-13711910D01*
X22928285Y-13641256D01*
X23049488Y-13576472D01*
X23173724Y-13517713D01*
X23300694Y-13465120D01*
X23430091Y-13418821D01*
X23561604Y-13378927D01*
X23694917Y-13345534D01*
X23829707Y-13318723D01*
X23965650Y-13298557D01*
X24102419Y-13285087D01*
X24239685Y-13278343D01*
X24377115Y-13278343D01*
X24514381Y-13285087D01*
G37*
G36*
X-14065619Y27293113D02*
G01*
X-13928850Y27279643D01*
X-13792907Y27259477D01*
X-13658117Y27232666D01*
X-13524804Y27199273D01*
X-13393291Y27159379D01*
X-13263894Y27113080D01*
X-13136924Y27060487D01*
X-13012688Y27001728D01*
X-12891485Y26936944D01*
X-12773607Y26866290D01*
X-12659337Y26789937D01*
X-12548952Y26708070D01*
X-12442716Y26620885D01*
X-12340886Y26528592D01*
X-12243708Y26431414D01*
X-12151415Y26329584D01*
X-12064230Y26223348D01*
X-11982363Y26112963D01*
X-11906010Y25998693D01*
X-11835356Y25880815D01*
X-11770572Y25759612D01*
X-11711813Y25635376D01*
X-11659220Y25508406D01*
X-11612921Y25379009D01*
X-11573027Y25247496D01*
X-11539634Y25114183D01*
X-11512823Y24979393D01*
X-11492657Y24843450D01*
X-11479187Y24706681D01*
X-11472443Y24569415D01*
X-11472443Y24431985D01*
X-11479187Y24294719D01*
X-11492657Y24157950D01*
X-11512823Y24022007D01*
X-11539634Y23887217D01*
X-11573027Y23753904D01*
X-11612921Y23622391D01*
X-11659220Y23492994D01*
X-11711813Y23366024D01*
X-11770572Y23241788D01*
X-11835356Y23120585D01*
X-11906010Y23002707D01*
X-11982363Y22888437D01*
X-12064230Y22778052D01*
X-12151415Y22671816D01*
X-12243708Y22569986D01*
X-12340886Y22472808D01*
X-12442716Y22380515D01*
X-12548952Y22293330D01*
X-12659337Y22211463D01*
X-12773607Y22135110D01*
X-12891485Y22064456D01*
X-13012688Y21999672D01*
X-13136924Y21940913D01*
X-13263894Y21888320D01*
X-13393291Y21842021D01*
X-13524804Y21802127D01*
X-13658117Y21768734D01*
X-13792907Y21741923D01*
X-13928850Y21721757D01*
X-14065619Y21708287D01*
X-14202885Y21701543D01*
X-14340315Y21701543D01*
X-14477581Y21708287D01*
X-14614350Y21721757D01*
X-14750293Y21741923D01*
X-14885083Y21768734D01*
X-15018396Y21802127D01*
X-15149909Y21842021D01*
X-15279306Y21888320D01*
X-15406276Y21940913D01*
X-15530512Y21999672D01*
X-15651715Y22064456D01*
X-15769593Y22135110D01*
X-15883863Y22211463D01*
X-15994248Y22293330D01*
X-16100484Y22380515D01*
X-16202314Y22472808D01*
X-16299492Y22569986D01*
X-16391785Y22671816D01*
X-16478970Y22778052D01*
X-16560837Y22888437D01*
X-16637190Y23002707D01*
X-16707844Y23120585D01*
X-16772628Y23241788D01*
X-16831387Y23366024D01*
X-16883980Y23492994D01*
X-16930279Y23622391D01*
X-16970173Y23753904D01*
X-17003566Y23887217D01*
X-17030377Y24022007D01*
X-17050543Y24157950D01*
X-17064013Y24294719D01*
X-17070757Y24431985D01*
X-17070757Y24461434D01*
X-15871118Y24461434D01*
X-15867265Y24382997D01*
X-15859567Y24304843D01*
X-15848044Y24227161D01*
X-15832723Y24150138D01*
X-15813642Y24073960D01*
X-15790845Y23998809D01*
X-15764388Y23924868D01*
X-15734336Y23852314D01*
X-15700759Y23781322D01*
X-15663739Y23712063D01*
X-15623366Y23644704D01*
X-15579736Y23579407D01*
X-15532954Y23516329D01*
X-15483134Y23455623D01*
X-15430395Y23397435D01*
X-15374865Y23341905D01*
X-15316677Y23289166D01*
X-15255971Y23239346D01*
X-15192893Y23192564D01*
X-15127596Y23148934D01*
X-15060237Y23108561D01*
X-14990978Y23071541D01*
X-14919986Y23037964D01*
X-14847432Y23007912D01*
X-14773491Y22981455D01*
X-14698340Y22958658D01*
X-14622162Y22939577D01*
X-14545139Y22924256D01*
X-14467457Y22912733D01*
X-14389303Y22905035D01*
X-14310866Y22901182D01*
X-14232334Y22901182D01*
X-14153897Y22905035D01*
X-14075743Y22912733D01*
X-13998061Y22924256D01*
X-13921038Y22939577D01*
X-13844860Y22958658D01*
X-13769709Y22981455D01*
X-13695768Y23007912D01*
X-13623214Y23037964D01*
X-13552222Y23071541D01*
X-13482963Y23108561D01*
X-13415604Y23148934D01*
X-13350307Y23192564D01*
X-13287229Y23239346D01*
X-13226523Y23289166D01*
X-13168335Y23341905D01*
X-13112805Y23397435D01*
X-13060066Y23455623D01*
X-13010246Y23516329D01*
X-12963464Y23579407D01*
X-12919834Y23644704D01*
X-12879461Y23712063D01*
X-12842441Y23781322D01*
X-12808864Y23852314D01*
X-12778812Y23924868D01*
X-12752355Y23998809D01*
X-12729558Y24073960D01*
X-12710477Y24150138D01*
X-12695156Y24227161D01*
X-12683633Y24304843D01*
X-12675935Y24382997D01*
X-12672082Y24461434D01*
X-12672082Y24539966D01*
X-12675935Y24618403D01*
X-12683633Y24696557D01*
X-12695156Y24774239D01*
X-12710477Y24851262D01*
X-12729558Y24927440D01*
X-12752355Y25002591D01*
X-12778812Y25076532D01*
X-12808864Y25149086D01*
X-12842441Y25220078D01*
X-12879461Y25289337D01*
X-12919834Y25356696D01*
X-12963464Y25421993D01*
X-13010246Y25485071D01*
X-13060066Y25545777D01*
X-13112805Y25603965D01*
X-13168335Y25659495D01*
X-13226523Y25712234D01*
X-13287229Y25762054D01*
X-13350307Y25808836D01*
X-13415604Y25852466D01*
X-13482963Y25892839D01*
X-13552222Y25929859D01*
X-13623214Y25963436D01*
X-13695768Y25993488D01*
X-13769709Y26019945D01*
X-13844860Y26042742D01*
X-13921038Y26061823D01*
X-13998061Y26077144D01*
X-14075743Y26088667D01*
X-14153897Y26096365D01*
X-14232334Y26100218D01*
X-14310866Y26100218D01*
X-14389303Y26096365D01*
X-14467457Y26088667D01*
X-14545139Y26077144D01*
X-14622162Y26061823D01*
X-14698340Y26042742D01*
X-14773491Y26019945D01*
X-14847432Y25993488D01*
X-14919986Y25963436D01*
X-14990978Y25929859D01*
X-15060237Y25892839D01*
X-15127596Y25852466D01*
X-15192893Y25808836D01*
X-15255971Y25762054D01*
X-15316677Y25712234D01*
X-15374865Y25659495D01*
X-15430395Y25603965D01*
X-15483134Y25545777D01*
X-15532954Y25485071D01*
X-15579736Y25421993D01*
X-15623366Y25356696D01*
X-15663739Y25289337D01*
X-15700759Y25220078D01*
X-15734336Y25149086D01*
X-15764388Y25076532D01*
X-15790845Y25002591D01*
X-15813642Y24927440D01*
X-15832723Y24851262D01*
X-15848044Y24774239D01*
X-15859567Y24696557D01*
X-15867265Y24618403D01*
X-15871118Y24539966D01*
X-15871118Y24461434D01*
X-17070757Y24461434D01*
X-17070757Y24569415D01*
X-17064013Y24706681D01*
X-17050543Y24843450D01*
X-17030377Y24979393D01*
X-17003566Y25114183D01*
X-16970173Y25247496D01*
X-16930279Y25379009D01*
X-16883980Y25508406D01*
X-16831387Y25635376D01*
X-16772628Y25759612D01*
X-16707844Y25880815D01*
X-16637190Y25998693D01*
X-16560837Y26112963D01*
X-16478970Y26223348D01*
X-16391785Y26329584D01*
X-16299492Y26431414D01*
X-16202314Y26528592D01*
X-16100484Y26620885D01*
X-15994248Y26708070D01*
X-15883863Y26789937D01*
X-15769593Y26866290D01*
X-15651715Y26936944D01*
X-15530512Y27001728D01*
X-15406276Y27060487D01*
X-15279306Y27113080D01*
X-15149909Y27159379D01*
X-15018396Y27199273D01*
X-14885083Y27232666D01*
X-14750293Y27259477D01*
X-14614350Y27279643D01*
X-14477581Y27293113D01*
X-14340315Y27299857D01*
X-14202885Y27299857D01*
X-14065619Y27293113D01*
G37*
G36*
X-14065619Y-22752287D02*
G01*
X-13928850Y-22765757D01*
X-13792907Y-22785923D01*
X-13658117Y-22812734D01*
X-13524804Y-22846127D01*
X-13393291Y-22886021D01*
X-13263894Y-22932320D01*
X-13136924Y-22984913D01*
X-13012688Y-23043672D01*
X-12891485Y-23108456D01*
X-12773607Y-23179110D01*
X-12659337Y-23255463D01*
X-12548952Y-23337330D01*
X-12442716Y-23424515D01*
X-12340886Y-23516808D01*
X-12243708Y-23613986D01*
X-12151415Y-23715816D01*
X-12064230Y-23822052D01*
X-11982363Y-23932437D01*
X-11906010Y-24046707D01*
X-11835356Y-24164585D01*
X-11770572Y-24285788D01*
X-11711813Y-24410024D01*
X-11659220Y-24536994D01*
X-11612921Y-24666391D01*
X-11573027Y-24797904D01*
X-11539634Y-24931217D01*
X-11512823Y-25066007D01*
X-11492657Y-25201950D01*
X-11479187Y-25338719D01*
X-11472443Y-25475985D01*
X-11472443Y-25613415D01*
X-11479187Y-25750681D01*
X-11492657Y-25887450D01*
X-11512823Y-26023393D01*
X-11539634Y-26158183D01*
X-11573027Y-26291496D01*
X-11612921Y-26423009D01*
X-11659220Y-26552406D01*
X-11711813Y-26679376D01*
X-11770572Y-26803612D01*
X-11835356Y-26924815D01*
X-11906010Y-27042693D01*
X-11982363Y-27156963D01*
X-12064230Y-27267348D01*
X-12151415Y-27373584D01*
X-12243708Y-27475414D01*
X-12340886Y-27572592D01*
X-12442716Y-27664885D01*
X-12548952Y-27752070D01*
X-12659337Y-27833937D01*
X-12773607Y-27910290D01*
X-12891485Y-27980944D01*
X-13012688Y-28045728D01*
X-13136924Y-28104487D01*
X-13263894Y-28157080D01*
X-13393291Y-28203379D01*
X-13524804Y-28243273D01*
X-13658117Y-28276666D01*
X-13792907Y-28303477D01*
X-13928850Y-28323643D01*
X-14065619Y-28337113D01*
X-14202885Y-28343857D01*
X-14340315Y-28343857D01*
X-14477581Y-28337113D01*
X-14614350Y-28323643D01*
X-14750293Y-28303477D01*
X-14885083Y-28276666D01*
X-15018396Y-28243273D01*
X-15149909Y-28203379D01*
X-15279306Y-28157080D01*
X-15406276Y-28104487D01*
X-15530512Y-28045728D01*
X-15651715Y-27980944D01*
X-15769593Y-27910290D01*
X-15883863Y-27833937D01*
X-15994248Y-27752070D01*
X-16100484Y-27664885D01*
X-16202314Y-27572592D01*
X-16299492Y-27475414D01*
X-16391785Y-27373584D01*
X-16478970Y-27267348D01*
X-16560837Y-27156963D01*
X-16637190Y-27042693D01*
X-16707844Y-26924815D01*
X-16772628Y-26803612D01*
X-16831387Y-26679376D01*
X-16883980Y-26552406D01*
X-16930279Y-26423009D01*
X-16970173Y-26291496D01*
X-17003566Y-26158183D01*
X-17030377Y-26023393D01*
X-17050543Y-25887450D01*
X-17064013Y-25750681D01*
X-17070757Y-25613415D01*
X-17070757Y-25583966D01*
X-15871118Y-25583966D01*
X-15867265Y-25662403D01*
X-15859567Y-25740557D01*
X-15848044Y-25818239D01*
X-15832723Y-25895262D01*
X-15813642Y-25971440D01*
X-15790845Y-26046591D01*
X-15764388Y-26120532D01*
X-15734336Y-26193086D01*
X-15700759Y-26264078D01*
X-15663739Y-26333337D01*
X-15623366Y-26400696D01*
X-15579736Y-26465993D01*
X-15532954Y-26529071D01*
X-15483134Y-26589777D01*
X-15430395Y-26647965D01*
X-15374865Y-26703495D01*
X-15316677Y-26756234D01*
X-15255971Y-26806054D01*
X-15192893Y-26852836D01*
X-15127596Y-26896466D01*
X-15060237Y-26936839D01*
X-14990978Y-26973859D01*
X-14919986Y-27007436D01*
X-14847432Y-27037488D01*
X-14773491Y-27063945D01*
X-14698340Y-27086742D01*
X-14622162Y-27105823D01*
X-14545139Y-27121144D01*
X-14467457Y-27132667D01*
X-14389303Y-27140365D01*
X-14310866Y-27144218D01*
X-14232334Y-27144218D01*
X-14153897Y-27140365D01*
X-14075743Y-27132667D01*
X-13998061Y-27121144D01*
X-13921038Y-27105823D01*
X-13844860Y-27086742D01*
X-13769709Y-27063945D01*
X-13695768Y-27037488D01*
X-13623214Y-27007436D01*
X-13552222Y-26973859D01*
X-13482963Y-26936839D01*
X-13415604Y-26896466D01*
X-13350307Y-26852836D01*
X-13287229Y-26806054D01*
X-13226523Y-26756234D01*
X-13168335Y-26703495D01*
X-13112805Y-26647965D01*
X-13060066Y-26589777D01*
X-13010246Y-26529071D01*
X-12963464Y-26465993D01*
X-12919834Y-26400696D01*
X-12879461Y-26333337D01*
X-12842441Y-26264078D01*
X-12808864Y-26193086D01*
X-12778812Y-26120532D01*
X-12752355Y-26046591D01*
X-12729558Y-25971440D01*
X-12710477Y-25895262D01*
X-12695156Y-25818239D01*
X-12683633Y-25740557D01*
X-12675935Y-25662403D01*
X-12672082Y-25583966D01*
X-12672082Y-25505434D01*
X-12675935Y-25426997D01*
X-12683633Y-25348843D01*
X-12695156Y-25271161D01*
X-12710477Y-25194138D01*
X-12729558Y-25117960D01*
X-12752355Y-25042809D01*
X-12778812Y-24968868D01*
X-12808864Y-24896314D01*
X-12842441Y-24825322D01*
X-12879461Y-24756063D01*
X-12919834Y-24688704D01*
X-12963464Y-24623407D01*
X-13010246Y-24560329D01*
X-13060066Y-24499623D01*
X-13112805Y-24441435D01*
X-13168335Y-24385905D01*
X-13226523Y-24333166D01*
X-13287229Y-24283346D01*
X-13350307Y-24236564D01*
X-13415604Y-24192934D01*
X-13482963Y-24152561D01*
X-13552222Y-24115541D01*
X-13623214Y-24081964D01*
X-13695768Y-24051912D01*
X-13769709Y-24025455D01*
X-13844860Y-24002658D01*
X-13921038Y-23983577D01*
X-13998061Y-23968256D01*
X-14075743Y-23956733D01*
X-14153897Y-23949035D01*
X-14232334Y-23945182D01*
X-14310866Y-23945182D01*
X-14389303Y-23949035D01*
X-14467457Y-23956733D01*
X-14545139Y-23968256D01*
X-14622162Y-23983577D01*
X-14698340Y-24002658D01*
X-14773491Y-24025455D01*
X-14847432Y-24051912D01*
X-14919986Y-24081964D01*
X-14990978Y-24115541D01*
X-15060237Y-24152561D01*
X-15127596Y-24192934D01*
X-15192893Y-24236564D01*
X-15255971Y-24283346D01*
X-15316677Y-24333166D01*
X-15374865Y-24385905D01*
X-15430395Y-24441435D01*
X-15483134Y-24499623D01*
X-15532954Y-24560329D01*
X-15579736Y-24623407D01*
X-15623366Y-24688704D01*
X-15663739Y-24756063D01*
X-15700759Y-24825322D01*
X-15734336Y-24896314D01*
X-15764388Y-24968868D01*
X-15790845Y-25042809D01*
X-15813642Y-25117960D01*
X-15832723Y-25194138D01*
X-15848044Y-25271161D01*
X-15859567Y-25348843D01*
X-15867265Y-25426997D01*
X-15871118Y-25505434D01*
X-15871118Y-25583966D01*
X-17070757Y-25583966D01*
X-17070757Y-25475985D01*
X-17064013Y-25338719D01*
X-17050543Y-25201950D01*
X-17030377Y-25066007D01*
X-17003566Y-24931217D01*
X-16970173Y-24797904D01*
X-16930279Y-24666391D01*
X-16883980Y-24536994D01*
X-16831387Y-24410024D01*
X-16772628Y-24285788D01*
X-16707844Y-24164585D01*
X-16637190Y-24046707D01*
X-16560837Y-23932437D01*
X-16478970Y-23822052D01*
X-16391785Y-23715816D01*
X-16299492Y-23613986D01*
X-16202314Y-23516808D01*
X-16100484Y-23424515D01*
X-15994248Y-23337330D01*
X-15883863Y-23255463D01*
X-15769593Y-23179110D01*
X-15651715Y-23108456D01*
X-15530512Y-23043672D01*
X-15406276Y-22984913D01*
X-15279306Y-22932320D01*
X-15149909Y-22886021D01*
X-15018396Y-22846127D01*
X-14885083Y-22812734D01*
X-14750293Y-22785923D01*
X-14614350Y-22765757D01*
X-14477581Y-22752287D01*
X-14340315Y-22745543D01*
X-14202885Y-22745543D01*
X-14065619Y-22752287D01*
G37*
%TD*%
M02*
