%TF.GenerationSoftware,Flux,Pcbnew,7.0.6-7.0.6~ubuntu20.04.1*%
%TF.CreationDate,2023-09-03T01:02:40+00:00*%
%TF.ProjectId,input,696e7075-742e-46b6-9963-61645f706362,rev?*%
%TF.SameCoordinates,Original*%
%TF.FileFunction,Copper,L3,Inr*%
%TF.FilePolarity,Positive*%
%FSLAX46Y46*%
G04 Gerber Fmt 4.6, Leading zero omitted, Abs format (unit mm)*
G04 Filename: preprototiposecadosv3*
G04 Build it with Flux! Visit our site at: https://www.flux.ai (PCBNEW 7.0.6-7.0.6~ubuntu20.04.1) date 2023-09-03 01:02:40*
%MOMM*%
%LPD*%
G01*
G04 APERTURE LIST*
G04 Aperture macros list*
%AMFreePoly0*
4,1,1005,0.469605,0.874998,0.470410,0.874990,0.471215,0.874978,0.472020,0.874960,0.472825,0.874938,0.473629,0.874911,0.474433,0.874879,0.475238,0.874842,0.476042,0.874800,0.476845,0.874753,0.477649,0.874701,0.478452,0.874645,0.479254,0.874583,0.480057,0.874516,0.480858,0.874445,0.481660,0.874368,0.482461,0.874287,0.483261,0.874201,0.484061,0.874109,0.484860,0.874013,
0.485659,0.873912,0.486457,0.873806,0.487254,0.873696,0.488051,0.873580,0.488847,0.873459,0.489642,0.873334,0.490437,0.873204,0.491230,0.873068,0.492023,0.872928,0.492815,0.872783,0.493606,0.872634,0.494396,0.872479,0.495185,0.872320,0.495973,0.872155,0.496760,0.871986,0.497546,0.871812,0.498331,0.871633,0.499115,0.871450,0.499897,0.871261,0.500679,0.871068,
0.501459,0.870870,0.502238,0.870667,0.503016,0.870460,0.503793,0.870247,0.504568,0.870030,0.505342,0.869808,0.506114,0.869582,0.506885,0.869351,0.507655,0.869115,0.508423,0.868874,0.509190,0.868628,0.509955,0.868378,0.510719,0.868123,0.511481,0.867864,0.513000,0.867331,0.513757,0.867057,0.514513,0.866779,0.515266,0.866496,0.516018,0.866209,0.516768,0.865917,
0.517517,0.865620,0.518263,0.865319,0.519008,0.865013,0.519751,0.864703,0.520492,0.864388,0.521231,0.864068,0.521968,0.863744,0.522703,0.863416,0.523436,0.863083,0.524166,0.862745,0.524895,0.862403,0.525622,0.862057,0.526346,0.861706,0.527069,0.861351,0.527789,0.860991,0.528507,0.860627,0.529223,0.860258,0.529936,0.859885,0.530647,0.859508,0.531356,0.859126,
0.532063,0.858740,0.532767,0.858350,0.533468,0.857955,0.534167,0.857556,0.534864,0.857153,0.535559,0.856746,0.536250,0.856334,0.536940,0.855918,0.537626,0.855498,0.538992,0.854645,0.539670,0.854212,0.540347,0.853775,0.541020,0.853334,0.541691,0.852889,0.542359,0.852440,0.543024,0.851986,0.543686,0.851529,0.544346,0.851067,0.545003,0.850602,0.545657,0.850132,
0.546308,0.849658,0.546956,0.849181,0.547601,0.848699,0.548243,0.848214,0.548882,0.847724,0.549518,0.847231,0.550152,0.846734,0.550782,0.846233,0.551409,0.845728,0.552032,0.845219,0.552653,0.844706,0.553271,0.844190,0.553885,0.843670,0.554496,0.843146,0.555104,0.842618,0.555709,0.842087,0.556310,0.841552,0.556909,0.841013,0.558095,0.839924,0.558683,0.839375,
0.559268,0.838821,0.559849,0.838264,0.560427,0.837704,0.561001,0.837140,0.561572,0.836572,0.562140,0.836001,0.562704,0.835427,0.563264,0.834849,0.563821,0.834268,0.564375,0.833683,0.564924,0.833095,0.566013,0.831909,0.566552,0.831310,0.567087,0.830709,0.567618,0.830104,0.568146,0.829496,0.568670,0.828885,0.569190,0.828271,0.569706,0.827653,0.570219,0.827032,
0.570728,0.826409,0.571233,0.825782,0.571734,0.825152,0.572231,0.824518,0.572724,0.823882,0.573214,0.823243,0.573699,0.822601,0.574181,0.821956,0.574658,0.821308,0.575132,0.820657,0.575602,0.820003,0.576067,0.819346,0.576529,0.818686,0.576986,0.818024,0.577440,0.817359,0.577889,0.816691,0.578334,0.816020,0.578775,0.815347,0.579212,0.814670,0.579645,0.813992,
0.580498,0.812626,0.580918,0.811940,0.581334,0.811250,0.581746,0.810559,0.582153,0.809864,0.582556,0.809167,0.582955,0.808468,0.583350,0.807767,0.583740,0.807063,0.584126,0.806356,0.584508,0.805647,0.584885,0.804936,0.585258,0.804223,0.585627,0.803507,0.585991,0.802789,0.586351,0.802069,0.586706,0.801346,0.587057,0.800622,0.587403,0.799895,0.587745,0.799166,
0.588083,0.798436,0.588416,0.797703,0.588744,0.796968,0.589068,0.796231,0.589388,0.795492,0.589703,0.794751,0.590013,0.794008,0.590319,0.793263,0.590620,0.792517,0.590917,0.791768,0.591209,0.791018,0.591496,0.790266,0.591779,0.789513,0.592057,0.788757,0.592331,0.788000,0.592864,0.786481,0.593123,0.785719,0.593378,0.784955,0.593628,0.784190,0.593874,0.783423,
0.594115,0.782655,0.594351,0.781885,0.594582,0.781114,0.594808,0.780342,0.595030,0.779568,0.595247,0.778793,0.595460,0.778016,0.595667,0.777238,0.595870,0.776459,0.596068,0.775679,0.596261,0.774897,0.596450,0.774115,0.596633,0.773331,0.596812,0.772546,0.596986,0.771760,0.597155,0.770973,0.597320,0.770185,0.597479,0.769396,0.597634,0.768606,0.597783,0.767815,
0.597928,0.767023,0.598068,0.766230,0.598204,0.765437,0.598334,0.764642,0.598459,0.763847,0.598580,0.763051,0.598696,0.762254,0.598806,0.761457,0.598912,0.760659,0.599013,0.759860,0.599109,0.759061,0.599201,0.758261,0.599287,0.757461,0.599368,0.756660,0.599445,0.755858,0.599516,0.755057,0.599583,0.754254,0.599645,0.753452,0.599701,0.752649,0.599753,0.751845,
0.599800,0.751042,0.599842,0.750238,0.599879,0.749433,0.599911,0.748629,0.599938,0.747825,0.599960,0.747020,0.599978,0.746215,0.599990,0.745410,0.599998,0.744605,0.600000,0.743800,0.600000,-0.743800,0.599998,-0.744605,0.599990,-0.745410,0.599978,-0.746215,0.599960,-0.747020,0.599938,-0.747825,0.599911,-0.748629,0.599879,-0.749433,0.599842,-0.750238,0.599800,-0.751042,
0.599753,-0.751845,0.599701,-0.752649,0.599645,-0.753452,0.599583,-0.754254,0.599516,-0.755057,0.599445,-0.755858,0.599368,-0.756660,0.599287,-0.757461,0.599201,-0.758261,0.599109,-0.759061,0.599013,-0.759860,0.598912,-0.760659,0.598806,-0.761457,0.598696,-0.762254,0.598580,-0.763051,0.598459,-0.763847,0.598334,-0.764642,0.598204,-0.765437,0.598068,-0.766230,0.597928,-0.767023,
0.597783,-0.767815,0.597634,-0.768606,0.597479,-0.769396,0.597320,-0.770185,0.597155,-0.770973,0.596986,-0.771760,0.596812,-0.772546,0.596633,-0.773331,0.596450,-0.774115,0.596261,-0.774897,0.596068,-0.775679,0.595870,-0.776459,0.595667,-0.777238,0.595460,-0.778016,0.595247,-0.778793,0.595030,-0.779568,0.594808,-0.780342,0.594582,-0.781114,0.594351,-0.781885,0.594115,-0.782655,
0.593874,-0.783423,0.593628,-0.784190,0.593378,-0.784955,0.593123,-0.785719,0.592864,-0.786481,0.592331,-0.788000,0.592057,-0.788757,0.591779,-0.789513,0.591496,-0.790266,0.591209,-0.791018,0.590917,-0.791768,0.590620,-0.792517,0.590319,-0.793263,0.590013,-0.794008,0.589703,-0.794751,0.589388,-0.795492,0.589068,-0.796231,0.588744,-0.796968,0.588416,-0.797703,0.588083,-0.798436,
0.587745,-0.799166,0.587403,-0.799895,0.587057,-0.800622,0.586706,-0.801346,0.586351,-0.802069,0.585991,-0.802789,0.585627,-0.803507,0.585258,-0.804223,0.584885,-0.804936,0.584508,-0.805647,0.584126,-0.806356,0.583740,-0.807063,0.583350,-0.807767,0.582955,-0.808468,0.582556,-0.809167,0.582153,-0.809864,0.581746,-0.810559,0.581334,-0.811250,0.580918,-0.811940,0.580498,-0.812626,
0.579645,-0.813992,0.579212,-0.814670,0.578775,-0.815347,0.578334,-0.816020,0.577889,-0.816691,0.577440,-0.817359,0.576986,-0.818024,0.576529,-0.818686,0.576067,-0.819346,0.575602,-0.820003,0.575132,-0.820657,0.574658,-0.821308,0.574181,-0.821956,0.573699,-0.822601,0.573214,-0.823243,0.572724,-0.823882,0.572231,-0.824518,0.571734,-0.825152,0.571233,-0.825782,0.570728,-0.826409,
0.570219,-0.827032,0.569706,-0.827653,0.569190,-0.828271,0.568670,-0.828885,0.568146,-0.829496,0.567618,-0.830104,0.567087,-0.830709,0.566552,-0.831310,0.566013,-0.831909,0.564924,-0.833095,0.564375,-0.833683,0.563821,-0.834268,0.563264,-0.834849,0.562704,-0.835427,0.562140,-0.836001,0.561572,-0.836572,0.561001,-0.837140,0.560427,-0.837704,0.559849,-0.838264,0.559268,-0.838821,
0.558683,-0.839375,0.558095,-0.839924,0.556909,-0.841013,0.556310,-0.841552,0.555709,-0.842087,0.555104,-0.842618,0.554496,-0.843146,0.553885,-0.843670,0.553271,-0.844190,0.552653,-0.844706,0.552032,-0.845219,0.551409,-0.845728,0.550782,-0.846233,0.550152,-0.846734,0.549518,-0.847231,0.548882,-0.847724,0.548243,-0.848214,0.547601,-0.848699,0.546956,-0.849181,0.546308,-0.849658,
0.545657,-0.850132,0.545003,-0.850602,0.544346,-0.851067,0.543686,-0.851529,0.543024,-0.851986,0.542359,-0.852440,0.541691,-0.852889,0.541020,-0.853334,0.540347,-0.853775,0.539670,-0.854212,0.538992,-0.854645,0.537626,-0.855498,0.536940,-0.855918,0.536250,-0.856334,0.535559,-0.856746,0.534864,-0.857153,0.534167,-0.857556,0.533468,-0.857955,0.532767,-0.858350,0.532063,-0.858740,
0.531356,-0.859126,0.530647,-0.859508,0.529936,-0.859885,0.529223,-0.860258,0.528507,-0.860627,0.527789,-0.860991,0.527069,-0.861351,0.526346,-0.861706,0.525622,-0.862057,0.524895,-0.862403,0.524166,-0.862745,0.523436,-0.863083,0.522703,-0.863416,0.521968,-0.863744,0.521231,-0.864068,0.520492,-0.864388,0.519751,-0.864703,0.519008,-0.865013,0.518263,-0.865319,0.517517,-0.865620,
0.516768,-0.865917,0.516018,-0.866209,0.515266,-0.866496,0.514513,-0.866779,0.513757,-0.867057,0.513000,-0.867331,0.511481,-0.867864,0.510719,-0.868123,0.509955,-0.868378,0.509190,-0.868628,0.508423,-0.868874,0.507655,-0.869115,0.506885,-0.869351,0.506114,-0.869582,0.505342,-0.869808,0.504568,-0.870030,0.503793,-0.870247,0.503016,-0.870460,0.502238,-0.870667,0.501459,-0.870870,
0.500679,-0.871068,0.499897,-0.871261,0.499115,-0.871450,0.498331,-0.871633,0.497546,-0.871812,0.496760,-0.871986,0.495973,-0.872155,0.495185,-0.872320,0.494396,-0.872479,0.493606,-0.872634,0.492815,-0.872783,0.492023,-0.872928,0.491230,-0.873068,0.490437,-0.873204,0.489642,-0.873334,0.488847,-0.873459,0.488051,-0.873580,0.487254,-0.873696,0.486457,-0.873806,0.485659,-0.873912,
0.484860,-0.874013,0.484061,-0.874109,0.483261,-0.874201,0.482461,-0.874287,0.481660,-0.874368,0.480858,-0.874445,0.480057,-0.874516,0.479254,-0.874583,0.478452,-0.874645,0.477649,-0.874701,0.476845,-0.874753,0.476042,-0.874800,0.475238,-0.874842,0.474433,-0.874879,0.473629,-0.874911,0.472825,-0.874938,0.472020,-0.874960,0.471215,-0.874978,0.470410,-0.874990,0.469605,-0.874998,
0.468800,-0.875000,-0.468800,-0.875000,-0.469605,-0.874998,-0.470410,-0.874990,-0.471215,-0.874978,-0.472020,-0.874960,-0.472825,-0.874938,-0.473629,-0.874911,-0.474433,-0.874879,-0.475238,-0.874842,-0.476042,-0.874800,-0.476845,-0.874753,-0.477649,-0.874701,-0.478452,-0.874645,-0.479254,-0.874583,-0.480057,-0.874516,-0.480858,-0.874445,-0.481660,-0.874368,-0.482461,-0.874287,-0.483261,-0.874201,
-0.484061,-0.874109,-0.484860,-0.874013,-0.485659,-0.873912,-0.486457,-0.873806,-0.487254,-0.873696,-0.488051,-0.873580,-0.488847,-0.873459,-0.489642,-0.873334,-0.490437,-0.873204,-0.491230,-0.873068,-0.492023,-0.872928,-0.492815,-0.872783,-0.493606,-0.872634,-0.494396,-0.872479,-0.495185,-0.872320,-0.495973,-0.872155,-0.496760,-0.871986,-0.497546,-0.871812,-0.498331,-0.871633,-0.499115,-0.871450,
-0.499897,-0.871261,-0.500679,-0.871068,-0.501459,-0.870870,-0.502238,-0.870667,-0.503016,-0.870460,-0.503793,-0.870247,-0.504568,-0.870030,-0.505342,-0.869808,-0.506114,-0.869582,-0.506885,-0.869351,-0.507655,-0.869115,-0.508423,-0.868874,-0.509190,-0.868628,-0.509955,-0.868378,-0.510719,-0.868123,-0.511481,-0.867864,-0.513000,-0.867331,-0.513757,-0.867057,-0.514513,-0.866779,-0.515266,-0.866496,
-0.516018,-0.866209,-0.516768,-0.865917,-0.517517,-0.865620,-0.518263,-0.865319,-0.519008,-0.865013,-0.519751,-0.864703,-0.520492,-0.864388,-0.521231,-0.864068,-0.521968,-0.863744,-0.522703,-0.863416,-0.523436,-0.863083,-0.524166,-0.862745,-0.524895,-0.862403,-0.525622,-0.862057,-0.526346,-0.861706,-0.527069,-0.861351,-0.527789,-0.860991,-0.528507,-0.860627,-0.529223,-0.860258,-0.529936,-0.859885,
-0.530647,-0.859508,-0.531356,-0.859126,-0.532063,-0.858740,-0.532767,-0.858350,-0.533468,-0.857955,-0.534167,-0.857556,-0.534864,-0.857153,-0.535559,-0.856746,-0.536250,-0.856334,-0.536940,-0.855918,-0.537626,-0.855498,-0.538992,-0.854645,-0.539670,-0.854212,-0.540347,-0.853775,-0.541020,-0.853334,-0.541691,-0.852889,-0.542359,-0.852440,-0.543024,-0.851986,-0.543686,-0.851529,-0.544346,-0.851067,
-0.545003,-0.850602,-0.545657,-0.850132,-0.546308,-0.849658,-0.546956,-0.849181,-0.547601,-0.848699,-0.548243,-0.848214,-0.548882,-0.847724,-0.549518,-0.847231,-0.550152,-0.846734,-0.550782,-0.846233,-0.551409,-0.845728,-0.552032,-0.845219,-0.552653,-0.844706,-0.553271,-0.844190,-0.553885,-0.843670,-0.554496,-0.843146,-0.555104,-0.842618,-0.555709,-0.842087,-0.556310,-0.841552,-0.556909,-0.841013,
-0.558095,-0.839924,-0.558683,-0.839375,-0.559268,-0.838821,-0.559849,-0.838264,-0.560427,-0.837704,-0.561001,-0.837140,-0.561572,-0.836572,-0.562140,-0.836001,-0.562704,-0.835427,-0.563264,-0.834849,-0.563821,-0.834268,-0.564375,-0.833683,-0.564924,-0.833095,-0.566013,-0.831909,-0.566552,-0.831310,-0.567087,-0.830709,-0.567618,-0.830104,-0.568146,-0.829496,-0.568670,-0.828885,-0.569190,-0.828271,
-0.569706,-0.827653,-0.570219,-0.827032,-0.570728,-0.826409,-0.571233,-0.825782,-0.571734,-0.825152,-0.572231,-0.824518,-0.572724,-0.823882,-0.573214,-0.823243,-0.573699,-0.822601,-0.574181,-0.821956,-0.574658,-0.821308,-0.575132,-0.820657,-0.575602,-0.820003,-0.576067,-0.819346,-0.576529,-0.818686,-0.576986,-0.818024,-0.577440,-0.817359,-0.577889,-0.816691,-0.578334,-0.816020,-0.578775,-0.815347,
-0.579212,-0.814670,-0.579645,-0.813992,-0.580498,-0.812626,-0.580918,-0.811940,-0.581334,-0.811250,-0.581746,-0.810559,-0.582153,-0.809864,-0.582556,-0.809167,-0.582955,-0.808468,-0.583350,-0.807767,-0.583740,-0.807063,-0.584126,-0.806356,-0.584508,-0.805647,-0.584885,-0.804936,-0.585258,-0.804223,-0.585627,-0.803507,-0.585991,-0.802789,-0.586351,-0.802069,-0.586706,-0.801346,-0.587057,-0.800622,
-0.587403,-0.799895,-0.587745,-0.799166,-0.588083,-0.798436,-0.588416,-0.797703,-0.588744,-0.796968,-0.589068,-0.796231,-0.589388,-0.795492,-0.589703,-0.794751,-0.590013,-0.794008,-0.590319,-0.793263,-0.590620,-0.792517,-0.590917,-0.791768,-0.591209,-0.791018,-0.591496,-0.790266,-0.591779,-0.789513,-0.592057,-0.788757,-0.592331,-0.788000,-0.592864,-0.786481,-0.593123,-0.785719,-0.593378,-0.784955,
-0.593628,-0.784190,-0.593874,-0.783423,-0.594115,-0.782655,-0.594351,-0.781885,-0.594582,-0.781114,-0.594808,-0.780342,-0.595030,-0.779568,-0.595247,-0.778793,-0.595460,-0.778016,-0.595667,-0.777238,-0.595870,-0.776459,-0.596068,-0.775679,-0.596261,-0.774897,-0.596450,-0.774115,-0.596633,-0.773331,-0.596812,-0.772546,-0.596986,-0.771760,-0.597155,-0.770973,-0.597320,-0.770185,-0.597479,-0.769396,
-0.597634,-0.768606,-0.597783,-0.767815,-0.597928,-0.767023,-0.598068,-0.766230,-0.598204,-0.765437,-0.598334,-0.764642,-0.598459,-0.763847,-0.598580,-0.763051,-0.598696,-0.762254,-0.598806,-0.761457,-0.598912,-0.760659,-0.599013,-0.759860,-0.599109,-0.759061,-0.599201,-0.758261,-0.599287,-0.757461,-0.599368,-0.756660,-0.599445,-0.755858,-0.599516,-0.755057,-0.599583,-0.754254,-0.599645,-0.753452,
-0.599701,-0.752649,-0.599753,-0.751845,-0.599800,-0.751042,-0.599842,-0.750238,-0.599879,-0.749433,-0.599911,-0.748629,-0.599938,-0.747825,-0.599960,-0.747020,-0.599978,-0.746215,-0.599990,-0.745410,-0.599998,-0.744605,-0.600000,-0.743800,-0.600000,0.743800,-0.599998,0.744605,-0.599990,0.745410,-0.599978,0.746215,-0.599960,0.747020,-0.599938,0.747825,-0.599911,0.748629,-0.599879,0.749433,
-0.599842,0.750238,-0.599800,0.751042,-0.599753,0.751845,-0.599701,0.752649,-0.599645,0.753452,-0.599583,0.754254,-0.599516,0.755057,-0.599445,0.755858,-0.599368,0.756660,-0.599287,0.757461,-0.599201,0.758261,-0.599109,0.759061,-0.599013,0.759860,-0.598912,0.760659,-0.598806,0.761457,-0.598696,0.762254,-0.598580,0.763051,-0.598459,0.763847,-0.598334,0.764642,-0.598204,0.765437,
-0.598068,0.766230,-0.597928,0.767023,-0.597783,0.767815,-0.597634,0.768606,-0.597479,0.769396,-0.597320,0.770185,-0.597155,0.770973,-0.596986,0.771760,-0.596812,0.772546,-0.596633,0.773331,-0.596450,0.774115,-0.596261,0.774897,-0.596068,0.775679,-0.595870,0.776459,-0.595667,0.777238,-0.595460,0.778016,-0.595247,0.778793,-0.595030,0.779568,-0.594808,0.780342,-0.594582,0.781114,
-0.594351,0.781885,-0.594115,0.782655,-0.593874,0.783423,-0.593628,0.784190,-0.593378,0.784955,-0.593123,0.785719,-0.592864,0.786481,-0.592331,0.788000,-0.592057,0.788757,-0.591779,0.789513,-0.591496,0.790266,-0.591209,0.791018,-0.590917,0.791768,-0.590620,0.792517,-0.590319,0.793263,-0.590013,0.794008,-0.589703,0.794751,-0.589388,0.795492,-0.589068,0.796231,-0.588744,0.796968,
-0.588416,0.797703,-0.588083,0.798436,-0.587745,0.799166,-0.587403,0.799895,-0.587057,0.800622,-0.586706,0.801346,-0.586351,0.802069,-0.585991,0.802789,-0.585627,0.803507,-0.585258,0.804223,-0.584885,0.804936,-0.584508,0.805647,-0.584126,0.806356,-0.583740,0.807063,-0.583350,0.807767,-0.582955,0.808468,-0.582556,0.809167,-0.582153,0.809864,-0.581746,0.810559,-0.581334,0.811250,
-0.580918,0.811940,-0.580498,0.812626,-0.579645,0.813992,-0.579212,0.814670,-0.578775,0.815347,-0.578334,0.816020,-0.577889,0.816691,-0.577440,0.817359,-0.576986,0.818024,-0.576529,0.818686,-0.576067,0.819346,-0.575602,0.820003,-0.575132,0.820657,-0.574658,0.821308,-0.574181,0.821956,-0.573699,0.822601,-0.573214,0.823243,-0.572724,0.823882,-0.572231,0.824518,-0.571734,0.825152,
-0.571233,0.825782,-0.570728,0.826409,-0.570219,0.827032,-0.569706,0.827653,-0.569190,0.828271,-0.568670,0.828885,-0.568146,0.829496,-0.567618,0.830104,-0.567087,0.830709,-0.566552,0.831310,-0.566013,0.831909,-0.564924,0.833095,-0.564375,0.833683,-0.563821,0.834268,-0.563264,0.834849,-0.562704,0.835427,-0.562140,0.836001,-0.561572,0.836572,-0.561001,0.837140,-0.560427,0.837704,
-0.559849,0.838264,-0.559268,0.838821,-0.558683,0.839375,-0.558095,0.839924,-0.556909,0.841013,-0.556310,0.841552,-0.555709,0.842087,-0.555104,0.842618,-0.554496,0.843146,-0.553885,0.843670,-0.553271,0.844190,-0.552653,0.844706,-0.552032,0.845219,-0.551409,0.845728,-0.550782,0.846233,-0.550152,0.846734,-0.549518,0.847231,-0.548882,0.847724,-0.548243,0.848214,-0.547601,0.848699,
-0.546956,0.849181,-0.546308,0.849658,-0.545657,0.850132,-0.545003,0.850602,-0.544346,0.851067,-0.543686,0.851529,-0.543024,0.851986,-0.542359,0.852440,-0.541691,0.852889,-0.541020,0.853334,-0.540347,0.853775,-0.539670,0.854212,-0.538992,0.854645,-0.537626,0.855498,-0.536940,0.855918,-0.536250,0.856334,-0.535559,0.856746,-0.534864,0.857153,-0.534167,0.857556,-0.533468,0.857955,
-0.532767,0.858350,-0.532063,0.858740,-0.531356,0.859126,-0.530647,0.859508,-0.529936,0.859885,-0.529223,0.860258,-0.528507,0.860627,-0.527789,0.860991,-0.527069,0.861351,-0.526346,0.861706,-0.525622,0.862057,-0.524895,0.862403,-0.524166,0.862745,-0.523436,0.863083,-0.522703,0.863416,-0.521968,0.863744,-0.521231,0.864068,-0.520492,0.864388,-0.519751,0.864703,-0.519008,0.865013,
-0.518263,0.865319,-0.517517,0.865620,-0.516768,0.865917,-0.516018,0.866209,-0.515266,0.866496,-0.514513,0.866779,-0.513757,0.867057,-0.513000,0.867331,-0.511481,0.867864,-0.510719,0.868123,-0.509955,0.868378,-0.509190,0.868628,-0.508423,0.868874,-0.507655,0.869115,-0.506885,0.869351,-0.506114,0.869582,-0.505342,0.869808,-0.504568,0.870030,-0.503793,0.870247,-0.503016,0.870460,
-0.502238,0.870667,-0.501459,0.870870,-0.500679,0.871068,-0.499897,0.871261,-0.499115,0.871450,-0.498331,0.871633,-0.497546,0.871812,-0.496760,0.871986,-0.495973,0.872155,-0.495185,0.872320,-0.494396,0.872479,-0.493606,0.872634,-0.492815,0.872783,-0.492023,0.872928,-0.491230,0.873068,-0.490437,0.873204,-0.489642,0.873334,-0.488847,0.873459,-0.488051,0.873580,-0.487254,0.873696,
-0.486457,0.873806,-0.485659,0.873912,-0.484860,0.874013,-0.484061,0.874109,-0.483261,0.874201,-0.482461,0.874287,-0.481660,0.874368,-0.480858,0.874445,-0.480057,0.874516,-0.479254,0.874583,-0.478452,0.874645,-0.477649,0.874701,-0.476845,0.874753,-0.476042,0.874800,-0.475238,0.874842,-0.474433,0.874879,-0.473629,0.874911,-0.472825,0.874938,-0.472020,0.874960,-0.471215,0.874978,
-0.470410,0.874990,-0.469605,0.874998,-0.468800,0.875000,0.468800,0.875000,0.469605,0.874998,0.469605,0.874998,$1*%
%AMFreePoly1*
4,1,5,0.604000,-0.604000,-0.604000,-0.604000,-0.604000,0.604000,0.604000,0.604000,0.604000,-0.604000,0.604000,-0.604000,$1*%
%AMFreePoly2*
4,1,129,0.022069,0.299187,0.036723,0.297744,0.051289,0.295583,0.065730,0.292711,0.080014,0.289133,0.094105,0.284858,0.107969,0.279898,0.121572,0.274263,0.134883,0.267967,0.147869,0.261026,0.160499,0.253456,0.172742,0.245275,0.184569,0.236504,0.195952,0.227163,0.206862,0.217274,0.217274,0.206862,0.227163,0.195952,0.236504,0.184569,0.245275,0.172742,0.253456,0.160499,
0.261026,0.147869,0.267967,0.134883,0.274263,0.121572,0.279898,0.107969,0.284858,0.094105,0.289133,0.080014,0.292711,0.065730,0.295583,0.051289,0.297744,0.036723,0.299187,0.022069,0.299910,0.007362,0.299910,-0.007362,0.299187,-0.022069,0.297744,-0.036723,0.295583,-0.051289,0.292711,-0.065730,0.289133,-0.080014,0.284858,-0.094105,0.279898,-0.107969,0.274263,-0.121572,
0.267967,-0.134883,0.261026,-0.147869,0.253456,-0.160499,0.245275,-0.172742,0.236504,-0.184569,0.227163,-0.195952,0.217274,-0.206862,0.206862,-0.217274,0.195952,-0.227163,0.184569,-0.236504,0.172742,-0.245275,0.160499,-0.253456,0.147869,-0.261026,0.134883,-0.267967,0.121572,-0.274263,0.107969,-0.279898,0.094105,-0.284858,0.080014,-0.289133,0.065730,-0.292711,0.051289,-0.295583,
0.036723,-0.297744,0.022069,-0.299187,0.007362,-0.299910,-0.007362,-0.299910,-0.022069,-0.299187,-0.036723,-0.297744,-0.051289,-0.295583,-0.065730,-0.292711,-0.080014,-0.289133,-0.094105,-0.284858,-0.107969,-0.279898,-0.121572,-0.274263,-0.134883,-0.267967,-0.147869,-0.261026,-0.160499,-0.253456,-0.172742,-0.245275,-0.184569,-0.236504,-0.195952,-0.227163,-0.206862,-0.217274,-0.217274,-0.206862,
-0.227163,-0.195952,-0.236504,-0.184569,-0.245275,-0.172742,-0.253456,-0.160499,-0.261026,-0.147869,-0.267967,-0.134883,-0.274263,-0.121572,-0.279898,-0.107969,-0.284858,-0.094105,-0.289133,-0.080014,-0.292711,-0.065730,-0.295583,-0.051289,-0.297744,-0.036723,-0.299187,-0.022069,-0.299910,-0.007362,-0.299910,0.007362,-0.299187,0.022069,-0.297744,0.036723,-0.295583,0.051289,-0.292711,0.065730,
-0.289133,0.080014,-0.284858,0.094105,-0.279898,0.107969,-0.274263,0.121572,-0.267967,0.134883,-0.261026,0.147869,-0.253456,0.160499,-0.245275,0.172742,-0.236504,0.184569,-0.227163,0.195952,-0.217274,0.206862,-0.206862,0.217274,-0.195952,0.227163,-0.184569,0.236504,-0.172742,0.245275,-0.160499,0.253456,-0.147869,0.261026,-0.134883,0.267967,-0.121572,0.274263,-0.107969,0.279898,
-0.094105,0.284858,-0.080014,0.289133,-0.065730,0.292711,-0.051289,0.295583,-0.036723,0.297744,-0.022069,0.299187,-0.007362,0.299910,0.007362,0.299910,0.022069,0.299187,0.022069,0.299187,$1*%
G04 Aperture macros list end*
%TA.AperFunction,ComponentPad*%
%ADD10O,1.200000X1.750000*%
%TD*%
%TA.AperFunction,ComponentPad*%
%ADD11FreePoly0,0.000000*%
%TD*%
%TA.AperFunction,ComponentPad*%
%ADD12C,5.600000*%
%TD*%
%TA.AperFunction,ComponentPad*%
%ADD13FreePoly1,180.000000*%
%TD*%
%TA.AperFunction,ComponentPad*%
%ADD14C,1.208000*%
%TD*%
%TA.AperFunction,ComponentPad*%
%ADD15FreePoly2,0.000000*%
%TD*%
G04 APERTURE END LIST*
D10*
%TO.N,N/C*%
%TO.C,*%
X-19448900Y5394800D03*
D11*
X-21448900Y5394800D03*
D12*
X24308400Y24500700D03*
D13*
X-13811899Y-1310692D03*
D14*
X-11811899Y-1310697D03*
X-9811899Y-1310703D03*
X-7811899Y-1310708D03*
D12*
X24308400Y-16077500D03*
X-14271600Y24500700D03*
X-14271600Y-25544700D03*
D15*
%TO.N,GND*%
X13141300Y-6426200D03*
X-1623500Y-11255600D03*
X3568800Y-6063400D03*
X9884800Y-20863000D03*
X17172800Y-19346200D03*
X1600000Y15000000D03*
X16600000Y15000000D03*
X-13400000Y-15000000D03*
X16600000Y0D03*
%TO.N,Net 10*%
X17782900Y10221800D03*
X8091600Y-5731200D03*
%TO.N,Net 2*%
X1332200Y-20166800D03*
X-13622400Y-6993700D03*
%TO.N,Net 9*%
X-1754200Y-19898900D03*
X-11412100Y6591400D03*
X12198800Y-11154400D03*
%TO.N,Net 12*%
X5563500Y-5759800D03*
X16009200Y9631100D03*
%TO.N,Net 3*%
X13528300Y-8499500D03*
X4357900Y-21162500D03*
%TD*%
%TA.AperFunction,Conductor*%
%TO.N,GND*%
G36*
X29200000Y29600000D02*
G01*
X-28000000Y29600000D01*
X-28000000Y24067000D01*
X-17548000Y24067000D01*
X-17548000Y24934000D01*
X-17325000Y25764000D01*
X-17324000Y25765000D01*
X-16893000Y26512000D01*
X-16283000Y27122000D01*
X-15536000Y27554000D01*
X-15534000Y27555000D01*
X-15533000Y27555000D01*
X-14705000Y27777000D01*
X-13838000Y27777000D01*
X-13010000Y27555000D01*
X-13009000Y27555000D01*
X-13007000Y27554000D01*
X-12260000Y27122000D01*
X-11650000Y26512000D01*
X-11219000Y25765000D01*
X-11218000Y25764000D01*
X-10996000Y24934000D01*
X-10996000Y24067000D01*
X21032000Y24067000D01*
X21032000Y24934000D01*
X21255000Y25764000D01*
X21256000Y25765000D01*
X21687000Y26512000D01*
X22297000Y27122000D01*
X23044000Y27554000D01*
X23046000Y27555000D01*
X23047000Y27555000D01*
X23875000Y27777000D01*
X24742000Y27777000D01*
X25570000Y27555000D01*
X25571000Y27555000D01*
X25573000Y27554000D01*
X26320000Y27122000D01*
X26930000Y26512000D01*
X27361000Y25765000D01*
X27362000Y25764000D01*
X27584000Y24934000D01*
X27584000Y24067000D01*
X27362000Y23237000D01*
X26930000Y22489000D01*
X26320000Y21879000D01*
X25572000Y21447000D01*
X24742000Y21225000D01*
X23875000Y21225000D01*
X23045000Y21447000D01*
X22297000Y21879000D01*
X21687000Y22489000D01*
X21255000Y23237000D01*
X21032000Y24067000D01*
X-10996000Y24067000D01*
X-11218000Y23237000D01*
X-11650000Y22489000D01*
X-12260000Y21879000D01*
X-13008000Y21447000D01*
X-13838000Y21225000D01*
X-14705000Y21225000D01*
X-15535000Y21447000D01*
X-16283000Y21879000D01*
X-16893000Y22489000D01*
X-17325000Y23237000D01*
X-17548000Y24067000D01*
X-28000000Y24067000D01*
X-28000000Y14980000D01*
X1451000Y14980000D01*
X1451000Y15020000D01*
X1461000Y15057000D01*
X1481000Y15091000D01*
X1509000Y15119000D01*
X1543000Y15139000D01*
X1580000Y15149000D01*
X1620000Y15149000D01*
X1657000Y15139000D01*
X1691000Y15119000D01*
X1719000Y15091000D01*
X1739000Y15057000D01*
X1749000Y15020000D01*
X1749000Y14980000D01*
X16451000Y14980000D01*
X16451000Y15020000D01*
X16461000Y15057000D01*
X16481000Y15091000D01*
X16509000Y15119000D01*
X16543000Y15139000D01*
X16580000Y15149000D01*
X16620000Y15149000D01*
X16657000Y15139000D01*
X16691000Y15119000D01*
X16719000Y15091000D01*
X16739000Y15057000D01*
X16749000Y15020000D01*
X16749000Y14980000D01*
X16739000Y14943000D01*
X16719000Y14909000D01*
X16691000Y14881000D01*
X16657000Y14861000D01*
X16620000Y14851000D01*
X16580000Y14851000D01*
X16543000Y14861000D01*
X16509000Y14881000D01*
X16481000Y14909000D01*
X16461000Y14943000D01*
X16451000Y14980000D01*
X1749000Y14980000D01*
X1739000Y14943000D01*
X1719000Y14909000D01*
X1691000Y14881000D01*
X1657000Y14861000D01*
X1620000Y14851000D01*
X1580000Y14851000D01*
X1543000Y14861000D01*
X1509000Y14881000D01*
X1481000Y14909000D01*
X1461000Y14943000D01*
X1451000Y14980000D01*
X-28000000Y14980000D01*
X-28000000Y9527000D01*
X15212000Y9527000D01*
X15212000Y9735000D01*
X15265000Y9937000D01*
X15372000Y10122000D01*
X15521000Y10270000D01*
X15698000Y10373000D01*
X15700000Y10374000D01*
X15901000Y10429000D01*
X16117000Y10429000D01*
X16318000Y10374000D01*
X16498000Y10270000D01*
X16648000Y10120000D01*
X16652044Y10113000D01*
X16985000Y10113000D01*
X16985000Y10329000D01*
X17041000Y10533000D01*
X17144000Y10710000D01*
X17292000Y10859000D01*
X17477000Y10966000D01*
X17679000Y11019000D01*
X17887000Y11019000D01*
X18089000Y10966000D01*
X18274000Y10859000D01*
X18422000Y10710000D01*
X18526000Y10530000D01*
X18580000Y10326000D01*
X18580000Y10118000D01*
X18527000Y9916000D01*
X18422000Y9733000D01*
X18272000Y9583000D01*
X18092000Y9479000D01*
X17891000Y9424000D01*
X17675000Y9424000D01*
X17474000Y9479000D01*
X17294000Y9583000D01*
X17144000Y9733000D01*
X17040000Y9913000D01*
X16985000Y10113000D01*
X16652044Y10113000D01*
X16752000Y9940000D01*
X16807000Y9739000D01*
X16807000Y9523000D01*
X16752000Y9322000D01*
X16648000Y9142000D01*
X16498000Y8992000D01*
X16317000Y8888000D01*
X16315000Y8887000D01*
X16113000Y8834000D01*
X15905000Y8834000D01*
X15701000Y8888000D01*
X15521000Y8992000D01*
X15372000Y9140000D01*
X15265000Y9325000D01*
X15212000Y9527000D01*
X-28000000Y9527000D01*
X-28000000Y4636000D01*
X-22549000Y4636000D01*
X-22549000Y6154000D01*
X-22545000Y6228000D01*
X-22527000Y6305000D01*
X-22502000Y6383000D01*
X-22463000Y6457000D01*
X-22419000Y6525000D01*
X-22371000Y6577000D01*
X-22308000Y6640000D01*
X-22229000Y6687000D01*
X-22162000Y6723000D01*
X-22084000Y6748000D01*
X-22007000Y6766000D01*
X-21933000Y6770000D01*
X-20965000Y6770000D01*
X-20891000Y6766000D01*
X-20814000Y6748000D01*
X-20742000Y6725000D01*
X-20666000Y6687000D01*
X-20593000Y6640000D01*
X-20525000Y6577000D01*
X-20481000Y6525000D01*
X-20450015Y6482000D01*
X-12210000Y6482000D01*
X-12210000Y6700000D01*
X-12155000Y6901000D01*
X-12051000Y7080000D01*
X-11903000Y7228000D01*
X-11721000Y7335000D01*
X-11516000Y7389000D01*
X-11308000Y7389000D01*
X-11103000Y7335000D01*
X-10921000Y7228000D01*
X-10773000Y7080000D01*
X-10668000Y6897000D01*
X-10615000Y6699000D01*
X-10615000Y6484000D01*
X-10668000Y6286000D01*
X-10772000Y6104000D01*
X-10920000Y5955000D01*
X-10921000Y5954000D01*
X-11106000Y5847000D01*
X-11308000Y5794000D01*
X-11516000Y5794000D01*
X-11718000Y5847000D01*
X-11903000Y5954000D01*
X-11904000Y5955000D01*
X-12052000Y6104000D01*
X-12155000Y6282000D01*
X-12210000Y6482000D01*
X-20450015Y6482000D01*
X-20432000Y6457000D01*
X-20432000Y6456000D01*
X-20430000Y6454000D01*
X-20397000Y6381000D01*
X-20368000Y6302000D01*
X-20352000Y6210000D01*
X-20349000Y6152000D01*
X-20349000Y5345000D01*
X-19821000Y5345000D01*
X-19821000Y5445000D01*
X-19820000Y5446000D01*
X-19795000Y5538000D01*
X-19746000Y5623000D01*
X-19677000Y5692000D01*
X-19592000Y5741000D01*
X-19590000Y5742000D01*
X-19499000Y5767000D01*
X-19399000Y5767000D01*
X-19307000Y5742000D01*
X-19305000Y5741000D01*
X-19221000Y5692000D01*
X-19151000Y5623000D01*
X-19102000Y5538000D01*
X-19101000Y5535000D01*
X-19077000Y5446000D01*
X-19077000Y5345000D01*
X-19102000Y5251000D01*
X-19151000Y5167000D01*
X-19221000Y5097000D01*
X-19305000Y5048000D01*
X-19400000Y5023000D01*
X-19500000Y5023000D01*
X-19589000Y5047000D01*
X-19590000Y5047000D01*
X-19592000Y5048000D01*
X-19677000Y5097000D01*
X-19678000Y5098000D01*
X-19745000Y5166000D01*
X-19796000Y5253000D01*
X-19821000Y5345000D01*
X-20349000Y5345000D01*
X-20349000Y4634000D01*
X-20352000Y4580000D01*
X-20369000Y4482000D01*
X-20395000Y4415000D01*
X-20429000Y4337000D01*
X-20481000Y4264000D01*
X-20532000Y4203000D01*
X-20593000Y4152000D01*
X-20666000Y4100000D01*
X-20742000Y4067000D01*
X-20744000Y4066000D01*
X-20811000Y4040000D01*
X-20905000Y4024000D01*
X-20965000Y4020000D01*
X-21933000Y4020000D01*
X-21993000Y4024000D01*
X-22085000Y4040000D01*
X-22132000Y4058000D01*
X-22162000Y4069000D01*
X-22165000Y4070000D01*
X-22164000Y4070000D01*
X-22229000Y4099000D01*
X-22305000Y4150000D01*
X-22307000Y4152000D01*
X-22363000Y4204000D01*
X-22419000Y4264000D01*
X-22466000Y4337000D01*
X-22504000Y4413000D01*
X-22527000Y4485000D01*
X-22545000Y4562000D01*
X-22549000Y4636000D01*
X-28000000Y4636000D01*
X-28000000Y-20000D01*
X16451000Y-20000D01*
X16451000Y20000D01*
X16461000Y57000D01*
X16481000Y91000D01*
X16509000Y119000D01*
X16543000Y139000D01*
X16580000Y149000D01*
X16620000Y149000D01*
X16657000Y139000D01*
X16691000Y119000D01*
X16719000Y91000D01*
X16739000Y57000D01*
X16749000Y20000D01*
X16749000Y-20000D01*
X16739000Y-57000D01*
X16719000Y-91000D01*
X16691000Y-119000D01*
X16657000Y-139000D01*
X16620000Y-149000D01*
X16580000Y-149000D01*
X16543000Y-139000D01*
X16509000Y-119000D01*
X16481000Y-91000D01*
X16461000Y-57000D01*
X16451000Y-20000D01*
X-28000000Y-20000D01*
X-28000000Y-2415000D01*
X-14916000Y-2415000D01*
X-14916000Y-207000D01*
X-12708000Y-207000D01*
X-12708000Y-653000D01*
X-12487000Y-432000D01*
X-12236000Y-287000D01*
X-12234000Y-286000D01*
X-12233000Y-286000D01*
X-11959000Y-212000D01*
X-11665000Y-212000D01*
X-11391000Y-286000D01*
X-11390000Y-286000D01*
X-11388000Y-287000D01*
X-11137000Y-432000D01*
X-10933000Y-636000D01*
X-10883000Y-723000D01*
X-10812000Y-844000D01*
X-10741000Y-723000D01*
X-10691000Y-636000D01*
X-10487000Y-432000D01*
X-10236000Y-287000D01*
X-10234000Y-286000D01*
X-10233000Y-286000D01*
X-9959000Y-212000D01*
X-9665000Y-212000D01*
X-9391000Y-286000D01*
X-9390000Y-286000D01*
X-9388000Y-287000D01*
X-9137000Y-432000D01*
X-8933000Y-636000D01*
X-8788000Y-887000D01*
X-8761000Y-987000D01*
X-8713000Y-1164000D01*
X-8713000Y-1358000D01*
X-8159000Y-1358000D01*
X-8159000Y-1265000D01*
X-8135000Y-1177000D01*
X-8090000Y-1098000D01*
X-8025000Y-1033000D01*
X-7946000Y-987000D01*
X-7858000Y-964000D01*
X-7766000Y-964000D01*
X-7678000Y-987000D01*
X-7599000Y-1033000D01*
X-7534000Y-1098000D01*
X-7489000Y-1177000D01*
X-7465000Y-1265000D01*
X-7465000Y-1358000D01*
X-7488000Y-1444000D01*
X-7508000Y-1478000D01*
X-7534000Y-1524000D01*
X-7599000Y-1588000D01*
X-7678000Y-1634000D01*
X-7679000Y-1634000D01*
X-7680000Y-1635000D01*
X-7765000Y-1658000D01*
X-7859000Y-1658000D01*
X-7944000Y-1635000D01*
X-7945000Y-1634000D01*
X-7946000Y-1634000D01*
X-8025000Y-1588000D01*
X-8090000Y-1524000D01*
X-8116000Y-1478000D01*
X-8136000Y-1444000D01*
X-8159000Y-1358000D01*
X-8713000Y-1358000D01*
X-8713000Y-1458000D01*
X-8787000Y-1733000D01*
X-8787000Y-1734000D01*
X-8788000Y-1736000D01*
X-8933000Y-1984000D01*
X-9136000Y-2190000D01*
X-9137000Y-2191000D01*
X-9389000Y-2336000D01*
X-9665000Y-2410000D01*
X-9959000Y-2410000D01*
X-10235000Y-2336000D01*
X-10487000Y-2191000D01*
X-10690000Y-1985000D01*
X-10812000Y-1778000D01*
X-10934000Y-1985000D01*
X-11137000Y-2191000D01*
X-11389000Y-2336000D01*
X-11665000Y-2410000D01*
X-11959000Y-2410000D01*
X-12235000Y-2336000D01*
X-12487000Y-2191000D01*
X-12708000Y-1968000D01*
X-12708000Y-2415000D01*
X-14916000Y-2415000D01*
X-28000000Y-2415000D01*
X-28000000Y-5864000D01*
X4766000Y-5864000D01*
X4766000Y-5656000D01*
X4819000Y-5454000D01*
X4926000Y-5269000D01*
X4927000Y-5268000D01*
X5076000Y-5120000D01*
X5254000Y-5017000D01*
X5454000Y-4962000D01*
X5673000Y-4962000D01*
X5873000Y-5017000D01*
X6051000Y-5120000D01*
X6200000Y-5268000D01*
X6201000Y-5269000D01*
X6308000Y-5454000D01*
X6361000Y-5656000D01*
X6361000Y-5835000D01*
X7294000Y-5835000D01*
X7294000Y-5627000D01*
X7347000Y-5423000D01*
X7349000Y-5417000D01*
X7453000Y-5243000D01*
X7602000Y-5093000D01*
X7786000Y-4987000D01*
X7984000Y-4934000D01*
X8199000Y-4934000D01*
X8397000Y-4987000D01*
X8580000Y-5092000D01*
X8728000Y-5240000D01*
X8745000Y-5268000D01*
X8835000Y-5423000D01*
X8889000Y-5627000D01*
X8889000Y-5835000D01*
X8836000Y-6037000D01*
X8729000Y-6222000D01*
X8579000Y-6371000D01*
X8569000Y-6377000D01*
X8446031Y-6448000D01*
X12993000Y-6448000D01*
X12993000Y-6406000D01*
X13000000Y-6377000D01*
X13002000Y-6374000D01*
X13003000Y-6369000D01*
X13022000Y-6335000D01*
X13050000Y-6307000D01*
X13083000Y-6288000D01*
X13121000Y-6277000D01*
X13162000Y-6277000D01*
X13200000Y-6288000D01*
X13232000Y-6306000D01*
X13259000Y-6334000D01*
X13280000Y-6369000D01*
X13288000Y-6399000D01*
X13290000Y-6407000D01*
X13290000Y-6446000D01*
X13280000Y-6484000D01*
X13260000Y-6518000D01*
X13233000Y-6545000D01*
X13199000Y-6565000D01*
X13161000Y-6575000D01*
X13122000Y-6575000D01*
X13084000Y-6565000D01*
X13050000Y-6545000D01*
X13022000Y-6518000D01*
X13003000Y-6484000D01*
X13002000Y-6481000D01*
X13001000Y-6479000D01*
X12993000Y-6448000D01*
X8446031Y-6448000D01*
X8401000Y-6474000D01*
X8201000Y-6529000D01*
X7982000Y-6529000D01*
X7782000Y-6474000D01*
X7653000Y-6399000D01*
X7603000Y-6370000D01*
X7455000Y-6222000D01*
X7348000Y-6040000D01*
X7294000Y-5835000D01*
X6361000Y-5835000D01*
X6361000Y-5864000D01*
X6307000Y-6068000D01*
X6201000Y-6250000D01*
X6052000Y-6399000D01*
X6036000Y-6408000D01*
X5869000Y-6504000D01*
X5671000Y-6557000D01*
X5456000Y-6557000D01*
X5258000Y-6504000D01*
X5091000Y-6408000D01*
X5075000Y-6399000D01*
X4926000Y-6250000D01*
X4820000Y-6068000D01*
X4766000Y-5864000D01*
X-28000000Y-5864000D01*
X-28000000Y-6083000D01*
X3420000Y-6083000D01*
X3420000Y-6044000D01*
X3430000Y-6006000D01*
X3450000Y-5972000D01*
X3477000Y-5944000D01*
X3511000Y-5925000D01*
X3514000Y-5924000D01*
X3516000Y-5923000D01*
X3547000Y-5915000D01*
X3590000Y-5915000D01*
X3621000Y-5923000D01*
X3623000Y-5924000D01*
X3626000Y-5925000D01*
X3660000Y-5944000D01*
X3688000Y-5972000D01*
X3707000Y-6005000D01*
X3718000Y-6044000D01*
X3718000Y-6084000D01*
X3707000Y-6122000D01*
X3689000Y-6154000D01*
X3661000Y-6181000D01*
X3660000Y-6182000D01*
X3626000Y-6202000D01*
X3588000Y-6212000D01*
X3549000Y-6212000D01*
X3511000Y-6202000D01*
X3477000Y-6182000D01*
X3450000Y-6155000D01*
X3430000Y-6121000D01*
X3420000Y-6083000D01*
X-28000000Y-6083000D01*
X-28000000Y-7098000D01*
X-14420000Y-7098000D01*
X-14420000Y-6890000D01*
X-14366000Y-6685000D01*
X-14259000Y-6504000D01*
X-14258000Y-6502000D01*
X-14111000Y-6355000D01*
X-13932000Y-6251000D01*
X-13732000Y-6196000D01*
X-13513000Y-6196000D01*
X-13313000Y-6251000D01*
X-13135000Y-6354000D01*
X-12986000Y-6502000D01*
X-12985000Y-6503000D01*
X-12878000Y-6688000D01*
X-12825000Y-6890000D01*
X-12825000Y-7098000D01*
X-12879000Y-7302000D01*
X-12985000Y-7484000D01*
X-13134000Y-7633000D01*
X-13317000Y-7738000D01*
X-13515000Y-7791000D01*
X-13730000Y-7791000D01*
X-13928000Y-7738000D01*
X-14112000Y-7632000D01*
X-14261000Y-7482000D01*
X-14365000Y-7308000D01*
X-14366000Y-7306000D01*
X-14366000Y-7305000D01*
X-14420000Y-7098000D01*
X-28000000Y-7098000D01*
X-28000000Y-8607000D01*
X12731000Y-8607000D01*
X12731000Y-8392000D01*
X12784000Y-8194000D01*
X12888000Y-8012000D01*
X13038000Y-7862000D01*
X13220000Y-7756000D01*
X13424000Y-7702000D01*
X13632000Y-7702000D01*
X13834000Y-7755000D01*
X14019000Y-7862000D01*
X14168000Y-8012000D01*
X14271000Y-8190000D01*
X14326000Y-8390000D01*
X14326000Y-8609000D01*
X14271000Y-8809000D01*
X14168000Y-8987000D01*
X14020000Y-9136000D01*
X14019000Y-9137000D01*
X13834000Y-9244000D01*
X13632000Y-9297000D01*
X13424000Y-9297000D01*
X13220000Y-9243000D01*
X13038000Y-9137000D01*
X12889000Y-8988000D01*
X12784000Y-8805000D01*
X12731000Y-8607000D01*
X-28000000Y-8607000D01*
X-28000000Y-11277000D01*
X-1772000Y-11277000D01*
X-1772000Y-11234000D01*
X-1764000Y-11203000D01*
X-1763000Y-11201000D01*
X-1762000Y-11198000D01*
X-1743000Y-11164000D01*
X-1715000Y-11137000D01*
X-1681000Y-11117000D01*
X-1643000Y-11107000D01*
X-1604000Y-11107000D01*
X-1566000Y-11117000D01*
X-1532000Y-11137000D01*
X-1504000Y-11164000D01*
X-1485000Y-11198000D01*
X-1484000Y-11201000D01*
X-1483000Y-11203000D01*
X-1475000Y-11234000D01*
X-1475000Y-11264000D01*
X11401000Y-11264000D01*
X11401000Y-11045000D01*
X11456000Y-10845000D01*
X11559000Y-10667000D01*
X11708000Y-10517000D01*
X11893000Y-10410000D01*
X12095000Y-10357000D01*
X12303000Y-10357000D01*
X12507000Y-10411000D01*
X12689000Y-10517000D01*
X12839000Y-10667000D01*
X12943000Y-10849000D01*
X12996000Y-11047000D01*
X12996000Y-11262000D01*
X12943000Y-11460000D01*
X12837000Y-11644000D01*
X12687000Y-11793000D01*
X12513000Y-11897000D01*
X12511000Y-11898000D01*
X12510000Y-11898000D01*
X12303000Y-11952000D01*
X12095000Y-11952000D01*
X11890000Y-11898000D01*
X11708000Y-11791000D01*
X11560000Y-11643000D01*
X11456000Y-11464000D01*
X11401000Y-11264000D01*
X-1475000Y-11264000D01*
X-1475000Y-11277000D01*
X-1483000Y-11308000D01*
X-1484000Y-11310000D01*
X-1485000Y-11313000D01*
X-1504000Y-11347000D01*
X-1532000Y-11375000D01*
X-1566000Y-11394000D01*
X-1569000Y-11395000D01*
X-1571000Y-11396000D01*
X-1602000Y-11404000D01*
X-1645000Y-11404000D01*
X-1676000Y-11396000D01*
X-1678000Y-11395000D01*
X-1681000Y-11394000D01*
X-1715000Y-11375000D01*
X-1743000Y-11347000D01*
X-1762000Y-11313000D01*
X-1763000Y-11310000D01*
X-1764000Y-11308000D01*
X-1772000Y-11277000D01*
X-28000000Y-11277000D01*
X-28000000Y-15020000D01*
X-13549000Y-15020000D01*
X-13549000Y-14980000D01*
X-13539000Y-14943000D01*
X-13519000Y-14909000D01*
X-13491000Y-14881000D01*
X-13457000Y-14861000D01*
X-13420000Y-14851000D01*
X-13380000Y-14851000D01*
X-13343000Y-14861000D01*
X-13309000Y-14881000D01*
X-13281000Y-14909000D01*
X-13261000Y-14943000D01*
X-13251000Y-14980000D01*
X-13251000Y-15020000D01*
X-13261000Y-15057000D01*
X-13281000Y-15091000D01*
X-13309000Y-15119000D01*
X-13343000Y-15139000D01*
X-13380000Y-15149000D01*
X-13420000Y-15149000D01*
X-13457000Y-15139000D01*
X-13491000Y-15119000D01*
X-13519000Y-15091000D01*
X-13539000Y-15057000D01*
X-13549000Y-15020000D01*
X-28000000Y-15020000D01*
X-28000000Y-16511000D01*
X21032000Y-16511000D01*
X21032000Y-15644000D01*
X21255000Y-14814000D01*
X21687000Y-14066000D01*
X22297000Y-13456000D01*
X23045000Y-13024000D01*
X23875000Y-12801000D01*
X24742000Y-12801000D01*
X25572000Y-13024000D01*
X26320000Y-13456000D01*
X26930000Y-14066000D01*
X27362000Y-14814000D01*
X27584000Y-15644000D01*
X27584000Y-16511000D01*
X27362000Y-17341000D01*
X26930000Y-18089000D01*
X26320000Y-18699000D01*
X25572000Y-19131000D01*
X24742000Y-19354000D01*
X23875000Y-19354000D01*
X23045000Y-19131000D01*
X22297000Y-18699000D01*
X21687000Y-18089000D01*
X21255000Y-17341000D01*
X21032000Y-16511000D01*
X-28000000Y-16511000D01*
X-28000000Y-20007000D01*
X-2552000Y-20007000D01*
X-2552000Y-19791000D01*
X-2497000Y-19590000D01*
X-2393000Y-19410000D01*
X-2243000Y-19260000D01*
X-2063000Y-19156000D01*
X-1862000Y-19101000D01*
X-1646000Y-19101000D01*
X-1445000Y-19156000D01*
X-1443000Y-19157000D01*
X-1266000Y-19260000D01*
X-1159284Y-19366000D01*
X17024000Y-19366000D01*
X17024000Y-19327000D01*
X17034000Y-19289000D01*
X17051000Y-19261000D01*
X17055000Y-19254000D01*
X17082000Y-19226000D01*
X17114000Y-19208000D01*
X17152000Y-19197000D01*
X17193000Y-19197000D01*
X17231000Y-19208000D01*
X17264000Y-19227000D01*
X17292000Y-19255000D01*
X17311000Y-19288000D01*
X17322000Y-19327000D01*
X17322000Y-19367000D01*
X17311000Y-19405000D01*
X17293000Y-19437000D01*
X17265000Y-19464000D01*
X17264000Y-19465000D01*
X17230000Y-19485000D01*
X17192000Y-19495000D01*
X17153000Y-19495000D01*
X17115000Y-19485000D01*
X17081000Y-19465000D01*
X17054000Y-19438000D01*
X17034000Y-19404000D01*
X17024000Y-19366000D01*
X-1159284Y-19366000D01*
X-1117000Y-19408000D01*
X-1010000Y-19593000D01*
X-957000Y-19795000D01*
X-957000Y-20003000D01*
X-1010000Y-20205000D01*
X-1048173Y-20271000D01*
X535000Y-20271000D01*
X535000Y-20063000D01*
X588000Y-19861000D01*
X695000Y-19676000D01*
X844000Y-19528000D01*
X1021000Y-19425000D01*
X1023000Y-19424000D01*
X1224000Y-19369000D01*
X1440000Y-19369000D01*
X1641000Y-19424000D01*
X1821000Y-19528000D01*
X1971000Y-19678000D01*
X2075000Y-19858000D01*
X2130000Y-20059000D01*
X2130000Y-20275000D01*
X2075000Y-20476000D01*
X2074000Y-20478000D01*
X1971000Y-20655000D01*
X1823000Y-20804000D01*
X1638000Y-20911000D01*
X1436000Y-20964000D01*
X1228000Y-20964000D01*
X1024000Y-20910000D01*
X842000Y-20804000D01*
X695000Y-20657000D01*
X589000Y-20475000D01*
X535000Y-20271000D01*
X-1048173Y-20271000D01*
X-1117000Y-20390000D01*
X-1266000Y-20538000D01*
X-1446000Y-20642000D01*
X-1650000Y-20696000D01*
X-1858000Y-20696000D01*
X-2060000Y-20643000D01*
X-2062000Y-20642000D01*
X-2243000Y-20538000D01*
X-2393000Y-20388000D01*
X-2497000Y-20208000D01*
X-2552000Y-20007000D01*
X-28000000Y-20007000D01*
X-28000000Y-21272000D01*
X3560000Y-21272000D01*
X3560000Y-21053000D01*
X3615000Y-20853000D01*
X3706000Y-20696000D01*
X3718000Y-20675000D01*
X3867000Y-20525000D01*
X4052000Y-20418000D01*
X4254000Y-20365000D01*
X4462000Y-20365000D01*
X4664000Y-20418000D01*
X4849000Y-20525000D01*
X4998000Y-20675000D01*
X5102000Y-20857000D01*
X5109495Y-20885000D01*
X9736000Y-20885000D01*
X9736000Y-20841000D01*
X9745000Y-20809000D01*
X9746000Y-20806000D01*
X9748000Y-20803000D01*
X9767000Y-20771000D01*
X9794000Y-20743000D01*
X9824000Y-20725000D01*
X9826000Y-20724000D01*
X9827000Y-20724000D01*
X9865000Y-20714000D01*
X9904000Y-20714000D01*
X9942000Y-20724000D01*
X9976000Y-20744000D01*
X10004000Y-20772000D01*
X10023000Y-20806000D01*
X10034000Y-20843000D01*
X10034000Y-20883000D01*
X10023000Y-20920000D01*
X10004000Y-20954000D01*
X9976000Y-20982000D01*
X9942000Y-21002000D01*
X9904000Y-21012000D01*
X9865000Y-21012000D01*
X9827000Y-21002000D01*
X9826000Y-21002000D01*
X9824000Y-21001000D01*
X9794000Y-20983000D01*
X9793000Y-20982000D01*
X9766000Y-20954000D01*
X9746000Y-20920000D01*
X9745000Y-20918000D01*
X9745000Y-20917000D01*
X9736000Y-20885000D01*
X5109495Y-20885000D01*
X5155000Y-21055000D01*
X5155000Y-21270000D01*
X5102000Y-21468000D01*
X4998000Y-21650000D01*
X4850000Y-21799000D01*
X4849000Y-21800000D01*
X4664000Y-21907000D01*
X4462000Y-21960000D01*
X4254000Y-21960000D01*
X4052000Y-21907000D01*
X3867000Y-21800000D01*
X3866000Y-21799000D01*
X3718000Y-21650000D01*
X3615000Y-21472000D01*
X3560000Y-21272000D01*
X-28000000Y-21272000D01*
X-28000000Y-25978000D01*
X-17548000Y-25978000D01*
X-17548000Y-25111000D01*
X-17325000Y-24281000D01*
X-16893000Y-23533000D01*
X-16283000Y-22923000D01*
X-15535000Y-22491000D01*
X-14705000Y-22269000D01*
X-13838000Y-22269000D01*
X-13008000Y-22491000D01*
X-12260000Y-22923000D01*
X-11650000Y-23533000D01*
X-11218000Y-24281000D01*
X-10996000Y-25111000D01*
X-10996000Y-25978000D01*
X-11218000Y-26808000D01*
X-11650000Y-27556000D01*
X-12260000Y-28166000D01*
X-13007000Y-28598000D01*
X-13009000Y-28599000D01*
X-13010000Y-28599000D01*
X-13838000Y-28821000D01*
X-14705000Y-28821000D01*
X-15533000Y-28599000D01*
X-15534000Y-28599000D01*
X-15536000Y-28598000D01*
X-16283000Y-28166000D01*
X-16893000Y-27556000D01*
X-17325000Y-26808000D01*
X-17548000Y-25978000D01*
X-28000000Y-25978000D01*
X-28000000Y-29600000D01*
X29200000Y-29600000D01*
X29200000Y29600000D01*
G37*
%TD.AperFunction*%
%TD*%
M02*
