%TF.GenerationSoftware,Flux,Pcbnew,7.0.6-7.0.6~ubuntu20.04.1*%
%TF.CreationDate,2023-09-03T02:38:32+00:00*%
%TF.ProjectId,input,696e7075-742e-46b6-9963-61645f706362,rev?*%
%TF.SameCoordinates,Original*%
%TF.FileFunction,Copper,L4,Bot*%
%TF.FilePolarity,Positive*%
%FSLAX46Y46*%
G04 Gerber Fmt 4.6, Leading zero omitted, Abs format (unit mm)*
G04 Filename: preprototiposecadosv3-05f6*
G04 Build it with Flux! Visit our site at: https://www.flux.ai (PCBNEW 7.0.6-7.0.6~ubuntu20.04.1) date 2023-09-03 02:38:32*
%MOMM*%
%LPD*%
G01*
G04 APERTURE LIST*
G04 Aperture macros list*
%AMFreePoly0*
4,1,1005,0.469605,0.874998,0.470410,0.874990,0.471215,0.874978,0.472020,0.874960,0.472825,0.874938,0.473629,0.874911,0.474433,0.874879,0.475238,0.874842,0.476042,0.874800,0.476845,0.874753,0.477649,0.874701,0.478452,0.874645,0.479254,0.874583,0.480057,0.874516,0.480858,0.874445,0.481660,0.874368,0.482461,0.874287,0.483261,0.874201,0.484061,0.874109,0.484860,0.874013,
0.485659,0.873912,0.486457,0.873806,0.487254,0.873696,0.488051,0.873580,0.488847,0.873459,0.489642,0.873334,0.490437,0.873204,0.491230,0.873068,0.492023,0.872928,0.492815,0.872783,0.493606,0.872634,0.494396,0.872479,0.495185,0.872320,0.495973,0.872155,0.496760,0.871986,0.497546,0.871812,0.498331,0.871633,0.499115,0.871450,0.499897,0.871261,0.500679,0.871068,
0.501459,0.870870,0.502238,0.870667,0.503016,0.870460,0.503793,0.870247,0.504568,0.870030,0.505342,0.869808,0.506114,0.869582,0.506885,0.869351,0.507655,0.869115,0.508423,0.868874,0.509190,0.868628,0.509955,0.868378,0.510719,0.868123,0.511481,0.867864,0.513000,0.867331,0.513757,0.867057,0.514513,0.866779,0.515266,0.866496,0.516018,0.866209,0.516768,0.865917,
0.517517,0.865620,0.518263,0.865319,0.519008,0.865013,0.519751,0.864703,0.520492,0.864388,0.521231,0.864068,0.521968,0.863744,0.522703,0.863416,0.523436,0.863083,0.524166,0.862745,0.524895,0.862403,0.525622,0.862057,0.526346,0.861706,0.527069,0.861351,0.527789,0.860991,0.528507,0.860627,0.529223,0.860258,0.529936,0.859885,0.530647,0.859508,0.531356,0.859126,
0.532063,0.858740,0.532767,0.858350,0.533468,0.857955,0.534167,0.857556,0.534864,0.857153,0.535559,0.856746,0.536250,0.856334,0.536940,0.855918,0.537626,0.855498,0.538992,0.854645,0.539670,0.854212,0.540347,0.853775,0.541020,0.853334,0.541691,0.852889,0.542359,0.852440,0.543024,0.851986,0.543686,0.851529,0.544346,0.851067,0.545003,0.850602,0.545657,0.850132,
0.546308,0.849658,0.546956,0.849181,0.547601,0.848699,0.548243,0.848214,0.548882,0.847724,0.549518,0.847231,0.550152,0.846734,0.550782,0.846233,0.551409,0.845728,0.552032,0.845219,0.552653,0.844706,0.553271,0.844190,0.553885,0.843670,0.554496,0.843146,0.555104,0.842618,0.555709,0.842087,0.556310,0.841552,0.556909,0.841013,0.558095,0.839924,0.558683,0.839375,
0.559268,0.838821,0.559849,0.838264,0.560427,0.837704,0.561001,0.837140,0.561572,0.836572,0.562140,0.836001,0.562704,0.835427,0.563264,0.834849,0.563821,0.834268,0.564375,0.833683,0.564924,0.833095,0.566013,0.831909,0.566552,0.831310,0.567087,0.830709,0.567618,0.830104,0.568146,0.829496,0.568670,0.828885,0.569190,0.828271,0.569706,0.827653,0.570219,0.827032,
0.570728,0.826409,0.571233,0.825782,0.571734,0.825152,0.572231,0.824518,0.572724,0.823882,0.573214,0.823243,0.573699,0.822601,0.574181,0.821956,0.574658,0.821308,0.575132,0.820657,0.575602,0.820003,0.576067,0.819346,0.576529,0.818686,0.576986,0.818024,0.577440,0.817359,0.577889,0.816691,0.578334,0.816020,0.578775,0.815347,0.579212,0.814670,0.579645,0.813992,
0.580498,0.812626,0.580918,0.811940,0.581334,0.811250,0.581746,0.810559,0.582153,0.809864,0.582556,0.809167,0.582955,0.808468,0.583350,0.807767,0.583740,0.807063,0.584126,0.806356,0.584508,0.805647,0.584885,0.804936,0.585258,0.804223,0.585627,0.803507,0.585991,0.802789,0.586351,0.802069,0.586706,0.801346,0.587057,0.800622,0.587403,0.799895,0.587745,0.799166,
0.588083,0.798436,0.588416,0.797703,0.588744,0.796968,0.589068,0.796231,0.589388,0.795492,0.589703,0.794751,0.590013,0.794008,0.590319,0.793263,0.590620,0.792517,0.590917,0.791768,0.591209,0.791018,0.591496,0.790266,0.591779,0.789513,0.592057,0.788757,0.592331,0.788000,0.592864,0.786481,0.593123,0.785719,0.593378,0.784955,0.593628,0.784190,0.593874,0.783423,
0.594115,0.782655,0.594351,0.781885,0.594582,0.781114,0.594808,0.780342,0.595030,0.779568,0.595247,0.778793,0.595460,0.778016,0.595667,0.777238,0.595870,0.776459,0.596068,0.775679,0.596261,0.774897,0.596450,0.774115,0.596633,0.773331,0.596812,0.772546,0.596986,0.771760,0.597155,0.770973,0.597320,0.770185,0.597479,0.769396,0.597634,0.768606,0.597783,0.767815,
0.597928,0.767023,0.598068,0.766230,0.598204,0.765437,0.598334,0.764642,0.598459,0.763847,0.598580,0.763051,0.598696,0.762254,0.598806,0.761457,0.598912,0.760659,0.599013,0.759860,0.599109,0.759061,0.599201,0.758261,0.599287,0.757461,0.599368,0.756660,0.599445,0.755858,0.599516,0.755057,0.599583,0.754254,0.599645,0.753452,0.599701,0.752649,0.599753,0.751845,
0.599800,0.751042,0.599842,0.750238,0.599879,0.749433,0.599911,0.748629,0.599938,0.747825,0.599960,0.747020,0.599978,0.746215,0.599990,0.745410,0.599998,0.744605,0.600000,0.743800,0.600000,-0.743800,0.599998,-0.744605,0.599990,-0.745410,0.599978,-0.746215,0.599960,-0.747020,0.599938,-0.747825,0.599911,-0.748629,0.599879,-0.749433,0.599842,-0.750238,0.599800,-0.751042,
0.599753,-0.751845,0.599701,-0.752649,0.599645,-0.753452,0.599583,-0.754254,0.599516,-0.755057,0.599445,-0.755858,0.599368,-0.756660,0.599287,-0.757461,0.599201,-0.758261,0.599109,-0.759061,0.599013,-0.759860,0.598912,-0.760659,0.598806,-0.761457,0.598696,-0.762254,0.598580,-0.763051,0.598459,-0.763847,0.598334,-0.764642,0.598204,-0.765437,0.598068,-0.766230,0.597928,-0.767023,
0.597783,-0.767815,0.597634,-0.768606,0.597479,-0.769396,0.597320,-0.770185,0.597155,-0.770973,0.596986,-0.771760,0.596812,-0.772546,0.596633,-0.773331,0.596450,-0.774115,0.596261,-0.774897,0.596068,-0.775679,0.595870,-0.776459,0.595667,-0.777238,0.595460,-0.778016,0.595247,-0.778793,0.595030,-0.779568,0.594808,-0.780342,0.594582,-0.781114,0.594351,-0.781885,0.594115,-0.782655,
0.593874,-0.783423,0.593628,-0.784190,0.593378,-0.784955,0.593123,-0.785719,0.592864,-0.786481,0.592331,-0.788000,0.592057,-0.788757,0.591779,-0.789513,0.591496,-0.790266,0.591209,-0.791018,0.590917,-0.791768,0.590620,-0.792517,0.590319,-0.793263,0.590013,-0.794008,0.589703,-0.794751,0.589388,-0.795492,0.589068,-0.796231,0.588744,-0.796968,0.588416,-0.797703,0.588083,-0.798436,
0.587745,-0.799166,0.587403,-0.799895,0.587057,-0.800622,0.586706,-0.801346,0.586351,-0.802069,0.585991,-0.802789,0.585627,-0.803507,0.585258,-0.804223,0.584885,-0.804936,0.584508,-0.805647,0.584126,-0.806356,0.583740,-0.807063,0.583350,-0.807767,0.582955,-0.808468,0.582556,-0.809167,0.582153,-0.809864,0.581746,-0.810559,0.581334,-0.811250,0.580918,-0.811940,0.580498,-0.812626,
0.579645,-0.813992,0.579212,-0.814670,0.578775,-0.815347,0.578334,-0.816020,0.577889,-0.816691,0.577440,-0.817359,0.576986,-0.818024,0.576529,-0.818686,0.576067,-0.819346,0.575602,-0.820003,0.575132,-0.820657,0.574658,-0.821308,0.574181,-0.821956,0.573699,-0.822601,0.573214,-0.823243,0.572724,-0.823882,0.572231,-0.824518,0.571734,-0.825152,0.571233,-0.825782,0.570728,-0.826409,
0.570219,-0.827032,0.569706,-0.827653,0.569190,-0.828271,0.568670,-0.828885,0.568146,-0.829496,0.567618,-0.830104,0.567087,-0.830709,0.566552,-0.831310,0.566013,-0.831909,0.564924,-0.833095,0.564375,-0.833683,0.563821,-0.834268,0.563264,-0.834849,0.562704,-0.835427,0.562140,-0.836001,0.561572,-0.836572,0.561001,-0.837140,0.560427,-0.837704,0.559849,-0.838264,0.559268,-0.838821,
0.558683,-0.839375,0.558095,-0.839924,0.556909,-0.841013,0.556310,-0.841552,0.555709,-0.842087,0.555104,-0.842618,0.554496,-0.843146,0.553885,-0.843670,0.553271,-0.844190,0.552653,-0.844706,0.552032,-0.845219,0.551409,-0.845728,0.550782,-0.846233,0.550152,-0.846734,0.549518,-0.847231,0.548882,-0.847724,0.548243,-0.848214,0.547601,-0.848699,0.546956,-0.849181,0.546308,-0.849658,
0.545657,-0.850132,0.545003,-0.850602,0.544346,-0.851067,0.543686,-0.851529,0.543024,-0.851986,0.542359,-0.852440,0.541691,-0.852889,0.541020,-0.853334,0.540347,-0.853775,0.539670,-0.854212,0.538992,-0.854645,0.537626,-0.855498,0.536940,-0.855918,0.536250,-0.856334,0.535559,-0.856746,0.534864,-0.857153,0.534167,-0.857556,0.533468,-0.857955,0.532767,-0.858350,0.532063,-0.858740,
0.531356,-0.859126,0.530647,-0.859508,0.529936,-0.859885,0.529223,-0.860258,0.528507,-0.860627,0.527789,-0.860991,0.527069,-0.861351,0.526346,-0.861706,0.525622,-0.862057,0.524895,-0.862403,0.524166,-0.862745,0.523436,-0.863083,0.522703,-0.863416,0.521968,-0.863744,0.521231,-0.864068,0.520492,-0.864388,0.519751,-0.864703,0.519008,-0.865013,0.518263,-0.865319,0.517517,-0.865620,
0.516768,-0.865917,0.516018,-0.866209,0.515266,-0.866496,0.514513,-0.866779,0.513757,-0.867057,0.513000,-0.867331,0.511481,-0.867864,0.510719,-0.868123,0.509955,-0.868378,0.509190,-0.868628,0.508423,-0.868874,0.507655,-0.869115,0.506885,-0.869351,0.506114,-0.869582,0.505342,-0.869808,0.504568,-0.870030,0.503793,-0.870247,0.503016,-0.870460,0.502238,-0.870667,0.501459,-0.870870,
0.500679,-0.871068,0.499897,-0.871261,0.499115,-0.871450,0.498331,-0.871633,0.497546,-0.871812,0.496760,-0.871986,0.495973,-0.872155,0.495185,-0.872320,0.494396,-0.872479,0.493606,-0.872634,0.492815,-0.872783,0.492023,-0.872928,0.491230,-0.873068,0.490437,-0.873204,0.489642,-0.873334,0.488847,-0.873459,0.488051,-0.873580,0.487254,-0.873696,0.486457,-0.873806,0.485659,-0.873912,
0.484860,-0.874013,0.484061,-0.874109,0.483261,-0.874201,0.482461,-0.874287,0.481660,-0.874368,0.480858,-0.874445,0.480057,-0.874516,0.479254,-0.874583,0.478452,-0.874645,0.477649,-0.874701,0.476845,-0.874753,0.476042,-0.874800,0.475238,-0.874842,0.474433,-0.874879,0.473629,-0.874911,0.472825,-0.874938,0.472020,-0.874960,0.471215,-0.874978,0.470410,-0.874990,0.469605,-0.874998,
0.468800,-0.875000,-0.468800,-0.875000,-0.469605,-0.874998,-0.470410,-0.874990,-0.471215,-0.874978,-0.472020,-0.874960,-0.472825,-0.874938,-0.473629,-0.874911,-0.474433,-0.874879,-0.475238,-0.874842,-0.476042,-0.874800,-0.476845,-0.874753,-0.477649,-0.874701,-0.478452,-0.874645,-0.479254,-0.874583,-0.480057,-0.874516,-0.480858,-0.874445,-0.481660,-0.874368,-0.482461,-0.874287,-0.483261,-0.874201,
-0.484061,-0.874109,-0.484860,-0.874013,-0.485659,-0.873912,-0.486457,-0.873806,-0.487254,-0.873696,-0.488051,-0.873580,-0.488847,-0.873459,-0.489642,-0.873334,-0.490437,-0.873204,-0.491230,-0.873068,-0.492023,-0.872928,-0.492815,-0.872783,-0.493606,-0.872634,-0.494396,-0.872479,-0.495185,-0.872320,-0.495973,-0.872155,-0.496760,-0.871986,-0.497546,-0.871812,-0.498331,-0.871633,-0.499115,-0.871450,
-0.499897,-0.871261,-0.500679,-0.871068,-0.501459,-0.870870,-0.502238,-0.870667,-0.503016,-0.870460,-0.503793,-0.870247,-0.504568,-0.870030,-0.505342,-0.869808,-0.506114,-0.869582,-0.506885,-0.869351,-0.507655,-0.869115,-0.508423,-0.868874,-0.509190,-0.868628,-0.509955,-0.868378,-0.510719,-0.868123,-0.511481,-0.867864,-0.513000,-0.867331,-0.513757,-0.867057,-0.514513,-0.866779,-0.515266,-0.866496,
-0.516018,-0.866209,-0.516768,-0.865917,-0.517517,-0.865620,-0.518263,-0.865319,-0.519008,-0.865013,-0.519751,-0.864703,-0.520492,-0.864388,-0.521231,-0.864068,-0.521968,-0.863744,-0.522703,-0.863416,-0.523436,-0.863083,-0.524166,-0.862745,-0.524895,-0.862403,-0.525622,-0.862057,-0.526346,-0.861706,-0.527069,-0.861351,-0.527789,-0.860991,-0.528507,-0.860627,-0.529223,-0.860258,-0.529936,-0.859885,
-0.530647,-0.859508,-0.531356,-0.859126,-0.532063,-0.858740,-0.532767,-0.858350,-0.533468,-0.857955,-0.534167,-0.857556,-0.534864,-0.857153,-0.535559,-0.856746,-0.536250,-0.856334,-0.536940,-0.855918,-0.537626,-0.855498,-0.538992,-0.854645,-0.539670,-0.854212,-0.540347,-0.853775,-0.541020,-0.853334,-0.541691,-0.852889,-0.542359,-0.852440,-0.543024,-0.851986,-0.543686,-0.851529,-0.544346,-0.851067,
-0.545003,-0.850602,-0.545657,-0.850132,-0.546308,-0.849658,-0.546956,-0.849181,-0.547601,-0.848699,-0.548243,-0.848214,-0.548882,-0.847724,-0.549518,-0.847231,-0.550152,-0.846734,-0.550782,-0.846233,-0.551409,-0.845728,-0.552032,-0.845219,-0.552653,-0.844706,-0.553271,-0.844190,-0.553885,-0.843670,-0.554496,-0.843146,-0.555104,-0.842618,-0.555709,-0.842087,-0.556310,-0.841552,-0.556909,-0.841013,
-0.558095,-0.839924,-0.558683,-0.839375,-0.559268,-0.838821,-0.559849,-0.838264,-0.560427,-0.837704,-0.561001,-0.837140,-0.561572,-0.836572,-0.562140,-0.836001,-0.562704,-0.835427,-0.563264,-0.834849,-0.563821,-0.834268,-0.564375,-0.833683,-0.564924,-0.833095,-0.566013,-0.831909,-0.566552,-0.831310,-0.567087,-0.830709,-0.567618,-0.830104,-0.568146,-0.829496,-0.568670,-0.828885,-0.569190,-0.828271,
-0.569706,-0.827653,-0.570219,-0.827032,-0.570728,-0.826409,-0.571233,-0.825782,-0.571734,-0.825152,-0.572231,-0.824518,-0.572724,-0.823882,-0.573214,-0.823243,-0.573699,-0.822601,-0.574181,-0.821956,-0.574658,-0.821308,-0.575132,-0.820657,-0.575602,-0.820003,-0.576067,-0.819346,-0.576529,-0.818686,-0.576986,-0.818024,-0.577440,-0.817359,-0.577889,-0.816691,-0.578334,-0.816020,-0.578775,-0.815347,
-0.579212,-0.814670,-0.579645,-0.813992,-0.580498,-0.812626,-0.580918,-0.811940,-0.581334,-0.811250,-0.581746,-0.810559,-0.582153,-0.809864,-0.582556,-0.809167,-0.582955,-0.808468,-0.583350,-0.807767,-0.583740,-0.807063,-0.584126,-0.806356,-0.584508,-0.805647,-0.584885,-0.804936,-0.585258,-0.804223,-0.585627,-0.803507,-0.585991,-0.802789,-0.586351,-0.802069,-0.586706,-0.801346,-0.587057,-0.800622,
-0.587403,-0.799895,-0.587745,-0.799166,-0.588083,-0.798436,-0.588416,-0.797703,-0.588744,-0.796968,-0.589068,-0.796231,-0.589388,-0.795492,-0.589703,-0.794751,-0.590013,-0.794008,-0.590319,-0.793263,-0.590620,-0.792517,-0.590917,-0.791768,-0.591209,-0.791018,-0.591496,-0.790266,-0.591779,-0.789513,-0.592057,-0.788757,-0.592331,-0.788000,-0.592864,-0.786481,-0.593123,-0.785719,-0.593378,-0.784955,
-0.593628,-0.784190,-0.593874,-0.783423,-0.594115,-0.782655,-0.594351,-0.781885,-0.594582,-0.781114,-0.594808,-0.780342,-0.595030,-0.779568,-0.595247,-0.778793,-0.595460,-0.778016,-0.595667,-0.777238,-0.595870,-0.776459,-0.596068,-0.775679,-0.596261,-0.774897,-0.596450,-0.774115,-0.596633,-0.773331,-0.596812,-0.772546,-0.596986,-0.771760,-0.597155,-0.770973,-0.597320,-0.770185,-0.597479,-0.769396,
-0.597634,-0.768606,-0.597783,-0.767815,-0.597928,-0.767023,-0.598068,-0.766230,-0.598204,-0.765437,-0.598334,-0.764642,-0.598459,-0.763847,-0.598580,-0.763051,-0.598696,-0.762254,-0.598806,-0.761457,-0.598912,-0.760659,-0.599013,-0.759860,-0.599109,-0.759061,-0.599201,-0.758261,-0.599287,-0.757461,-0.599368,-0.756660,-0.599445,-0.755858,-0.599516,-0.755057,-0.599583,-0.754254,-0.599645,-0.753452,
-0.599701,-0.752649,-0.599753,-0.751845,-0.599800,-0.751042,-0.599842,-0.750238,-0.599879,-0.749433,-0.599911,-0.748629,-0.599938,-0.747825,-0.599960,-0.747020,-0.599978,-0.746215,-0.599990,-0.745410,-0.599998,-0.744605,-0.600000,-0.743800,-0.600000,0.743800,-0.599998,0.744605,-0.599990,0.745410,-0.599978,0.746215,-0.599960,0.747020,-0.599938,0.747825,-0.599911,0.748629,-0.599879,0.749433,
-0.599842,0.750238,-0.599800,0.751042,-0.599753,0.751845,-0.599701,0.752649,-0.599645,0.753452,-0.599583,0.754254,-0.599516,0.755057,-0.599445,0.755858,-0.599368,0.756660,-0.599287,0.757461,-0.599201,0.758261,-0.599109,0.759061,-0.599013,0.759860,-0.598912,0.760659,-0.598806,0.761457,-0.598696,0.762254,-0.598580,0.763051,-0.598459,0.763847,-0.598334,0.764642,-0.598204,0.765437,
-0.598068,0.766230,-0.597928,0.767023,-0.597783,0.767815,-0.597634,0.768606,-0.597479,0.769396,-0.597320,0.770185,-0.597155,0.770973,-0.596986,0.771760,-0.596812,0.772546,-0.596633,0.773331,-0.596450,0.774115,-0.596261,0.774897,-0.596068,0.775679,-0.595870,0.776459,-0.595667,0.777238,-0.595460,0.778016,-0.595247,0.778793,-0.595030,0.779568,-0.594808,0.780342,-0.594582,0.781114,
-0.594351,0.781885,-0.594115,0.782655,-0.593874,0.783423,-0.593628,0.784190,-0.593378,0.784955,-0.593123,0.785719,-0.592864,0.786481,-0.592331,0.788000,-0.592057,0.788757,-0.591779,0.789513,-0.591496,0.790266,-0.591209,0.791018,-0.590917,0.791768,-0.590620,0.792517,-0.590319,0.793263,-0.590013,0.794008,-0.589703,0.794751,-0.589388,0.795492,-0.589068,0.796231,-0.588744,0.796968,
-0.588416,0.797703,-0.588083,0.798436,-0.587745,0.799166,-0.587403,0.799895,-0.587057,0.800622,-0.586706,0.801346,-0.586351,0.802069,-0.585991,0.802789,-0.585627,0.803507,-0.585258,0.804223,-0.584885,0.804936,-0.584508,0.805647,-0.584126,0.806356,-0.583740,0.807063,-0.583350,0.807767,-0.582955,0.808468,-0.582556,0.809167,-0.582153,0.809864,-0.581746,0.810559,-0.581334,0.811250,
-0.580918,0.811940,-0.580498,0.812626,-0.579645,0.813992,-0.579212,0.814670,-0.578775,0.815347,-0.578334,0.816020,-0.577889,0.816691,-0.577440,0.817359,-0.576986,0.818024,-0.576529,0.818686,-0.576067,0.819346,-0.575602,0.820003,-0.575132,0.820657,-0.574658,0.821308,-0.574181,0.821956,-0.573699,0.822601,-0.573214,0.823243,-0.572724,0.823882,-0.572231,0.824518,-0.571734,0.825152,
-0.571233,0.825782,-0.570728,0.826409,-0.570219,0.827032,-0.569706,0.827653,-0.569190,0.828271,-0.568670,0.828885,-0.568146,0.829496,-0.567618,0.830104,-0.567087,0.830709,-0.566552,0.831310,-0.566013,0.831909,-0.564924,0.833095,-0.564375,0.833683,-0.563821,0.834268,-0.563264,0.834849,-0.562704,0.835427,-0.562140,0.836001,-0.561572,0.836572,-0.561001,0.837140,-0.560427,0.837704,
-0.559849,0.838264,-0.559268,0.838821,-0.558683,0.839375,-0.558095,0.839924,-0.556909,0.841013,-0.556310,0.841552,-0.555709,0.842087,-0.555104,0.842618,-0.554496,0.843146,-0.553885,0.843670,-0.553271,0.844190,-0.552653,0.844706,-0.552032,0.845219,-0.551409,0.845728,-0.550782,0.846233,-0.550152,0.846734,-0.549518,0.847231,-0.548882,0.847724,-0.548243,0.848214,-0.547601,0.848699,
-0.546956,0.849181,-0.546308,0.849658,-0.545657,0.850132,-0.545003,0.850602,-0.544346,0.851067,-0.543686,0.851529,-0.543024,0.851986,-0.542359,0.852440,-0.541691,0.852889,-0.541020,0.853334,-0.540347,0.853775,-0.539670,0.854212,-0.538992,0.854645,-0.537626,0.855498,-0.536940,0.855918,-0.536250,0.856334,-0.535559,0.856746,-0.534864,0.857153,-0.534167,0.857556,-0.533468,0.857955,
-0.532767,0.858350,-0.532063,0.858740,-0.531356,0.859126,-0.530647,0.859508,-0.529936,0.859885,-0.529223,0.860258,-0.528507,0.860627,-0.527789,0.860991,-0.527069,0.861351,-0.526346,0.861706,-0.525622,0.862057,-0.524895,0.862403,-0.524166,0.862745,-0.523436,0.863083,-0.522703,0.863416,-0.521968,0.863744,-0.521231,0.864068,-0.520492,0.864388,-0.519751,0.864703,-0.519008,0.865013,
-0.518263,0.865319,-0.517517,0.865620,-0.516768,0.865917,-0.516018,0.866209,-0.515266,0.866496,-0.514513,0.866779,-0.513757,0.867057,-0.513000,0.867331,-0.511481,0.867864,-0.510719,0.868123,-0.509955,0.868378,-0.509190,0.868628,-0.508423,0.868874,-0.507655,0.869115,-0.506885,0.869351,-0.506114,0.869582,-0.505342,0.869808,-0.504568,0.870030,-0.503793,0.870247,-0.503016,0.870460,
-0.502238,0.870667,-0.501459,0.870870,-0.500679,0.871068,-0.499897,0.871261,-0.499115,0.871450,-0.498331,0.871633,-0.497546,0.871812,-0.496760,0.871986,-0.495973,0.872155,-0.495185,0.872320,-0.494396,0.872479,-0.493606,0.872634,-0.492815,0.872783,-0.492023,0.872928,-0.491230,0.873068,-0.490437,0.873204,-0.489642,0.873334,-0.488847,0.873459,-0.488051,0.873580,-0.487254,0.873696,
-0.486457,0.873806,-0.485659,0.873912,-0.484860,0.874013,-0.484061,0.874109,-0.483261,0.874201,-0.482461,0.874287,-0.481660,0.874368,-0.480858,0.874445,-0.480057,0.874516,-0.479254,0.874583,-0.478452,0.874645,-0.477649,0.874701,-0.476845,0.874753,-0.476042,0.874800,-0.475238,0.874842,-0.474433,0.874879,-0.473629,0.874911,-0.472825,0.874938,-0.472020,0.874960,-0.471215,0.874978,
-0.470410,0.874990,-0.469605,0.874998,-0.468800,0.875000,0.468800,0.875000,0.469605,0.874998,0.469605,0.874998,$1*%
%AMFreePoly1*
4,1,5,0.604000,-0.604000,-0.604000,-0.604000,-0.604000,0.604000,0.604000,0.604000,0.604000,-0.604000,0.604000,-0.604000,$1*%
%AMFreePoly2*
4,1,129,0.022069,0.299187,0.036723,0.297744,0.051289,0.295583,0.065730,0.292711,0.080014,0.289133,0.094105,0.284858,0.107969,0.279898,0.121572,0.274263,0.134883,0.267967,0.147869,0.261026,0.160499,0.253456,0.172742,0.245275,0.184569,0.236504,0.195952,0.227163,0.206862,0.217274,0.217274,0.206862,0.227163,0.195952,0.236504,0.184569,0.245275,0.172742,0.253456,0.160499,
0.261026,0.147869,0.267967,0.134883,0.274263,0.121572,0.279898,0.107969,0.284858,0.094105,0.289133,0.080014,0.292711,0.065730,0.295583,0.051289,0.297744,0.036723,0.299187,0.022069,0.299910,0.007362,0.299910,-0.007362,0.299187,-0.022069,0.297744,-0.036723,0.295583,-0.051289,0.292711,-0.065730,0.289133,-0.080014,0.284858,-0.094105,0.279898,-0.107969,0.274263,-0.121572,
0.267967,-0.134883,0.261026,-0.147869,0.253456,-0.160499,0.245275,-0.172742,0.236504,-0.184569,0.227163,-0.195952,0.217274,-0.206862,0.206862,-0.217274,0.195952,-0.227163,0.184569,-0.236504,0.172742,-0.245275,0.160499,-0.253456,0.147869,-0.261026,0.134883,-0.267967,0.121572,-0.274263,0.107969,-0.279898,0.094105,-0.284858,0.080014,-0.289133,0.065730,-0.292711,0.051289,-0.295583,
0.036723,-0.297744,0.022069,-0.299187,0.007362,-0.299910,-0.007362,-0.299910,-0.022069,-0.299187,-0.036723,-0.297744,-0.051289,-0.295583,-0.065730,-0.292711,-0.080014,-0.289133,-0.094105,-0.284858,-0.107969,-0.279898,-0.121572,-0.274263,-0.134883,-0.267967,-0.147869,-0.261026,-0.160499,-0.253456,-0.172742,-0.245275,-0.184569,-0.236504,-0.195952,-0.227163,-0.206862,-0.217274,-0.217274,-0.206862,
-0.227163,-0.195952,-0.236504,-0.184569,-0.245275,-0.172742,-0.253456,-0.160499,-0.261026,-0.147869,-0.267967,-0.134883,-0.274263,-0.121572,-0.279898,-0.107969,-0.284858,-0.094105,-0.289133,-0.080014,-0.292711,-0.065730,-0.295583,-0.051289,-0.297744,-0.036723,-0.299187,-0.022069,-0.299910,-0.007362,-0.299910,0.007362,-0.299187,0.022069,-0.297744,0.036723,-0.295583,0.051289,-0.292711,0.065730,
-0.289133,0.080014,-0.284858,0.094105,-0.279898,0.107969,-0.274263,0.121572,-0.267967,0.134883,-0.261026,0.147869,-0.253456,0.160499,-0.245275,0.172742,-0.236504,0.184569,-0.227163,0.195952,-0.217274,0.206862,-0.206862,0.217274,-0.195952,0.227163,-0.184569,0.236504,-0.172742,0.245275,-0.160499,0.253456,-0.147869,0.261026,-0.134883,0.267967,-0.121572,0.274263,-0.107969,0.279898,
-0.094105,0.284858,-0.080014,0.289133,-0.065730,0.292711,-0.051289,0.295583,-0.036723,0.297744,-0.022069,0.299187,-0.007362,0.299910,0.007362,0.299910,0.022069,0.299187,0.022069,0.299187,$1*%
G04 Aperture macros list end*
%TA.AperFunction,ComponentPad*%
%ADD10O,1.200000X1.750000*%
%TD*%
%TA.AperFunction,ComponentPad*%
%ADD11FreePoly0,0.000000*%
%TD*%
%TA.AperFunction,ComponentPad*%
%ADD12C,5.600000*%
%TD*%
%TA.AperFunction,ComponentPad*%
%ADD13FreePoly1,180.000000*%
%TD*%
%TA.AperFunction,ComponentPad*%
%ADD14C,1.208000*%
%TD*%
%TA.AperFunction,ComponentPad*%
%ADD15FreePoly2,0.000000*%
%TD*%
%TA.AperFunction,Conductor*%
%ADD16C,1.000000*%
%TD*%
G04 APERTURE END LIST*
D10*
%TO.P,,ac52d377-58e2-46a9-868c-df40b63c3ae8__2446629c-95be-4a86-feae-d8f0f7f71e8a*%
%TO.N,N/C*%
X-19448900Y5394800D03*
D11*
%TO.P,,ac52d377-58e2-46a9-868c-df40b63c3ae8__dd3b4017-5a51-597d-7711-64e98a29f784*%
X-21448900Y5394800D03*
D12*
%TO.P,,b210d3ce-0fff-417e-a7a3-b45689b1e364__670b570e-55e0-fc18-08e8-7ed2c141f286*%
X24308400Y24500700D03*
D13*
%TO.P,,c5fa0864-b190-4a27-a32c-ac12706aca59__147299bc-ddc5-213f-ada7-9b5308216e3e*%
X-13811899Y-1310692D03*
D14*
%TO.P,,c5fa0864-b190-4a27-a32c-ac12706aca59__24006557-6e2f-287a-3edf-97a98f087338*%
X-11811899Y-1310697D03*
%TO.P,,c5fa0864-b190-4a27-a32c-ac12706aca59__90f3f3a2-aa24-9372-f053-6e6e8aa92b24*%
X-9811899Y-1310703D03*
%TO.P,,c5fa0864-b190-4a27-a32c-ac12706aca59__a9a2e740-e70b-872e-8e1b-8e6974c159ad*%
X-7811899Y-1310708D03*
D12*
%TO.P,,d7708d6f-dff5-42b3-93ca-1d76315641b9__670b570e-55e0-fc18-08e8-7ed2c141f286*%
X24308400Y-16077500D03*
%TO.P,,d9a0c5a6-f321-4a57-a535-1cc2dfa3bc56__670b570e-55e0-fc18-08e8-7ed2c141f286*%
X-14271600Y24500700D03*
%TO.P,,eb44942b-68c0-41af-9cc7-7bd6add65700__670b570e-55e0-fc18-08e8-7ed2c141f286*%
X-14271600Y-25544700D03*
D15*
%TO.P,,093e7198-f92e-430c-935a-dce78a9b2827*%
%TO.N,GND*%
X17172800Y-19346200D03*
%TO.P,,26ae4564-0d8c-4375-a6dd-b9e04f32f785*%
X9884800Y-20863000D03*
%TO.P,,7bcd45ff-5b45-42ec-aaa3-8a4d44d96d9b*%
X13141300Y-6426200D03*
%TO.P,,c314f967-0a4c-4dc7-afb9-007bd42edfaa*%
X-1623500Y-11255600D03*
%TO.P,,de669152-200c-408a-8206-118a7d447c33*%
X3568800Y-6063400D03*
%TO.P,,2d230860-11d6-4453-842c-56b13c405ce9*%
%TO.N,Net 10*%
X17782900Y10221800D03*
%TO.P,,9cb42e0b-9b7e-4fe0-a4b4-516b16c616a4*%
X8091600Y-5731200D03*
%TO.P,,4e33a040-0a95-4c99-810a-d0c43f12c3cd*%
%TO.N,Net 2*%
X1332200Y-20166800D03*
%TO.P,,f451df3c-6406-4aac-92b3-1e36394cf1fa*%
X-13622400Y-6993700D03*
%TO.P,,0f202c3c-c008-4d5d-a791-80e39c826f81*%
%TO.N,Net 9*%
X-1754200Y-19898900D03*
%TO.P,,ad251628-eb32-419d-ad52-c529aff6040f*%
X-11412100Y6591400D03*
%TO.P,,ea2327f8-046f-431a-abe1-9654a3cfd822*%
X12198800Y-11154400D03*
%TO.P,,09cd8d49-40c8-4a49-a2bc-0788a3a175f5*%
%TO.N,Net 12*%
X5563500Y-5759800D03*
%TO.P,,eead2329-8142-4908-bd6f-f02fb7d70ffe*%
X16009200Y9631100D03*
%TO.P,,b874bf56-d689-4262-977a-4e1d257bc553*%
%TO.N,Net 3*%
X13528300Y-8499500D03*
%TO.P,,bf7b6191-91c9-4379-a54b-141f82c98cfa*%
X4357900Y-21162500D03*
%TO.P,,0429da2d-a179-409b-9612-cbce809c96f9.via3.3*%
%TO.N,GND*%
X16600000Y15000000D03*
%TO.P,,0429da2d-a179-409b-9612-cbce809c96f9.via3.2*%
X1600000Y15000000D03*
%TO.P,,0429da2d-a179-409b-9612-cbce809c96f9.via2.3*%
X16600000Y0D03*
%TO.P,,0429da2d-a179-409b-9612-cbce809c96f9.via1.1*%
X-13400000Y-15000000D03*
%TD*%
D16*
%TO.N,GND*%
X15656000Y-20863000D02*
X17172800Y-19346200D01*
X3568700Y-6063400D02*
X3569500Y-6062600D01*
X9884800Y-20863000D02*
X15656000Y-20863000D01*
X-1623500Y-11255600D02*
X3568700Y-6063400D01*
%TO.N,Net 10*%
X17782900Y10221700D02*
X17782900Y3960100D01*
X17783000Y3960200D02*
X8091600Y-5731200D01*
%TO.N,Net 2*%
X1318400Y-20180600D02*
X1332200Y-20166800D01*
X-13622400Y-10676900D02*
X-2194200Y-22105100D01*
X1318400Y-22105200D02*
X1318400Y-20180600D01*
X-2194200Y-22105200D02*
X1318400Y-22105200D01*
X-13622400Y-6993700D02*
X-13622400Y-10676900D01*
%TO.N,Net 9*%
X12198800Y-11154400D02*
X7469200Y-11154400D01*
X-16396300Y-3534000D02*
X-16396300Y1607200D01*
X-1754200Y-19898900D02*
X336700Y-17916600D01*
X-15717200Y-4213100D02*
X-16396400Y-3533900D01*
X-11412100Y-6167800D02*
X336700Y-17916600D01*
X-16396300Y1607200D02*
X-11412100Y6591400D01*
X-11412100Y-6167800D02*
X-11412100Y-5759200D01*
X7469200Y-11154400D02*
X336700Y-17916600D01*
X-12958200Y-4213100D02*
X-15717200Y-4213100D01*
X-11412100Y-5759200D02*
X-12958300Y-4213000D01*
%TO.N,Net 12*%
X16009200Y9631100D02*
X16009200Y4685900D01*
X16009100Y4685800D02*
X5563500Y-5759800D01*
%TO.N,Net 3*%
X12296000Y-14968800D02*
X14519000Y-12745800D01*
X14519100Y-9490300D02*
X13528300Y-8499500D01*
X6945300Y-18575200D02*
X4357900Y-21162600D01*
X12296000Y-18575200D02*
X12296800Y-18574400D01*
X12296000Y-18575200D02*
X12296000Y-14968800D01*
X14519000Y-12745700D02*
X14519000Y-9490300D01*
X7878000Y-18575200D02*
X6945200Y-18575200D01*
X7878000Y-18575200D02*
X12296000Y-18575200D01*
%TD*%
%TA.AperFunction,Conductor*%
%TO.N,GND*%
G36*
X29200000Y29600000D02*
G01*
X-28000000Y29600000D01*
X-28000000Y24067000D01*
X-17548000Y24067000D01*
X-17548000Y24934000D01*
X-17325000Y25764000D01*
X-17324000Y25765000D01*
X-16893000Y26512000D01*
X-16283000Y27122000D01*
X-15536000Y27554000D01*
X-15534000Y27555000D01*
X-15533000Y27555000D01*
X-14705000Y27777000D01*
X-13838000Y27777000D01*
X-13010000Y27555000D01*
X-13009000Y27555000D01*
X-13007000Y27554000D01*
X-12260000Y27122000D01*
X-11650000Y26512000D01*
X-11219000Y25765000D01*
X-11218000Y25764000D01*
X-10996000Y24934000D01*
X-10996000Y24067000D01*
X21032000Y24067000D01*
X21032000Y24934000D01*
X21255000Y25764000D01*
X21256000Y25765000D01*
X21687000Y26512000D01*
X22297000Y27122000D01*
X23044000Y27554000D01*
X23046000Y27555000D01*
X23047000Y27555000D01*
X23875000Y27777000D01*
X24742000Y27777000D01*
X25570000Y27555000D01*
X25571000Y27555000D01*
X25573000Y27554000D01*
X26320000Y27122000D01*
X26930000Y26512000D01*
X27361000Y25765000D01*
X27362000Y25764000D01*
X27584000Y24934000D01*
X27584000Y24067000D01*
X27362000Y23237000D01*
X26930000Y22489000D01*
X26320000Y21879000D01*
X25572000Y21447000D01*
X24742000Y21225000D01*
X23875000Y21225000D01*
X23045000Y21447000D01*
X22297000Y21879000D01*
X21687000Y22489000D01*
X21255000Y23237000D01*
X21032000Y24067000D01*
X-10996000Y24067000D01*
X-11218000Y23237000D01*
X-11650000Y22489000D01*
X-12260000Y21879000D01*
X-13008000Y21447000D01*
X-13838000Y21225000D01*
X-14705000Y21225000D01*
X-15535000Y21447000D01*
X-16283000Y21879000D01*
X-16893000Y22489000D01*
X-17325000Y23237000D01*
X-17548000Y24067000D01*
X-28000000Y24067000D01*
X-28000000Y14980000D01*
X1451000Y14980000D01*
X1451000Y15020000D01*
X1461000Y15057000D01*
X1481000Y15091000D01*
X1509000Y15119000D01*
X1543000Y15139000D01*
X1580000Y15149000D01*
X1620000Y15149000D01*
X1657000Y15139000D01*
X1691000Y15119000D01*
X1719000Y15091000D01*
X1739000Y15057000D01*
X1749000Y15020000D01*
X1749000Y14980000D01*
X16451000Y14980000D01*
X16451000Y15020000D01*
X16461000Y15057000D01*
X16481000Y15091000D01*
X16509000Y15119000D01*
X16543000Y15139000D01*
X16580000Y15149000D01*
X16620000Y15149000D01*
X16657000Y15139000D01*
X16691000Y15119000D01*
X16719000Y15091000D01*
X16739000Y15057000D01*
X16749000Y15020000D01*
X16749000Y14980000D01*
X16739000Y14943000D01*
X16719000Y14909000D01*
X16691000Y14881000D01*
X16657000Y14861000D01*
X16620000Y14851000D01*
X16580000Y14851000D01*
X16543000Y14861000D01*
X16509000Y14881000D01*
X16481000Y14909000D01*
X16461000Y14943000D01*
X16451000Y14980000D01*
X1749000Y14980000D01*
X1739000Y14943000D01*
X1719000Y14909000D01*
X1691000Y14881000D01*
X1657000Y14861000D01*
X1620000Y14851000D01*
X1580000Y14851000D01*
X1543000Y14861000D01*
X1509000Y14881000D01*
X1481000Y14909000D01*
X1461000Y14943000D01*
X1451000Y14980000D01*
X-28000000Y14980000D01*
X-28000000Y4636000D01*
X-22549000Y4636000D01*
X-22549000Y6154000D01*
X-22545000Y6228000D01*
X-22527000Y6305000D01*
X-22502000Y6383000D01*
X-22463000Y6457000D01*
X-22419000Y6525000D01*
X-22371000Y6577000D01*
X-22308000Y6640000D01*
X-22229000Y6687000D01*
X-22162000Y6723000D01*
X-22084000Y6748000D01*
X-22007000Y6766000D01*
X-21933000Y6770000D01*
X-20965000Y6770000D01*
X-20891000Y6766000D01*
X-20814000Y6748000D01*
X-20742000Y6725000D01*
X-20666000Y6687000D01*
X-20593000Y6640000D01*
X-20525000Y6577000D01*
X-20481000Y6525000D01*
X-20432000Y6457000D01*
X-20432000Y6456000D01*
X-20430000Y6454000D01*
X-20397000Y6381000D01*
X-20368000Y6302000D01*
X-20352000Y6210000D01*
X-20349000Y6152000D01*
X-20349000Y5345000D01*
X-19821000Y5345000D01*
X-19821000Y5445000D01*
X-19820000Y5446000D01*
X-19795000Y5538000D01*
X-19746000Y5623000D01*
X-19677000Y5692000D01*
X-19592000Y5741000D01*
X-19590000Y5742000D01*
X-19499000Y5767000D01*
X-19399000Y5767000D01*
X-19307000Y5742000D01*
X-19305000Y5741000D01*
X-19221000Y5692000D01*
X-19151000Y5623000D01*
X-19102000Y5538000D01*
X-19101000Y5535000D01*
X-19077000Y5446000D01*
X-19077000Y5345000D01*
X-19102000Y5251000D01*
X-19151000Y5167000D01*
X-19221000Y5097000D01*
X-19305000Y5048000D01*
X-19400000Y5023000D01*
X-19500000Y5023000D01*
X-19589000Y5047000D01*
X-19590000Y5047000D01*
X-19592000Y5048000D01*
X-19677000Y5097000D01*
X-19678000Y5098000D01*
X-19745000Y5166000D01*
X-19796000Y5253000D01*
X-19821000Y5345000D01*
X-20349000Y5345000D01*
X-20349000Y4634000D01*
X-20352000Y4580000D01*
X-20369000Y4482000D01*
X-20395000Y4415000D01*
X-20429000Y4337000D01*
X-20481000Y4264000D01*
X-20532000Y4203000D01*
X-20593000Y4152000D01*
X-20666000Y4100000D01*
X-20742000Y4067000D01*
X-20744000Y4066000D01*
X-20811000Y4040000D01*
X-20905000Y4024000D01*
X-20965000Y4020000D01*
X-21933000Y4020000D01*
X-21993000Y4024000D01*
X-22085000Y4040000D01*
X-22132000Y4058000D01*
X-22162000Y4069000D01*
X-22165000Y4070000D01*
X-22164000Y4070000D01*
X-22229000Y4099000D01*
X-22305000Y4150000D01*
X-22307000Y4152000D01*
X-22363000Y4204000D01*
X-22419000Y4264000D01*
X-22466000Y4337000D01*
X-22504000Y4413000D01*
X-22527000Y4485000D01*
X-22545000Y4562000D01*
X-22549000Y4636000D01*
X-28000000Y4636000D01*
X-28000000Y-3544000D01*
X-17398000Y-3544000D01*
X-17396000Y-3520000D01*
X-17396000Y1559000D01*
X-17398000Y1575000D01*
X-17396000Y1609000D01*
X-17396000Y1627000D01*
X-17392000Y1672000D01*
X-17389000Y1730000D01*
X-17387000Y1742000D01*
X-17385000Y1763000D01*
X-17384000Y1766000D01*
X-17372000Y1821000D01*
X-17360000Y1883000D01*
X-17353000Y1901000D01*
X-17352000Y1908000D01*
X-17342000Y1933000D01*
X-17323000Y1980000D01*
X-17305000Y2028000D01*
X-17304000Y2029000D01*
X-17299000Y2038000D01*
X-17293000Y2055000D01*
X-17292000Y2056000D01*
X-17253000Y2121000D01*
X-17227000Y2166000D01*
X-17219000Y2176000D01*
X-17211000Y2189000D01*
X-17209000Y2192000D01*
X-17149000Y2263000D01*
X-17124000Y2295000D01*
X-17119000Y2300000D01*
X-17114000Y2307000D01*
X-17109000Y2310000D01*
X-17104000Y2315000D01*
X-12105000Y7313000D01*
X-12002000Y7400000D01*
X-11897000Y7465000D01*
X-11869000Y7483000D01*
X-11790000Y7516000D01*
X-11726000Y7543000D01*
X-11575000Y7579000D01*
X-11423000Y7592000D01*
X-11268000Y7582000D01*
X-11220000Y7571000D01*
X-11116000Y7549000D01*
X-11063000Y7527000D01*
X-10973000Y7490000D01*
X-10902000Y7449000D01*
X-10842000Y7415000D01*
X-10813000Y7391000D01*
X-10720000Y7315000D01*
X-10615000Y7198000D01*
X-10613000Y7196000D01*
X-10531000Y7068000D01*
X-10469000Y6930000D01*
X-10428000Y6773000D01*
X-10410000Y6625000D01*
X-10418000Y6474000D01*
X-10422000Y6454000D01*
X-10448000Y6318000D01*
X-10503000Y6170000D01*
X-10581000Y6032000D01*
X-10685000Y5902000D01*
X-15396000Y1192000D01*
X-15396000Y-2415000D01*
X-14916000Y-2415000D01*
X-14916000Y-207000D01*
X-12708000Y-207000D01*
X-12708000Y-653000D01*
X-12487000Y-432000D01*
X-12236000Y-287000D01*
X-12234000Y-286000D01*
X-12233000Y-286000D01*
X-11959000Y-212000D01*
X-11665000Y-212000D01*
X-11391000Y-286000D01*
X-11390000Y-286000D01*
X-11388000Y-287000D01*
X-11137000Y-432000D01*
X-10933000Y-636000D01*
X-10883000Y-723000D01*
X-10812000Y-844000D01*
X-10741000Y-723000D01*
X-10691000Y-636000D01*
X-10487000Y-432000D01*
X-10236000Y-287000D01*
X-10234000Y-286000D01*
X-10233000Y-286000D01*
X-9959000Y-212000D01*
X-9665000Y-212000D01*
X-9391000Y-286000D01*
X-9390000Y-286000D01*
X-9388000Y-287000D01*
X-9137000Y-432000D01*
X-8933000Y-636000D01*
X-8788000Y-887000D01*
X-8761000Y-987000D01*
X-8713000Y-1164000D01*
X-8713000Y-1358000D01*
X-8159000Y-1358000D01*
X-8159000Y-1265000D01*
X-8135000Y-1177000D01*
X-8090000Y-1098000D01*
X-8025000Y-1033000D01*
X-7946000Y-987000D01*
X-7858000Y-964000D01*
X-7766000Y-964000D01*
X-7678000Y-987000D01*
X-7599000Y-1033000D01*
X-7534000Y-1098000D01*
X-7489000Y-1177000D01*
X-7465000Y-1265000D01*
X-7465000Y-1358000D01*
X-7488000Y-1444000D01*
X-7508000Y-1478000D01*
X-7534000Y-1524000D01*
X-7599000Y-1588000D01*
X-7678000Y-1634000D01*
X-7679000Y-1634000D01*
X-7680000Y-1635000D01*
X-7765000Y-1658000D01*
X-7859000Y-1658000D01*
X-7944000Y-1635000D01*
X-7945000Y-1634000D01*
X-7946000Y-1634000D01*
X-8025000Y-1588000D01*
X-8090000Y-1524000D01*
X-8116000Y-1478000D01*
X-8136000Y-1444000D01*
X-8159000Y-1358000D01*
X-8713000Y-1358000D01*
X-8713000Y-1458000D01*
X-8787000Y-1733000D01*
X-8787000Y-1734000D01*
X-8788000Y-1736000D01*
X-8933000Y-1984000D01*
X-9136000Y-2190000D01*
X-9137000Y-2191000D01*
X-9389000Y-2336000D01*
X-9665000Y-2410000D01*
X-9959000Y-2410000D01*
X-10235000Y-2336000D01*
X-10487000Y-2191000D01*
X-10690000Y-1985000D01*
X-10812000Y-1778000D01*
X-10934000Y-1985000D01*
X-11137000Y-2191000D01*
X-11389000Y-2336000D01*
X-11665000Y-2410000D01*
X-11959000Y-2410000D01*
X-12235000Y-2336000D01*
X-12487000Y-2191000D01*
X-12708000Y-1968000D01*
X-12708000Y-2415000D01*
X-14916000Y-2415000D01*
X-15396000Y-2415000D01*
X-15396000Y-3118000D01*
X-15302000Y-3213000D01*
X-13006000Y-3213000D01*
X-12990000Y-3211000D01*
X-12954000Y-3213000D01*
X-12940000Y-3213000D01*
X-12913000Y-3215000D01*
X-12899000Y-3216000D01*
X-12878000Y-3217000D01*
X-12835000Y-3220000D01*
X-12822000Y-3223000D01*
X-12804000Y-3224000D01*
X-12756000Y-3235000D01*
X-12684000Y-3249000D01*
X-12654000Y-3259000D01*
X-12609000Y-3277000D01*
X-12582000Y-3287000D01*
X-12537000Y-3303000D01*
X-12521000Y-3313000D01*
X-12514000Y-3315000D01*
X-12506000Y-3320000D01*
X-12472000Y-3341000D01*
X-12432000Y-3363000D01*
X-12400000Y-3381000D01*
X-12381000Y-3396000D01*
X-12378000Y-3398000D01*
X-12349000Y-3422000D01*
X-12271000Y-3484000D01*
X-10738000Y-5018000D01*
X-10725000Y-5029000D01*
X-10710000Y-5046000D01*
X-10688000Y-5068000D01*
X-10659000Y-5101000D01*
X-10624000Y-5142000D01*
X-10622000Y-5144000D01*
X-10614000Y-5156000D01*
X-10603000Y-5169000D01*
X-10601000Y-5171000D01*
X-10572000Y-5218000D01*
X-10536000Y-5271000D01*
X-10528000Y-5290000D01*
X-10522000Y-5299000D01*
X-10490000Y-5375000D01*
X-10472000Y-5414000D01*
X-10470000Y-5418000D01*
X-10468000Y-5425000D01*
X-10464000Y-5434000D01*
X-10460000Y-5445000D01*
X-10440000Y-5527000D01*
X-10437000Y-5539000D01*
X-10429000Y-5566000D01*
X-10428000Y-5580000D01*
X-10424000Y-5596000D01*
X-10411000Y-5748000D01*
X-10410000Y-5754000D01*
X-10369004Y-5795000D01*
X4561000Y-5795000D01*
X4569000Y-5643000D01*
X4570000Y-5638000D01*
X4570000Y-5637000D01*
X4599000Y-5487000D01*
X4601000Y-5482000D01*
X4654000Y-5339000D01*
X4724000Y-5216000D01*
X4732000Y-5201000D01*
X4836000Y-5071000D01*
X15009000Y5101000D01*
X15009000Y9651000D01*
X15020000Y9787000D01*
X15036000Y9854000D01*
X15055000Y9940000D01*
X15110000Y10075000D01*
X15113000Y10080000D01*
X15194000Y10213000D01*
X15293000Y10332000D01*
X15385000Y10413000D01*
X15412000Y10437000D01*
X15542000Y10519000D01*
X15588000Y10538000D01*
X15683000Y10578000D01*
X15685000Y10578000D01*
X15686000Y10579000D01*
X15824000Y10616000D01*
X15828000Y10616000D01*
X15830000Y10617000D01*
X15985000Y10633000D01*
X15988000Y10633000D01*
X16145000Y10625000D01*
X16296000Y10591000D01*
X16435000Y10539000D01*
X16438000Y10538000D01*
X16574000Y10459000D01*
X16777000Y10298000D01*
X16794000Y10372000D01*
X16794000Y10377000D01*
X16808000Y10435000D01*
X16829000Y10530000D01*
X16884000Y10665000D01*
X16887000Y10670000D01*
X16968000Y10803000D01*
X17067000Y10922000D01*
X17161000Y11005000D01*
X17186000Y11027000D01*
X17309000Y11104000D01*
X17314000Y11107000D01*
X17457000Y11170000D01*
X17607000Y11208000D01*
X17759000Y11223000D01*
X17761000Y11223000D01*
X17919000Y11215000D01*
X18070000Y11181000D01*
X18209000Y11129000D01*
X18212000Y11128000D01*
X18348000Y11049000D01*
X18470000Y10952000D01*
X18573000Y10837000D01*
X18596000Y10803000D01*
X18660000Y10708000D01*
X18724000Y10567000D01*
X18765000Y10417000D01*
X18765000Y10416000D01*
X18766000Y10413000D01*
X18783000Y10247000D01*
X18783000Y4008000D01*
X18785000Y3992000D01*
X18783000Y3956000D01*
X18783000Y3941000D01*
X18780000Y3899000D01*
X18776000Y3837000D01*
X18776000Y3834000D01*
X18775000Y3827000D01*
X18773000Y3810000D01*
X18757000Y3738000D01*
X18746000Y3683000D01*
X18740000Y3668000D01*
X18737000Y3656000D01*
X18737000Y3655000D01*
X18714000Y3599000D01*
X18692000Y3539000D01*
X18685000Y3526000D01*
X18679000Y3512000D01*
X18648000Y3460000D01*
X18614000Y3401000D01*
X18606000Y3390000D01*
X18602000Y3384000D01*
X18598000Y3379000D01*
X18556000Y3329000D01*
X18514000Y3277000D01*
X18515000Y3276000D01*
X18513000Y3274000D01*
X15218323Y-20000D01*
X16451000Y-20000D01*
X16451000Y20000D01*
X16461000Y57000D01*
X16481000Y91000D01*
X16509000Y119000D01*
X16543000Y139000D01*
X16580000Y149000D01*
X16620000Y149000D01*
X16657000Y139000D01*
X16691000Y119000D01*
X16719000Y91000D01*
X16739000Y57000D01*
X16749000Y20000D01*
X16749000Y-20000D01*
X16739000Y-57000D01*
X16719000Y-91000D01*
X16691000Y-119000D01*
X16657000Y-139000D01*
X16620000Y-149000D01*
X16580000Y-149000D01*
X16543000Y-139000D01*
X16509000Y-119000D01*
X16481000Y-91000D01*
X16461000Y-57000D01*
X16451000Y-20000D01*
X15218323Y-20000D01*
X8789001Y-6448000D01*
X12993000Y-6448000D01*
X12993000Y-6405000D01*
X13001000Y-6374000D01*
X13002000Y-6372000D01*
X13003000Y-6369000D01*
X13022000Y-6335000D01*
X13050000Y-6307000D01*
X13083000Y-6288000D01*
X13121000Y-6277000D01*
X13162000Y-6277000D01*
X13200000Y-6288000D01*
X13232000Y-6306000D01*
X13260000Y-6335000D01*
X13280000Y-6369000D01*
X13290000Y-6408000D01*
X13290000Y-6445000D01*
X13288000Y-6455000D01*
X13280000Y-6484000D01*
X13260000Y-6518000D01*
X13233000Y-6545000D01*
X13199000Y-6565000D01*
X13161000Y-6575000D01*
X13122000Y-6575000D01*
X13084000Y-6565000D01*
X13050000Y-6545000D01*
X13022000Y-6518000D01*
X13003000Y-6484000D01*
X13002000Y-6480000D01*
X12993000Y-6448000D01*
X8789001Y-6448000D01*
X8782000Y-6455000D01*
X8685000Y-6537000D01*
X8683000Y-6538000D01*
X8681000Y-6540000D01*
X8551000Y-6621000D01*
X8552000Y-6621000D01*
X8548000Y-6623000D01*
X8464000Y-6658000D01*
X8405000Y-6683000D01*
X8254000Y-6719000D01*
X8102000Y-6732000D01*
X7947000Y-6722000D01*
X7925000Y-6717000D01*
X7795000Y-6689000D01*
X7718000Y-6657000D01*
X7652000Y-6630000D01*
X7599000Y-6599000D01*
X7521000Y-6555000D01*
X7519000Y-6553000D01*
X7399000Y-6455000D01*
X7349000Y-6399000D01*
X7292000Y-6336000D01*
X7210000Y-6208000D01*
X7149000Y-6072000D01*
X7148000Y-6068000D01*
X7147000Y-6066000D01*
X7108000Y-5918000D01*
X7107000Y-5913000D01*
X7077000Y-5661000D01*
X6254000Y-6484000D01*
X6157000Y-6566000D01*
X6155000Y-6567000D01*
X6153000Y-6569000D01*
X6023000Y-6650000D01*
X6024000Y-6650000D01*
X6020000Y-6652000D01*
X5941000Y-6685000D01*
X5877000Y-6712000D01*
X5726000Y-6748000D01*
X5574000Y-6761000D01*
X5419000Y-6751000D01*
X5371000Y-6740000D01*
X5267000Y-6718000D01*
X5214000Y-6696000D01*
X5124000Y-6659000D01*
X5053000Y-6618000D01*
X4993000Y-6584000D01*
X4991000Y-6582000D01*
X4871000Y-6484000D01*
X4803000Y-6408000D01*
X4764000Y-6365000D01*
X4682000Y-6237000D01*
X4621000Y-6101000D01*
X4620000Y-6097000D01*
X4619000Y-6095000D01*
X4580000Y-5947000D01*
X4579000Y-5942000D01*
X4561000Y-5795000D01*
X-10369004Y-5795000D01*
X-10081031Y-6083000D01*
X3420000Y-6083000D01*
X3420000Y-6044000D01*
X3430000Y-6006000D01*
X3450000Y-5972000D01*
X3477000Y-5944000D01*
X3511000Y-5925000D01*
X3514000Y-5924000D01*
X3516000Y-5923000D01*
X3547000Y-5915000D01*
X3590000Y-5915000D01*
X3621000Y-5923000D01*
X3623000Y-5924000D01*
X3626000Y-5925000D01*
X3660000Y-5944000D01*
X3688000Y-5972000D01*
X3707000Y-6006000D01*
X3718000Y-6044000D01*
X3718000Y-6083000D01*
X3707000Y-6121000D01*
X3707000Y-6122000D01*
X3689000Y-6154000D01*
X3661000Y-6181000D01*
X3660000Y-6182000D01*
X3626000Y-6202000D01*
X3588000Y-6212000D01*
X3549000Y-6212000D01*
X3511000Y-6202000D01*
X3477000Y-6182000D01*
X3450000Y-6155000D01*
X3430000Y-6121000D01*
X3420000Y-6083000D01*
X-10081031Y-6083000D01*
X-4886513Y-11278000D01*
X-1772000Y-11278000D01*
X-1772000Y-11234000D01*
X-1764000Y-11203000D01*
X-1763000Y-11201000D01*
X-1762000Y-11198000D01*
X-1743000Y-11164000D01*
X-1715000Y-11137000D01*
X-1681000Y-11117000D01*
X-1643000Y-11107000D01*
X-1604000Y-11107000D01*
X-1566000Y-11117000D01*
X-1532000Y-11137000D01*
X-1504000Y-11164000D01*
X-1485000Y-11198000D01*
X-1484000Y-11201000D01*
X-1483000Y-11203000D01*
X-1475000Y-11234000D01*
X-1475000Y-11278000D01*
X-1483000Y-11308000D01*
X-1484000Y-11310000D01*
X-1485000Y-11313000D01*
X-1504000Y-11347000D01*
X-1532000Y-11375000D01*
X-1566000Y-11394000D01*
X-1569000Y-11395000D01*
X-1571000Y-11396000D01*
X-1602000Y-11404000D01*
X-1645000Y-11404000D01*
X-1676000Y-11396000D01*
X-1678000Y-11395000D01*
X-1681000Y-11394000D01*
X-1715000Y-11375000D01*
X-1743000Y-11347000D01*
X-1762000Y-11313000D01*
X-1763000Y-11310000D01*
X-1764000Y-11308000D01*
X-1772000Y-11278000D01*
X-4886513Y-11278000D01*
X356000Y-16521000D01*
X6797000Y-10412000D01*
X6826000Y-10389000D01*
X6854000Y-10364000D01*
X6874000Y-10351000D01*
X6904000Y-10326000D01*
X6938000Y-10307000D01*
X6971000Y-10285000D01*
X6974000Y-10284000D01*
X6981000Y-10279000D01*
X7017000Y-10263000D01*
X7034000Y-10253000D01*
X7071000Y-10238000D01*
X7124000Y-10214000D01*
X7146000Y-10208000D01*
X7178000Y-10195000D01*
X7179000Y-10195000D01*
X7181000Y-10194000D01*
X7207000Y-10189000D01*
X7238000Y-10182000D01*
X7278000Y-10171000D01*
X7291000Y-10170000D01*
X7304000Y-10168000D01*
X7327000Y-10163000D01*
X7328000Y-10163000D01*
X7332000Y-10162000D01*
X7405000Y-10157000D01*
X7412000Y-10157000D01*
X7421000Y-10156000D01*
X7444000Y-10154000D01*
X7464000Y-10154000D01*
X7483000Y-10153000D01*
X7499000Y-10154000D01*
X12218000Y-10154000D01*
X12354000Y-10165000D01*
X12427000Y-10182000D01*
X12507000Y-10200000D01*
X12645000Y-10257000D01*
X12691000Y-10285000D01*
X12780000Y-10339000D01*
X12899000Y-10438000D01*
X13002000Y-10555000D01*
X13004000Y-10557000D01*
X13082000Y-10682000D01*
X13084000Y-10685000D01*
X13147000Y-10828000D01*
X13185000Y-10978000D01*
X13200000Y-11130000D01*
X13199000Y-11162000D01*
X13192000Y-11290000D01*
X13157000Y-11443000D01*
X13106000Y-11580000D01*
X13105000Y-11583000D01*
X13026000Y-11719000D01*
X12929000Y-11841000D01*
X12814000Y-11944000D01*
X12813000Y-11945000D01*
X12687000Y-12030000D01*
X12544000Y-12095000D01*
X12394000Y-12136000D01*
X12393000Y-12136000D01*
X12390000Y-12137000D01*
X12224000Y-12154000D01*
X7868000Y-12154000D01*
X5364000Y-14529000D01*
X1009000Y-18659000D01*
X1004000Y-18663000D01*
X658000Y-18991000D01*
X-1079000Y-20638000D01*
X-1184000Y-20723000D01*
X-1220000Y-20744000D01*
X-1320000Y-20803000D01*
X-1468000Y-20860000D01*
X-1615000Y-20891000D01*
X-1767000Y-20900000D01*
X-1768000Y-20900000D01*
X-1777000Y-20899000D01*
X-2003000Y-20881000D01*
X-1779000Y-21105000D01*
X318000Y-21105000D01*
X318000Y-20229000D01*
X316000Y-20213000D01*
X318000Y-20181000D01*
X318000Y-20160000D01*
X321000Y-20120000D01*
X325000Y-20055000D01*
X326000Y-20047000D01*
X328000Y-20030000D01*
X339000Y-19982000D01*
X345000Y-19953000D01*
X354000Y-19908000D01*
X356000Y-19903000D01*
X361000Y-19889000D01*
X363000Y-19877000D01*
X371000Y-19859000D01*
X382000Y-19832000D01*
X408000Y-19763000D01*
X415000Y-19748000D01*
X422000Y-19732000D01*
X447000Y-19693000D01*
X485000Y-19625000D01*
X495000Y-19611000D01*
X503000Y-19599000D01*
X538000Y-19557000D01*
X588000Y-19495000D01*
X636000Y-19447000D01*
X717000Y-19379000D01*
X742000Y-19358000D01*
X787000Y-19330000D01*
X875000Y-19275000D01*
X952000Y-19243000D01*
X1018000Y-19215000D01*
X1169000Y-19179000D01*
X1321000Y-19166000D01*
X1476000Y-19176000D01*
X1544000Y-19191000D01*
X1628000Y-19209000D01*
X1707000Y-19242000D01*
X1771000Y-19268000D01*
X1856000Y-19317000D01*
X1902000Y-19343000D01*
X1977000Y-19405000D01*
X2024000Y-19443000D01*
X2125000Y-19555000D01*
X2131000Y-19562000D01*
X2213000Y-19690000D01*
X2275000Y-19828000D01*
X2316000Y-19985000D01*
X2334000Y-20133000D01*
X2326000Y-20285000D01*
X2318000Y-20328000D01*
X2318000Y-21198000D01*
X3356000Y-21198000D01*
X3364000Y-21046000D01*
X3365000Y-21041000D01*
X3365000Y-21040000D01*
X3394000Y-20890000D01*
X3449000Y-20742000D01*
X3527000Y-20604000D01*
X3631000Y-20474000D01*
X3634000Y-20471000D01*
X6204000Y-17902000D01*
X6218000Y-17886000D01*
X6229000Y-17877000D01*
X6251000Y-17855000D01*
X6288000Y-17822000D01*
X6320000Y-17794000D01*
X6331000Y-17785000D01*
X6343000Y-17777000D01*
X6349000Y-17772000D01*
X6356000Y-17765000D01*
X6405000Y-17735000D01*
X6458000Y-17699000D01*
X6475000Y-17692000D01*
X6486000Y-17685000D01*
X6562000Y-17653000D01*
X6601000Y-17635000D01*
X6606000Y-17634000D01*
X6608000Y-17633000D01*
X6617000Y-17630000D01*
X6632000Y-17623000D01*
X6714000Y-17603000D01*
X6726000Y-17600000D01*
X6753000Y-17592000D01*
X6767000Y-17591000D01*
X6783000Y-17587000D01*
X6909000Y-17576000D01*
X6921000Y-17575000D01*
X6935000Y-17574000D01*
X6954000Y-17575000D01*
X11296000Y-17575000D01*
X11296000Y-15023000D01*
X11293000Y-15000000D01*
X11296000Y-14954000D01*
X11296000Y-14950000D01*
X11297000Y-14936000D01*
X11303000Y-14845000D01*
X11306000Y-14831000D01*
X11307000Y-14814000D01*
X11308000Y-14810000D01*
X11315000Y-14777000D01*
X11325000Y-14730000D01*
X11331000Y-14695000D01*
X11332000Y-14693000D01*
X11339000Y-14672000D01*
X11342000Y-14665000D01*
X11342000Y-14664000D01*
X11358000Y-14624000D01*
X11389000Y-14544000D01*
X11395000Y-14533000D01*
X11400000Y-14521000D01*
X11424000Y-14481000D01*
X11464000Y-14411000D01*
X11479000Y-14391000D01*
X11481000Y-14387000D01*
X11490000Y-14378000D01*
X11502000Y-14363000D01*
X11544000Y-14311000D01*
X11543000Y-14310000D01*
X11566000Y-14282000D01*
X11569000Y-14279000D01*
X12591000Y-13258000D01*
X13519000Y-12330000D01*
X13519000Y-9906000D01*
X12805000Y-9191000D01*
X12723000Y-9094000D01*
X12636000Y-8955000D01*
X12609000Y-8890000D01*
X12577000Y-8814000D01*
X12541000Y-8663000D01*
X12528000Y-8511000D01*
X12538000Y-8356000D01*
X12539000Y-8353000D01*
X12571000Y-8204000D01*
X12593000Y-8151000D01*
X12630000Y-8061000D01*
X12671000Y-7990000D01*
X12705000Y-7930000D01*
X12707000Y-7928000D01*
X12805000Y-7808000D01*
X12900000Y-7723000D01*
X12924000Y-7701000D01*
X13052000Y-7619000D01*
X13190000Y-7557000D01*
X13194000Y-7556000D01*
X13342000Y-7517000D01*
X13344000Y-7517000D01*
X13347000Y-7516000D01*
X13494000Y-7498000D01*
X13497000Y-7498000D01*
X13652000Y-7507000D01*
X13802000Y-7536000D01*
X13950000Y-7591000D01*
X14088000Y-7669000D01*
X14218000Y-7773000D01*
X15193000Y-8749000D01*
X15206000Y-8760000D01*
X15221000Y-8777000D01*
X15243000Y-8799000D01*
X15272000Y-8832000D01*
X15307000Y-8873000D01*
X15309000Y-8875000D01*
X15317000Y-8887000D01*
X15323000Y-8894000D01*
X15329000Y-8900000D01*
X15359000Y-8949000D01*
X15395000Y-9002000D01*
X15403000Y-9021000D01*
X15409000Y-9030000D01*
X15434000Y-9090000D01*
X15441000Y-9106000D01*
X15459000Y-9145000D01*
X15461000Y-9153000D01*
X15471000Y-9176000D01*
X15491000Y-9258000D01*
X15494000Y-9270000D01*
X15502000Y-9297000D01*
X15503000Y-9311000D01*
X15507000Y-9327000D01*
X15520000Y-9479000D01*
X15519000Y-9495000D01*
X15519000Y-12765000D01*
X15515000Y-12816000D01*
X15513000Y-12864000D01*
X15510000Y-12882000D01*
X15508000Y-12901000D01*
X15495000Y-12958000D01*
X15483000Y-13018000D01*
X15477000Y-13035000D01*
X15473000Y-13051000D01*
X15446000Y-13118000D01*
X15428000Y-13166000D01*
X15422000Y-13176000D01*
X15415000Y-13194000D01*
X15377000Y-13257000D01*
X15349000Y-13306000D01*
X15340000Y-13316000D01*
X15334000Y-13327000D01*
X15235000Y-13446000D01*
X15210000Y-13468000D01*
X13296000Y-15383000D01*
X13296000Y-16511000D01*
X21032000Y-16511000D01*
X21032000Y-15644000D01*
X21255000Y-14814000D01*
X21687000Y-14066000D01*
X22297000Y-13456000D01*
X23045000Y-13024000D01*
X23875000Y-12801000D01*
X24742000Y-12801000D01*
X25572000Y-13024000D01*
X26320000Y-13456000D01*
X26930000Y-14066000D01*
X27362000Y-14814000D01*
X27584000Y-15644000D01*
X27584000Y-16511000D01*
X27362000Y-17341000D01*
X26930000Y-18089000D01*
X26320000Y-18699000D01*
X25572000Y-19131000D01*
X24742000Y-19354000D01*
X23875000Y-19354000D01*
X23045000Y-19131000D01*
X22297000Y-18699000D01*
X21687000Y-18089000D01*
X21255000Y-17341000D01*
X21032000Y-16511000D01*
X13296000Y-16511000D01*
X13296000Y-18523000D01*
X13297000Y-18531000D01*
X13296000Y-18545000D01*
X13297000Y-18551000D01*
X13296000Y-18571000D01*
X13296000Y-18594000D01*
X13293000Y-18626000D01*
X13291000Y-18689000D01*
X13290000Y-18695000D01*
X13289000Y-18711000D01*
X13277000Y-18766000D01*
X13271000Y-18792000D01*
X13271000Y-18793000D01*
X13261000Y-18843000D01*
X13256000Y-18855000D01*
X13253000Y-18866000D01*
X13250000Y-18880000D01*
X13227000Y-18937000D01*
X13210000Y-18985000D01*
X13209000Y-18988000D01*
X13204000Y-18998000D01*
X13202000Y-19005000D01*
X13195000Y-19016000D01*
X13190000Y-19027000D01*
X13168000Y-19063000D01*
X13159000Y-19077000D01*
X13134000Y-19123000D01*
X13127000Y-19133000D01*
X13124000Y-19139000D01*
X13121000Y-19142000D01*
X13113000Y-19152000D01*
X13111000Y-19156000D01*
X13091000Y-19180000D01*
X13082000Y-19191000D01*
X13067000Y-19211000D01*
X13043000Y-19242000D01*
X13038000Y-19247000D01*
X13026000Y-19262000D01*
X13013000Y-19274000D01*
X13010000Y-19277000D01*
X12978000Y-19305000D01*
X12965000Y-19317000D01*
X12929000Y-19352000D01*
X12914000Y-19362000D01*
X12910000Y-19366000D01*
X17024000Y-19366000D01*
X17024000Y-19327000D01*
X17034000Y-19289000D01*
X17047000Y-19268000D01*
X17055000Y-19254000D01*
X17082000Y-19226000D01*
X17114000Y-19208000D01*
X17152000Y-19197000D01*
X17193000Y-19197000D01*
X17231000Y-19208000D01*
X17264000Y-19227000D01*
X17292000Y-19255000D01*
X17311000Y-19288000D01*
X17322000Y-19327000D01*
X17322000Y-19367000D01*
X17311000Y-19405000D01*
X17292000Y-19438000D01*
X17265000Y-19464000D01*
X17264000Y-19465000D01*
X17230000Y-19485000D01*
X17192000Y-19495000D01*
X17153000Y-19495000D01*
X17115000Y-19485000D01*
X17081000Y-19465000D01*
X17054000Y-19438000D01*
X17034000Y-19404000D01*
X17024000Y-19366000D01*
X12910000Y-19366000D01*
X12904000Y-19370000D01*
X12897000Y-19376000D01*
X12898000Y-19376000D01*
X12895000Y-19378000D01*
X12840000Y-19412000D01*
X12803000Y-19438000D01*
X12802000Y-19439000D01*
X12791000Y-19445000D01*
X12784000Y-19450000D01*
X12776000Y-19454000D01*
X12767000Y-19459000D01*
X12710000Y-19484000D01*
X12661000Y-19509000D01*
X12643000Y-19514000D01*
X12623000Y-19523000D01*
X12560000Y-19540000D01*
X12512000Y-19554000D01*
X12498000Y-19555000D01*
X12494000Y-19556000D01*
X12487000Y-19558000D01*
X12472000Y-19561000D01*
X12412000Y-19567000D01*
X12372000Y-19573000D01*
X12362000Y-19574000D01*
X12346000Y-19574000D01*
X12326000Y-19576000D01*
X12319000Y-19576000D01*
X12297000Y-19575000D01*
X7362000Y-19575000D01*
X6051433Y-20885000D01*
X9736000Y-20885000D01*
X9736000Y-20841000D01*
X9745000Y-20809000D01*
X9746000Y-20806000D01*
X9766000Y-20772000D01*
X9767000Y-20771000D01*
X9794000Y-20743000D01*
X9824000Y-20725000D01*
X9826000Y-20724000D01*
X9827000Y-20724000D01*
X9865000Y-20714000D01*
X9904000Y-20714000D01*
X9942000Y-20724000D01*
X9976000Y-20744000D01*
X10004000Y-20772000D01*
X10023000Y-20806000D01*
X10034000Y-20843000D01*
X10034000Y-20885000D01*
X10023000Y-20920000D01*
X10004000Y-20954000D01*
X9976000Y-20982000D01*
X9942000Y-21002000D01*
X9904000Y-21012000D01*
X9865000Y-21012000D01*
X9827000Y-21002000D01*
X9826000Y-21002000D01*
X9824000Y-21001000D01*
X9794000Y-20983000D01*
X9793000Y-20982000D01*
X9766000Y-20954000D01*
X9746000Y-20920000D01*
X9745000Y-20918000D01*
X9745000Y-20917000D01*
X9736000Y-20885000D01*
X6051433Y-20885000D01*
X5049000Y-21887000D01*
X4952000Y-21969000D01*
X4950000Y-21970000D01*
X4948000Y-21972000D01*
X4818000Y-22053000D01*
X4819000Y-22053000D01*
X4815000Y-22055000D01*
X4736000Y-22088000D01*
X4672000Y-22115000D01*
X4521000Y-22151000D01*
X4369000Y-22164000D01*
X4214000Y-22154000D01*
X4166000Y-22143000D01*
X4062000Y-22121000D01*
X4014000Y-22101000D01*
X3919000Y-22062000D01*
X3848000Y-22021000D01*
X3788000Y-21987000D01*
X3786000Y-21985000D01*
X3666000Y-21887000D01*
X3581000Y-21792000D01*
X3559000Y-21768000D01*
X3477000Y-21640000D01*
X3416000Y-21504000D01*
X3374000Y-21345000D01*
X3356000Y-21198000D01*
X2318000Y-21198000D01*
X2318000Y-22066000D01*
X2319000Y-22084000D01*
X2318000Y-22099000D01*
X2318000Y-22127000D01*
X2315000Y-22166000D01*
X2311000Y-22242000D01*
X2299000Y-22296000D01*
X2274000Y-22405000D01*
X2239000Y-22493000D01*
X2223000Y-22536000D01*
X2217000Y-22546000D01*
X2215000Y-22551000D01*
X2190000Y-22593000D01*
X2145000Y-22671000D01*
X2134000Y-22684000D01*
X2133000Y-22686000D01*
X2105000Y-22720000D01*
X2048000Y-22792000D01*
X2036000Y-22803000D01*
X2034000Y-22805000D01*
X2000000Y-22835000D01*
X1998000Y-22837000D01*
X1933000Y-22896000D01*
X1927000Y-22899000D01*
X1917000Y-22908000D01*
X1916000Y-22909000D01*
X1858000Y-22946000D01*
X1806000Y-22980000D01*
X1793000Y-22986000D01*
X1787000Y-22990000D01*
X1690000Y-23033000D01*
X1663000Y-23045000D01*
X1661000Y-23046000D01*
X1644000Y-23053000D01*
X1575000Y-23070000D01*
X1538000Y-23080000D01*
X1525000Y-23083000D01*
X1509000Y-23088000D01*
X1494000Y-23091000D01*
X1342000Y-23106000D01*
X1340000Y-23106000D01*
X1319000Y-23105000D01*
X-2146000Y-23105000D01*
X-2162000Y-23107000D01*
X-2198000Y-23105000D01*
X-2213000Y-23105000D01*
X-2255000Y-23102000D01*
X-2320000Y-23098000D01*
X-2328000Y-23097000D01*
X-2345000Y-23095000D01*
X-2402000Y-23082000D01*
X-2467000Y-23069000D01*
X-2471000Y-23067000D01*
X-2473000Y-23067000D01*
X-2486000Y-23062000D01*
X-2492000Y-23060000D01*
X-2499000Y-23059000D01*
X-2555000Y-23036000D01*
X-2604000Y-23018000D01*
X-2618000Y-23013000D01*
X-2627000Y-23008000D01*
X-2641000Y-23002000D01*
X-2642000Y-23001000D01*
X-2694000Y-22970000D01*
X-2753000Y-22936000D01*
X-2756000Y-22933000D01*
X-2757000Y-22933000D01*
X-2764000Y-22928000D01*
X-2770000Y-22924000D01*
X-2774000Y-22921000D01*
X-2775000Y-22920000D01*
X-2825000Y-22878000D01*
X-2877000Y-22836000D01*
X-2878000Y-22837000D01*
X-2880000Y-22835000D01*
X-14296000Y-11418000D01*
X-14309000Y-11407000D01*
X-14325000Y-11389000D01*
X-14341000Y-11374000D01*
X-14344000Y-11370000D01*
X-14363000Y-11347000D01*
X-14412000Y-11292000D01*
X-14413000Y-11290000D01*
X-14422000Y-11278000D01*
X-14431000Y-11267000D01*
X-14462000Y-11218000D01*
X-14497000Y-11165000D01*
X-14503000Y-11151000D01*
X-14513000Y-11137000D01*
X-14525000Y-11107000D01*
X-14544000Y-11061000D01*
X-14561000Y-11025000D01*
X-14563000Y-11020000D01*
X-14563000Y-11018000D01*
X-14574000Y-10991000D01*
X-14594000Y-10909000D01*
X-14605000Y-10870000D01*
X-14605000Y-10868000D01*
X-14606000Y-10856000D01*
X-14610000Y-10840000D01*
X-14623000Y-10688000D01*
X-14622000Y-10673000D01*
X-14622000Y-6974000D01*
X-14611000Y-6838000D01*
X-14598000Y-6782000D01*
X-14576000Y-6685000D01*
X-14521000Y-6550000D01*
X-14518000Y-6545000D01*
X-14437000Y-6412000D01*
X-14338000Y-6293000D01*
X-14274000Y-6237000D01*
X-14219000Y-6188000D01*
X-14112000Y-6121000D01*
X-14091000Y-6108000D01*
X-13948000Y-6045000D01*
X-13798000Y-6007000D01*
X-13646000Y-5992000D01*
X-13644000Y-5992000D01*
X-13486000Y-6000000D01*
X-13335000Y-6034000D01*
X-13196000Y-6086000D01*
X-13193000Y-6087000D01*
X-13057000Y-6166000D01*
X-13047000Y-6174000D01*
X-12936000Y-6262000D01*
X-12922000Y-6277000D01*
X-12872000Y-6333000D01*
X-12831000Y-6379000D01*
X-12746000Y-6506000D01*
X-12681000Y-6649000D01*
X-12639000Y-6802000D01*
X-12630000Y-6892000D01*
X-12622000Y-6968000D01*
X-12622000Y-10261000D01*
X-2735000Y-20149000D01*
X-2742000Y-20065000D01*
X-2743000Y-20060000D01*
X-2755000Y-19902000D01*
X-2744000Y-19749000D01*
X-2743000Y-19746000D01*
X-2712000Y-19605000D01*
X-2711000Y-19601000D01*
X-2710000Y-19599000D01*
X-2651000Y-19453000D01*
X-2642000Y-19438000D01*
X-2591000Y-19354000D01*
X-2569000Y-19317000D01*
X-2475000Y-19208000D01*
X-2459000Y-19189000D01*
X-1098000Y-17898000D01*
X-12089000Y-6906000D01*
X-12101000Y-6895000D01*
X-12103000Y-6892000D01*
X-12132000Y-6863000D01*
X-12180000Y-6808000D01*
X-12205000Y-6779000D01*
X-12218000Y-6763000D01*
X-12254000Y-6705000D01*
X-12285000Y-6658000D01*
X-12287000Y-6655000D01*
X-12290000Y-6648000D01*
X-12302000Y-6628000D01*
X-12337000Y-6545000D01*
X-12348000Y-6520000D01*
X-12352000Y-6512000D01*
X-12353000Y-6508000D01*
X-12354000Y-6505000D01*
X-12364000Y-6482000D01*
X-12384000Y-6399000D01*
X-12395000Y-6358000D01*
X-12395000Y-6354000D01*
X-12400000Y-6331000D01*
X-12406000Y-6263000D01*
X-12414000Y-6173000D01*
X-13373000Y-5213000D01*
X-15661000Y-5213000D01*
X-15680000Y-5215000D01*
X-15684000Y-5216000D01*
X-15685000Y-5216000D01*
X-15697000Y-5215000D01*
X-15735000Y-5213000D01*
X-15737000Y-5213000D01*
X-15754000Y-5212000D01*
X-15843000Y-5206000D01*
X-15849000Y-5205000D01*
X-15854000Y-5204000D01*
X-15866000Y-5202000D01*
X-15873000Y-5202000D01*
X-15878000Y-5201000D01*
X-15877000Y-5201000D01*
X-15928000Y-5190000D01*
X-15987000Y-5178000D01*
X-16008000Y-5171000D01*
X-16020000Y-5168000D01*
X-16022000Y-5167000D01*
X-16023000Y-5167000D01*
X-16090000Y-5140000D01*
X-16121000Y-5128000D01*
X-16139000Y-5122000D01*
X-16143000Y-5119000D01*
X-16148000Y-5116000D01*
X-16166000Y-5109000D01*
X-16228000Y-5071000D01*
X-16276000Y-5044000D01*
X-16279000Y-5041000D01*
X-16290000Y-5034000D01*
X-16295000Y-5031000D01*
X-16418000Y-4929000D01*
X-16429000Y-4916000D01*
X-17075000Y-4271000D01*
X-17082000Y-4265000D01*
X-17090000Y-4256000D01*
X-17121000Y-4225000D01*
X-17167000Y-4170000D01*
X-17183000Y-4153000D01*
X-17187000Y-4147000D01*
X-17206000Y-4125000D01*
X-17240000Y-4070000D01*
X-17270000Y-4025000D01*
X-17276000Y-4011000D01*
X-17286000Y-3995000D01*
X-17328000Y-3897000D01*
X-17338000Y-3874000D01*
X-17350000Y-3846000D01*
X-17362000Y-3792000D01*
X-17371000Y-3753000D01*
X-17379000Y-3725000D01*
X-17380000Y-3718000D01*
X-17385000Y-3696000D01*
X-17398000Y-3544000D01*
X-28000000Y-3544000D01*
X-28000000Y-15020000D01*
X-13549000Y-15020000D01*
X-13549000Y-14980000D01*
X-13539000Y-14943000D01*
X-13519000Y-14909000D01*
X-13491000Y-14881000D01*
X-13457000Y-14861000D01*
X-13420000Y-14851000D01*
X-13380000Y-14851000D01*
X-13343000Y-14861000D01*
X-13309000Y-14881000D01*
X-13281000Y-14909000D01*
X-13261000Y-14943000D01*
X-13251000Y-14980000D01*
X-13251000Y-15020000D01*
X-13261000Y-15057000D01*
X-13281000Y-15091000D01*
X-13309000Y-15119000D01*
X-13343000Y-15139000D01*
X-13380000Y-15149000D01*
X-13420000Y-15149000D01*
X-13457000Y-15139000D01*
X-13491000Y-15119000D01*
X-13519000Y-15091000D01*
X-13539000Y-15057000D01*
X-13549000Y-15020000D01*
X-28000000Y-15020000D01*
X-28000000Y-25978000D01*
X-17548000Y-25978000D01*
X-17548000Y-25111000D01*
X-17325000Y-24281000D01*
X-16893000Y-23533000D01*
X-16283000Y-22923000D01*
X-15535000Y-22491000D01*
X-14705000Y-22269000D01*
X-13838000Y-22269000D01*
X-13008000Y-22491000D01*
X-12260000Y-22923000D01*
X-11650000Y-23533000D01*
X-11218000Y-24281000D01*
X-10996000Y-25111000D01*
X-10996000Y-25978000D01*
X-11218000Y-26808000D01*
X-11650000Y-27556000D01*
X-12260000Y-28166000D01*
X-13007000Y-28598000D01*
X-13009000Y-28599000D01*
X-13010000Y-28599000D01*
X-13838000Y-28821000D01*
X-14705000Y-28821000D01*
X-15533000Y-28599000D01*
X-15534000Y-28599000D01*
X-15536000Y-28598000D01*
X-16283000Y-28166000D01*
X-16893000Y-27556000D01*
X-17325000Y-26808000D01*
X-17548000Y-25978000D01*
X-28000000Y-25978000D01*
X-28000000Y-29600000D01*
X29200000Y-29600000D01*
X29200000Y29600000D01*
G37*
%TD.AperFunction*%
%TD*%
M02*
